<?xml version="1.0" encoding="UTF-8"?>
<svg width="40px" height="34px" viewBox="0 0 40 34" version="1.1" xmlns="http://www.w3.org/2000/svg" xmlns:xlink="http://www.w3.org/1999/xlink">
    <!-- Generator: Sketch 47.1 (45422) - http://www.bohemiancoding.com/sketch -->
    <title>defrost-icon</title>
    <desc>Created with Sketch.</desc>
    <defs>
        <polygon id="path-1" points="0 0 50 0 50 50 0 50"></polygon>
    </defs>
    <g id="Page-1" stroke="none" stroke-width="1" fill="none" fill-rule="evenodd">
        <g id="tsl-main-control-bar" transform="translate(-314.000000, -51.000000)">
            <g id="defrost-icon" transform="translate(310.000000, 43.000000)">
                <mask id="mask-2" fill="white">
                    <use xlink:href="#path-1"></use>
                </mask>
                <g id="Shape"></g>
                <g id="defrost" mask="url(#mask-2)">
                    <g transform="translate(4.000000, 8.000000)" id="Union">
                        <g>
                            <g id="path17_fill-link" fill-rule="nonzero" fill="#007BE4">
                                <path d="M5.03955,6.27699 L2.64697,7.73256 L9.52371,21.8045 L10.4144,21.8045 L10.4144,20.3848 C10.4243,19.7035 10.6103,19.0128 10.8109,18.4679 C10.8885,18.2584 10.9729,18.0502 11.0555,17.8463 L11.0573,17.8419 C11.1533,17.605 11.2468,17.3739 11.3245,17.1537 L9.59717,17.1537 L12.4346,11.3474 L15.2721,17.1537 L13.4125,17.1537 C13.3246,17.6622 13.1287,18.1383 12.9332,18.6133 C12.8531,18.8079 12.7731,19.0023 12.7007,19.1986 C12.5268,19.6671 12.4247,19.9943 12.4346,20.3834 L12.4346,21.8045 L18.4944,21.8045 L18.4944,20.406 C18.5044,19.7247 18.6904,19.0341 18.891,18.4892 C18.9686,18.2797 19.0529,18.0714 19.1356,17.8676 L19.1374,17.8632 C19.2333,17.6262 19.3269,17.3952 19.4045,17.1749 L17.6772,17.1749 L20.5147,11.3687 L23.3521,17.1749 L21.4926,17.1749 C21.4047,17.6835 21.2087,18.1596 21.0133,18.6345 C20.9332,18.8291 20.8532,19.0236 20.7807,19.2199 C20.6069,19.6884 20.5048,20.0155 20.5147,20.4047 L20.5147,21.8045 L26.0701,21.8045 L26.0701,20.3848 C26.0801,19.7035 26.2661,19.0128 26.4667,18.4679 C26.5443,18.2584 26.6286,18.0502 26.7113,17.8463 L26.713,17.8419 C26.809,17.605 26.9026,17.3739 26.9802,17.1537 L25.2529,17.1537 L28.0904,11.3474 L30.9278,17.1537 L29.0683,17.1537 C28.9804,17.6622 28.7844,18.1383 28.589,18.6133 C28.5089,18.8079 28.4289,19.0023 28.3564,19.1986 C28.1826,19.6671 28.0804,19.9943 28.0904,20.3834 L28.0904,21.8045 L30.9839,21.8045 L37.3962,7.74574 L34.982,6.27699 C25.7551,0.663712 14.2664,0.663712 5.03955,6.27699 Z M36.0145,4.50038 L39.2143,6.44691 L39.9999,6.92494 L39.6134,7.77235 L32.5425,23.275 L32.2705,23.8715 L31.6272,23.8715 L30.1786,23.8715 C30.4237,24.6038 30.6166,25.4966 30.6166,26.4555 C30.6154,27.5404 30.4696,28.989 30.0647,30.3194 C29.6486,31.6675 28.9245,33.0507 27.6873,34.0001 L26.4751,32.3465 C27.2581,31.7456 27.7967,30.8035 28.1382,29.6969 C28.4908,28.5728 28.5976,27.4375 28.5963,26.4555 C28.5963,25.4131 28.2729,24.4552 28.0024,23.8715 L22.098,23.8715 C22.3431,24.6038 22.536,25.4966 22.536,26.4555 C22.5348,27.5404 22.3891,28.989 21.9841,30.3194 C21.568,31.6675 20.844,33.0507 19.6067,34.0001 L18.3945,32.3465 C19.1775,31.7456 19.7161,30.8035 20.0576,29.6969 C20.4102,28.5728 20.5171,27.4375 20.5158,26.4555 C20.5158,25.4131 20.1924,24.4552 19.9218,23.8715 L13.5116,23.8715 C13.7567,24.6038 13.9496,25.4966 13.9496,26.4555 C13.9484,27.5404 13.8026,28.989 13.3977,30.3194 C12.9816,31.6675 12.2575,33.0507 11.0203,34.0001 L9.80811,32.3465 C10.5911,31.7456 11.1297,30.8035 11.4712,29.6969 C11.8238,28.5728 11.9306,27.4375 11.9294,26.4555 C11.9294,25.4131 11.6059,24.4552 11.3354,23.8715 L8.89941,23.8715 L8.27512,23.8715 L7.99594,23.3002 L0.420013,7.7975 L0,6.938 L0.80722,6.44691 L3.83517,4.60487 L4.00705,4.50026 C13.8703,-1.50011 26.1512,-1.50011 36.0145,4.50038 Z" id="path17_fill"></path>
                            </g>
                        </g>
                    </g>
                </g>
            </g>
        </g>
    </g>
</svg>