<?xml version="1.0" encoding="UTF-8"?>
<svg width="29px" height="37px" viewBox="0 0 29 37" version="1.1" xmlns="http://www.w3.org/2000/svg" xmlns:xlink="http://www.w3.org/1999/xlink">
    <!-- Generator: Sketch 47.1 (45422) - http://www.bohemiancoding.com/sketch -->
    <title>seat-left-icon</title>
    <desc>Created with Sketch.</desc>
    <defs>
        <polygon id="path-1" points="0 0 48 0 48 48 0 48"></polygon>
    </defs>
    <g id="Page-1" stroke="none" stroke-width="1" fill="none" fill-rule="evenodd">
        <g id="tsl-main-control-bar" transform="translate(-619.000000, -49.000000)">
            <g id="seat-left-icon" transform="translate(610.000000, 43.000000)">
                <mask id="mask-2" fill="white">
                    <use xlink:href="#path-1"></use>
                </mask>
                <g id="Shape"></g>
                <g id="seat" mask="url(#mask-2)">
                    <g transform="translate(9.000000, 6.000000)" id="Vector-36">
                        <g>
                            <g id="path8_fill-link" transform="translate(0.799000, 0.000000)" fill-rule="nonzero" fill="#FFFFFF">
                                <path d="M3.83807,1.13186e-32 L3.83807,0 L5.14071,0 L5.14071,5.55292e-33 C5.49926,3.24739e-17 5.84312,0.142432 6.09665,0.395963 C6.09665,0.395964 6.09665,0.395965 6.09665,0.395965 C7.02438,1.32369 7.1522,2.78355 6.39982,3.85838 C6.39982,3.85839 6.39982,3.85839 6.39982,3.85839 L6.16549,4.19314 C6.16549,4.19314 6.16549,4.19314 6.16549,4.19314 C4.96003,5.91522 4.82381,8.16836 5.81302,10.0231 C5.81302,10.0231 5.81302,10.0231 5.81302,10.0231 L9.45302,16.8481 C9.45302,16.8481 9.45302,16.8481 9.45302,16.8481 C11.1243,19.9819 10.7965,23.8054 8.61601,26.6089 L5.83894,30.1794 C5.58162,30.5102 5.05589,30.3967 4.95807,29.9891 L0.384082,10.9308 C0.384082,10.9308 0.384082,10.9308 0.384082,10.9308 C-0.380241,7.74612 0.00375343,4.39387 1.46843,1.46452 C1.46843,1.46452 1.46843,1.46452 1.46843,1.46452 C1.91721,0.566965 2.83457,9.25004e-17 3.83807,1.13186e-32 Z" id="path8_fill"></path>
                            </g>
                            <g id="path9_fill-link" transform="translate(6.799000, 28.000000)" fill-rule="nonzero" fill="#FFFFFF">
                                <path d="M9.4439,0 L18.2007,0 C20.4098,0 22.2007,1.7909 22.2007,4 L22.2007,5 C22.2007,7.2091 20.4098,9 18.2007,9 L7.1002,9 C5.2437,9 3.46319,8.2625 2.15044,6.9498 C2.15044,6.9497 2.15044,6.9497 2.15043,6.9497 L1.0354,5.8347 C1.0354,5.8347 1.0354,5.8347 1.0354,5.8347 C0.59845,5.3978 0.65843,4.673 1.16127,4.3139 C1.16127,4.3139 1.16127,4.3139 1.16127,4.3139 L5.3753,1.3039 C6.5625,0.4559 7.985,0 9.4439,0 Z" id="path9_fill"></path>
                            </g>
                        </g>
                    </g>
                </g>
            </g>
        </g>
    </g>
</svg>