<svg width="88" height="182" viewBox="0 0 88 182" version="1.1" xmlns="http://www.w3.org/2000/svg" xmlns:xlink="http://www.w3.org/1999/xlink">
<title> light</title>
<desc>Created using Figma</desc>
<g id="Canvas" transform="translate(7737 -1494)">
<g id="map zoom / light">
<g id="map zoom / light">
<g id="Rectangle" filter="url(#filter0_d)">
<use xlink:href="#path0_fill" transform="translate(-7733 1494)" fill="#F0F0F0"/>
</g>
<clipPath id="clip-0" clip-rule="evenodd">
<path d="M -7718 1509L -7670 1509L -7670 1557L -7718 1557L -7718 1509Z" fill="#FFFFFF"/>
</clipPath>
<g id="plus" clip-path="url(#clip-0)">
<g id="Union">
<use xlink:href="#path1_fill" transform="translate(-7704 1523)" fill="#000000" fill-opacity="0.6"/>
</g>
</g>
<clipPath id="clip-1" clip-rule="evenodd">
<path d="M -7718 1603L -7670 1603L -7670 1651L -7718 1651L -7718 1603Z" fill="#FFFFFF"/>
</clipPath>
<g id="minus" clip-path="url(#clip-1)">
<g id="Rectangle 25">
<use xlink:href="#path2_fill" transform="matrix(6.12323e-17 -1 1 6.12323e-17 -7704 1628.5)" fill="#000000" fill-opacity="0.6"/>
</g>
</g>
</g>
</g>
</g>
<defs>
<filter id="filter0_d" filterUnits="userSpaceOnUse" x="-7737" y="1494" width="88" height="182" color-interpolation-filters="sRGB">
<feFlood flood-opacity="0" result="BackgroundImageFix"/>
<feColorMatrix in="SourceAlpha" type="matrix" values="0 0 0 0 0 0 0 0 0 0 0 0 0 0 0 0 0 0 255 0"/>
<feOffset dx="0" dy="4"/>
<feGaussianBlur stdDeviation="2"/>
<feColorMatrix type="matrix" values="0 0 0 0 0 0 0 0 0 0 0 0 0 0 0 0 0 0 0.25 0"/>
<feBlend mode="normal" in2="BackgroundImageFix" result="effect1_dropShadow"/>
<feBlend mode="normal" in="SourceGraphic" in2="effect1_dropShadow" result="shape"/>
</filter>
<path id="path0_fill" d="M 0 40C 0 17.9086 17.9086 0 40 0C 62.0914 0 80 17.9086 80 40L 80 134C 80 156.091 62.0914 174 40 174C 17.9086 174 0 156.091 0 134L 0 40Z"/>
<path id="path1_fill" fill-rule="evenodd" d="M 9.5 0C 8.94775 0 8.5 0.447754 8.5 1L 8.5 8.5L 1 8.5C 0.447754 8.5 0 8.94775 0 9.5L 0 10.5C 0 11.0522 0.447754 11.5 1 11.5L 8.5 11.5L 8.5 19C 8.5 19.5522 8.94775 20 9.5 20L 10.5 20C 11.0522 20 11.5 19.5522 11.5 19L 11.5 11.5L 19 11.5C 19.5522 11.5 20 11.0522 20 10.5L 20 9.5C 20 8.94775 19.5522 8.5 19 8.5L 11.5 8.5L 11.5 1C 11.5 0.447754 11.0522 0 10.5 0L 9.5 0Z"/>
<path id="path2_fill" d="M 0 1C 0 0.447715 0.447715 0 1 0L 2 0C 2.55228 0 3 0.447715 3 1L 3 19C 3 19.5523 2.55228 20 2 20L 1 20C 0.447715 20 0 19.5523 0 19L 0 1Z"/>
</defs>
</svg>
