<svg width="580" height="600" viewBox="0 0 580 600" version="1.1" xmlns="http://www.w3.org/2000/svg" xmlns:xlink="http://www.w3.org/1999/xlink">
<title> light</title>
<desc>Created using Figma</desc>
<g id="Canvas" transform="translate(7520 -7627)">
<g id="parked / light">
<clipPath id="clip-0" clip-rule="evenodd">
<path d="M -7520 7627L -6940 7627L -6940 8227L -7520 8227L -7520 7627Z" fill="#FFFFFF"/>
</clipPath>
<g id="parked / light" clip-path="url(#clip-0)">
<path d="M -7520 7627L -6940 7627L -6940 8227L -7520 8227L -7520 7627Z" fill="#0E0E0E"/>
<g id="Light">
<g id="background">
<use xlink:href="#path0_fill" transform="translate(-7520 7627)" fill="#F0F0F0"/>
</g>
<g id="MODEL 3">
<use xlink:href="#path1_fill" transform="translate(-7500 7637)" fill="#000000" fill-opacity="0.4"/>
</g>
<g id="headlights">
<g id="Vector 27" filter="url(#filter0_f)">
<use xlink:href="#path2_fill" transform="translate(-7336 7627)" fill="url(#paint2_linear)" fill-opacity="0.5"/>
</g>
<g id="Vector 27" filter="url(#filter1_f)">
<use xlink:href="#path2_fill" transform="matrix(-1 0 0 1 -7123 7627)" fill="url(#paint3_linear)" fill-opacity="0.5"/>
</g>
</g>
<g id="button">
<g id="Rectangle 12">
<use xlink:href="#path3_fill" transform="translate(-7305 7677)" fill="#0E0E0E"/>
<use xlink:href="#path3_fill" transform="translate(-7305 7677)" fill="#FFFFFF" fill-opacity="0.8"/>
</g>
<g id="OPEN">
<use xlink:href="#path4_fill" transform="translate(-7285 7695)"/>
</g>
</g>
<g id="button">
<g id="Rectangle 12">
<use xlink:href="#path3_fill" transform="translate(-7305 8107)" fill="#0E0E0E"/>
<use xlink:href="#path3_fill" transform="translate(-7305 8107)" fill="#FFFFFF" fill-opacity="0.8"/>
</g>
<g id="OPEN">
<use xlink:href="#path4_fill" transform="translate(-7285 8125)"/>
</g>
</g>
<g id="button">
<g id="Rectangle 12">
<use xlink:href="#path3_fill" transform="translate(-7470 8022)" fill="#0E0E0E"/>
<use xlink:href="#path3_fill" transform="translate(-7470 8022)" fill="#FFFFFF" fill-opacity="0.8"/>
</g>
</g>
<g id="model 3" filter="url(#filter2_d)">
<g id="Vector 21">
<use xlink:href="#path5_fill" transform="translate(-7303 7752)" fill="url(#paint12_linear)"/>
</g>
<g id="Vector 26">
<use xlink:href="#path6_fill" transform="translate(-7284.78 8048)" fill="#960000"/>
</g>
<g id="Vector 26">
<use xlink:href="#path6_fill" transform="matrix(-1 0 0 1 -7174.33 8048)" fill="#960000"/>
</g>
<g id="Vector 22">
<use xlink:href="#path7_fill" transform="translate(-7284.56 7766)" fill="url(#paint15_linear)"/>
</g>
<g id="Vector 22">
<use xlink:href="#path7_fill" transform="matrix(-1 0 0 1 -7173.63 7766)" fill="url(#paint16_linear)"/>
</g>
<g id="Frunk">
<g id="Vector 23">
<use xlink:href="#path8_fill" transform="translate(-7279.56 7759)" fill="url(#paint17_linear)"/>
<use xlink:href="#path9_stroke" transform="translate(-7279.56 7759)" fill="#DADADA"/>
</g>
<g id="Tesla Logo">
<g id="Tesla Logo">
<use xlink:href="#path10_fill" transform="matrix(-1 -1.22465e-16 1.22465e-16 -1 -7224.56 7775)" fill="#9E9E9E"/>
</g>
</g>
</g>
<g id="Vector 24">
<use xlink:href="#path11_fill" transform="translate(-7279.56 7826)" fill="url(#paint20_linear)"/>
</g>
<g id="Vector 25">
<use xlink:href="#path12_fill" transform="translate(-7286.6 7864.5)" fill="#444444"/>
</g>
<g id="Vector 25">
<use xlink:href="#path12_fill" transform="matrix(-1 0 0 1 -7172.01 7864.5)" fill="#444444"/>
</g>
</g>
<clipPath id="clip-1" clip-rule="evenodd">
<path d="M -7419 8028L -7371 8028L -7371 8076L -7419 8076L -7419 8028Z" fill="#FFFFFF"/>
</clipPath>
<g id="power" clip-path="url(#clip-1)">
<g id="scale">
<use xlink:href="#path13_fill" transform="translate(-7404 8033)"/>
</g>
</g>
</g>
</g>
</g>
</g>
<defs>
<filter id="filter0_f" filterUnits="userSpaceOnUse" x="-7361" y="7602" width="162" height="220" color-interpolation-filters="sRGB">
<feFlood flood-opacity="0" result="BackgroundImageFix"/>
<feBlend mode="normal" in="SourceGraphic" in2="BackgroundImageFix" result="shape"/>
<feGaussianBlur stdDeviation="12.5" result="effect1_foregroundBlur"/>
</filter>
<filter id="filter1_f" filterUnits="userSpaceOnUse" x="-7260" y="7602" width="162" height="220" color-interpolation-filters="sRGB">
<feFlood flood-opacity="0" result="BackgroundImageFix"/>
<feBlend mode="normal" in="SourceGraphic" in2="BackgroundImageFix" result="shape"/>
<feGaussianBlur stdDeviation="12.5" result="effect1_foregroundBlur"/>
</filter>
<filter id="filter2_d" filterUnits="userSpaceOnUse" x="-7313" y="7744" width="167" height="355" color-interpolation-filters="sRGB">
<feFlood flood-opacity="0" result="BackgroundImageFix"/>
<feColorMatrix in="SourceAlpha" type="matrix" values="0 0 0 0 0 0 0 0 0 0 0 0 0 0 0 0 0 0 255 0"/>
<feOffset dx="0" dy="2"/>
<feGaussianBlur stdDeviation="5"/>
<feColorMatrix type="matrix" values="0 0 0 0 0 0 0 0 0 0 0 0 0 0 0 0 0 0 0.25 0"/>
<feBlend mode="normal" in2="BackgroundImageFix" result="effect1_dropShadow"/>
<feBlend mode="normal" in="SourceGraphic" in2="effect1_dropShadow" result="shape"/>
</filter>
<linearGradient id="paint2_linear" x1="0" y1="0" x2="1" y2="0" gradientUnits="userSpaceOnUse" gradientTransform="matrix(6.85802e-15 170 -112 1.04095e-14 112 -1.04095e-14)">
<stop offset="0" stop-color="#FFFFFF" stop-opacity="0"/>
<stop offset="1" stop-color="#FFFFFF"/>
</linearGradient>
<linearGradient id="paint3_linear" x1="0" y1="0" x2="1" y2="0" gradientUnits="userSpaceOnUse" gradientTransform="matrix(6.85802e-15 170 -112 1.04095e-14 112 -1.04095e-14)">
<stop offset="0" stop-color="#FFFFFF" stop-opacity="0"/>
<stop offset="1" stop-color="#FFFFFF"/>
</linearGradient>
<linearGradient id="paint12_linear" x1="0" y1="0" x2="1" y2="0" gradientUnits="userSpaceOnUse" gradientTransform="matrix(146 -0.999998 0.439771 64.2067 0.22445 97.3966)">
<stop offset="0" stop-color="#FFFFFF"/>
<stop offset="0.486188" stop-color="#DEDEDE"/>
<stop offset="0.994475" stop-color="#DEDEDE"/>
</linearGradient>
<linearGradient id="paint15_linear" x1="0" y1="0" x2="1" y2="0" gradientUnits="userSpaceOnUse" gradientTransform="matrix(9 16.5 -12.7352 6.94649 19.2944 -1.47325)">
<stop offset="0" stop-color="#6E6E6E"/>
<stop offset="0.342541" stop-color="#FFFFFF"/>
<stop offset="0.480663" stop-color="#C9C9C9"/>
<stop offset="0.889503" stop-color="#5D5D5D"/>
</linearGradient>
<linearGradient id="paint16_linear" x1="0" y1="0" x2="1" y2="0" gradientUnits="userSpaceOnUse" gradientTransform="matrix(9 16.5 -12.7352 6.94649 19.2944 -1.47325)">
<stop offset="0" stop-color="#6E6E6E"/>
<stop offset="0.342541" stop-color="#FFFFFF"/>
<stop offset="0.480663" stop-color="#C9C9C9"/>
<stop offset="0.889503" stop-color="#5D5D5D"/>
</linearGradient>
<linearGradient id="paint17_linear" x1="0" y1="0" x2="1" y2="0" gradientUnits="userSpaceOnUse" gradientTransform="matrix(-82.5 0.500002 -0.602124 -99.3497 91.3011 89.2149)">
<stop offset="0" stop-color="#DADADA"/>
<stop offset="0.331492" stop-color="#F0F0F0"/>
<stop offset="1" stop-color="#FFFFFF"/>
</linearGradient>
<linearGradient id="paint20_linear" x1="0" y1="0" x2="1" y2="0" gradientUnits="userSpaceOnUse" gradientTransform="matrix(100 -4.18286e-13 -2.65349e-13 42.4628 1.38226e-13 -21.2314)">
<stop offset="0" stop-color="#262626"/>
<stop offset="0.778317" stop-color="#3A3A3A"/>
<stop offset="0.823126" stop-color="#615C5C"/>
<stop offset="0.864312" stop-color="#282828"/>
<stop offset="1" stop-color="#484848"/>
</linearGradient>
<path id="path0_fill" d="M 0 0L 580 0L 580 600L 0 600L 0 0Z"/>
<path id="path1_fill" d="M 1.72 6L 4.78 6L 9.42 15.02L 14.02 6L 17.08 6L 17.08 20L 14.62 20L 14.62 9.96L 10.26 18.56L 8.54 18.56L 4.16 9.96L 4.16 20L 1.72 20L 1.72 6ZM 26.8886 5.82C 28.2753 5.82 29.5353 6.13333 30.6686 6.76C 31.8153 7.38667 32.7153 8.24667 33.3686 9.34C 34.0219 10.4333 34.3486 11.6467 34.3486 12.98C 34.3486 14.3133 34.0219 15.5333 33.3686 16.64C 32.7153 17.7333 31.8153 18.6 30.6686 19.24C 29.5353 19.88 28.2753 20.2 26.8886 20.2C 25.5019 20.2 24.2353 19.88 23.0886 19.24C 21.9553 18.6 21.0619 17.7333 20.4086 16.64C 19.7553 15.5333 19.4286 14.3133 19.4286 12.98C 19.4286 11.6467 19.7553 10.4333 20.4086 9.34C 21.0619 8.24667 21.9553 7.38667 23.0886 6.76C 24.2353 6.13333 25.5019 5.82 26.8886 5.82ZM 26.9286 8.22C 26.0753 8.22 25.2819 8.43333 24.5486 8.86C 23.8153 9.27333 23.2353 9.84667 22.8086 10.58C 22.3819 11.3 22.1686 12.1 22.1686 12.98C 22.1686 13.86 22.3819 14.6667 22.8086 15.4C 23.2486 16.1333 23.8286 16.7133 24.5486 17.14C 25.2819 17.5667 26.0753 17.78 26.9286 17.78C 27.7686 17.78 28.5486 17.5667 29.2686 17.14C 29.9886 16.7133 30.5553 16.1333 30.9686 15.4C 31.3953 14.6667 31.6086 13.86 31.6086 12.98C 31.6086 12.1 31.3953 11.3 30.9686 10.58C 30.5553 9.84667 29.9886 9.27333 29.2686 8.86C 28.5486 8.43333 27.7686 8.22 26.9286 8.22ZM 42.5205 6C 43.9205 6 45.1738 6.3 46.2805 6.9C 47.3871 7.48667 48.2538 8.31333 48.8805 9.38C 49.5071 10.4467 49.8205 11.6533 49.8205 13C 49.8205 14.3467 49.5005 15.5533 48.8605 16.62C 48.2338 17.6733 47.3605 18.5 46.2405 19.1C 45.1205 19.7 43.8471 20 42.4205 20L 36.7005 20L 36.7005 6L 42.5205 6ZM 42.5805 17.64C 43.4338 17.64 44.2005 17.4467 44.8805 17.06C 45.5738 16.66 46.1138 16.1133 46.5005 15.42C 46.8871 14.7133 47.0805 13.9133 47.0805 13.02C 47.0805 12.1267 46.8805 11.3267 46.4805 10.62C 46.0805 9.9 45.5271 9.34667 44.8205 8.96C 44.1271 8.56 43.3471 8.36 42.4805 8.36L 39.3805 8.36L 39.3805 17.64L 42.5805 17.64ZM 52.1692 6L 62.4292 6L 62.4292 8.34L 54.8492 8.34L 54.8492 11.8L 61.6492 11.8L 61.6492 14.14L 54.8492 14.14L 54.8492 17.66L 62.6692 17.66L 62.6692 20L 52.1692 20L 52.1692 6ZM 65.3919 6L 68.0719 6L 68.0719 17.58L 74.1119 17.58L 74.1119 20L 65.3919 20L 65.3919 6ZM 86.1145 11.84C 87.4079 11.96 88.4345 12.3533 89.1945 13.02C 89.9679 13.6867 90.3545 14.56 90.3545 15.64C 90.3545 16.52 90.1279 17.3 89.6745 17.98C 89.2212 18.6467 88.5745 19.1733 87.7345 19.56C 86.8945 19.9333 85.9145 20.12 84.7945 20.12C 83.8479 20.12 82.9079 19.98 81.9745 19.7C 81.0545 19.4067 80.2679 19.02 79.6145 18.54L 80.6745 16.46C 81.2345 16.9267 81.8545 17.2867 82.5345 17.54C 83.2145 17.78 83.9079 17.9 84.6145 17.9C 85.5879 17.9 86.3479 17.7 86.8945 17.3C 87.4545 16.9 87.7345 16.36 87.7345 15.68C 87.7345 14.9867 87.4612 14.46 86.9145 14.1C 86.3679 13.7267 85.5879 13.54 84.5745 13.54L 82.4545 13.54L 82.4545 11.92L 86.2145 8.28L 80.3145 8.28L 80.2945 6L 89.6545 6L 89.6545 7.66L 85.3745 11.76L 86.1145 11.84Z"/>
<path id="path2_fill" d="M 62.4262 170L 0 0L 112 0L 62.4262 170Z"/>
<path id="path3_fill" d="M 0 30C 0 13.4315 13.4315 0 30 0L 120 0C 136.569 0 150 13.4315 150 30C 150 46.5685 136.569 60 120 60L 30 60C 13.4315 60 0 46.5685 0 30Z"/>
<path id="path4_fill" d="M 33.7343 4.82C 35.121 4.82 36.381 5.13333 37.5143 5.76C 38.661 6.38667 39.561 7.24667 40.2143 8.34C 40.8676 9.43333 41.1943 10.6467 41.1943 11.98C 41.1943 13.3133 40.8676 14.5333 40.2143 15.64C 39.561 16.7333 38.661 17.6 37.5143 18.24C 36.381 18.88 35.121 19.2 33.7343 19.2C 32.3476 19.2 31.081 18.88 29.9343 18.24C 28.801 17.6 27.9076 16.7333 27.2543 15.64C 26.601 14.5333 26.2743 13.3133 26.2743 11.98C 26.2743 10.6467 26.601 9.43333 27.2543 8.34C 27.9076 7.24667 28.801 6.38667 29.9343 5.76C 31.081 5.13333 32.3476 4.82 33.7343 4.82ZM 33.7743 7.22C 32.921 7.22 32.1276 7.43333 31.3943 7.86C 30.661 8.27333 30.081 8.84667 29.6543 9.58C 29.2276 10.3 29.0143 11.1 29.0143 11.98C 29.0143 12.86 29.2276 13.6667 29.6543 14.4C 30.0943 15.1333 30.6743 15.7133 31.3943 16.14C 32.1276 16.5667 32.921 16.78 33.7743 16.78C 34.6143 16.78 35.3943 16.5667 36.1143 16.14C 36.8343 15.7133 37.401 15.1333 37.8143 14.4C 38.241 13.6667 38.4543 12.86 38.4543 11.98C 38.4543 11.1 38.241 10.3 37.8143 9.58C 37.401 8.84667 36.8343 8.27333 36.1143 7.86C 35.3943 7.43333 34.6143 7.22 33.7743 7.22ZM 49.2862 5C 51.0462 5 52.4062 5.42 53.3662 6.26C 54.3395 7.1 54.8262 8.28667 54.8262 9.82C 54.8262 11.42 54.3395 12.6667 53.3662 13.56C 52.4062 14.44 51.0462 14.88 49.2862 14.88L 46.2262 14.88L 46.2262 19L 43.5462 19L 43.5462 5L 49.2862 5ZM 49.1462 12.52C 50.1595 12.52 50.9328 12.3 51.4662 11.86C 52.0128 11.42 52.2862 10.7667 52.2862 9.9C 52.2862 9.04667 52.0128 8.40667 51.4662 7.98C 50.9328 7.55333 50.1595 7.34 49.1462 7.34L 46.2262 7.34L 46.2262 12.52L 49.1462 12.52ZM 57.0423 5L 67.3023 5L 67.3023 7.34L 59.7223 7.34L 59.7223 10.8L 66.5223 10.8L 66.5223 13.14L 59.7223 13.14L 59.7223 16.66L 67.5423 16.66L 67.5423 19L 57.0423 19L 57.0423 5ZM 80.0249 5L 82.6249 5L 82.6249 19L 80.0849 19L 72.8849 9.36L 72.8849 19L 70.2649 19L 70.2649 5L 72.8049 5L 80.0249 14.66L 80.0249 5Z"/>
<path id="path5_fill" d="M 10.4444 30C 10.4444 30 26.9443 0 73.4444 0C 119.945 0 136.444 30 136.444 30C 136.444 30 138.444 41 138.444 65C 138.444 89 135.444 95.5 135.444 98L 135.444 112C 135.444 112 145.444 116 146.444 121C 147.444 126 146.444 127.5 146.444 127.5L 135.444 121C 135.444 121 137.444 161 137.444 183C 137.444 205 136.444 234.5 136.444 234.5C 136.444 234.5 138.444 236.5 138.444 240.5L 138.444 289.5C 138.444 293 135.654 298.462 132.444 304C 129.853 312.422 127.924 315.595 123.944 319.5C 106.754 332.019 96.6497 334.192 73.4444 334C 50.2392 333.808 40.1348 332.019 22.9444 319.5C 18.9649 315.595 17.0361 312.422 14.4444 304C 11.235 298.462 8.44444 293 8.44444 289.5L 8.44444 240.5C 8.44444 236.5 10.4444 234.5 10.4444 234.5C 10.4444 234.5 9.44444 205 9.44444 183C 9.44444 161 11.4444 121 11.4444 121L 2.07526 126.536C 1.16061 127.077 0.0995696 126.727 0.0253269 125.668C -0.0457575 124.653 0.0144375 123.15 0.444444 121C 1.44444 116 11.4444 112 11.4444 112L 11.4444 98C 11.4444 95.5 8.44434 89 8.44444 65C 8.44455 41 10.4444 30 10.4444 30Z"/>
<path id="path6_fill" d="M 3.22388 20C -1.15116 15 -0.276112 5 1.22387 0C 1.89054 3.16667 2.22389 11 5.72392 16.5C 8.6051 21.0275 22.2239 29 28.2239 32C 21.7239 30 8.72389 26.2857 3.22388 20Z"/>
<path id="path7_fill" d="M 0.926794 16C 2.92672 9.5 13.9268 0 23.9268 0C 18.4268 5.5 14.9268 10 10.9268 18C 6.92675 26 5.42675 31 2.92679 31C 0.426841 31 -1.07313 22.5 0.926794 16Z"/>
<path id="path8_fill" d="M 24 7.04C 12.5 15.04 0 66.5399 0 83.04L 100 83.04C 100 66.5399 87.5 15.04 76 7.04C 64.5 -0.96 50 0.04 50 0.04C 50 0.04 35.5 -0.96 24 7.04Z"/>
<path id="path9_stroke" d="M 0 83.04L -0.5 83.04L -0.5 83.54L 0 83.54L 0 83.04ZM 50 0.04L 49.9656 0.538815L 50 0.541188L 50.0344 0.538815L 50 0.04ZM 100 83.04L 100 83.54L 100.5 83.54L 100.5 83.04L 100 83.04ZM 0.5 83.04C 0.5 74.8616 3.609 57.916 8.16819 41.9901C 10.4457 34.0337 13.0744 26.3643 15.8546 20.1745C 18.6451 13.9602 21.5361 9.36308 24.2855 7.45045L 23.7145 6.62955C 20.7139 8.71692 17.7299 13.5573 14.9423 19.7649C 12.1443 25.9969 9.49176 33.7338 7.20681 41.7149C 2.641 57.6639 -0.5 74.7183 -0.5 83.04L 0.5 83.04ZM 24.2855 7.45045C 29.9609 3.49335 36.3518 1.77953 41.3858 1.0346C 43.8948 0.662387 46.0351 0.539622 47.5648 0.508647C 48.3261 0.493121 48.9254 0.500834 49.3405 0.512461C 49.5464 0.518207 49.7025 0.524828 49.8097 0.530117C 49.8626 0.532717 49.9015 0.534899 49.9285 0.536498C 49.9415 0.537274 49.9508 0.537854 49.9574 0.538279C 49.9605 0.538478 49.9626 0.538613 49.9641 0.538717C 49.9648 0.538762 49.9652 0.538787 49.9655 0.53881C 49.9656 0.538819 49.9657 0.53882 49.9657 0.538824C 49.9657 0.538821 49.9656 0.538815 50 0.04C 50.0344 -0.458815 50.0342 -0.458829 50.0339 -0.458847C 50.0338 -0.458858 50.0335 -0.458879 50.0331 -0.458901C 50.0326 -0.458937 50.0317 -0.459002 50.0306 -0.459074C 50.0286 -0.459204 50.0254 -0.459417 50.0215 -0.459668C 50.0141 -0.460143 50.0024 -0.460875 49.9877 -0.461747C 49.959 -0.463443 49.9151 -0.465901 49.859 -0.468672C 49.7482 -0.474124 49.5815 -0.481176 49.3685 -0.487148C 48.9457 -0.498959 48.3223 -0.506871 47.5445 -0.491147C 45.9962 -0.459622 43.7927 -0.332387 41.2392 0.0453983C 36.1482 0.800473 29.5391 2.58665 23.7145 6.62955L 24.2855 7.45045ZM 100.5 83.04C 100.5 74.7183 97.359 57.6639 92.7932 41.7149C 90.5082 33.7338 87.8557 25.9969 85.0577 19.7649C 82.2701 13.5573 79.2861 8.71692 76.2855 6.62955L 75.7145 7.45045C 78.4639 9.36308 81.3549 13.9602 84.1454 20.1745C 86.9256 26.3643 89.5543 34.0337 91.8318 41.9901C 96.391 57.916 99.5 74.8616 99.5 83.04L 100.5 83.04ZM 76.2855 6.62955C 70.4609 2.58665 63.8518 0.800473 58.7608 0.0453983C 56.2073 -0.332387 54.0038 -0.459622 52.4555 -0.491147C 51.6777 -0.506871 51.0543 -0.498959 50.6315 -0.487148C 50.4185 -0.481176 50.2518 -0.474124 50.141 -0.468672C 50.0849 -0.465901 50.041 -0.463443 50.0123 -0.461747C 49.9976 -0.460875 49.9859 -0.460143 49.9785 -0.459668C 49.9746 -0.459417 49.9714 -0.459204 49.9694 -0.459074C 49.9683 -0.459002 49.9674 -0.458937 49.9669 -0.458901C 49.9665 -0.458879 49.9662 -0.458858 49.9661 -0.458847C 49.9658 -0.458829 49.9656 -0.458815 50 0.04C 50.0344 0.538815 50.0343 0.538821 50.0343 0.538824C 50.0343 0.53882 50.0344 0.538819 50.0345 0.53881C 50.0348 0.538787 50.0352 0.538762 50.0359 0.538717C 50.0374 0.538613 50.0395 0.538478 50.0426 0.538279C 50.0492 0.537854 50.0585 0.537274 50.0715 0.536498C 50.0985 0.534899 50.1374 0.532717 50.1903 0.530117C 50.2975 0.524828 50.4536 0.518207 50.6595 0.512461C 51.0746 0.500834 51.6739 0.493121 52.4352 0.508647C 53.9649 0.539622 56.1052 0.662387 58.6142 1.0346C 63.6482 1.77953 70.0391 3.49335 75.7145 7.45045L 76.2855 6.62955ZM 100 82.54L 0 82.54L 0 83.54L 100 83.54L 100 82.54Z"/>
<path id="path10_fill" fill-rule="evenodd" d="M 6.39941 2.09827L 5.00049 10L 3.59033 2.09717C 2.26562 2.09802 1.8457 2.24487 1.78467 2.84436C 1.78467 2.84436 0.889648 2.5094 0.438965 1.8291C 2.19922 1.00977 3.96826 0.972778 3.96826 0.972778L 4.99805 2.2356L 6.03076 0.973022C 6.03076 0.973022 7.79932 1.00989 9.56006 1.82922C 9.10889 2.50952 8.21436 2.84448 8.21436 2.84448C 8.15381 2.24512 7.73291 2.09827 6.39941 2.09827ZM 9.71973 1.55933C 8.05225 0.829468 6.42334 0.597412 5 0.608276C 3.57666 0.597412 1.94727 0.829468 0.279785 1.55933C 0.081543 1.19775 0 0.978394 0 0.978394C 1.82275 0.25415 3.52979 0.00622559 5 0C 6.46973 0.00622559 8.17725 0.25415 10 0.978394C 10 0.978394 9.94287 1.15649 9.71973 1.55933Z"/>
<path id="path11_fill" d="M 50 0C 14 0 0 15.5 0 15.5L 0 23.5202C 0 26.1701 0.18564 28.7962 0.551548 31.4207C 2.50814 45.4544 9 93.1372 9 108C 9 125.5 15 218.5 15 218.5C 17 222.5 21.5 235.5 50 235.5C 78.5 235.5 83 222.5 85 218.5C 85 218.5 91 125.5 91 108C 91 93.1372 97.4919 45.4544 99.4485 31.4207C 99.8144 28.7962 100 26.1701 100 23.5202L 100 15.5C 100 15.5 86 0 50 0Z"/>
<path id="path12_fill" d="M 0.0432526 74.5C -0.456747 12.5 3.54325 0 3.54325 0C 3.54325 0 12.0432 27.5 13.5432 76.5C 15.0432 125.5 15.5433 169 15.5433 169C 15.5433 169 0.543253 136.5 0.0432526 74.5Z"/>
<path id="path13_fill" fill-rule="evenodd" d="M 9.24392 14.6152L 9.24392 0L 0.0779038 22C -0.19651 22.6587 0.287865 23.3848 1.00124 23.3848L 8.75661 23.3848L 8.75661 38L 17.9226 16C 18.197 15.3413 17.7127 14.6152 16.9993 14.6152L 9.24392 14.6152Z"/>
</defs>
</svg>
