<svg width="1920" height="128" viewBox="0 0 1920 128" version="1.1" xmlns="http://www.w3.org/2000/svg" xmlns:xlink="http://www.w3.org/1999/xlink">
<title> light</title>
<desc>Created using Figma</desc>
<g id="Canvas" transform="translate(6160 -3189)">
<g id="main control bar / light">
<g id="main control bar / light">
<g id="Background">
<use xlink:href="#path0_fill" transform="translate(-6160 3189)"/>
</g>
<g id="Volume">
<clipPath id="clip-0" clip-rule="evenodd">
<path d="M -4400 3231L -4450 3231L -4450 3201L -4400 3201L -4400 3231Z" fill="#FFFFFF"/>
</clipPath>
<g id="arrow" clip-path="url(#clip-0)">
<g id="Vector 37">
<use xlink:href="#path1_stroke" transform="matrix(-1 -1.22465e-16 1.22465e-16 -1 -4418 3219.5)" fill="#FFFFFF"/>
</g>
</g>
<clipPath id="clip-1" clip-rule="evenodd">
<path d="M -4450 3283L -4400 3283L -4400 3313L -4450 3313L -4450 3283Z" fill="#FFFFFF"/>
</clipPath>
<g id="arrow" clip-path="url(#clip-1)">
<g id="Vector 37">
<use xlink:href="#path1_stroke" transform="translate(-4432 3294.5)" fill="#FFFFFF"/>
</g>
</g>
<clipPath id="clip-2" clip-rule="evenodd">
<path d="M -4450 3232L -4402 3232L -4402 3280L -4450 3280L -4450 3232Z" fill="#FFFFFF"/>
</clipPath>
<g id="volume" clip-path="url(#clip-2)">
<g id="Union">
<use xlink:href="#path2_fill" transform="translate(-4450 3244)" fill="#FFFFFF"/>
</g>
<g id="Ellipse 9 (Stroke)">
<use xlink:href="#path3_fill" transform="translate(-4427 3245)" fill="#FFFFFF"/>
</g>
<g id="Ellipse 9 (Stroke)">
<use xlink:href="#path4_fill" transform="translate(-4420 3241)" fill="#FFFFFF"/>
</g>
<g id="Ellipse 9 (Stroke)">
<use xlink:href="#path5_fill" transform="translate(-4411.75 3235)" fill="#FFFFFF" fill-opacity="0.4"/>
</g>
</g>
</g>
<clipPath id="clip-3" clip-rule="evenodd">
<path d="M -4600 3232L -4552 3232L -4552 3280L -4600 3280L -4600 3232Z" fill="#FFFFFF"/>
</clipPath>
<g id="phone" clip-path="url(#clip-3)">
<g id="Subtract">
<use xlink:href="#path6_fill" transform="translate(-4589 3236)" fill="#FFFFFF"/>
</g>
</g>
<clipPath id="clip-4" clip-rule="evenodd">
<path d="M -4750 3232L -4702 3232L -4702 3280L -4750 3280L -4750 3232Z" fill="#FFFFFF"/>
</clipPath>
<g id="music" clip-path="url(#clip-4)">
<g id="Union">
<use xlink:href="#path7_fill" transform="translate(-4743 3235.5)" fill="#FFFFFF"/>
</g>
</g>
<clipPath id="clip-5" clip-rule="evenodd">
<path d="M -4850 3232L -4898 3232L -4898 3280L -4850 3280L -4850 3232Z" fill="#FFFFFF"/>
</clipPath>
<g id="seat" clip-path="url(#clip-5)">
<g id="Vector 36">
<use xlink:href="#path8_fill" transform="matrix(-1 0 0 1 -4859.8 3238)" fill="#FFFFFF"/>
<use xlink:href="#path9_fill" transform="matrix(-1 0 0 1 -4859.8 3238)" fill="#FFFFFF"/>
</g>
</g>
<g id="Passenger Temp">
<clipPath id="clip-6" clip-rule="evenodd">
<path d="M -5025 3227L -5075 3227L -5075 3197L -5025 3197L -5025 3227Z" fill="#FFFFFF"/>
</clipPath>
<g id="arrow" clip-path="url(#clip-6)">
<g id="Vector 37">
<use xlink:href="#path1_stroke" transform="matrix(-1 -1.22465e-16 1.22465e-16 -1 -5043 3215.5)" fill="#FFFFFF"/>
</g>
</g>
<clipPath id="clip-7" clip-rule="evenodd">
<path d="M -5075 3283L -5025 3283L -5025 3313L -5075 3313L -5075 3283Z" fill="#FFFFFF"/>
</clipPath>
<g id="arrow" clip-path="url(#clip-7)">
<g id="Vector 37">
<use xlink:href="#path1_stroke" transform="translate(-5057 3294.5)" fill="#FFFFFF"/>
</g>
</g>
<g id="20&#194;&#186;">
<use xlink:href="#path10_fill" transform="translate(-5125 3227)" fill="#FFFFFF"/>
<use xlink:href="#path11_fill" transform="translate(-5125 3227)" fill="#FFFFFF" fill-opacity="0.4"/>
</g>
</g>
<g id="Fan Level">
<clipPath id="clip-8" clip-rule="evenodd">
<path d="M -5225 3220L -5177 3220L -5177 3268L -5225 3268L -5225 3220Z" fill="#FFFFFF"/>
</clipPath>
<g id="fan" clip-path="url(#clip-8)">
<g id="Vector 38">
<use xlink:href="#path12_fill" transform="translate(-5222 3223)" fill="#FFFBFB"/>
</g>
</g>
<g id="Remaining distance">
<use xlink:href="#path13_fill" transform="translate(-5250 3270)" fill="#FFFFFF"/>
</g>
</g>
<g id="Driver Temp">
<clipPath id="clip-9" clip-rule="evenodd">
<path d="M -5325 3227L -5375 3227L -5375 3197L -5325 3197L -5325 3227Z" fill="#FFFFFF"/>
</clipPath>
<g id="arrow" clip-path="url(#clip-9)">
<g id="Vector 37">
<use xlink:href="#path1_stroke" transform="matrix(-1 -1.22465e-16 1.22465e-16 -1 -5343 3215.5)" fill="#FFFFFF"/>
</g>
</g>
<clipPath id="clip-10" clip-rule="evenodd">
<path d="M -5375 3283L -5325 3283L -5325 3313L -5375 3313L -5375 3283Z" fill="#FFFFFF"/>
</clipPath>
<g id="arrow" clip-path="url(#clip-10)">
<g id="Vector 37">
<use xlink:href="#path1_stroke" transform="translate(-5357 3294.5)" fill="#FFFFFF"/>
</g>
</g>
<g id="20&#194;&#186;">
<use xlink:href="#path14_fill" transform="translate(-5425 3227)" fill="#FFFFFF"/>
<use xlink:href="#path15_fill" transform="translate(-5425 3227)" fill="#FFFFFF" fill-opacity="0.4"/>
</g>
</g>
<clipPath id="clip-11" clip-rule="evenodd">
<path d="M -5550 3232L -5502 3232L -5502 3280L -5550 3280L -5550 3232Z" fill="#FFFFFF"/>
</clipPath>
<g id="seat" clip-path="url(#clip-11)">
<g id="Vector 36">
<use xlink:href="#path8_fill" transform="translate(-5540.2 3238)" fill="#FFFFFF"/>
<use xlink:href="#path9_fill" transform="translate(-5540.2 3238)" fill="#FFFFFF"/>
</g>
</g>
<clipPath id="clip-12" clip-rule="evenodd">
<path d="M -5700 3232L -5652 3232L -5652 3280L -5700 3280L -5700 3232Z" fill="#FFFFFF"/>
</clipPath>
<g id="heater" clip-path="url(#clip-12)" filter="url(#filter0_d)">
<g id="Union" filter="url(#filter1_d)">
<use xlink:href="#path16_fill" transform="translate(-5694 3240)" fill="#D0021B"/>
</g>
</g>
<clipPath id="clip-13" clip-rule="evenodd">
<path d="M -5850 3232L -5800 3232L -5800 3282L -5850 3282L -5850 3232Z" fill="#FFFFFF"/>
</clipPath>
<g id="defrost" clip-path="url(#clip-13)" filter="url(#filter2_d)">
<g id="Union">
<use xlink:href="#path17_fill" transform="translate(-5846 3240)" fill="#007BE4"/>
</g>
</g>
<clipPath id="clip-14" clip-rule="evenodd">
<path d="M -6000 3232L -5952 3232L -5952 3280L -6000 3280L -6000 3232Z" fill="#FFFFFF"/>
</clipPath>
<g id="model3-icon" clip-path="url(#clip-14)">
<g id="tesla">
<use xlink:href="#path18_fill" transform="translate(-5999 3239)" fill="#FFFFFF"/>
</g>
</g>
</g>
</g>
</g>
<defs>
<filter id="filter0_d" filterUnits="userSpaceOnUse" x="-5706" y="3226" width="60" height="60" color-interpolation-filters="sRGB">
<feFlood flood-opacity="0" result="BackgroundImageFix"/>
<feColorMatrix in="SourceAlpha" type="matrix" values="0 0 0 0 0 0 0 0 0 0 0 0 0 0 0 0 0 0 255 0"/>
<feOffset dx="0" dy="0"/>
<feGaussianBlur stdDeviation="3"/>
<feColorMatrix type="matrix" values="0 0 0 0 0.815686 0 0 0 0 0.00784314 0 0 0 0 0.105882 0 0 0 0.5 0"/>
<feBlend mode="normal" in2="BackgroundImageFix" result="effect1_dropShadow"/>
<feBlend mode="normal" in="SourceGraphic" in2="effect1_dropShadow" result="shape"/>
</filter>
<filter id="filter1_d" filterUnits="userSpaceOnUse" x="-5700" y="3234" width="48" height="44" color-interpolation-filters="sRGB">
<feFlood flood-opacity="0" result="BackgroundImageFix"/>
<feColorMatrix in="SourceAlpha" type="matrix" values="0 0 0 0 0 0 0 0 0 0 0 0 0 0 0 0 0 0 255 0"/>
<feOffset dx="0" dy="0"/>
<feGaussianBlur stdDeviation="3"/>
<feColorMatrix type="matrix" values="0 0 0 0 0.815686 0 0 0 0 0.00784314 0 0 0 0 0.105882 0 0 0 1 0"/>
<feBlend mode="normal" in2="BackgroundImageFix" result="effect1_dropShadow"/>
<feBlend mode="normal" in="SourceGraphic" in2="effect1_dropShadow" result="shape"/>
</filter>
<filter id="filter2_d" filterUnits="userSpaceOnUse" x="-5856" y="3226" width="62" height="62" color-interpolation-filters="sRGB">
<feFlood flood-opacity="0" result="BackgroundImageFix"/>
<feColorMatrix in="SourceAlpha" type="matrix" values="0 0 0 0 0 0 0 0 0 0 0 0 0 0 0 0 0 0 255 0"/>
<feOffset dx="0" dy="0"/>
<feGaussianBlur stdDeviation="3"/>
<feColorMatrix type="matrix" values="0 0 0 0 0.392157 0 0 0 0 0.823529 0 0 0 0 1 0 0 0 1 0"/>
<feBlend mode="normal" in2="BackgroundImageFix" result="effect1_dropShadow"/>
<feBlend mode="normal" in="SourceGraphic" in2="effect1_dropShadow" result="shape"/>
</filter>
<path id="path0_fill" d="M 1920 128L 1920 0C 1920 4.41828 1916.42 8 1912 8L 8 8C 3.58172 8 0 4.41828 0 0L 0 128L 1920 128Z"/>
<path id="path1_stroke" d="M 1.06066 -1.06066C 0.474874 -1.64645 -0.474874 -1.64645 -1.06066 -1.06066C -1.64645 -0.474874 -1.64645 0.474874 -1.06066 1.06066L 1.06066 -1.06066ZM 7 7L 5.93934 8.06066C 6.52513 8.64645 7.47487 8.64645 8.06066 8.06066L 7 7ZM 15.0607 1.06066C 15.6464 0.474874 15.6464 -0.474874 15.0607 -1.06066C 14.4749 -1.64645 13.5251 -1.64645 12.9393 -1.06066L 15.0607 1.06066ZM -1.06066 1.06066L 5.93934 8.06066L 8.06066 5.93934L 1.06066 -1.06066L -1.06066 1.06066ZM 8.06066 8.06066L 15.0607 1.06066L 12.9393 -1.06066L 5.93934 5.93934L 8.06066 8.06066Z"/>
<path id="path2_fill" fill-rule="evenodd" d="M 14.6826 0.498927L 7 7.22378L 2 7.22378C 0.895508 7.22378 0 8.11929 0 9.22378L 0 16.7777C 0 17.8825 0.895508 18.7777 2 18.7777L 7 18.7777L 14.6826 25.5026C 15.9756 26.6344 18 25.716 18 23.9975L 18 2.00381C 18 0.285548 15.9756 -0.632909 14.6826 0.498927Z"/>
<path id="path3_fill" fill-rule="evenodd" d="M 0.212219 0.384145C 0.552371 -0.0509585 1.18084 -0.127933 1.61594 0.212219C 4.89147 2.77293 7.00004 6.76435 7.00004 11.2477C 7.00004 15.4802 5.12061 19.2749 2.15421 21.8405C 1.73649 22.2018 1.10498 22.1561 0.743694 21.7383C 0.382408 21.3206 0.428157 20.6891 0.845878 20.3278C 3.39174 18.1259 5.00004 14.8752 5.00004 11.2477C 5.00004 7.40581 3.19569 3.98586 0.384145 1.78787C -0.0509585 1.44772 -0.127933 0.819249 0.212219 0.384145Z"/>
<path id="path4_fill" fill-rule="evenodd" d="M 0.3001 0.285759C 0.694565 -0.100785 1.3277 -0.094364 1.71424 0.3001C 5.60154 4.26705 8 9.7029 8 15.6969C 7.98038 21.3544 5.75855 26.6695 2.2379 30.5407C 1.86516 30.9482 1.23263 30.9764 0.825095 30.6037C 0.417562 30.2309 0.389356 29.5984 0.762096 29.1909C 4.07346 25.5923 6.01962 20.9602 6 15.6969C 6 10.2472 3.82158 5.30817 0.285759 1.6999C -0.100785 1.30544 -0.094364 0.672303 0.3001 0.285759Z"/>
<path id="path5_fill" fill-rule="evenodd" d="M 0.338443 0.250128C 0.752593 -0.115247 1.38452 -0.0757064 1.7499 0.338443C 6.67055 5.93725 9.72681 13.4482 9.74548 21.5C 9.72871 29.1281 6.98512 36.2808 2.51928 41.7563C 2.16945 42.1837 1.53941 42.2465 1.11205 41.8967C 0.68469 41.5469 0.621842 40.9168 0.971675 40.4895C 5.25586 35.2759 7.76225 28.7634 7.74548 21.5C 7.76414 13.8328 4.97071 6.99107 0.250128 1.66158C -0.115247 1.24743 -0.0757064 0.615502 0.338443 0.250128Z"/>
<path id="path6_fill" fill-rule="evenodd" d="M 6 0C 2.68652 0 0 2.68628 0 6L 0 34C 0 37.3137 2.68652 40 6 40L 20 40C 23.3135 40 26 37.3137 26 34L 26 6C 26 2.68628 23.3135 0 20 0L 6 0ZM 16 2L 10 2C 10 2.55225 10.4478 3 11 3L 15 3C 15.5522 3 16 2.55225 16 2ZM 13 39C 13.8286 39 14.5 38.3284 14.5 37.5C 14.5 36.6716 13.8286 36 13 36C 12.1714 36 11.5 36.6716 11.5 37.5C 11.5 38.3284 12.1714 39 13 39ZM 3 7C 3 5.89551 3.89551 5 5 5L 21 5C 22.1045 5 23 5.89551 23 7L 23 33C 23 34.1045 22.1045 35 21 35L 5 35C 3.89551 35 3 34.1045 3 33L 3 7Z"/>
<path id="path7_fill" fill-rule="evenodd" d="M 32 0L 8 6L 8 14L 8 31.9998C 7.16455 31.3721 6.12549 31 5 31C 2.23877 31 0 33.2385 0 36C 0 38.7615 2.23877 41 5 41C 7.76123 41 10 38.7615 10 36L 10 13.5L 30 8.5L 30 26.9998C 29.1646 26.3721 28.1255 26 27 26C 24.2388 26 22 28.2385 22 31C 22 33.7615 24.2388 36 27 36C 29.7612 36 32 33.7615 32 31L 32 8L 32 1L 32 0Z"/>
<path id="path8_fill" d="M 3.83807 0L 5.14071 0C 5.49926 0 5.84312 0.142432 6.09665 0.395963C 6.09665 0.395964 6.09665 0.395965 6.09665 0.395965C 7.02438 1.32369 7.1522 2.78355 6.39982 3.85838C 6.39982 3.85839 6.39982 3.85839 6.39982 3.85839L 6.16549 4.19314C 6.16549 4.19314 6.16549 4.19314 6.16549 4.19314C 4.96003 5.91522 4.82381 8.16836 5.81302 10.0231L 5.81302 10.0231L 9.45302 16.8481C 9.45302 16.8481 9.45302 16.8481 9.45302 16.8481C 11.1243 19.9819 10.7965 23.8054 8.61601 26.6089L 5.83894 30.1794C 5.58162 30.5102 5.05589 30.3967 4.95807 29.9891L 0.384082 10.9308L 0.384082 10.9308C -0.380241 7.74612 0.00375343 4.39387 1.46843 1.46452C 1.46843 1.46452 1.46843 1.46452 1.46843 1.46452C 1.91721 0.566965 2.83457 0 3.83807 0Z"/>
<path id="path9_fill" d="M 15.4439 28L 24.2007 28C 26.4098 28 28.2007 29.7909 28.2007 32L 28.2007 33C 28.2007 35.2091 26.4098 37 24.2007 37L 13.1002 37C 11.2437 37 9.46319 36.2625 8.15044 34.9498C 8.15044 34.9497 8.15044 34.9497 8.15043 34.9497L 7.0354 33.8347C 7.0354 33.8347 7.0354 33.8347 7.0354 33.8347C 6.59845 33.3978 6.65843 32.673 7.16127 32.3139C 7.16127 32.3139 7.16127 32.3139 7.16127 32.3139L 11.3753 29.3039C 12.5625 28.4559 13.985 28 15.4439 28Z"/>
<path id="path10_fill" d="M 59.5625 42.9L 59.5625 46L 34.7625 46L 34.7625 43.15L 48.5625 28.75C 50.1625 27.0833 51.4292 25.4667 52.3625 23.9C 53.2958 22.3 53.7625 20.9167 53.7625 19.75C 53.7625 17.9167 53.0792 16.4833 51.7125 15.45C 50.3458 14.4167 48.4458 13.9 46.0125 13.9C 44.3458 13.9 42.6292 14.2833 40.8625 15.05C 39.0958 15.7833 37.4958 16.8167 36.0625 18.15L 34.5125 15.6C 36.2125 14.1 38.0958 12.9333 40.1625 12.1C 42.2625 11.2667 44.3458 10.85 46.4125 10.85C 49.7458 10.85 52.3958 11.6167 54.3625 13.15C 56.3625 14.6833 57.3625 16.7333 57.3625 19.3C 57.3625 20.8667 56.7792 22.6333 55.6125 24.6C 54.4792 26.5333 52.9125 28.55 50.9125 30.65L 39.1125 42.9L 59.5625 42.9ZM 79.8781 10.85C 84.5115 10.85 88.0615 12.3833 90.5281 15.45C 92.9948 18.4833 94.2281 22.8333 94.2281 28.5C 94.2281 34.1667 92.9948 38.5333 90.5281 41.6C 88.0615 44.6667 84.5115 46.2 79.8781 46.2C 75.2781 46.2 71.7281 44.6667 69.2281 41.6C 66.7615 38.5333 65.5281 34.1667 65.5281 28.5C 65.5281 22.8333 66.7615 18.4833 69.2281 15.45C 71.7281 12.3833 75.2781 10.85 79.8781 10.85ZM 79.8781 13.6C 76.3448 13.6 73.6615 14.8667 71.8281 17.4C 69.9948 19.9 69.0781 23.6 69.0781 28.5C 69.0781 33.4 69.9948 37.1167 71.8281 39.65C 73.6615 42.15 76.3448 43.4 79.8781 43.4C 83.4115 43.4 86.0948 42.15 87.9281 39.65C 89.7948 37.1167 90.7281 33.4 90.7281 28.5C 90.7281 23.6 89.7948 19.9 87.9281 17.4C 86.0948 14.8667 83.4115 13.6 79.8781 13.6Z"/>
<path id="path11_fill" d="M 107.12 7.6C 109.487 7.6 111.437 8.33333 112.97 9.8C 114.504 11.2333 115.27 13.1 115.27 15.4C 115.27 17.7 114.504 19.5667 112.97 21C 111.47 22.4333 109.52 23.15 107.12 23.15C 104.687 23.15 102.704 22.4333 101.17 21C 99.6703 19.5667 98.9203 17.7 98.9203 15.4C 98.9203 13.1 99.6703 11.2333 101.17 9.8C 102.704 8.33333 104.687 7.6 107.12 7.6ZM 107.12 9.7C 105.454 9.7 104.087 10.2333 103.02 11.3C 101.987 12.3333 101.47 13.7 101.47 15.4C 101.47 17.1 101.987 18.4833 103.02 19.55C 104.087 20.6167 105.454 21.15 107.12 21.15C 108.754 21.15 110.087 20.6167 111.12 19.55C 112.154 18.4833 112.67 17.1 112.67 15.4C 112.67 13.7 112.154 12.3333 111.12 11.3C 110.087 10.2333 108.754 9.7 107.12 9.7Z"/>
<path id="path12_fill" d="M 3.54217 10C 3.54217 17.5 16.6988 21.5 16.6988 21.5C 16.6988 21.5 14.6747 24 12.1446 24C 9.61446 24 8.60241 22 5.56627 22C 2.53012 22 0 23.5 0 27C 0 30.5 2.53012 38 10.1205 38C 17.7108 38 21.759 26 21.759 26C 21.759 26 24.2892 27.5 24.2892 30C 24.2892 32.5 22.2651 33.5 22.2651 36.5C 22.2651 39.5 23.7831 42 27.3253 42C 30.8675 42 38.4578 39.5 38.4578 32C 38.4578 24.5 25.8072 20.5 25.8072 20.5C 25.8072 20.5 27.3253 18 29.8554 18C 32.3855 18 33.3976 20 36.4337 20C 39.4699 20 42 18.5 42 15C 42 11.5 39.4699 4 31.8795 4C 24.2892 4 20.241 16 20.241 16C 20.241 16 17.7108 14.5 17.7108 12C 17.7108 9.5 19.7349 8.5 19.7349 5.5C 19.7349 2.5 18.2169 0 14.6747 0C 11.1325 0 3.54217 2.5 3.54217 10Z"/>
<path id="path13_fill" d="M 17.5254 7.5L 19.8204 7.5L 23.3004 14.265L 26.7504 7.5L 29.0454 7.5L 29.0454 18L 27.2004 18L 27.2004 10.47L 23.9304 16.92L 22.6404 16.92L 19.3554 10.47L 19.3554 18L 17.5254 18L 17.5254 7.5ZM 39.4018 18L 38.4718 15.78L 33.3418 15.78L 32.4118 18L 30.3268 18L 34.9318 7.5L 37.0168 7.5L 41.5618 18L 39.4018 18ZM 34.0618 14.055L 37.7518 14.055L 35.9218 9.645L 34.0618 14.055ZM 50.1579 7.5L 52.1079 7.5L 52.1079 18L 50.2029 18L 44.8029 10.77L 44.8029 18L 42.8379 18L 42.8379 7.5L 44.7429 7.5L 50.1579 14.745L 50.1579 7.5ZM 56.5034 13.68C 56.5034 14.51 56.7384 15.16 57.2084 15.63C 57.6784 16.1 58.3084 16.335 59.0984 16.335C 59.8884 16.335 60.5084 16.1 60.9584 15.63C 61.4184 15.16 61.6484 14.51 61.6484 13.68L 61.6484 7.5L 63.6584 7.5L 63.6584 13.68C 63.6584 14.59 63.4734 15.385 63.1034 16.065C 62.7334 16.735 62.2034 17.25 61.5134 17.61C 60.8334 17.97 60.0284 18.15 59.0984 18.15C 58.1584 18.15 57.3384 17.97 56.6384 17.61C 55.9484 17.25 55.4184 16.735 55.0484 16.065C 54.6784 15.385 54.4934 14.59 54.4934 13.68L 54.4934 7.5L 56.5034 7.5L 56.5034 13.68ZM 73.5034 18L 72.5734 15.78L 67.4434 15.78L 66.5134 18L 64.4284 18L 69.0334 7.5L 71.1184 7.5L 75.6634 18L 73.5034 18ZM 68.1634 14.055L 71.8534 14.055L 70.0234 9.645L 68.1634 14.055ZM 76.9394 7.5L 78.9494 7.5L 78.9494 16.185L 83.4794 16.185L 83.4794 18L 76.9394 18L 76.9394 7.5Z"/>
<path id="path14_fill" d="M 59.5625 42.9L 59.5625 46L 34.7625 46L 34.7625 43.15L 48.5625 28.75C 50.1625 27.0833 51.4292 25.4667 52.3625 23.9C 53.2958 22.3 53.7625 20.9167 53.7625 19.75C 53.7625 17.9167 53.0792 16.4833 51.7125 15.45C 50.3458 14.4167 48.4458 13.9 46.0125 13.9C 44.3458 13.9 42.6292 14.2833 40.8625 15.05C 39.0958 15.7833 37.4958 16.8167 36.0625 18.15L 34.5125 15.6C 36.2125 14.1 38.0958 12.9333 40.1625 12.1C 42.2625 11.2667 44.3458 10.85 46.4125 10.85C 49.7458 10.85 52.3958 11.6167 54.3625 13.15C 56.3625 14.6833 57.3625 16.7333 57.3625 19.3C 57.3625 20.8667 56.7792 22.6333 55.6125 24.6C 54.4792 26.5333 52.9125 28.55 50.9125 30.65L 39.1125 42.9L 59.5625 42.9ZM 79.8781 10.85C 84.5115 10.85 88.0615 12.3833 90.5281 15.45C 92.9948 18.4833 94.2281 22.8333 94.2281 28.5C 94.2281 34.1667 92.9948 38.5333 90.5281 41.6C 88.0615 44.6667 84.5115 46.2 79.8781 46.2C 75.2781 46.2 71.7281 44.6667 69.2281 41.6C 66.7615 38.5333 65.5281 34.1667 65.5281 28.5C 65.5281 22.8333 66.7615 18.4833 69.2281 15.45C 71.7281 12.3833 75.2781 10.85 79.8781 10.85ZM 79.8781 13.6C 76.3448 13.6 73.6615 14.8667 71.8281 17.4C 69.9948 19.9 69.0781 23.6 69.0781 28.5C 69.0781 33.4 69.9948 37.1167 71.8281 39.65C 73.6615 42.15 76.3448 43.4 79.8781 43.4C 83.4115 43.4 86.0948 42.15 87.9281 39.65C 89.7948 37.1167 90.7281 33.4 90.7281 28.5C 90.7281 23.6 89.7948 19.9 87.9281 17.4C 86.0948 14.8667 83.4115 13.6 79.8781 13.6Z"/>
<path id="path15_fill" d="M 107.12 7.6C 109.487 7.6 111.437 8.33333 112.97 9.8C 114.504 11.2333 115.27 13.1 115.27 15.4C 115.27 17.7 114.504 19.5667 112.97 21C 111.47 22.4333 109.52 23.15 107.12 23.15C 104.687 23.15 102.704 22.4333 101.17 21C 99.6703 19.5667 98.9203 17.7 98.9203 15.4C 98.9203 13.1 99.6703 11.2333 101.17 9.8C 102.704 8.33333 104.687 7.6 107.12 7.6ZM 107.12 9.7C 105.454 9.7 104.087 10.2333 103.02 11.3C 101.987 12.3333 101.47 13.7 101.47 15.4C 101.47 17.1 101.987 18.4833 103.02 19.55C 104.087 20.6167 105.454 21.15 107.12 21.15C 108.754 21.15 110.087 20.6167 111.12 19.55C 112.154 18.4833 112.67 17.1 112.67 15.4C 112.67 13.7 112.154 12.3333 111.12 11.3C 110.087 10.2333 108.754 9.7 107.12 9.7Z"/>
<path id="path16_fill" fill-rule="evenodd" d="M 2 2L 34 2L 34 20.0706L 26.3091 20.0706L 26.3091 17.7793C 26.2993 17.4016 26.4004 17.084 26.5723 16.6292C 26.644 16.4392 26.7227 16.251 26.8018 16.0627C 26.9956 15.6013 27.1899 15.1387 27.2769 14.6443L 29.1182 14.6443L 26.3091 9.0083L 23.5 14.6443L 25.21 14.6443C 25.1328 14.8594 25.0396 15.085 24.9438 15.3162C 24.8618 15.5144 24.7783 15.7166 24.7017 15.9199C 24.5029 16.449 24.3188 17.1194 24.3091 17.7805L 24.3091 20.0706L 18.3091 20.0706L 18.3091 17.7793C 18.2993 17.4016 18.4004 17.084 18.5723 16.6292C 18.644 16.4392 18.7227 16.251 18.8018 16.0627C 18.9956 15.6013 19.1899 15.1387 19.2769 14.6443L 21.1182 14.6443L 18.3091 9.0083L 15.5 14.6443L 17.21 14.6443C 17.1328 14.8594 17.0396 15.085 16.9438 15.3162C 16.8618 15.5144 16.7783 15.7166 16.7017 15.9199C 16.5029 16.449 16.3188 17.1194 16.3091 17.7805L 16.3091 20.0706L 10.3101 20.0706L 10.3101 17.7793C 10.3003 17.4016 10.4014 17.084 10.5732 16.6292C 10.645 16.4392 10.7236 16.251 10.8027 16.0627C 10.9966 15.6013 11.1909 15.1387 11.2778 14.6443L 13.1191 14.6443L 10.3101 9.0083L 7.50098 14.6443L 9.21094 14.6443C 9.13379 14.8594 9.04053 15.085 8.94482 15.3162C 8.86279 15.5144 8.7793 15.7166 8.70264 15.9199C 8.50391 16.449 8.31982 17.1194 8.31006 17.7805L 8.31006 20.0706L 2 20.0706L 2 2ZM 0 2C 0 0.895508 0.895508 0 2 0L 34 0C 35.1045 0 36 0.895508 36 2L 36 20.0706C 36 21.175 35.1045 22.0706 34 22.0706L 28.8423 22.0706C 29.1011 22.7988 29.3101 23.7026 29.3101 24.6765C 29.3086 25.7297 29.1646 27.1357 28.7637 28.4272C 28.3516 29.7358 27.6348 31.0784 26.4102 32L 25.21 30.3948C 25.9849 29.8118 26.5181 28.8972 26.8564 27.823C 27.2056 26.7317 27.311 25.6299 27.3101 24.6765C 27.3101 23.6042 26.9507 22.6238 26.6748 22.0706L 20.8423 22.0706C 21.1011 22.7988 21.3101 23.7026 21.3101 24.6765C 21.3086 25.7297 21.1646 27.1357 20.7637 28.4272C 20.3516 29.7358 19.6348 31.0784 18.4102 32L 17.21 30.3948C 17.9849 29.8118 18.5181 28.8972 18.8564 27.823C 19.2056 26.7317 19.311 25.6299 19.3101 24.6765C 19.3101 23.6042 18.9507 22.6238 18.6748 22.0706L 12.3423 22.0706C 12.6011 22.7988 12.8101 23.7026 12.8101 24.6765C 12.8086 25.7297 12.6646 27.1357 12.2637 28.4272C 11.8516 29.7358 11.1348 31.0784 9.91016 32L 8.70996 30.3948C 9.48486 29.8118 10.0181 28.8972 10.3564 27.823C 10.7056 26.7317 10.811 25.6299 10.8101 24.6765C 10.8101 23.6042 10.4507 22.6238 10.1748 22.0706L 2 22.0706C 0.895508 22.0706 0 21.175 0 20.0706L 0 2Z"/>
<path id="path17_fill" fill-rule="evenodd" d="M 5.03955 6.27704L 2.64697 7.73236L 9.52393 21.8044L 10.4146 21.8044L 10.4146 20.3847C 10.4243 19.7036 10.6104 19.0129 10.811 18.468C 10.8745 18.2968 10.9424 18.1266 11.0098 17.9589L 11.0317 17.904L 11.0352 17.8962L 11.0469 17.8671L 11.0557 17.8452C 11.1523 17.6071 11.2466 17.3749 11.3242 17.1537L 9.59717 17.1537L 12.4346 11.3474L 15.272 17.1537L 13.4126 17.1537C 13.3247 17.6625 13.1284 18.1391 12.9326 18.6144L 12.9175 18.6513C 12.8428 18.8329 12.7686 19.0148 12.7007 19.1984C 12.5269 19.6672 12.4248 19.9943 12.4346 20.3832L 12.4346 21.8044L 18.4946 21.8044L 18.4946 20.4059C 18.5044 19.7248 18.6904 19.0341 18.8911 18.4892C 18.9546 18.3181 19.0225 18.1479 19.0898 17.9802L 19.1118 17.9252L 19.1152 17.9174L 19.127 17.8884L 19.1357 17.8664C 19.2324 17.6284 19.3267 17.3962 19.4043 17.175L 17.6772 17.175L 20.5146 11.3686L 23.3521 17.175L 21.4927 17.175C 21.4048 17.6838 21.2085 18.1603 21.0127 18.6357L 20.9976 18.6725C 20.9229 18.8542 20.8486 19.0361 20.7808 19.2197C 20.6069 19.6884 20.5049 20.0156 20.5146 20.4045L 20.5146 21.8044L 26.0703 21.8044L 26.0703 20.3847C 26.0801 19.7036 26.2661 19.0129 26.4668 18.468C 26.5371 18.2783 26.6133 18.0895 26.6875 17.904L 26.6909 17.8962L 26.7026 17.8671L 26.7114 17.8452C 26.8081 17.6071 26.9023 17.3749 26.98 17.1537L 25.2529 17.1537L 28.0903 11.3474L 30.9277 17.1537L 29.0684 17.1537C 28.9805 17.6625 28.7842 18.1391 28.5884 18.6144L 28.5732 18.6513C 28.4985 18.8329 28.4243 19.0148 28.3564 19.1984C 28.1826 19.6672 28.0806 19.9943 28.0903 20.3832L 28.0903 21.8044L 30.9839 21.8044L 37.396 7.74554L 34.9819 6.27704C 25.7549 0.663757 14.2666 0.663757 5.03955 6.27704ZM 36.0146 4.50018L 39.2144 6.44696L 40 6.92474L 39.6133 7.7724L 32.5425 23.2748L 32.2705 23.8713L 31.627 23.8713L 30.1787 23.8713C 30.4238 24.6037 30.6167 25.4965 30.6167 26.4555C 30.6152 27.5405 30.4697 28.989 30.0645 30.3193C 29.6484 31.6674 28.9243 33.0505 27.687 33.9999L 26.4751 32.3464C 27.2578 31.7455 27.7969 30.8034 28.1382 29.697C 28.4907 28.5727 28.5977 27.4374 28.5962 26.4555C 28.5962 25.413 28.2729 24.455 28.0024 23.8713L 22.0981 23.8713C 22.3433 24.6037 22.5361 25.4965 22.5361 26.4555C 22.5347 27.5405 22.3892 28.989 21.9839 30.3193C 21.5679 31.6674 20.8438 33.0505 19.6064 33.9999L 18.3945 32.3464C 19.1772 31.7455 19.7163 30.8034 20.0576 29.697C 20.4102 28.5727 20.5171 27.4374 20.5156 26.4555C 20.5156 25.413 20.1924 24.455 19.9219 23.8713L 13.5117 23.8713C 13.7568 24.6037 13.9497 25.4965 13.9497 26.4555C 13.9482 27.5405 13.8027 28.989 13.3975 30.3193C 12.9814 31.6674 12.2573 33.0505 11.02 33.9999L 9.80811 32.3464C 10.5908 31.7455 11.1299 30.8034 11.4712 29.697C 11.8237 28.5727 11.9307 27.4374 11.9292 26.4555C 11.9292 25.413 11.606 24.455 11.3354 23.8713L 8.89941 23.8713L 8.2749 23.8713L 7.99609 23.3L 0.419922 7.7973L 0 6.93793L 0.807129 6.44696L 3.83496 4.60492L 4.00684 4.50018C 13.8701 -1.50006 26.1514 -1.50006 36.0146 4.50018Z"/>
<path id="path18_fill" fill-rule="evenodd" d="M 42 34L 41 34C 39.3433 34 38 32.6567 38 31L 11 31C 10.4844 31 7.76709 32.7761 6.8584 33.3701L 6.62109 33.5247C 6.15381 33.8254 5.59717 34 5 34L 4 34C 2.34326 34 1 32.6567 1 31L 1 17.4854C 1 15.894 1.63232 14.3679 2.75732 13.2427L 4 12L 1.97314 12C 0.883301 12 0 11.1167 0 10.0271C 0 9.42334 0.410645 8.89722 0.996094 8.75098L 2.75732 8.31055C 3.38867 8.15283 4 8.63013 4 9.28076L 4 11L 5 11L 6.79443 4.42139C 7.50635 1.81104 9.87695 0 12.583 0L 33.417 0C 36.123 0 38.4937 1.81104 39.2056 4.42139L 41 11L 42 11L 42 9.28076C 42 8.63013 42.6113 8.15283 43.2427 8.31055L 45.0039 8.75098C 45.5894 8.89722 46 9.42334 46 10.0271C 46 11.1167 45.1167 12 44.0269 12L 42 12L 43.2427 13.2427C 44.3677 14.3679 45 15.894 45 17.4854L 45 31C 45 32.6567 43.6567 34 42 34ZM 7.71729 5.27588L 6.11572 10.6145C 6.05957 10.8022 6.14258 10.9995 6.30664 11.0935C 6.33008 11.1069 6.35547 11.1184 6.38184 11.1272C 8.11621 11.7053 9.93213 12 11.7598 12L 34.3384 12C 36.166 12 37.9819 11.7053 39.7163 11.1272C 39.9292 11.0564 40.0469 10.8293 39.9824 10.6145L 38.3809 5.27588C 37.6196 2.73804 35.2837 1 32.6338 1L 13.4644 1C 10.8145 1 8.47852 2.73804 7.71729 5.27588ZM 5.83398 13.3215C 7.50342 14.96 8.90527 16.2239 11.5005 17.3005C 11.7544 17.406 11.855 17.7175 11.7021 17.9465C 11.269 18.5964 10.5166 18.9595 9.73828 18.8945L 6.98975 18.6655C 5.70508 18.5586 4.5 17.9995 3.58838 17.0881C 2.96045 16.46 2.87842 15.47 3.39453 14.7473L 4.31982 13.4521C 4.67676 12.9521 5.39551 12.8911 5.83398 13.3215ZM 39.9966 13.3215C 38.3271 14.9597 36.9248 16.2239 34.3301 17.3003C 34.0757 17.4058 33.9756 17.7173 34.1284 17.9463C 34.5615 18.5962 35.3135 18.9595 36.0918 18.8945L 38.8408 18.6655C 40.1255 18.5583 41.3306 17.9995 42.2422 17.0879C 42.8701 16.46 42.9521 15.47 42.436 14.7473L 41.5107 13.4521C 41.1533 12.9521 40.4351 12.8911 39.9966 13.3215ZM 9 25C 6.39941 24.5249 5.05859 24.1194 3 23L 2.81055 23.7576C 2.65283 24.3887 3.13037 25 3.78076 25L 9 25ZM 36.7803 25C 39.3809 24.5249 40.7217 24.1194 42.7803 23L 42.9697 23.7576C 43.1274 24.3887 42.6499 25 41.9995 25L 36.7803 25ZM 11.707 27.293C 11.8945 27.1055 12.1489 27 12.4141 27L 33.5859 27C 33.8511 27 34.1055 27.1055 34.293 27.293L 35.1465 28.1465C 35.4614 28.4614 35.2383 29 34.793 29L 11.207 29C 10.7617 29 10.5386 28.4614 10.8535 28.1465L 11.707 27.293Z"/>
</defs>
</svg>
