<svg width="48" height="48" viewBox="0 0 48 48" version="1.1" xmlns="http://www.w3.org/2000/svg" xmlns:xlink="http://www.w3.org/1999/xlink">
<title>display</title>
<desc>Created using Figma</desc>
<g id="Canvas" transform="translate(7886 -901)">
<rect x="-7886" y="901" width="48" height="48" fill="#777777"/>
<clipPath id="clip-0" clip-rule="evenodd">
<path d="M -7886 901L -7838 901L -7838 949L -7886 949L -7886 901Z" fill="#FFFFFF"/>
</clipPath>
<g id="display" clip-path="url(#clip-0)">
<g id="Group">
<g id="Rectangle 29">
<mask id="mask0_outline_ins">
<use xlink:href="#path0_fill" fill="white" transform="translate(-7877 914)"/>
</mask>
<g mask="url(#mask0_outline_ins)">
<use xlink:href="#path1_stroke_2x" transform="translate(-7877 914)" fill="#FFFFFF"/>
</g>
</g>
<g id="Vector 48">
<use xlink:href="#path2_stroke" transform="translate(-7859.5 918.5)" fill="#FFFFFF"/>
</g>
</g>
</g>
</g>
<defs>
<path id="path0_fill" d="M 0 5C 0 2.23858 2.23858 0 5 0L 25 0C 27.7614 0 30 2.23858 30 5L 30 17C 30 19.7614 27.7614 22 25 22L 5 22C 2.23858 22 0 19.7614 0 17L 0 5Z"/>
<path id="path1_stroke_2x" d="M 5 3L 25 3L 25 -3L 5 -3L 5 3ZM 27 5L 27 17L 33 17L 33 5L 27 5ZM 25 19L 5 19L 5 25L 25 25L 25 19ZM 3 17L 3 5L -3 5L -3 17L 3 17ZM 5 -3C 0.581722 -3 -3 0.581722 -3 5L 3 5C 3 3.89543 3.89543 3 5 3L 5 -3ZM 25 3C 26.1046 3 27 3.89543 27 5L 33 5C 33 0.581722 29.4183 -3 25 -3L 25 3ZM 27 17C 27 18.1046 26.1046 19 25 19L 25 25C 29.4183 25 33 21.4183 33 17L 27 17ZM 5 19C 3.89543 19 3 18.1046 3 17L -3 17C -3 21.4183 0.581722 25 5 25L 5 19Z"/>
<path id="path2_stroke" d="M 12.2233 0.86812C 12.7027 0.192532 12.5437 -0.743811 11.8681 -1.22326C 11.1925 -1.70271 10.2562 -1.54371 9.77674 -0.86812L 12.2233 0.86812ZM -1.22326 14.6319C -1.70271 15.3075 -1.54371 16.2438 -0.86812 16.7233C -0.192532 17.2027 0.743811 17.0437 1.22326 16.3681L -1.22326 14.6319ZM 9.77674 -0.86812L -1.22326 14.6319L 1.22326 16.3681L 12.2233 0.86812L 9.77674 -0.86812Z"/>
</defs>
</svg>
