<svg width="48" height="48" viewBox="0 0 48 48" version="1.1" xmlns="http://www.w3.org/2000/svg" xmlns:xlink="http://www.w3.org/1999/xlink">
<title>fan</title>
<desc>Created using Figma</desc>
<g id="Canvas" transform="translate(8102 -757)">
<clipPath id="clip-0" clip-rule="evenodd">
<path d="M -8102 757L -8054 757L -8054 805L -8102 805L -8102 757Z" fill="#FFFFFF"/>
</clipPath>
<g id="fan" clip-path="url(#clip-0)">
<g id="Vector 38">
<use xlink:href="#path0_fill" transform="translate(-8099 760)" fill="#FFFBFB"/>
</g>
</g>
</g>
<defs>
<path id="path0_fill" d="M 3.54217 10C 3.54217 17.5 16.6988 21.5 16.6988 21.5C 16.6988 21.5 14.6747 24 12.1446 24C 9.61446 24 8.60241 22 5.56627 22C 2.53012 22 0 23.5 0 27C 0 30.5 2.53012 38 10.1205 38C 17.7108 38 21.759 26 21.759 26C 21.759 26 24.2892 27.5 24.2892 30C 24.2892 32.5 22.2651 33.5 22.2651 36.5C 22.2651 39.5 23.7831 42 27.3253 42C 30.8675 42 38.4578 39.5 38.4578 32C 38.4578 24.5 25.8072 20.5 25.8072 20.5C 25.8072 20.5 27.3253 18 29.8554 18C 32.3855 18 33.3976 20 36.4337 20C 39.4699 20 42 18.5 42 15C 42 11.5 39.4699 4 31.8795 4C 24.2892 4 20.241 16 20.241 16C 20.241 16 17.7108 14.5 17.7108 12C 17.7108 9.5 19.7349 8.5 19.7349 5.5C 19.7349 2.5 18.2169 0 14.6747 0C 11.1325 0 3.54217 2.5 3.54217 10Z"/>
</defs>
</svg>
