<svg width="48" height="48" viewBox="0 0 48 48" version="1.1" xmlns="http://www.w3.org/2000/svg" xmlns:xlink="http://www.w3.org/1999/xlink">
<title>headlights-small</title>
<desc>Created using Figma</desc>
<g id="Canvas" transform="translate(8174 -901)">
<clipPath id="clip-0" clip-rule="evenodd">
<path d="M -8174 901L -8126 901L -8126 949L -8174 949L -8174 901Z" fill="#FFFFFF"/>
</clipPath>
<g id="headlights-small" clip-path="url(#clip-0)">
<g id="Vector 16">
<use xlink:href="#path0_stroke" transform="translate(-8162 915)" fill="#FFFFFF"/>
</g>
</g>
</g>
<defs>
<path id="path0_stroke" d="M 14.6667 0L 14.7735 -1.49619L 14.7202 -1.5L 14.6667 -1.5L 14.6667 0ZM 14.6667 18.6667L 14.6667 20.1667L 14.7202 20.1667L 14.7735 20.1629L 14.6667 18.6667ZM 7.83205 4.58141C 8.52134 4.12188 8.7076 3.19058 8.24808 2.50128C 7.78855 1.81199 6.85724 1.62573 6.16795 2.08526L 7.83205 4.58141ZM -0.83205 6.75192C -1.52134 7.21145 -1.7076 8.14276 -1.24808 8.83205C -0.788547 9.52134 0.142757 9.7076 0.83205 9.24808L -0.83205 6.75192ZM 7.83205 10.5814C 8.52134 10.1219 8.7076 9.19058 8.24808 8.50128C 7.78855 7.81199 6.85724 7.62573 6.16795 8.08526L 7.83205 10.5814ZM -0.83205 12.7519C -1.52134 13.2115 -1.7076 14.1428 -1.24808 14.8321C -0.788547 15.5213 0.142757 15.7076 0.83205 15.2481L -0.83205 12.7519ZM 7.83205 16.5814C 8.52134 16.1219 8.7076 15.1906 8.24808 14.5013C 7.78855 13.812 6.85724 13.6257 6.16795 14.0853L 7.83205 16.5814ZM -0.83205 18.7519C -1.52134 19.2115 -1.7076 20.1428 -1.24808 20.8321C -0.788547 21.5213 0.142757 21.7076 0.83205 21.2481L -0.83205 18.7519ZM 14.5598 1.49619C 15.8208 1.58626 17.8702 2.22854 19.5785 3.55857C 21.2429 4.85439 22.5 6.72722 22.5 9.33333L 25.5 9.33333C 25.5 5.60611 23.646 2.92339 21.4215 1.19143C 19.2409 -0.506317 16.6236 -1.36404 14.7735 -1.49619L 14.5598 1.49619ZM 14.6667 -1.5C 13.2476 -1.5 11.7926 -1.13622 10.86 0.327218C 10.0649 1.57491 9.83333 3.38734 9.83333 5.66667L 12.8333 5.66667C 12.8333 3.41266 13.1017 2.39175 13.39 1.93945C 13.5407 1.70288 13.7524 1.5 14.6667 1.5L 14.6667 -1.5ZM 14.7735 20.1629C 16.6236 20.0307 19.2409 19.173 21.4215 17.4752C 23.646 15.7433 25.5 13.0606 25.5 9.33333L 22.5 9.33333C 22.5 11.9394 21.2429 13.8123 19.5785 15.1081C 17.8702 16.4381 15.8208 17.0804 14.5598 17.1705L 14.7735 20.1629ZM 14.6667 17.1667C 13.7524 17.1667 13.5407 16.9638 13.39 16.7272C 13.1017 16.2749 12.8333 15.254 12.8333 13L 9.83333 13C 9.83333 15.2793 10.0649 17.0918 10.86 18.3394C 11.7926 19.8029 13.2476 20.1667 14.6667 20.1667L 14.6667 17.1667ZM 12.8333 13L 12.8333 5.66667L 9.83333 5.66667L 9.83333 13L 12.8333 13ZM 6.16795 2.08526L -0.83205 6.75192L 0.83205 9.24808L 7.83205 4.58141L 6.16795 2.08526ZM 6.16795 8.08526L -0.83205 12.7519L 0.83205 15.2481L 7.83205 10.5814L 6.16795 8.08526ZM 6.16795 14.0853L -0.83205 18.7519L 0.83205 21.2481L 7.83205 16.5814L 6.16795 14.0853Z"/>
</defs>
</svg>
