<svg width="48" height="48" viewBox="0 0 48 48" version="1.1" xmlns="http://www.w3.org/2000/svg" xmlns:xlink="http://www.w3.org/1999/xlink">
<title>headlights</title>
<desc>Created using Figma</desc>
<g id="Canvas" transform="translate(7958 -829)">
<clipPath id="clip-0" clip-rule="evenodd">
<path d="M -7958 829L -7910 829L -7910 877L -7958 877L -7958 829Z" fill="#FFFFFF"/>
</clipPath>
<g id="headlights" clip-path="url(#clip-0)">
<g id="Vector 16">
<use xlink:href="#path0_stroke" transform="translate(-7952 838)" fill="#25CB55"/>
</g>
</g>
</g>
<defs>
<path id="path0_stroke" d="M 22 0L 22.1425 -1.99492L 22.0713 -2L 22 -2L 22 0ZM 22 28L 22 30L 22.0713 30L 22.1425 29.9949L 22 28ZM 11.6094 6.6641C 12.5285 6.0514 12.7768 4.80966 12.1641 3.8906C 11.5514 2.97154 10.3097 2.72319 9.3906 3.3359L 11.6094 6.6641ZM -1.1094 10.3359C -2.02846 10.9486 -2.27681 12.1903 -1.6641 13.1094C -1.0514 14.0285 0.190343 14.2768 1.1094 13.6641L -1.1094 10.3359ZM 11.6094 12.6641C 12.5285 12.0514 12.7768 10.8097 12.1641 9.8906C 11.5514 8.97154 10.3097 8.72319 9.3906 9.3359L 11.6094 12.6641ZM -1.1094 16.3359C -2.02846 16.9486 -2.27681 18.1903 -1.6641 19.1094C -1.0514 20.0285 0.190343 20.2768 1.1094 19.6641L -1.1094 16.3359ZM 11.6094 18.6641C 12.5285 18.0514 12.7768 16.8097 12.1641 15.8906C 11.5514 14.9715 10.3097 14.7232 9.3906 15.3359L 11.6094 18.6641ZM -1.1094 22.3359C -2.02846 22.9486 -2.27681 24.1903 -1.6641 25.1094C -1.0514 26.0285 0.190343 26.2768 1.1094 25.6641L -1.1094 22.3359ZM 11.6094 24.6641C 12.5285 24.0514 12.7768 22.8097 12.1641 21.8906C 11.5514 20.9715 10.3097 20.7232 9.3906 21.3359L 11.6094 24.6641ZM -1.1094 28.3359C -2.02846 28.9486 -2.27681 30.1903 -1.6641 31.1094C -1.0514 32.0285 0.190343 32.2768 1.1094 31.6641L -1.1094 28.3359ZM 21.8575 1.99492C 23.7981 2.13353 26.9195 3.1149 29.5213 5.1406C 32.0645 7.12067 34 9.99741 34 14L 38 14C 38 8.50259 35.2688 4.546 31.9787 1.9844C 28.7471 -0.531571 24.8685 -1.8002 22.1425 -1.99492L 21.8575 1.99492ZM 22 -2C 19.9134 -2 17.8346 -1.46773 16.5009 0.625179C 15.3504 2.43044 15 5.08312 15 8.5L 19 8.5C 19 5.11688 19.3996 3.51956 19.8741 2.77482C 20.1654 2.31773 20.5866 2 22 2L 22 -2ZM 22.1425 29.9949C 24.8685 29.8002 28.7471 28.5316 31.9787 26.0156C 35.2688 23.454 38 19.4974 38 14L 34 14C 34 18.0026 32.0645 20.8793 29.5213 22.8594C 26.9195 24.8851 23.7981 25.8665 21.8575 26.0051L 22.1425 29.9949ZM 22 26C 20.5866 26 20.1654 25.6823 19.8741 25.2252C 19.3996 24.4804 19 22.8831 19 19.5L 15 19.5C 15 22.9169 15.3504 25.5696 16.5009 27.3748C 17.8346 29.4677 19.9134 30 22 30L 22 26ZM 19 19.5L 19 8.5L 15 8.5L 15 19.5L 19 19.5ZM 9.3906 3.3359L -1.1094 10.3359L 1.1094 13.6641L 11.6094 6.6641L 9.3906 3.3359ZM 9.3906 9.3359L -1.1094 16.3359L 1.1094 19.6641L 11.6094 12.6641L 9.3906 9.3359ZM 9.3906 15.3359L -1.1094 22.3359L 1.1094 25.6641L 11.6094 18.6641L 9.3906 15.3359ZM 9.3906 21.3359L -1.1094 28.3359L 1.1094 31.6641L 11.6094 24.6641L 9.3906 21.3359Z"/>
</defs>
</svg>
