<svg width="1888" height="508" viewBox="0 0 1888 508" version="1.1" xmlns="http://www.w3.org/2000/svg" xmlns:xlink="http://www.w3.org/1999/xlink">
<title>Keyboard</title>
<desc>Created using Figma</desc>
<g id="Canvas" transform="translate(6224 -5177)">
<g id="Keyboard">
<g id="Light">
<g id="Background" filter="url(#filter0_d)">
<use xlink:href="#path0_fill" transform="translate(-6220 5177)" fill="#F0F0F0"/>
</g>
<g id="Keyboard">
<g id="key">
<g id="letter">
<use xlink:href="#path1_fill" transform="translate(-6180 5217)"/>
</g>
</g>
<g id="key">
<g id="letter">
<use xlink:href="#path2_fill" transform="translate(-6120 5317)"/>
</g>
</g>
<g id="key">
<g id="letter">
<use xlink:href="#path3_fill" transform="translate(-6000 5317)"/>
</g>
</g>
<g id="key">
<g id="letter">
<use xlink:href="#path4_fill" transform="translate(-5880 5317)"/>
</g>
</g>
<g id="key">
<g id="letter">
<use xlink:href="#path5_fill" transform="translate(-5760 5317)"/>
</g>
</g>
<g id="key">
<g id="letter">
<use xlink:href="#path6_fill" transform="translate(-5640 5317)"/>
</g>
</g>
<g id="key">
<g id="letter">
<use xlink:href="#path7_fill" transform="translate(-5520 5317)"/>
</g>
</g>
<g id="key">
<g id="letter">
<use xlink:href="#path8_fill" transform="translate(-5400 5317)"/>
</g>
</g>
<g id="key">
<g id="letter">
<use xlink:href="#path9_fill" transform="translate(-5280 5317)"/>
</g>
</g>
<g id="key">
<g id="letter">
<use xlink:href="#path10_fill" transform="translate(-6060 5417)"/>
</g>
</g>
<g id="key">
<g id="letter">
<use xlink:href="#path11_fill" transform="translate(-5940 5417)"/>
</g>
</g>
<g id="key">
<g id="letter">
<use xlink:href="#path12_fill" transform="translate(-5820 5417)"/>
</g>
</g>
<g id="key">
<g id="letter">
<use xlink:href="#path13_fill" transform="translate(-5700 5417)"/>
</g>
</g>
<g id="key">
<g id="letter">
<use xlink:href="#path14_fill" transform="translate(-5580 5417)"/>
</g>
</g>
<g id="key">
<g id="letter">
<use xlink:href="#path15_fill" transform="translate(-5460 5417)"/>
</g>
</g>
<g id="key">
<g id="letter">
<use xlink:href="#path16_fill" transform="translate(-5340 5417)"/>
</g>
</g>
<g id="key">
<g id="letter">
<use xlink:href="#path17_fill" transform="translate(-5220 5417)"/>
</g>
</g>
<g id="key">
<g id="letter">
<use xlink:href="#path18_fill" transform="translate(-5100 5417)"/>
</g>
</g>
<g id="key">
<g id="letter">
<use xlink:href="#path19_fill" transform="translate(-4980 5417)"/>
</g>
</g>
<g id="key">
<g id="letter">
<use xlink:href="#path20_fill" transform="translate(-5160 5317)"/>
</g>
</g>
<g id="key">
<g id="letter">
<use xlink:href="#path21_fill" transform="translate(-6060 5217)"/>
</g>
</g>
<g id="key">
<g id="letter">
<use xlink:href="#path22_fill" transform="translate(-5940 5217)"/>
</g>
</g>
<g id="key">
<g id="letter">
<use xlink:href="#path23_fill" transform="translate(-5820 5217)"/>
</g>
</g>
<g id="key">
<g id="letter">
<use xlink:href="#path24_fill" transform="translate(-5700 5217)"/>
</g>
</g>
<g id="key">
<g id="letter">
<use xlink:href="#path25_fill" transform="translate(-5580 5217)"/>
</g>
</g>
<g id="key">
<g id="letter">
<use xlink:href="#path26_fill" transform="translate(-5460 5217)"/>
</g>
</g>
<g id="key">
<g id="letter">
<use xlink:href="#path27_fill" transform="translate(-5340 5217)"/>
</g>
</g>
<g id="key">
<g id="letter">
<use xlink:href="#path28_fill" transform="translate(-5220 5217)"/>
</g>
</g>
<g id="key">
<g id="letter">
<use xlink:href="#path29_fill" transform="translate(-5100 5217)"/>
</g>
</g>
</g>
<g id="Numpad">
<g id="key">
<g id="letter">
<use xlink:href="#path30_fill" transform="translate(-4500 5217)"/>
</g>
</g>
<g id="key">
<g id="letter">
<use xlink:href="#path31_fill" transform="translate(-4620 5217)"/>
</g>
</g>
<g id="key">
<g id="letter">
<use xlink:href="#path32_fill" transform="translate(-4740 5217)"/>
</g>
</g>
<g id="key">
<g id="letter">
<use xlink:href="#path33_fill" transform="translate(-4500 5317)"/>
</g>
</g>
<g id="key">
<g id="letter">
<use xlink:href="#path34_fill" transform="translate(-4620 5317)"/>
</g>
</g>
<g id="key">
<g id="letter">
<use xlink:href="#path35_fill" transform="translate(-4740 5317)"/>
</g>
</g>
<g id="key">
<g id="letter">
<use xlink:href="#path36_fill" transform="translate(-4500 5417)"/>
</g>
</g>
<g id="key">
<g id="letter">
<use xlink:href="#path37_fill" transform="translate(-4620 5417)"/>
</g>
</g>
<g id="key">
<g id="letter">
<use xlink:href="#path38_fill" transform="translate(-4740 5417)"/>
</g>
</g>
<g id="key">
<g id="letter">
<use xlink:href="#path39_fill" transform="translate(-4620 5517)"/>
</g>
</g>
</g>
<g id="enter">
<g id="Rectangle 12">
<use xlink:href="#path40_fill" transform="translate(-5020 5337)" fill="#0E0E0E"/>
<use xlink:href="#path40_fill" transform="translate(-5020 5337)" fill="#FFFFFF" fill-opacity="0.8"/>
</g>
<g id="ENTER">
<use xlink:href="#path41_fill" transform="translate(-5000 5355)"/>
</g>
</g>
<g id="backspace">
<g id="Rectangle 12">
<use xlink:href="#path42_fill" transform="translate(-4960 5237)" fill="#0E0E0E"/>
<use xlink:href="#path42_fill" transform="translate(-4960 5237)" fill="#FFFFFF" fill-opacity="0.8"/>
</g>
<g id="&#60;---">
<use xlink:href="#path43_fill" transform="translate(-4940 5255)"/>
</g>
</g>
<g id="next">
<g id="Rectangle 12">
<use xlink:href="#path44_fill" transform="translate(-4907 5537)" fill="#0E0E0E"/>
<use xlink:href="#path44_fill" transform="translate(-4907 5537)" fill="#FFFFFF" fill-opacity="0.8"/>
</g>
<g id="&#62;">
<use xlink:href="#path45_fill" transform="translate(-4887 5555)"/>
</g>
</g>
<g id="back">
<g id="Rectangle 12">
<use xlink:href="#path44_fill" transform="translate(-5030 5537)" fill="#0E0E0E"/>
<use xlink:href="#path44_fill" transform="translate(-5030 5537)" fill="#FFFFFF" fill-opacity="0.8"/>
</g>
<g id="&#60;">
<use xlink:href="#path46_fill" transform="translate(-5010 5555)"/>
</g>
</g>
<g id="symbols">
<g id="Rectangle 12">
<use xlink:href="#path47_fill" transform="translate(-5216 5537)" fill="#0E0E0E"/>
<use xlink:href="#path47_fill" transform="translate(-5216 5537)" fill="#FFFFFF" fill-opacity="0.8"/>
</g>
<g id="?#&#38;">
<use xlink:href="#path48_fill" transform="translate(-5196 5555)"/>
</g>
</g>
<g id="shift">
<g id="Rectangle 12">
<use xlink:href="#path49_fill" transform="translate(-6180 5537)" fill="#0E0E0E"/>
<use xlink:href="#path49_fill" transform="translate(-6180 5537)" fill="#FFFFFF" fill-opacity="0.8"/>
</g>
<g id="^">
<use xlink:href="#path50_fill" transform="translate(-6160 5555)"/>
</g>
</g>
<g id="spacebar">
<g id="Rectangle 12">
<use xlink:href="#path51_fill" transform="translate(-5984 5537)" fill="#0E0E0E"/>
<use xlink:href="#path51_fill" transform="translate(-5984 5537)" fill="#FFFFFF" fill-opacity="0.8"/>
</g>
</g>
</g>
</g>
</g>
<defs>
<filter id="filter0_d" filterUnits="userSpaceOnUse" x="-6224" y="5177" width="1888" height="508" color-interpolation-filters="sRGB">
<feFlood flood-opacity="0" result="BackgroundImageFix"/>
<feColorMatrix in="SourceAlpha" type="matrix" values="0 0 0 0 0 0 0 0 0 0 0 0 0 0 0 0 0 0 255 0"/>
<feOffset dx="0" dy="4"/>
<feGaussianBlur stdDeviation="2"/>
<feColorMatrix type="matrix" values="0 0 0 0 0 0 0 0 0 0 0 0 0 0 0 0 0 0 0.25 0"/>
<feBlend mode="normal" in2="BackgroundImageFix" result="effect1_dropShadow"/>
<feBlend mode="normal" in="SourceGraphic" in2="effect1_dropShadow" result="shape"/>
</filter>
<path id="path0_fill" d="M 0 10C 0 4.47715 4.47715 0 10 0L 1870 0C 1875.52 0 1880 4.47715 1880 10L 1880 490C 1880 495.523 1875.52 500 1870 500L 10 500C 4.47715 500 0 495.523 0 490L 0 10Z"/>
<path id="path1_fill" d="M 74.7167 65.88C 73.7567 66.744 72.6527 67.416 71.4047 67.896C 70.1567 68.4 68.9327 68.652 67.7327 68.652C 66.1487 68.652 64.6727 68.184 63.3047 67.248C 61.9367 66.336 60.7727 65.04 59.8127 63.36C 57.3167 63.36 55.0487 62.784 53.0087 61.632C 50.9687 60.48 49.3607 58.92 48.1847 56.952C 47.0087 54.96 46.4207 52.764 46.4207 50.364C 46.4207 47.964 47.0087 45.78 48.1847 43.812C 49.3607 41.844 50.9687 40.296 53.0087 39.168C 55.0727 38.04 57.3527 37.476 59.8487 37.476C 62.3447 37.476 64.6127 38.04 66.6527 39.168C 68.7167 40.296 70.3367 41.844 71.5127 43.812C 72.6887 45.78 73.2767 47.964 73.2767 50.364C 73.2767 52.236 72.9047 54 72.1607 55.656C 71.4407 57.288 70.4207 58.704 69.1007 59.904C 67.7807 61.104 66.2567 62.004 64.5287 62.604C 65.8007 63.948 67.0607 64.62 68.3087 64.62C 69.6047 64.62 71.1167 63.948 72.8447 62.604L 74.7167 65.88ZM 51.3527 50.364C 51.3527 51.948 51.7367 53.4 52.5047 54.72C 53.2967 56.04 54.3407 57.084 55.6367 57.852C 56.9567 58.62 58.3847 59.004 59.9207 59.004C 61.4327 59.004 62.8367 58.62 64.1327 57.852C 65.4287 57.084 66.4487 56.04 67.1927 54.72C 67.9607 53.4 68.3447 51.948 68.3447 50.364C 68.3447 48.78 67.9607 47.34 67.1927 46.044C 66.4487 44.724 65.4287 43.692 64.1327 42.948C 62.8367 42.18 61.4327 41.796 59.9207 41.796C 58.3847 41.796 56.9567 42.18 55.6367 42.948C 54.3167 43.692 53.2727 44.724 52.5047 46.044C 51.7367 47.34 51.3527 48.78 51.3527 50.364Z"/>
<path id="path2_fill" d="M 68.2967 63L 66.0647 57.672L 53.7527 57.672L 51.5207 63L 46.5167 63L 57.5687 37.8L 62.5727 37.8L 73.4807 63L 68.2967 63ZM 55.4807 53.532L 64.3367 53.532L 59.9447 42.948L 55.4807 53.532Z"/>
<path id="path3_fill" d="M 67.6333 44.28C 66.3373 43.488 65.0053 42.876 63.6373 42.444C 62.2933 42.012 61.1053 41.796 60.0733 41.796C 58.9213 41.796 58.0093 42.012 57.3373 42.444C 56.6653 42.876 56.3293 43.476 56.3293 44.244C 56.3293 44.94 56.5573 45.528 57.0133 46.008C 57.4933 46.464 58.0813 46.848 58.7773 47.16C 59.4973 47.448 60.4693 47.772 61.6933 48.132C 63.3973 48.636 64.7893 49.14 65.8693 49.644C 66.9733 50.148 67.9093 50.892 68.6773 51.876C 69.4453 52.86 69.8293 54.156 69.8293 55.764C 69.8293 57.3 69.4093 58.644 68.5693 59.796C 67.7533 60.924 66.6133 61.788 65.1493 62.388C 63.7093 62.988 62.0533 63.288 60.1813 63.288C 58.2133 63.288 56.2933 62.928 54.4213 62.208C 52.5493 61.464 50.9173 60.48 49.5253 59.256L 51.5413 55.152C 52.8133 56.328 54.2413 57.252 55.8253 57.924C 57.4093 58.596 58.8853 58.932 60.2533 58.932C 61.5973 58.932 62.6533 58.68 63.4213 58.176C 64.1893 57.648 64.5733 56.94 64.5733 56.052C 64.5733 55.332 64.3333 54.744 63.8533 54.288C 63.3973 53.808 62.8093 53.424 62.0893 53.136C 61.3693 52.848 60.3853 52.524 59.1373 52.164C 57.4333 51.66 56.0413 51.168 54.9613 50.688C 53.8813 50.208 52.9573 49.488 52.1893 48.528C 51.4213 47.544 51.0373 46.26 51.0373 44.676C 51.0373 43.212 51.4213 41.94 52.1893 40.86C 52.9813 39.756 54.0853 38.904 55.5013 38.304C 56.9413 37.704 58.5973 37.404 60.4693 37.404C 62.1013 37.404 63.7093 37.644 65.2933 38.124C 66.9013 38.604 68.3293 39.252 69.5773 40.068L 67.6333 44.28Z"/>
<path id="path4_fill" d="M 59.6501 37.8C 62.1701 37.8 64.4261 38.34 66.4181 39.42C 68.4101 40.476 69.9701 41.964 71.0981 43.884C 72.2261 45.804 72.7901 47.976 72.7901 50.4C 72.7901 52.824 72.2141 54.996 71.0621 56.916C 69.9341 58.812 68.3621 60.3 66.3461 61.38C 64.3301 62.46 62.0381 63 59.4701 63L 49.1741 63L 49.1741 37.8L 59.6501 37.8ZM 59.7581 58.752C 61.2941 58.752 62.6741 58.404 63.8981 57.708C 65.1461 56.988 66.1181 56.004 66.8141 54.756C 67.5101 53.484 67.8581 52.044 67.8581 50.436C 67.8581 48.828 67.4981 47.388 66.7781 46.116C 66.0581 44.82 65.0621 43.824 63.7901 43.128C 62.5421 42.408 61.1381 42.048 59.5781 42.048L 53.9981 42.048L 53.9981 58.752L 59.7581 58.752Z"/>
<path id="path5_fill" d="M 52.6019 37.8L 69.9899 37.8L 69.9539 42.012L 57.4259 42.012L 57.4259 48.816L 68.8379 48.816L 68.8379 53.028L 57.4259 53.028L 57.4259 63L 52.6019 63L 52.6019 37.8Z"/>
<path id="path6_fill" d="M 66.7487 50.472L 70.9607 50.472L 70.9607 60.048C 69.6407 61.032 68.0807 61.836 66.2807 62.46C 64.4807 63.06 62.7167 63.36 60.9887 63.36C 58.5167 63.36 56.2607 62.784 54.2207 61.632C 52.2047 60.48 50.6087 58.92 49.4327 56.952C 48.2567 54.96 47.6687 52.764 47.6687 50.364C 47.6687 47.964 48.2687 45.792 49.4687 43.848C 50.6687 41.88 52.3007 40.332 54.3647 39.204C 56.4527 38.052 58.7567 37.476 61.2767 37.476C 63.0767 37.476 64.8527 37.8 66.6047 38.448C 68.3567 39.096 69.8687 39.984 71.1407 41.112L 68.4047 44.676C 67.4447 43.764 66.3287 43.056 65.0567 42.552C 63.8087 42.048 62.5487 41.796 61.2767 41.796C 59.6927 41.796 58.2287 42.18 56.8847 42.948C 55.5647 43.692 54.5207 44.724 53.7527 46.044C 52.9847 47.364 52.6007 48.804 52.6007 50.364C 52.6007 51.948 52.9847 53.4 53.7527 54.72C 54.5447 56.04 55.6007 57.084 56.9207 57.852C 58.2407 58.62 59.7047 59.004 61.3127 59.004C 62.1767 59.004 63.0767 58.872 64.0127 58.608C 64.9727 58.32 65.8847 57.924 66.7487 57.42L 66.7487 50.472Z"/>
<path id="path7_fill" d="M 48.8753 37.8L 53.6993 37.8L 53.6993 48.564L 66.2633 48.564L 66.2633 37.8L 71.0873 37.8L 71.0873 63L 66.2633 63L 66.2633 52.776L 53.6993 52.776L 53.6993 63L 48.8753 63L 48.8753 37.8Z"/>
<path id="path8_fill" d="M 66.5738 55.08C 66.5738 57.648 65.8538 59.652 64.4138 61.092C 62.9738 62.508 61.0058 63.216 58.5098 63.216C 55.3898 63.216 52.7978 61.956 50.7338 59.436L 53.0018 55.836C 53.8418 56.724 54.7298 57.42 55.6658 57.924C 56.6258 58.404 57.5258 58.644 58.3658 58.644C 59.4218 58.644 60.2378 58.332 60.8138 57.708C 61.4138 57.06 61.7138 56.148 61.7138 54.972L 61.7138 42.084L 53.0378 42.084L 53.0378 37.8L 66.5738 37.8L 66.5738 55.08Z"/>
<path id="path9_fill" d="M 72.5355 63L 66.7395 63L 58.8195 52.2L 54.8595 56.556L 54.8595 63L 50.0355 63L 50.0355 37.8L 54.8595 37.8L 54.8595 50.364L 66.2355 37.8L 71.9235 37.8L 62.2395 48.456L 72.5355 63Z"/>
<path id="path10_fill" d="M 49.7046 37.8L 70.5846 37.8L 70.5846 41.184L 55.7526 58.788L 70.7646 58.788L 70.7646 63L 49.2366 63L 49.2366 59.58L 64.0686 42.012L 49.6686 42.012L 49.7046 37.8Z"/>
<path id="path11_fill" d="M 48.3702 37.8L 54.0222 37.8L 59.8182 46.08L 65.6142 37.8L 71.3382 37.8L 62.8782 49.86L 72.0582 63L 66.2622 63L 59.8182 54L 53.4462 63L 47.7942 63L 56.8662 50.076L 48.3702 37.8Z"/>
<path id="path12_fill" d="M 68.8148 45.072C 67.9268 44.04 66.8708 43.236 65.6468 42.66C 64.4468 42.084 63.2228 41.796 61.9748 41.796C 60.4148 41.796 58.9868 42.168 57.6908 42.912C 56.3948 43.656 55.3748 44.688 54.6308 46.008C 53.8868 47.304 53.5148 48.732 53.5148 50.292C 53.5148 51.852 53.8868 53.292 54.6308 54.612C 55.3748 55.908 56.3948 56.94 57.6908 57.708C 58.9868 58.452 60.4148 58.824 61.9748 58.824C 63.1748 58.824 64.3748 58.56 65.5748 58.032C 66.7988 57.504 67.8788 56.772 68.8148 55.836L 71.6588 59.004C 70.3388 60.348 68.8028 61.416 67.0508 62.208C 65.2988 62.976 63.5228 63.36 61.7228 63.36C 59.2988 63.36 57.0788 62.784 55.0628 61.632C 53.0468 60.48 51.4628 58.92 50.3108 56.952C 49.1588 54.96 48.5828 52.764 48.5828 50.364C 48.5828 47.964 49.1708 45.78 50.3468 43.812C 51.5228 41.844 53.1188 40.296 55.1348 39.168C 57.1748 38.04 59.4308 37.476 61.9028 37.476C 63.7028 37.476 65.4668 37.836 67.1948 38.556C 68.9228 39.276 70.3988 40.272 71.6228 41.544L 68.8148 45.072Z"/>
<path id="path13_fill" d="M 47.4509 37.8L 52.6349 37.8L 60.0509 57.636L 67.5389 37.8L 72.5069 37.8L 62.4269 63L 57.4229 63L 47.4509 37.8Z"/>
<path id="path14_fill" d="M 61.5303 37.8C 64.2183 37.8 66.3303 38.364 67.8663 39.492C 69.4263 40.62 70.2063 42.156 70.2063 44.1C 70.2063 45.492 69.8103 46.692 69.0183 47.7C 68.2503 48.684 67.1823 49.344 65.8143 49.68C 67.4943 49.992 68.8023 50.712 69.7383 51.84C 70.6983 52.968 71.1783 54.372 71.1783 56.052C 71.1783 58.212 70.3383 59.916 68.6583 61.164C 67.0023 62.388 64.7343 63 61.8543 63L 50.3343 63L 50.3343 37.8L 61.5303 37.8ZM 61.2783 48.096C 62.5263 48.096 63.4983 47.82 64.1943 47.268C 64.9143 46.716 65.2743 45.948 65.2743 44.964C 65.2743 44.004 64.9143 43.26 64.1943 42.732C 63.4983 42.204 62.5263 41.952 61.2783 41.976L 55.1583 41.976L 55.1583 48.096L 61.2783 48.096ZM 61.2783 58.824C 62.8143 58.848 64.0143 58.56 64.8783 57.96C 65.7423 57.36 66.1743 56.52 66.1743 55.44C 66.1743 54.408 65.7423 53.604 64.8783 53.028C 64.0143 52.428 62.8143 52.14 61.2783 52.164L 55.1583 52.164L 55.1583 58.824L 61.2783 58.824Z"/>
<path id="path15_fill" d="M 66.4433 37.8L 71.1233 37.8L 71.1233 63L 66.5513 63L 53.5913 45.648L 53.5913 63L 48.8753 63L 48.8753 37.8L 53.4473 37.8L 66.4433 55.188L 66.4433 37.8Z"/>
<path id="path16_fill" d="M 46.1683 37.8L 51.6763 37.8L 60.0283 54.036L 68.3083 37.8L 73.8163 37.8L 73.8163 63L 69.3883 63L 69.3883 44.928L 61.5403 60.408L 58.4443 60.408L 50.5603 44.928L 50.5603 63L 46.1683 63L 46.1683 37.8Z"/>
<path id="path17_fill" d="M 55.4619 50.4L 64.4979 50.4L 64.4979 53.64L 55.4619 53.64L 55.4619 50.4Z"/>
<path id="path18_fill" d="M 60.0593 58.212C 60.7313 58.212 61.2953 58.44 61.7513 58.896C 62.2313 59.352 62.4713 59.964 62.4713 60.732C 62.4713 61.092 62.4113 61.416 62.2913 61.704C 62.1953 61.992 62.0393 62.34 61.8233 62.748L 59.5553 67.104L 57.2153 67.104L 58.7273 62.82C 58.0073 62.34 57.6473 61.644 57.6473 60.732C 57.6473 59.988 57.8753 59.388 58.3313 58.932C 58.7873 58.452 59.3633 58.212 60.0593 58.212Z"/>
<path id="path19_fill" d="M 59.989 58.14C 60.709 58.14 61.297 58.38 61.753 58.86C 62.233 59.34 62.473 59.952 62.473 60.696C 62.473 61.464 62.233 62.1 61.753 62.604C 61.297 63.084 60.709 63.324 59.989 63.324C 59.293 63.324 58.705 63.072 58.225 62.568C 57.769 62.064 57.541 61.44 57.541 60.696C 57.541 59.952 57.769 59.34 58.225 58.86C 58.705 58.38 59.293 58.14 59.989 58.14Z"/>
<path id="path20_fill" d="M 53.3577 37.8L 58.1817 37.8L 58.1817 58.644L 69.0537 58.644L 69.0537 63L 53.3577 63L 53.3577 37.8Z"/>
<path id="path21_fill" d="M 74.2889 37.8L 79.2929 37.8L 70.7609 63L 65.7569 63L 59.9969 43.884L 54.1289 63L 49.1969 63L 40.7009 37.8L 45.8849 37.8L 51.8249 57.78L 57.7289 37.8L 62.4809 37.8L 68.4209 57.852L 74.2889 37.8Z"/>
<path id="path22_fill" d="M 51.1956 37.8L 69.6636 37.8L 69.6636 42.012L 56.0196 42.012L 56.0196 48.24L 68.2596 48.24L 68.2596 52.452L 56.0196 52.452L 56.0196 58.788L 70.0956 58.788L 70.0956 63L 51.1956 63L 51.1956 37.8Z"/>
<path id="path23_fill" d="M 65.8562 63L 61.5002 55.548C 61.3082 55.572 61.0082 55.584 60.6002 55.584L 54.9122 55.584L 54.9122 63L 50.0882 63L 50.0882 37.8L 60.6002 37.8C 63.8642 37.8 66.3842 38.556 68.1602 40.068C 69.9362 41.58 70.8242 43.716 70.8242 46.476C 70.8242 48.444 70.3922 50.124 69.5282 51.516C 68.6882 52.908 67.4522 53.952 65.8202 54.648L 71.3642 63L 65.8562 63ZM 54.9122 51.336L 60.6002 51.336C 62.4242 51.336 63.8162 50.94 64.7762 50.148C 65.7362 49.356 66.2162 48.18 66.2162 46.62C 66.2162 45.084 65.7362 43.932 64.7762 43.164C 63.8162 42.396 62.4242 42.012 60.6002 42.012L 54.9122 42.012L 54.9122 51.336Z"/>
<path id="path24_fill" d="M 49.706 37.8L 70.262 37.8L 70.262 42.084L 62.414 42.084L 62.414 63L 57.554 63L 57.554 42.084L 49.706 42.084L 49.706 37.8Z"/>
<path id="path25_fill" d="M 71.6745 37.8L 62.4945 54.756L 62.4945 63L 57.6705 63L 57.6705 54.936L 48.2745 37.8L 53.1705 37.8L 60.0465 49.644L 66.8145 37.8L 71.6745 37.8Z"/>
<path id="path26_fill" d="M 53.8465 52.632C 53.8465 54.624 54.4105 56.184 55.5385 57.312C 56.6665 58.44 58.1785 59.004 60.0745 59.004C 61.9705 59.004 63.4585 58.44 64.5385 57.312C 65.6425 56.184 66.1945 54.624 66.1945 52.632L 66.1945 37.8L 71.0185 37.8L 71.0185 52.632C 71.0185 54.816 70.5745 56.724 69.6865 58.356C 68.7985 59.964 67.5265 61.2 65.8705 62.064C 64.2385 62.928 62.3065 63.36 60.0745 63.36C 57.8185 63.36 55.8505 62.928 54.1705 62.064C 52.5145 61.2 51.2425 59.964 50.3545 58.356C 49.4665 56.724 49.0225 54.816 49.0225 52.632L 49.0225 37.8L 53.8465 37.8L 53.8465 52.632Z"/>
<path id="path27_fill" d="M 57.594 37.8L 62.418 37.8L 62.418 63L 57.594 63L 57.594 37.8Z"/>
<path id="path28_fill" d="M 59.9893 37.476C 62.4853 37.476 64.7533 38.04 66.7933 39.168C 68.8573 40.296 70.4773 41.844 71.6533 43.812C 72.8293 45.78 73.4173 47.964 73.4173 50.364C 73.4173 52.764 72.8293 54.96 71.6533 56.952C 70.4773 58.92 68.8573 60.48 66.7933 61.632C 64.7533 62.784 62.4853 63.36 59.9893 63.36C 57.4933 63.36 55.2133 62.784 53.1493 61.632C 51.1093 60.48 49.5013 58.92 48.3253 56.952C 47.1493 54.96 46.5613 52.764 46.5613 50.364C 46.5613 47.964 47.1493 45.78 48.3253 43.812C 49.5013 41.844 51.1093 40.296 53.1493 39.168C 55.2133 38.04 57.4933 37.476 59.9893 37.476ZM 60.0613 41.796C 58.5253 41.796 57.0973 42.18 55.7773 42.948C 54.4573 43.692 53.4133 44.724 52.6453 46.044C 51.8773 47.34 51.4933 48.78 51.4933 50.364C 51.4933 51.948 51.8773 53.4 52.6453 54.72C 53.4373 56.04 54.4813 57.084 55.7773 57.852C 57.0973 58.62 58.5253 59.004 60.0613 59.004C 61.5733 59.004 62.9773 58.62 64.2733 57.852C 65.5693 57.084 66.5893 56.04 67.3333 54.72C 68.1013 53.4 68.4853 51.948 68.4853 50.364C 68.4853 48.78 68.1013 47.34 67.3333 46.044C 66.5893 44.724 65.5693 43.692 64.2733 42.948C 62.9773 42.18 61.5733 41.796 60.0613 41.796Z"/>
<path id="path29_fill" d="M 61.2815 37.8C 64.4495 37.8 66.8975 38.556 68.6255 40.068C 70.3775 41.58 71.2535 43.716 71.2535 46.476C 71.2535 49.356 70.3775 51.6 68.6255 53.208C 66.8975 54.792 64.4495 55.584 61.2815 55.584L 55.7735 55.584L 55.7735 63L 50.9495 63L 50.9495 37.8L 61.2815 37.8ZM 61.0295 51.336C 62.8535 51.336 64.2455 50.94 65.2055 50.148C 66.1895 49.356 66.6815 48.18 66.6815 46.62C 66.6815 45.084 66.1895 43.932 65.2055 43.164C 64.2455 42.396 62.8535 42.012 61.0295 42.012L 55.7735 42.012L 55.7735 51.336L 61.0295 51.336Z"/>
<path id="path30_fill" d="M 61.4261 48.312C 63.7541 48.528 65.6021 49.236 66.9701 50.436C 68.3621 51.636 69.0581 53.208 69.0581 55.152C 69.0581 56.736 68.6501 58.14 67.8341 59.364C 67.0181 60.564 65.8541 61.512 64.3421 62.208C 62.8301 62.88 61.0661 63.216 59.0501 63.216C 57.3461 63.216 55.6541 62.964 53.9741 62.46C 52.3181 61.932 50.9021 61.236 49.7261 60.372L 51.6341 56.628C 52.6421 57.468 53.7581 58.116 54.9821 58.572C 56.2061 59.004 57.4541 59.22 58.7261 59.22C 60.4781 59.22 61.8461 58.86 62.8301 58.14C 63.8381 57.42 64.3421 56.448 64.3421 55.224C 64.3421 53.976 63.8501 53.028 62.8661 52.38C 61.8821 51.708 60.4781 51.372 58.6541 51.372L 54.8381 51.372L 54.8381 48.456L 61.6061 41.904L 50.9861 41.904L 50.9501 37.8L 67.7981 37.8L 67.7981 40.788L 60.0941 48.168L 61.4261 48.312Z"/>
<path id="path31_fill" d="M 69.3988 58.788L 69.3988 63L 50.7508 63L 50.7508 59.508L 60.2548 49.716C 61.1668 48.804 61.8988 47.904 62.4508 47.016C 63.0028 46.128 63.2788 45.36 63.2788 44.712C 63.2788 43.8 62.9188 43.092 62.1988 42.588C 61.4788 42.06 60.4828 41.796 59.2108 41.796C 58.1068 41.796 56.9308 42.072 55.6828 42.624C 54.4348 43.176 53.2588 43.944 52.1548 44.928L 50.2468 41.22C 51.7348 40.068 53.2948 39.18 54.9268 38.556C 56.5828 37.908 58.2388 37.584 59.8948 37.584C 61.5508 37.584 63.0148 37.848 64.2868 38.376C 65.5588 38.904 66.5428 39.66 67.2388 40.644C 67.9588 41.604 68.3188 42.72 68.3188 43.992C 68.3188 45.216 67.8988 46.512 67.0588 47.88C 66.2188 49.248 65.0428 50.724 63.5308 52.308L 57.1228 58.788L 69.3988 58.788Z"/>
<path id="path32_fill" d="M 53.163 37.8L 63.279 37.8L 63.279 63L 58.455 63L 58.455 42.048L 53.163 42.048L 53.163 37.8Z"/>
<path id="path33_fill" d="M 67.1494 43.128C 66.4054 42.6 65.5414 42.204 64.5574 41.94C 63.5974 41.652 62.6254 41.508 61.6414 41.508C 59.3854 41.508 57.6814 42.264 56.5294 43.776C 55.4014 45.288 54.8734 47.352 54.9454 49.968C 55.5934 48.864 56.4694 48.036 57.5734 47.484C 58.7014 46.908 60.0334 46.62 61.5694 46.62C 64.0654 46.62 66.0454 47.352 67.5094 48.816C 68.9734 50.28 69.7054 52.236 69.7054 54.684C 69.7054 56.412 69.3334 57.924 68.5894 59.22C 67.8454 60.492 66.7894 61.476 65.4214 62.172C 64.0774 62.868 62.5054 63.216 60.7054 63.216C 58.5694 63.216 56.7214 62.724 55.1614 61.74C 53.6014 60.756 52.4014 59.34 51.5614 57.492C 50.7454 55.644 50.3374 53.436 50.3374 50.868C 50.3374 48.204 50.7814 45.876 51.6694 43.884C 52.5814 41.868 53.8654 40.32 55.5214 39.24C 57.1774 38.136 59.1214 37.584 61.3534 37.584C 62.6494 37.584 63.9814 37.764 65.3494 38.124C 66.7414 38.46 67.9534 38.928 68.9854 39.528L 67.1494 43.128ZM 60.6334 50.328C 59.0974 50.328 57.8734 50.76 56.9614 51.624C 56.0494 52.488 55.6054 53.556 55.6294 54.828C 55.6054 55.548 55.7734 56.244 56.1334 56.916C 56.4934 57.564 57.0334 58.104 57.7534 58.536C 58.4974 58.944 59.4094 59.148 60.4894 59.148C 61.9294 59.148 63.0814 58.752 63.9454 57.96C 64.8094 57.168 65.2414 56.064 65.2414 54.648C 65.2414 53.328 64.8214 52.284 63.9814 51.516C 63.1654 50.724 62.0494 50.328 60.6334 50.328Z"/>
<path id="path34_fill" d="M 60.2139 47.016C 62.1099 47.016 63.7779 47.34 65.2179 47.988C 66.6579 48.636 67.7619 49.548 68.5299 50.724C 69.3219 51.876 69.7179 53.184 69.7179 54.648C 69.7179 56.352 69.3099 57.852 68.4939 59.148C 67.6779 60.444 66.5259 61.452 65.0379 62.172C 63.5499 62.868 61.8219 63.216 59.8539 63.216C 58.2699 63.216 56.6139 62.952 54.8859 62.424C 53.1819 61.872 51.6699 61.14 50.3499 60.228L 52.2579 56.448C 53.3379 57.288 54.4899 57.948 55.7139 58.428C 56.9379 58.884 58.1619 59.112 59.3859 59.112C 60.9699 59.112 62.2179 58.752 63.1299 58.032C 64.0659 57.288 64.5339 56.28 64.5339 55.008C 64.5339 53.784 64.0779 52.836 63.1659 52.164C 62.2539 51.492 60.8979 51.156 59.0979 51.156C 58.2339 51.156 57.0939 51.192 55.6779 51.264C 54.2619 51.312 53.1699 51.372 52.4019 51.444L 52.4019 37.8L 68.6019 37.8L 68.6019 42.012L 56.8659 42.012L 56.8659 47.016L 60.2139 47.016Z"/>
<path id="path35_fill" d="M 69.655 52.92L 69.655 57.06L 66.019 57.06L 66.019 63L 61.555 63L 61.555 57.06L 49.495 57.06L 49.495 53.496L 57.703 37.8L 62.347 37.8L 54.643 52.92L 61.555 52.92L 61.555 47.088L 66.019 47.088L 66.019 52.92L 69.655 52.92Z"/>
<path id="path36_fill" d="M 52.7125 57.672C 53.4565 58.176 54.3085 58.572 55.2685 58.86C 56.2285 59.124 57.1885 59.256 58.1485 59.256C 60.4045 59.256 62.0965 58.512 63.2245 57.024C 64.3525 55.512 64.8925 53.448 64.8445 50.832C 64.1965 51.912 63.3085 52.74 62.1805 53.316C 61.0525 53.892 59.7325 54.18 58.2205 54.18C 55.7485 54.18 53.7925 53.448 52.3525 51.984C 50.9125 50.52 50.1925 48.552 50.1925 46.08C 50.1925 44.352 50.5525 42.852 51.2725 41.58C 52.0165 40.308 53.0605 39.324 54.4045 38.628C 55.7485 37.932 57.3205 37.584 59.1205 37.584C 61.2565 37.584 63.0925 38.076 64.6285 39.06C 66.1885 40.044 67.3765 41.46 68.1925 43.308C 69.0325 45.156 69.4525 47.352 69.4525 49.896C 69.4525 52.56 68.9965 54.9 68.0845 56.916C 67.1965 58.932 65.9245 60.492 64.2685 61.596C 62.6125 62.676 60.6805 63.216 58.4725 63.216C 57.2005 63.216 55.8685 63.036 54.4765 62.676C 53.1085 62.316 51.8965 61.836 50.8405 61.236L 52.7125 57.672ZM 59.3365 41.652C 57.9205 41.652 56.7805 42.048 55.9165 42.84C 55.0525 43.632 54.6205 44.724 54.6205 46.116C 54.6205 47.46 55.0285 48.516 55.8445 49.284C 56.6605 50.052 57.7765 50.436 59.1925 50.436C 60.7285 50.436 61.9405 50.016 62.8285 49.176C 63.7165 48.312 64.1485 47.244 64.1245 45.972C 64.1485 44.82 63.7405 43.812 62.9005 42.948C 62.0845 42.084 60.8965 41.652 59.3365 41.652Z"/>
<path id="path37_fill" d="M 59.931 37.584C 62.571 37.584 64.647 38.184 66.159 39.384C 67.695 40.56 68.463 42.168 68.463 44.208C 68.463 45.36 68.151 46.404 67.527 47.34C 66.903 48.276 66.039 49.008 64.935 49.536C 66.423 50.088 67.587 50.928 68.427 52.056C 69.291 53.184 69.723 54.48 69.723 55.944C 69.723 57.408 69.327 58.692 68.535 59.796C 67.743 60.9 66.603 61.752 65.115 62.352C 63.651 62.928 61.935 63.216 59.967 63.216C 57.999 63.216 56.271 62.928 54.783 62.352C 53.319 61.752 52.191 60.912 51.399 59.832C 50.607 58.752 50.211 57.48 50.211 56.016C 50.211 54.528 50.655 53.22 51.543 52.092C 52.431 50.94 53.655 50.088 55.215 49.536C 54.039 48.96 53.115 48.192 52.443 47.232C 51.795 46.272 51.471 45.204 51.471 44.028C 51.471 42.06 52.227 40.5 53.739 39.348C 55.275 38.172 57.339 37.584 59.931 37.584ZM 59.967 41.04C 58.575 41.04 57.483 41.34 56.691 41.94C 55.923 42.54 55.539 43.38 55.539 44.46C 55.539 45.54 55.923 46.38 56.691 46.98C 57.483 47.58 58.575 47.88 59.967 47.88C 61.359 47.88 62.439 47.58 63.207 46.98C 63.975 46.38 64.359 45.54 64.359 44.46C 64.359 43.38 63.975 42.54 63.207 41.94C 62.439 41.34 61.359 41.04 59.967 41.04ZM 59.931 51.624C 58.299 51.624 57.027 51.96 56.115 52.632C 55.203 53.304 54.747 54.252 54.747 55.476C 54.747 56.724 55.203 57.696 56.115 58.392C 57.027 59.088 58.311 59.436 59.967 59.436C 61.599 59.436 62.871 59.1 63.783 58.428C 64.719 57.732 65.187 56.76 65.187 55.512C 65.187 54.288 64.719 53.34 63.783 52.668C 62.871 51.972 61.587 51.624 59.931 51.624Z"/>
<path id="path38_fill" d="M 49.9705 37.8L 69.4105 37.8L 69.4105 41.4L 59.0425 63L 53.9305 63L 63.9745 42.012L 54.2905 42.012L 54.2545 45.576L 49.9705 45.576L 49.9705 37.8Z"/>
<path id="path39_fill" d="M 60.035 37.584C 63.515 37.584 66.191 38.688 68.063 40.896C 69.935 43.104 70.871 46.272 70.871 50.4C 70.871 54.504 69.935 57.66 68.063 59.868C 66.191 62.076 63.515 63.18 60.035 63.18C 56.555 63.18 53.879 62.076 52.007 59.868C 50.135 57.66 49.199 54.504 49.199 50.4C 49.199 46.272 50.135 43.104 52.007 40.896C 53.879 38.688 56.555 37.584 60.035 37.584ZM 60.035 41.4C 58.043 41.4 56.567 42.132 55.607 43.596C 54.647 45.036 54.167 47.304 54.167 50.4C 54.167 53.472 54.647 55.74 55.607 57.204C 56.567 58.668 58.043 59.4 60.035 59.4C 62.027 59.4 63.503 58.668 64.463 57.204C 65.423 55.74 65.903 53.472 65.903 50.4C 65.903 47.304 65.423 45.036 64.463 43.596C 63.503 42.132 62.027 41.4 60.035 41.4Z"/>
<path id="path40_fill" d="M 0 30C 0 13.4315 13.4315 0 30 0L 190 0C 206.569 0 220 13.4315 220 30C 220 46.5685 206.569 60 190 60L 30 60C 13.4315 60 0 46.5685 0 30Z"/>
<path id="path41_fill" d="M 57.4915 5L 67.7515 5L 67.7515 7.34L 60.1715 7.34L 60.1715 10.8L 66.9715 10.8L 66.9715 13.14L 60.1715 13.14L 60.1715 16.66L 67.9915 16.66L 67.9915 19L 57.4915 19L 57.4915 5ZM 80.4741 5L 83.0741 5L 83.0741 19L 80.5341 19L 73.3341 9.36L 73.3341 19L 70.7141 19L 70.7141 5L 73.2541 5L 80.4741 14.66L 80.4741 5ZM 84.9549 5L 96.3749 5L 96.3749 7.38L 92.0149 7.38L 92.0149 19L 89.3149 19L 89.3149 7.38L 84.9549 7.38L 84.9549 5ZM 98.2727 5L 108.533 5L 108.533 7.34L 100.953 7.34L 100.953 10.8L 107.753 10.8L 107.753 13.14L 100.953 13.14L 100.953 16.66L 108.773 16.66L 108.773 19L 98.2727 19L 98.2727 5ZM 120.255 19L 117.835 14.86C 117.729 14.8733 117.562 14.88 117.335 14.88L 114.175 14.88L 114.175 19L 111.495 19L 111.495 5L 117.335 5C 119.149 5 120.549 5.42 121.535 6.26C 122.522 7.1 123.015 8.28667 123.015 9.82C 123.015 10.9133 122.775 11.8467 122.295 12.62C 121.829 13.3933 121.142 13.9733 120.235 14.36L 123.315 19L 120.255 19ZM 114.175 12.52L 117.335 12.52C 118.349 12.52 119.122 12.3 119.655 11.86C 120.189 11.42 120.455 10.7667 120.455 9.9C 120.455 9.04667 120.189 8.40667 119.655 7.98C 119.122 7.55333 118.349 7.34 117.335 7.34L 114.175 7.34L 114.175 12.52Z"/>
<path id="path42_fill" d="M 0 30C 0 13.4315 13.4315 0 30 0L 130 0C 146.569 0 160 13.4315 160 30C 160 46.5685 146.569 60 130 60L 30 60C 13.4315 60 0 46.5685 0 30Z"/>
<path id="path43_fill" d="M 53.2267 7.64L 53.2267 9.64L 46.3067 12.5L 53.2267 15.36L 53.2267 17.34L 44.5867 13.64L 44.5867 11.36L 53.2267 7.64ZM 55.0863 12L 60.1063 12L 60.1063 13.8L 55.0863 13.8L 55.0863 12ZM 62.4886 12L 67.5086 12L 67.5086 13.8L 62.4886 13.8L 62.4886 12ZM 69.8909 12L 74.9109 12L 74.9109 13.8L 69.8909 13.8L 69.8909 12Z"/>
<path id="path44_fill" d="M 0 30C 0 13.4315 13.4315 0 30 0L 77 0C 93.5685 0 107 13.4315 107 30C 107 46.5685 93.5685 60 77 60L 30 60C 13.4315 60 0 46.5685 0 30Z"/>
<path id="path45_fill" d="M 29.1702 17.24L 29.1702 15.24L 36.0902 12.38L 29.1702 9.52L 29.1702 7.54L 37.8102 11.24L 37.8102 13.52L 29.1702 17.24Z"/>
<path id="path46_fill" d="M 37.8302 7.64L 37.8302 9.64L 30.9102 12.5L 37.8302 15.36L 37.8302 17.34L 29.1902 13.64L 29.1902 11.36L 37.8302 7.64Z"/>
<path id="path47_fill" d="M 0 30C 0 13.4315 13.4315 0 30 0L 140 0C 156.569 0 170 13.4315 170 30C 170 46.5685 156.569 60 140 60L 30 60C 13.4315 60 0 46.5685 0 30Z"/>
<path id="path48_fill" d="M 46.9834 9.22C 46.9968 7.91333 47.3834 6.89333 48.1434 6.16C 48.9034 5.41333 49.9301 5.04 51.2234 5.04C 52.4768 5.04 53.4701 5.33333 54.2034 5.92C 54.9501 6.50667 55.3234 7.34667 55.3234 8.44C 55.3234 8.94667 55.2368 9.39333 55.0634 9.78C 54.8901 10.1667 54.6834 10.4933 54.4434 10.76C 54.2034 11.0267 53.8768 11.34 53.4634 11.7C 52.9168 12.1667 52.5034 12.5933 52.2234 12.98C 51.9568 13.3533 51.8234 13.82 51.8234 14.38L 49.8234 14.38C 49.8234 13.8467 49.9034 13.38 50.0634 12.98C 50.2234 12.58 50.4101 12.2533 50.6234 12C 50.8501 11.7333 51.1568 11.4267 51.5434 11.08C 51.9968 10.6667 52.3301 10.3067 52.5434 10C 52.7568 9.69333 52.8634 9.30667 52.8634 8.84C 52.8634 8.32 52.6968 7.93333 52.3634 7.68C 52.0434 7.41333 51.5901 7.28 51.0034 7.28C 50.3901 7.28 49.9101 7.44667 49.5634 7.78C 49.2168 8.1 49.0301 8.58 49.0034 9.22L 46.9834 9.22ZM 50.7834 16.3C 51.1834 16.3 51.5101 16.4333 51.7634 16.7C 52.0301 16.9667 52.1634 17.3067 52.1634 17.72C 52.1634 18.1467 52.0301 18.5 51.7634 18.78C 51.5101 19.0467 51.1834 19.18 50.7834 19.18C 50.3968 19.18 50.0701 19.04 49.8034 18.76C 49.5501 18.48 49.4234 18.1333 49.4234 17.72C 49.4234 17.3067 49.5501 16.9667 49.8034 16.7C 50.0701 16.4333 50.3968 16.3 50.7834 16.3ZM 69.4069 10.42L 66.6069 10.42L 66.2069 13.7L 68.9469 13.7L 68.7469 15.66L 65.9669 15.66L 65.5469 19L 63.6269 19L 64.0469 15.66L 60.7069 15.66L 60.2869 19L 58.3669 19L 58.7869 15.66L 56.0269 15.66L 56.2269 13.7L 59.0269 13.7L 59.4269 10.42L 56.6869 10.42L 56.8669 8.48L 59.6669 8.48L 60.1069 5L 62.0069 5L 61.5869 8.48L 64.9269 8.48L 65.3669 5L 67.2669 5L 66.8469 8.48L 69.6069 8.48L 69.4069 10.42ZM 64.2869 13.7L 64.6869 10.42L 61.3469 10.42L 60.9469 13.7L 64.2869 13.7ZM 81.9977 19.46L 79.8777 17.36C 78.6243 18.5333 77.2377 19.12 75.7177 19.12C 74.8777 19.12 74.111 18.9533 73.4177 18.62C 72.7377 18.2733 72.1977 17.8 71.7977 17.2C 71.411 16.5867 71.2177 15.9 71.2177 15.14C 71.2177 14.26 71.4777 13.5267 71.9977 12.94C 72.531 12.34 73.2577 11.7933 74.1777 11.3C 73.7377 10.6867 73.411 10.1267 73.1977 9.62C 72.9977 9.1 72.8977 8.59333 72.8977 8.1C 72.8977 7.14 73.2377 6.36667 73.9177 5.78C 74.5977 5.18 75.5043 4.88 76.6377 4.88C 77.3443 4.88 77.9777 5.00667 78.5377 5.26C 79.0977 5.51333 79.531 5.87333 79.8377 6.34C 80.1443 6.79333 80.2977 7.31333 80.2977 7.9C 80.2977 8.76667 80.0043 9.48667 79.4177 10.06C 78.831 10.62 78.0043 11.1667 76.9377 11.7C 77.711 12.5533 78.6177 13.4933 79.6577 14.52C 80.0977 13.8533 80.4843 13.04 80.8177 12.08L 82.5177 13.34C 82.1443 14.3133 81.6777 15.18 81.1177 15.94L 83.3377 18.1L 81.9977 19.46ZM 74.9577 8.1C 74.9577 8.75333 75.271 9.52 75.8977 10.4C 76.6443 10.0133 77.2177 9.63333 77.6177 9.26C 78.0177 8.87333 78.2177 8.42 78.2177 7.9C 78.2177 7.47333 78.071 7.13333 77.7777 6.88C 77.4977 6.61333 77.1243 6.48 76.6577 6.48C 76.151 6.48 75.7377 6.63333 75.4177 6.94C 75.111 7.24667 74.9577 7.63333 74.9577 8.1ZM 75.8177 17.16C 76.7377 17.16 77.6243 16.7667 78.4777 15.98C 77.1177 14.6333 76.0377 13.5067 75.2377 12.6C 74.6377 12.9467 74.1777 13.3067 73.8577 13.68C 73.5377 14.04 73.3777 14.46 73.3777 14.94C 73.3777 15.5933 73.611 16.1267 74.0777 16.54C 74.5443 16.9533 75.1243 17.16 75.8177 17.16Z"/>
<path id="path49_fill" d="M 0 30C 0 13.4315 13.4315 0 30 0L 150 0C 166.569 0 180 13.4315 180 30C 180 46.5685 166.569 60 150 60L 30 60C 13.4315 60 0 46.5685 0 30Z"/>
<path id="path50_fill" d="M 74.8512 16.32L 72.8513 16.32L 69.9913 10.06L 67.1312 16.32L 65.1512 16.32L 68.8513 8.5L 71.1313 8.5L 74.8512 16.32Z"/>
<path id="path51_fill" d="M 0 30C 0 13.4315 13.4315 0 30 0L 722 0C 738.569 0 752 13.4315 752 30C 752 46.5685 738.569 60 722 60L 30 60C 13.4315 60 0 46.5685 0 30Z"/>
</defs>
</svg>
