<svg width="167" height="355" viewBox="0 0 167 355" version="1.1" xmlns="http://www.w3.org/2000/svg" xmlns:xlink="http://www.w3.org/1999/xlink">
<title>model 3</title>
<desc>Created using Figma</desc>
<g id="Canvas" transform="translate(6563 -6035)">
<g id="model 3" filter="url(#filter0_d)">
<g id="Vector 21">
<use xlink:href="#path0_fill" transform="translate(-6553 6043)" fill="url(#paint0_linear)"/>
</g>
<g id="Vector 26">
<use xlink:href="#path1_fill" transform="translate(-6534.78 6339)" fill="#960000"/>
</g>
<g id="Vector 26">
<use xlink:href="#path1_fill" transform="matrix(-1 0 0 1 -6424.33 6339)" fill="#960000"/>
</g>
<g id="Vector 22">
<use xlink:href="#path2_fill" transform="translate(-6534.56 6057)" fill="url(#paint3_linear)"/>
</g>
<g id="Vector 22">
<use xlink:href="#path2_fill" transform="matrix(-1 0 0 1 -6423.63 6057)" fill="url(#paint4_linear)"/>
</g>
<g id="Frunk">
<g id="Vector 23">
<use xlink:href="#path3_fill" transform="translate(-6529.56 6050)" fill="url(#paint5_linear)"/>
<use xlink:href="#path4_stroke" transform="translate(-6529.56 6050)" fill="#DADADA"/>
</g>
<g id="Tesla Logo">
<g id="Tesla Logo">
<use xlink:href="#path5_fill" transform="matrix(-1 -1.22465e-16 1.22465e-16 -1 -6474.56 6066)" fill="#9E9E9E"/>
</g>
</g>
</g>
<g id="Frunk Opened">
<g id="Vector 23">
<use xlink:href="#path3_fill" transform="translate(-6529.56 6050)" fill="url(#paint8_linear)"/>
<use xlink:href="#path4_stroke" transform="translate(-6529.56 6050)" fill="#DADADA"/>
</g>
<g id="Vector 42">
<use xlink:href="#path6_fill" transform="translate(-6512 6055)" fill="#0C0C0C"/>
</g>
<g id="Vector 23">
<use xlink:href="#path7_fill" transform="translate(-6528 6077)" fill="url(#paint11_linear)"/>
<use xlink:href="#path8_stroke" transform="translate(-6528 6077)" fill="#E82127"/>
</g>
<g id="Vector 23">
<use xlink:href="#path9_fill" transform="translate(-6530 6077)" fill="url(#paint13_linear)"/>
<use xlink:href="#path10_stroke" transform="translate(-6530 6077)" fill="#DADADA"/>
</g>
<g id="Tesla Logo">
<g id="Tesla Logo">
<use xlink:href="#path11_fill" transform="matrix(-1 -8.2587e-17 1.81598e-16 -1 -6475 6087.79)" fill="#9E9E9E"/>
</g>
</g>
</g>
<g id="Vector 24">
<use xlink:href="#path12_fill" transform="translate(-6529.56 6117)" fill="url(#paint16_linear)"/>
</g>
<g id="Vector 25">
<use xlink:href="#path13_fill" transform="translate(-6536.6 6155.5)" fill="#444444"/>
</g>
<g id="Vector 25">
<use xlink:href="#path13_fill" transform="matrix(-1 0 0 1 -6422.01 6155.5)" fill="#444444"/>
</g>
</g>
</g>
<defs>
<filter id="filter0_d" filterUnits="userSpaceOnUse" x="-6563" y="6035" width="167" height="355" color-interpolation-filters="sRGB">
<feFlood flood-opacity="0" result="BackgroundImageFix"/>
<feColorMatrix in="SourceAlpha" type="matrix" values="0 0 0 0 0 0 0 0 0 0 0 0 0 0 0 0 0 0 255 0"/>
<feOffset dx="0" dy="2"/>
<feGaussianBlur stdDeviation="5"/>
<feColorMatrix type="matrix" values="0 0 0 0 0 0 0 0 0 0 0 0 0 0 0 0 0 0 0.25 0"/>
<feBlend mode="normal" in2="BackgroundImageFix" result="effect1_dropShadow"/>
<feBlend mode="normal" in="SourceGraphic" in2="effect1_dropShadow" result="shape"/>
</filter>
<linearGradient id="paint0_linear" x1="0" y1="0" x2="1" y2="0" gradientUnits="userSpaceOnUse" gradientTransform="matrix(146 -0.999998 0.439771 64.2067 0.22445 97.3966)">
<stop offset="0" stop-color="#FFFFFF"/>
<stop offset="0.486188" stop-color="#DEDEDE"/>
<stop offset="0.994475" stop-color="#DEDEDE"/>
</linearGradient>
<linearGradient id="paint3_linear" x1="0" y1="0" x2="1" y2="0" gradientUnits="userSpaceOnUse" gradientTransform="matrix(9 16.5 -12.7352 6.94649 19.2944 -1.47325)">
<stop offset="0" stop-color="#6E6E6E"/>
<stop offset="0.342541" stop-color="#FFFFFF"/>
<stop offset="0.480663" stop-color="#C9C9C9"/>
<stop offset="0.889503" stop-color="#5D5D5D"/>
</linearGradient>
<linearGradient id="paint4_linear" x1="0" y1="0" x2="1" y2="0" gradientUnits="userSpaceOnUse" gradientTransform="matrix(9 16.5 -12.7352 6.94649 19.2944 -1.47325)">
<stop offset="0" stop-color="#6E6E6E"/>
<stop offset="0.342541" stop-color="#FFFFFF"/>
<stop offset="0.480663" stop-color="#C9C9C9"/>
<stop offset="0.889503" stop-color="#5D5D5D"/>
</linearGradient>
<linearGradient id="paint5_linear" x1="0" y1="0" x2="1" y2="0" gradientUnits="userSpaceOnUse" gradientTransform="matrix(-82.5 0.500002 -0.602124 -99.3497 91.3011 89.2149)">
<stop offset="0" stop-color="#DADADA"/>
<stop offset="0.331492" stop-color="#F0F0F0"/>
<stop offset="1" stop-color="#FFFFFF"/>
</linearGradient>
<linearGradient id="paint8_linear" x1="0" y1="0" x2="1" y2="0" gradientUnits="userSpaceOnUse" gradientTransform="matrix(-82.5 0.500002 -0.602124 -99.3497 91.3011 89.2149)">
<stop offset="0" stop-color="#222222"/>
<stop offset="0.187845" stop-color="#2E2E2E"/>
<stop offset="0.79558" stop-color="#2E2E2E"/>
<stop offset="1" stop-color="#222222"/>
</linearGradient>
<linearGradient id="paint11_linear" x1="0" y1="0" x2="1" y2="0" gradientUnits="userSpaceOnUse" gradientTransform="matrix(-82.5 0.337189 -0.602124 -66.9988 89.301 60.1642)">
<stop offset="0" stop-color="#DADADA"/>
<stop offset="0.331492" stop-color="#F0F0F0"/>
<stop offset="1" stop-color="#FFFFFF"/>
</linearGradient>
<linearGradient id="paint13_linear" x1="0" y1="0" x2="1" y2="0" gradientUnits="userSpaceOnUse" gradientTransform="matrix(-82.5 0.337189 -0.602124 -66.9988 91.3011 60.1642)">
<stop offset="0" stop-color="#DADADA"/>
<stop offset="0.331492" stop-color="#F0F0F0"/>
<stop offset="1" stop-color="#FFFFFF"/>
</linearGradient>
<linearGradient id="paint16_linear" x1="0" y1="0" x2="1" y2="0" gradientUnits="userSpaceOnUse" gradientTransform="matrix(100 -4.18286e-13 -2.65349e-13 42.4628 1.38226e-13 -21.2314)">
<stop offset="0" stop-color="#262626"/>
<stop offset="0.778317" stop-color="#3A3A3A"/>
<stop offset="0.823126" stop-color="#615C5C"/>
<stop offset="0.864312" stop-color="#282828"/>
<stop offset="1" stop-color="#484848"/>
</linearGradient>
<path id="path0_fill" d="M 10.4444 30C 10.4444 30 26.9443 0 73.4444 0C 119.945 0 136.444 30 136.444 30C 136.444 30 138.444 41 138.444 65C 138.444 89 135.444 95.5 135.444 98L 135.444 112C 135.444 112 145.444 116 146.444 121C 147.444 126 146.444 127.5 146.444 127.5L 135.444 121C 135.444 121 137.444 161 137.444 183C 137.444 205 136.444 234.5 136.444 234.5C 136.444 234.5 138.444 236.5 138.444 240.5L 138.444 289.5C 138.444 293 135.654 298.462 132.444 304C 129.853 312.422 127.924 315.595 123.944 319.5C 106.754 332.019 96.6497 334.192 73.4444 334C 50.2392 333.808 40.1348 332.019 22.9444 319.5C 18.9649 315.595 17.0361 312.422 14.4444 304C 11.235 298.462 8.44444 293 8.44444 289.5L 8.44444 240.5C 8.44444 236.5 10.4444 234.5 10.4444 234.5C 10.4444 234.5 9.44444 205 9.44444 183C 9.44444 161 11.4444 121 11.4444 121L 2.07526 126.536C 1.16061 127.077 0.0995696 126.727 0.0253269 125.668C -0.0457575 124.653 0.0144375 123.15 0.444444 121C 1.44444 116 11.4444 112 11.4444 112L 11.4444 98C 11.4444 95.5 8.44434 89 8.44444 65C 8.44455 41 10.4444 30 10.4444 30Z"/>
<path id="path1_fill" d="M 3.22388 20C -1.15116 15 -0.276112 5 1.22387 0C 1.89054 3.16667 2.22389 11 5.72392 16.5C 8.6051 21.0275 22.2239 29 28.2239 32C 21.7239 30 8.72389 26.2857 3.22388 20Z"/>
<path id="path2_fill" d="M 0.926794 16C 2.92672 9.5 13.9268 0 23.9268 0C 18.4268 5.5 14.9268 10 10.9268 18C 6.92675 26 5.42675 31 2.92679 31C 0.426841 31 -1.07313 22.5 0.926794 16Z"/>
<path id="path3_fill" d="M 24 7.04C 12.5 15.04 0 66.5399 0 83.04L 100 83.04C 100 66.5399 87.5 15.04 76 7.04C 64.5 -0.96 50 0.04 50 0.04C 50 0.04 35.5 -0.96 24 7.04Z"/>
<path id="path4_stroke" d="M 0 83.04L -0.5 83.04L -0.5 83.54L 0 83.54L 0 83.04ZM 50 0.04L 49.9656 0.538815L 50 0.541188L 50.0344 0.538815L 50 0.04ZM 100 83.04L 100 83.54L 100.5 83.54L 100.5 83.04L 100 83.04ZM 0.5 83.04C 0.5 74.8616 3.609 57.916 8.16819 41.9901C 10.4457 34.0337 13.0744 26.3643 15.8546 20.1745C 18.6451 13.9602 21.5361 9.36308 24.2855 7.45045L 23.7145 6.62955C 20.7139 8.71692 17.7299 13.5573 14.9423 19.7649C 12.1443 25.9969 9.49176 33.7338 7.20681 41.7149C 2.641 57.6639 -0.5 74.7183 -0.5 83.04L 0.5 83.04ZM 24.2855 7.45045C 29.9609 3.49335 36.3518 1.77953 41.3858 1.0346C 43.8948 0.662387 46.0351 0.539622 47.5648 0.508647C 48.3261 0.493121 48.9254 0.500834 49.3405 0.512461C 49.5464 0.518207 49.7025 0.524828 49.8097 0.530117C 49.8626 0.532717 49.9015 0.534899 49.9285 0.536498C 49.9415 0.537274 49.9508 0.537854 49.9574 0.538279C 49.9605 0.538478 49.9626 0.538613 49.9641 0.538717C 49.9648 0.538762 49.9652 0.538787 49.9655 0.53881C 49.9656 0.538819 49.9657 0.53882 49.9657 0.538824C 49.9657 0.538821 49.9656 0.538815 50 0.04C 50.0344 -0.458815 50.0342 -0.458829 50.0339 -0.458847C 50.0338 -0.458858 50.0335 -0.458879 50.0331 -0.458901C 50.0326 -0.458937 50.0317 -0.459002 50.0306 -0.459074C 50.0286 -0.459204 50.0254 -0.459417 50.0215 -0.459668C 50.0141 -0.460143 50.0024 -0.460875 49.9877 -0.461747C 49.959 -0.463443 49.9151 -0.465901 49.859 -0.468672C 49.7482 -0.474124 49.5815 -0.481176 49.3685 -0.487148C 48.9457 -0.498959 48.3223 -0.506871 47.5445 -0.491147C 45.9962 -0.459622 43.7927 -0.332387 41.2392 0.0453983C 36.1482 0.800473 29.5391 2.58665 23.7145 6.62955L 24.2855 7.45045ZM 100.5 83.04C 100.5 74.7183 97.359 57.6639 92.7932 41.7149C 90.5082 33.7338 87.8557 25.9969 85.0577 19.7649C 82.2701 13.5573 79.2861 8.71692 76.2855 6.62955L 75.7145 7.45045C 78.4639 9.36308 81.3549 13.9602 84.1454 20.1745C 86.9256 26.3643 89.5543 34.0337 91.8318 41.9901C 96.391 57.916 99.5 74.8616 99.5 83.04L 100.5 83.04ZM 76.2855 6.62955C 70.4609 2.58665 63.8518 0.800473 58.7608 0.0453983C 56.2073 -0.332387 54.0038 -0.459622 52.4555 -0.491147C 51.6777 -0.506871 51.0543 -0.498959 50.6315 -0.487148C 50.4185 -0.481176 50.2518 -0.474124 50.141 -0.468672C 50.0849 -0.465901 50.041 -0.463443 50.0123 -0.461747C 49.9976 -0.460875 49.9859 -0.460143 49.9785 -0.459668C 49.9746 -0.459417 49.9714 -0.459204 49.9694 -0.459074C 49.9683 -0.459002 49.9674 -0.458937 49.9669 -0.458901C 49.9665 -0.458879 49.9662 -0.458858 49.9661 -0.458847C 49.9658 -0.458829 49.9656 -0.458815 50 0.04C 50.0344 0.538815 50.0343 0.538821 50.0343 0.538824C 50.0343 0.53882 50.0344 0.538819 50.0345 0.53881C 50.0348 0.538787 50.0352 0.538762 50.0359 0.538717C 50.0374 0.538613 50.0395 0.538478 50.0426 0.538279C 50.0492 0.537854 50.0585 0.537274 50.0715 0.536498C 50.0985 0.534899 50.1374 0.532717 50.1903 0.530117C 50.2975 0.524828 50.4536 0.518207 50.6595 0.512461C 51.0746 0.500834 51.6739 0.493121 52.4352 0.508647C 53.9649 0.539622 56.1052 0.662387 58.6142 1.0346C 63.6482 1.77953 70.0391 3.49335 75.7145 7.45045L 76.2855 6.62955ZM 100 82.54L 0 82.54L 0 83.54L 100 83.54L 100 82.54Z"/>
<path id="path5_fill" fill-rule="evenodd" d="M 6.39941 2.09814L 5.00049 10L 3.59033 2.09717C 2.26562 2.09814 1.8457 2.24463 1.78467 2.84424C 1.78467 2.84424 0.889648 2.50928 0.438965 1.8291C 2.19922 1.00977 3.96826 0.972656 3.96826 0.972656L 4.99805 2.23535L 6.03076 0.972656C 6.03076 0.972656 7.79932 1.00977 9.56006 1.8291C 9.10889 2.50928 8.21436 2.84424 8.21436 2.84424C 8.15381 2.24512 7.73291 2.09814 6.39941 2.09814ZM 9.71973 1.55957C 8.05225 0.82959 6.42334 0.597168 5 0.608398C 3.57666 0.597168 1.94727 0.82959 0.279785 1.55957C 0.081543 1.19775 0 0.978516 0 0.978516C 1.82275 0.253906 3.52979 0.00634766 5 0C 6.46973 0.00634766 8.17725 0.253906 10 0.978516C 10 0.978516 9.94287 1.15625 9.71973 1.55957Z"/>
<path id="path6_fill" d="M 0.560204 21.4642L 7.22218 9.98582C 10.7742 3.86585 21.1803 0 29.1228 0L 35.7935 0C 43.7359 0 54.1421 3.86585 57.6941 9.98582L 64.3561 21.4642C 66.0989 24.467 63.5643 28 59.6673 28L 5.24903 28C 1.35202 28 -1.18259 24.467 0.560204 21.4642Z"/>
<path id="path7_fill" d="M 22 4.74759C 10.5 10.1426 0 43.8728 0 55L 96 55C 96 43.8728 85.5 10.1426 74 4.74759C 62.5 -0.647399 48 0.026975 48 0.026975C 48 0.026975 33.5 -0.647399 22 4.74759Z"/>
<path id="path8_stroke" d="M 0 55L -2 55L -2 57L 0 57L 0 55ZM 48 0.026975L 47.9071 2.02482L 48 2.02914L 48.0929 2.02482L 48 0.026975ZM 96 55L 96 57L 98 57L 98 55L 96 55ZM 2 55C 2 49.8061 4.52037 38.8659 8.55271 28.446C 10.557 23.2632 12.8614 18.3702 15.399 14.3833C 17.9498 10.3685 20.508 7.65667 22.8494 6.55825L 21.1506 2.93694C 17.742 4.53601 14.6752 8.06361 12.0228 12.2383C 9.3574 16.4409 6.88049 21.6874 4.82229 27.0024C 0.729633 37.5782 -2 49.0667 -2 55L 2 55ZM 22.8494 6.55825C 28.3585 3.9553 34.5283 2.85049 39.5113 2.35425C 41.982 2.10649 44.0681 2.02629 45.5821 2.00571C 46.3293 1.99536 46.9081 2.00044 47.3168 2.00818C 47.5165 2.01192 47.6636 2.01614 47.7679 2.01962C 47.8179 2.02127 47.8526 2.02258 47.8781 2.02361C 47.8898 2.02407 47.897 2.02438 47.903 2.02464C 47.9054 2.02474 47.9064 2.02479 47.9076 2.02484C 47.908 2.02486 47.9082 2.02487 47.908 2.02486C 47.908 2.02486 47.9077 2.02485 47.9077 2.02484C 47.9074 2.02483 47.9071 2.02482 48 0.026975C 48.0929 -1.97087 48.0925 -1.97089 48.092 -1.97091C 48.0917 -1.97092 48.0911 -1.97095 48.0907 -1.97097C 48.09 -1.971 48.0885 -1.97107 48.0871 -1.97113C 48.0848 -1.97124 48.0805 -1.97142 48.0759 -1.97162C 48.0678 -1.97197 48.0541 -1.97255 48.038 -1.9732C 48.008 -1.9744 47.9598 -1.97621 47.9008 -1.97818C 47.7871 -1.98195 47.6114 -1.98695 47.3922 -1.99111C 46.963 -1.99918 46.3191 -2.00463 45.5273 -1.99391C 43.9631 -1.97234 41.7055 -1.88394 39.1137 -1.62593C 33.9717 -1.1106 27.1415 0.144897 21.1506 2.93694L 22.8494 6.55825ZM 98 55C 98 49.0667 95.2704 37.5782 91.1777 27.0024C 89.1195 21.6874 86.6426 16.4409 83.9772 12.2383C 81.3248 8.06361 78.258 4.53601 74.8494 2.93694L 73.1506 6.55825C 75.492 7.65667 78.0502 10.3685 80.601 14.3833C 83.1386 18.3702 85.443 23.2632 87.4473 28.446C 91.4796 38.8659 94 49.8061 94 55L 98 55ZM 74.8494 2.93694C 68.8585 0.144897 62.0283 -1.1106 56.8863 -1.62593C 54.2945 -1.88394 52.0369 -1.97234 50.4727 -1.99391C 49.6809 -2.00463 49.037 -1.99918 48.6078 -1.99111C 48.3886 -1.98695 48.2129 -1.98195 48.0992 -1.97818C 48.0402 -1.97621 47.992 -1.9744 47.962 -1.9732C 47.9459 -1.97255 47.9322 -1.97197 47.9241 -1.97162C 47.9195 -1.97142 47.9152 -1.97124 47.9129 -1.97113C 47.9115 -1.97107 47.91 -1.971 47.9093 -1.97097C 47.9089 -1.97095 47.9083 -1.97092 47.908 -1.97091C 47.9075 -1.97089 47.9071 -1.97087 48 0.026975C 48.0929 2.02482 48.0926 2.02483 48.0923 2.02484C 48.0923 2.02485 48.092 2.02486 48.092 2.02486C 48.0918 2.02487 48.092 2.02486 48.0924 2.02484C 48.0936 2.02479 48.0946 2.02474 48.097 2.02464C 48.103 2.02438 48.1102 2.02407 48.1219 2.02361C 48.1474 2.02258 48.1821 2.02127 48.2321 2.01962C 48.3364 2.01614 48.4835 2.01192 48.6832 2.00818C 49.0919 2.00044 49.6707 1.99536 50.4179 2.00571C 51.9319 2.02629 54.018 2.10649 56.4887 2.35425C 61.4717 2.85049 67.6415 3.9553 73.1506 6.55825L 74.8494 2.93694ZM 96 53L 0 53L 0 57L 96 57L 96 53Z"/>
<path id="path9_fill" d="M 24 4.74759C 12.5 10.1426 0 44.8728 0 56L 100 56C 100 44.8728 87.5 10.1426 76 4.74759C 64.5 -0.647399 50 0.026975 50 0.026975C 50 0.026975 35.5 -0.647399 24 4.74759Z"/>
<path id="path10_stroke" d="M 0 56L -0.5 56L -0.5 56.5L 0 56.5L 0 56ZM 24 4.74759L 23.7876 4.29493L 24 4.74759ZM 50 0.026975L 49.9768 0.526435L 50 0.527515L 50.0232 0.526435L 50 0.026975ZM 100 56L 100 56.5L 100.5 56.5L 100.5 56L 100 56ZM 76 4.74759L 76.2124 4.29493L 76 4.74759ZM 0.5 56C 0.5 50.5421 3.59034 39.1554 8.14775 28.4196C 10.422 23.0614 13.0411 17.9078 15.8146 13.7442C 18.593 9.57166 21.4672 6.48807 24.2124 5.20025L 23.7876 4.29493C 20.7828 5.70461 17.782 8.98542 14.9823 13.1899C 12.1777 17.4032 9.5155 22.6392 7.22725 28.0288C 2.65966 38.7887 -0.5 50.3307 -0.5 56L 0.5 56ZM 24.2124 5.20025C 29.9021 2.5264 36.3196 1.36508 41.3622 0.861685C 43.8783 0.610075 46.0287 0.526803 47.5615 0.505854C 48.3255 0.495362 48.9287 0.500585 49.3451 0.508446C 49.5521 0.512346 49.7099 0.516858 49.8177 0.520443C 49.8711 0.522215 49.9108 0.523716 49.9381 0.524806C 49.9514 0.525339 49.9611 0.525747 49.9678 0.526039C 49.9711 0.526179 49.9733 0.526278 49.9749 0.526351C 49.9757 0.526385 49.9761 0.526406 49.9765 0.526423C 49.9767 0.52643 49.9767 0.526433 49.9768 0.526437C 49.9768 0.526437 49.9768 0.526435 50 0.026975C 50.0232 -0.472485 50.0231 -0.472492 50.0229 -0.472502C 50.0227 -0.472509 50.0225 -0.472521 50.0222 -0.472534C 50.0217 -0.472557 50.0208 -0.472596 50.0198 -0.472642C 50.0179 -0.472727 50.0148 -0.472862 50.0111 -0.473026C 50.0038 -0.473341 49.9925 -0.473818 49.978 -0.474396C 49.9497 -0.475529 49.9066 -0.477156 49.851 -0.479006C 49.7408 -0.482665 49.5758 -0.487373 49.3639 -0.491376C 48.9424 -0.499321 48.3229 -0.504635 47.5478 -0.494052C 46.0025 -0.472853 43.8092 -0.387532 41.2628 -0.133361C 36.1804 0.374806 29.5979 1.5738 23.7876 4.29493L 24.2124 5.20025ZM 100.5 56C 100.5 50.3307 97.3403 38.7887 92.7728 28.0288C 90.4845 22.6392 87.8223 17.4032 85.0177 13.1899C 82.218 8.98542 79.2172 5.70461 76.2124 4.29493L 75.7876 5.20025C 78.5328 6.48807 81.407 9.57166 84.1854 13.7442C 86.9589 17.9078 89.578 23.0614 91.8522 28.4196C 96.4097 39.1554 99.5 50.5421 99.5 56L 100.5 56ZM 76.2124 4.29493C 70.4021 1.5738 63.8196 0.374806 58.7372 -0.133361C 56.1908 -0.387532 53.9975 -0.472853 52.4522 -0.494052C 51.6771 -0.504635 51.0576 -0.499321 50.6361 -0.491376C 50.4242 -0.487373 50.2592 -0.482665 50.149 -0.479006C 50.0934 -0.477156 50.0503 -0.475529 50.022 -0.474396C 50.0075 -0.473818 49.9962 -0.473341 49.9889 -0.473026C 49.9852 -0.472862 49.9821 -0.472727 49.9802 -0.472642C 49.9792 -0.472596 49.9783 -0.472557 49.9778 -0.472534C 49.9775 -0.472521 49.9773 -0.472509 49.9771 -0.472502C 49.9769 -0.472492 49.9768 -0.472485 50 0.026975C 50.0232 0.526435 50.0232 0.526437 50.0232 0.526437C 50.0233 0.526433 50.0233 0.52643 50.0235 0.526423C 50.0239 0.526406 50.0243 0.526385 50.0251 0.526351C 50.0267 0.526278 50.0289 0.526179 50.0322 0.526039C 50.0389 0.525747 50.0486 0.525339 50.0619 0.524806C 50.0892 0.523716 50.1289 0.522215 50.1823 0.520443C 50.2901 0.516858 50.4479 0.512346 50.6549 0.508446C 51.0713 0.500585 51.6745 0.495362 52.4385 0.505854C 53.9713 0.526803 56.1217 0.610075 58.6378 0.861685C 63.6804 1.36508 70.0979 2.5264 75.7876 5.20025L 76.2124 4.29493ZM 100 55.5L 0 55.5L 0 56.5L 100 56.5L 100 55.5Z"/>
<path id="path11_fill" fill-rule="evenodd" d="M 6.39941 1.41504L 5.00049 6.74365L 3.59033 1.41431C 2.26562 1.41479 1.8457 1.51392 1.78467 1.91821C 1.78467 1.91821 0.889648 1.69238 0.438965 1.2334C 2.19922 0.680908 3.96826 0.656006 3.96826 0.656006L 4.99805 1.50757L 6.03076 0.65625C 6.03076 0.65625 7.79932 0.681152 9.56006 1.23364C 9.10889 1.69238 8.21436 1.91821 8.21436 1.91821C 8.15381 1.51416 7.73291 1.41504 6.39941 1.41504ZM 9.71973 1.05151C 8.05225 0.559326 6.42334 0.402832 5 0.410156C 3.57666 0.402832 1.94727 0.559326 0.279785 1.05151C 0.081543 0.807617 0 0.659912 0 0.659912C 1.82275 0.171387 3.52979 0.00415039 5 0C 6.46973 0.00415039 8.17725 0.171387 10 0.659912C 10 0.659912 9.94287 0.779785 9.71973 1.05151Z"/>
<path id="path12_fill" d="M 50 0C 14 0 0 15.5 0 15.5L 0 23.5202C 0 26.1701 0.18564 28.7962 0.551548 31.4207C 2.50814 45.4544 9 93.1372 9 108C 9 125.5 15 218.5 15 218.5C 17 222.5 21.5 235.5 50 235.5C 78.5 235.5 83 222.5 85 218.5C 85 218.5 91 125.5 91 108C 91 93.1372 97.4919 45.4544 99.4485 31.4207C 99.8144 28.7962 100 26.1701 100 23.5202L 100 15.5C 100 15.5 86 0 50 0Z"/>
<path id="path13_fill" d="M 0.0432526 74.5C -0.456747 12.5 3.54325 0 3.54325 0C 3.54325 0 12.0432 27.5 13.5432 76.5C 15.0432 125.5 15.5433 169 15.5433 169C 15.5433 169 0.543253 136.5 0.0432526 74.5Z"/>
</defs>
</svg>
