<svg width="48" height="48" viewBox="0 0 48 48" version="1.1" xmlns="http://www.w3.org/2000/svg" xmlns:xlink="http://www.w3.org/1999/xlink">
<title>model3-icon</title>
<desc>Created using Figma</desc>
<g id="Canvas" transform="translate(7886 -757)">
<clipPath id="clip-0" clip-rule="evenodd">
<path d="M -7886 757L -7838 757L -7838 805L -7886 805L -7886 757Z" fill="#FFFFFF"/>
</clipPath>
<g id="model3-icon" clip-path="url(#clip-0)">
<g id="tesla">
<use xlink:href="#path0_fill" transform="translate(-7885 764)" fill="#FFFFFF"/>
</g>
</g>
</g>
<defs>
<path id="path0_fill" fill-rule="evenodd" d="M 42 34L 41 34C 39.3433 34 38 32.6567 38 31L 11 31C 9.82861 31 8.8208 31.8142 7.83887 32.6079C 7.43164 32.9368 7.0293 33.2622 6.62109 33.5247C 6.15381 33.8254 5.59717 34 5 34L 4 34C 2.34326 34 1 32.6567 1 31L 1 17.4854C 1 15.894 1.63232 14.3679 2.75732 13.2427L 4 12L 1.97314 12C 0.883301 12 0 11.1167 0 10.0271C 0 9.42334 0.410645 8.89722 0.996094 8.75098L 2.75732 8.31055C 3.38867 8.15283 4 8.63013 4 9.28076L 4 11L 5 11L 6.79443 4.42139C 7.50635 1.81104 9.87695 0 12.583 0L 33.417 0C 36.123 0 38.4937 1.81104 39.2056 4.42139L 41 11L 42 11L 42 9.28076C 42 8.63013 42.6113 8.15283 43.2427 8.31055L 45.0039 8.75098C 45.5894 8.89722 46 9.42334 46 10.0271C 46 11.1167 45.1167 12 44.0269 12L 42 12L 43.2427 13.2427C 44.3677 14.3679 45 15.894 45 17.4854L 45 31C 45 32.6567 43.6567 34 42 34ZM 7.71729 5.27588L 6.11572 10.6145C 6.05127 10.8293 6.16895 11.0564 6.38184 11.1272C 8.11621 11.7053 9.93213 12 11.7598 12L 34.3384 12C 36.166 12 37.9819 11.7053 39.7163 11.1272C 39.9292 11.0564 40.0469 10.8293 39.9824 10.6145L 38.3809 5.27588C 37.6196 2.73804 35.2837 1 32.6338 1L 13.4644 1C 10.8145 1 8.47852 2.73804 7.71729 5.27588ZM 5.83398 13.3215C 7.50342 14.96 8.90527 16.2239 11.5005 17.3005C 11.7544 17.406 11.855 17.7175 11.7021 17.9465C 11.269 18.5964 10.5166 18.9595 9.73828 18.8945L 6.98975 18.6655C 5.70508 18.5586 4.5 17.9995 3.58838 17.0881C 2.96045 16.46 2.87842 15.47 3.39453 14.7473L 4.31982 13.4521C 4.67676 12.9521 5.39551 12.8911 5.83398 13.3215ZM 39.9966 13.3215C 38.3271 14.9597 36.9248 16.2239 34.3301 17.3003C 34.0757 17.4058 33.9756 17.7173 34.1284 17.9463C 34.5615 18.5962 35.3135 18.9595 36.0918 18.8945L 38.8408 18.6655C 40.1255 18.5583 41.3306 17.9995 42.2422 17.0879C 42.8701 16.46 42.9521 15.47 42.436 14.7473L 41.5107 13.4521C 41.1533 12.9521 40.4351 12.8911 39.9966 13.3215ZM 9 25C 6.39941 24.5249 5.05859 24.1194 3 23L 2.81055 23.7576C 2.65283 24.3887 3.13037 25 3.78076 25L 9 25ZM 36.7803 25C 39.3809 24.5249 40.7217 24.1194 42.7803 23L 42.9697 23.7576C 43.1274 24.3887 42.6499 25 41.9995 25L 36.7803 25ZM 11.707 27.293C 11.8945 27.1055 12.1489 27 12.4141 27L 33.5859 27C 33.8511 27 34.1055 27.1055 34.293 27.293L 35.1465 28.1465C 35.4614 28.4614 35.2383 29 34.793 29L 11.207 29C 10.7617 29 10.5386 28.4614 10.8535 28.1465L 11.707 27.293Z"/>
</defs>
</svg>
