<svg width="167" height="355" viewBox="0 0 167 355" version="1.1" xmlns="http://www.w3.org/2000/svg" xmlns:xlink="http://www.w3.org/1999/xlink">
<title>model 3</title>
<desc>Created using Figma</desc>
<g id="Canvas" transform="translate(6810 -6035)">
<g id="model 3" filter="url(#filter0_d)">
<g id="Vector 21">
<use xlink:href="#path0_fill" transform="translate(-6800 6043)" fill="url(#paint0_linear)"/>
</g>
<g id="Vector 26">
<use xlink:href="#path1_fill" transform="translate(-6781.78 6339)" fill="#960000"/>
</g>
<g id="Vector 26">
<use xlink:href="#path1_fill" transform="matrix(-1 0 0 1 -6671.33 6339)" fill="#960000"/>
</g>
<g id="Vector 22">
<use xlink:href="#path2_fill" transform="translate(-6781.56 6057)" fill="url(#paint3_linear)"/>
</g>
<g id="Vector 22">
<use xlink:href="#path2_fill" transform="matrix(-1 0 0 1 -6670.63 6057)" fill="url(#paint4_linear)"/>
</g>
<g id="Frunk">
<g id="Vector 23">
<use xlink:href="#path3_fill" transform="translate(-6776.56 6050)" fill="url(#paint5_linear)"/>
<use xlink:href="#path4_stroke" transform="translate(-6776.56 6050)" fill="#DADADA"/>
</g>
<g id="Tesla Logo">
<g id="Tesla Logo">
<use xlink:href="#path5_fill" transform="matrix(-1 -1.22465e-16 1.22465e-16 -1 -6721.56 6066)" fill="#9E9E9E"/>
</g>
</g>
</g>
<g id="Vector 24">
<use xlink:href="#path6_fill" transform="translate(-6776.56 6117)" fill="url(#paint8_linear)"/>
</g>
<g id="Vector 25">
<use xlink:href="#path7_fill" transform="translate(-6783.6 6155.5)" fill="#444444"/>
</g>
<g id="Vector 25">
<use xlink:href="#path7_fill" transform="matrix(-1 0 0 1 -6669.01 6155.5)" fill="#444444"/>
</g>
</g>
</g>
<defs>
<filter id="filter0_d" filterUnits="userSpaceOnUse" x="-6810" y="6035" width="167" height="355" color-interpolation-filters="sRGB">
<feFlood flood-opacity="0" result="BackgroundImageFix"/>
<feColorMatrix in="SourceAlpha" type="matrix" values="0 0 0 0 0 0 0 0 0 0 0 0 0 0 0 0 0 0 255 0"/>
<feOffset dx="0" dy="2"/>
<feGaussianBlur stdDeviation="5"/>
<feColorMatrix type="matrix" values="0 0 0 0 0 0 0 0 0 0 0 0 0 0 0 0 0 0 0.25 0"/>
<feBlend mode="normal" in2="BackgroundImageFix" result="effect1_dropShadow"/>
<feBlend mode="normal" in="SourceGraphic" in2="effect1_dropShadow" result="shape"/>
</filter>
<linearGradient id="paint0_linear" x1="0" y1="0" x2="1" y2="0" gradientUnits="userSpaceOnUse" gradientTransform="matrix(146 -0.999998 0.439771 64.2067 0.22445 97.3966)">
<stop offset="0" stop-color="#FFFFFF"/>
<stop offset="0.486188" stop-color="#DEDEDE"/>
<stop offset="0.994475" stop-color="#DEDEDE"/>
</linearGradient>
<linearGradient id="paint3_linear" x1="0" y1="0" x2="1" y2="0" gradientUnits="userSpaceOnUse" gradientTransform="matrix(9 16.5 -12.7352 6.94649 19.2944 -1.47325)">
<stop offset="0" stop-color="#6E6E6E"/>
<stop offset="0.342541" stop-color="#FFFFFF"/>
<stop offset="0.480663" stop-color="#C9C9C9"/>
<stop offset="0.889503" stop-color="#5D5D5D"/>
</linearGradient>
<linearGradient id="paint4_linear" x1="0" y1="0" x2="1" y2="0" gradientUnits="userSpaceOnUse" gradientTransform="matrix(9 16.5 -12.7352 6.94649 19.2944 -1.47325)">
<stop offset="0" stop-color="#6E6E6E"/>
<stop offset="0.342541" stop-color="#FFFFFF"/>
<stop offset="0.480663" stop-color="#C9C9C9"/>
<stop offset="0.889503" stop-color="#5D5D5D"/>
</linearGradient>
<linearGradient id="paint5_linear" x1="0" y1="0" x2="1" y2="0" gradientUnits="userSpaceOnUse" gradientTransform="matrix(-82.5 0.500002 -0.602124 -99.3497 91.3011 89.2149)">
<stop offset="0" stop-color="#DADADA"/>
<stop offset="0.331492" stop-color="#F0F0F0"/>
<stop offset="1" stop-color="#FFFFFF"/>
</linearGradient>
<linearGradient id="paint8_linear" x1="0" y1="0" x2="1" y2="0" gradientUnits="userSpaceOnUse" gradientTransform="matrix(100 -4.18286e-13 -2.65349e-13 42.4628 1.38226e-13 -21.2314)">
<stop offset="0" stop-color="#262626"/>
<stop offset="0.778317" stop-color="#3A3A3A"/>
<stop offset="0.823126" stop-color="#615C5C"/>
<stop offset="0.864312" stop-color="#282828"/>
<stop offset="1" stop-color="#484848"/>
</linearGradient>
<path id="path0_fill" d="M 10.4444 30C 10.4444 30 26.9443 0 73.4444 0C 119.945 0 136.444 30 136.444 30C 136.444 30 138.444 41 138.444 65C 138.444 89 135.444 95.5 135.444 98L 135.444 112C 135.444 112 145.444 116 146.444 121C 147.444 126 146.444 127.5 146.444 127.5L 135.444 121C 135.444 121 137.444 161 137.444 183C 137.444 205 136.444 234.5 136.444 234.5C 136.444 234.5 138.444 236.5 138.444 240.5L 138.444 289.5C 138.444 293 135.654 298.462 132.444 304C 129.853 312.422 127.924 315.595 123.944 319.5C 106.754 332.019 96.6497 334.192 73.4444 334C 50.2392 333.808 40.1348 332.019 22.9444 319.5C 18.9649 315.595 17.0361 312.422 14.4444 304C 11.235 298.462 8.44444 293 8.44444 289.5L 8.44444 240.5C 8.44444 236.5 10.4444 234.5 10.4444 234.5C 10.4444 234.5 9.44444 205 9.44444 183C 9.44444 161 11.4444 121 11.4444 121L 2.07526 126.536C 1.16061 127.077 0.0995696 126.727 0.0253269 125.668C -0.0457575 124.653 0.0144375 123.15 0.444444 121C 1.44444 116 11.4444 112 11.4444 112L 11.4444 98C 11.4444 95.5 8.44434 89 8.44444 65C 8.44455 41 10.4444 30 10.4444 30Z"/>
<path id="path1_fill" d="M 3.22388 20C -1.15116 15 -0.276112 5 1.22387 0C 1.89054 3.16667 2.22389 11 5.72392 16.5C 8.6051 21.0275 22.2239 29 28.2239 32C 21.7239 30 8.72389 26.2857 3.22388 20Z"/>
<path id="path2_fill" d="M 0.926794 16C 2.92672 9.5 13.9268 0 23.9268 0C 18.4268 5.5 14.9268 10 10.9268 18C 6.92675 26 5.42675 31 2.92679 31C 0.426841 31 -1.07313 22.5 0.926794 16Z"/>
<path id="path3_fill" d="M 24 7.04C 12.5 15.04 0 66.5399 0 83.04L 100 83.04C 100 66.5399 87.5 15.04 76 7.04C 64.5 -0.96 50 0.04 50 0.04C 50 0.04 35.5 -0.96 24 7.04Z"/>
<path id="path4_stroke" d="M 0 83.04L -0.5 83.04L -0.5 83.54L 0 83.54L 0 83.04ZM 50 0.04L 49.9656 0.538815L 50 0.541188L 50.0344 0.538815L 50 0.04ZM 100 83.04L 100 83.54L 100.5 83.54L 100.5 83.04L 100 83.04ZM 0.5 83.04C 0.5 74.8616 3.609 57.916 8.16819 41.9901C 10.4457 34.0337 13.0744 26.3643 15.8546 20.1745C 18.6451 13.9602 21.5361 9.36308 24.2855 7.45045L 23.7145 6.62955C 20.7139 8.71692 17.7299 13.5573 14.9423 19.7649C 12.1443 25.9969 9.49176 33.7338 7.20681 41.7149C 2.641 57.6639 -0.5 74.7183 -0.5 83.04L 0.5 83.04ZM 24.2855 7.45045C 29.9609 3.49335 36.3518 1.77953 41.3858 1.0346C 43.8948 0.662387 46.0351 0.539622 47.5648 0.508647C 48.3261 0.493121 48.9254 0.500834 49.3405 0.512461C 49.5464 0.518207 49.7025 0.524828 49.8097 0.530117C 49.8626 0.532717 49.9015 0.534899 49.9285 0.536498C 49.9415 0.537274 49.9508 0.537854 49.9574 0.538279C 49.9605 0.538478 49.9626 0.538613 49.9641 0.538717C 49.9648 0.538762 49.9652 0.538787 49.9655 0.53881C 49.9656 0.538819 49.9657 0.53882 49.9657 0.538824C 49.9657 0.538821 49.9656 0.538815 50 0.04C 50.0344 -0.458815 50.0342 -0.458829 50.0339 -0.458847C 50.0338 -0.458858 50.0335 -0.458879 50.0331 -0.458901C 50.0326 -0.458937 50.0317 -0.459002 50.0306 -0.459074C 50.0286 -0.459204 50.0254 -0.459417 50.0215 -0.459668C 50.0141 -0.460143 50.0024 -0.460875 49.9877 -0.461747C 49.959 -0.463443 49.9151 -0.465901 49.859 -0.468672C 49.7482 -0.474124 49.5815 -0.481176 49.3685 -0.487148C 48.9457 -0.498959 48.3223 -0.506871 47.5445 -0.491147C 45.9962 -0.459622 43.7927 -0.332387 41.2392 0.0453983C 36.1482 0.800473 29.5391 2.58665 23.7145 6.62955L 24.2855 7.45045ZM 100.5 83.04C 100.5 74.7183 97.359 57.6639 92.7932 41.7149C 90.5082 33.7338 87.8557 25.9969 85.0577 19.7649C 82.2701 13.5573 79.2861 8.71692 76.2855 6.62955L 75.7145 7.45045C 78.4639 9.36308 81.3549 13.9602 84.1454 20.1745C 86.9256 26.3643 89.5543 34.0337 91.8318 41.9901C 96.391 57.916 99.5 74.8616 99.5 83.04L 100.5 83.04ZM 76.2855 6.62955C 70.4609 2.58665 63.8518 0.800473 58.7608 0.0453983C 56.2073 -0.332387 54.0038 -0.459622 52.4555 -0.491147C 51.6777 -0.506871 51.0543 -0.498959 50.6315 -0.487148C 50.4185 -0.481176 50.2518 -0.474124 50.141 -0.468672C 50.0849 -0.465901 50.041 -0.463443 50.0123 -0.461747C 49.9976 -0.460875 49.9859 -0.460143 49.9785 -0.459668C 49.9746 -0.459417 49.9714 -0.459204 49.9694 -0.459074C 49.9683 -0.459002 49.9674 -0.458937 49.9669 -0.458901C 49.9665 -0.458879 49.9662 -0.458858 49.9661 -0.458847C 49.9658 -0.458829 49.9656 -0.458815 50 0.04C 50.0344 0.538815 50.0343 0.538821 50.0343 0.538824C 50.0343 0.53882 50.0344 0.538819 50.0345 0.53881C 50.0348 0.538787 50.0352 0.538762 50.0359 0.538717C 50.0374 0.538613 50.0395 0.538478 50.0426 0.538279C 50.0492 0.537854 50.0585 0.537274 50.0715 0.536498C 50.0985 0.534899 50.1374 0.532717 50.1903 0.530117C 50.2975 0.524828 50.4536 0.518207 50.6595 0.512461C 51.0746 0.500834 51.6739 0.493121 52.4352 0.508647C 53.9649 0.539622 56.1052 0.662387 58.6142 1.0346C 63.6482 1.77953 70.0391 3.49335 75.7145 7.45045L 76.2855 6.62955ZM 100 82.54L 0 82.54L 0 83.54L 100 83.54L 100 82.54Z"/>
<path id="path5_fill" fill-rule="evenodd" d="M 6.39941 2.09814L 5.00049 10L 3.59033 2.09717C 2.26562 2.09814 1.8457 2.24463 1.78467 2.84424C 1.78467 2.84424 0.889648 2.50928 0.438965 1.8291C 2.19922 1.00977 3.96826 0.972656 3.96826 0.972656L 4.99805 2.23535L 6.03076 0.972656C 6.03076 0.972656 7.79932 1.00977 9.56006 1.8291C 9.10889 2.50928 8.21436 2.84424 8.21436 2.84424C 8.15381 2.24512 7.73291 2.09814 6.39941 2.09814ZM 9.71973 1.55957C 8.05225 0.82959 6.42334 0.597168 5 0.608398C 3.57666 0.597168 1.94727 0.82959 0.279785 1.55957C 0.081543 1.19775 0 0.978516 0 0.978516C 1.82275 0.253906 3.52979 0.00634766 5 0C 6.46973 0.00634766 8.17725 0.253906 10 0.978516C 10 0.978516 9.94287 1.15625 9.71973 1.55957Z"/>
<path id="path6_fill" d="M 50 0C 14 0 0 15.5 0 15.5L 0 23.5202C 0 26.1701 0.18564 28.7962 0.551548 31.4207C 2.50814 45.4544 9 93.1372 9 108C 9 125.5 15 218.5 15 218.5C 17 222.5 21.5 235.5 50 235.5C 78.5 235.5 83 222.5 85 218.5C 85 218.5 91 125.5 91 108C 91 93.1372 97.4919 45.4544 99.4485 31.4207C 99.8144 28.7962 100 26.1701 100 23.5202L 100 15.5C 100 15.5 86 0 50 0Z"/>
<path id="path7_fill" d="M 0.0432526 74.5C -0.456747 12.5 3.54325 0 3.54325 0C 3.54325 0 12.0432 27.5 13.5432 76.5C 15.0432 125.5 15.5433 169 15.5433 169C 15.5433 169 0.543253 136.5 0.0432526 74.5Z"/>
</defs>
</svg>
