<svg width="48" height="48" viewBox="0 0 48 48" version="1.1" xmlns="http://www.w3.org/2000/svg" xmlns:xlink="http://www.w3.org/1999/xlink">
<title>model3-icon-small</title>
<desc>Created using Figma</desc>
<g id="Canvas" transform="translate(7814 -901)">
<clipPath id="clip-0" clip-rule="evenodd">
<path d="M -7814 901L -7766 901L -7766 949L -7814 949L -7814 901Z" fill="#FFFFFF"/>
</clipPath>
<g id="model3-icon-small" clip-path="url(#clip-0)">
<g id="tesla">
<use xlink:href="#path0_fill" transform="translate(-7807 912.5)" fill="#FFFFFF"/>
</g>
</g>
</g>
<defs>
<path id="path0_fill" fill-rule="evenodd" d="M 31.0435 25L 30.3042 25C 29.0796 25 28.0869 24.0125 28.0869 22.7942L 5.91309 22.7942C 5.91309 24.0125 4.92041 25 3.6958 25L 2.95654 25C 1.73193 25 0.739258 24.0125 0.739258 22.7942L 0.739258 12.8569C 0.739258 11.6868 1.20654 10.5647 2.03809 9.7373L 2.95654 8.82349L 1.4585 8.82349C 0.652832 8.82349 0 8.17407 0 7.3728C 0 6.92896 0.303711 6.54224 0.736328 6.43457L 2.03809 6.11084C 2.50439 5.99463 2.95654 6.3457 2.95654 6.82422L 2.95654 8.08813L 3.6958 8.08813L 5.02197 3.25098C 5.54785 1.33154 7.30029 0 9.30029 0L 24.6997 0C 26.6997 0 28.4521 1.33154 28.978 3.25098L 30.3042 8.08813L 31.0435 8.08813L 31.0435 6.82422C 31.0435 6.3457 31.4956 5.99463 31.9619 6.11084L 33.2637 6.43457C 33.6963 6.54224 34 6.92896 34 7.3728C 34 8.17407 33.3472 8.82349 32.5415 8.82349L 31.0435 8.82349L 31.9619 9.7373C 32.7935 10.5647 33.2607 11.6868 33.2607 12.8569L 33.2607 22.7942C 33.2607 24.0125 32.2681 25 31.0435 25ZM 4.52051 7.80493L 5.7041 3.87939C 6.26709 2.01318 7.99365 0.735352 9.95166 0.735352L 24.1206 0.735352C 26.0791 0.735352 27.8057 2.01318 28.3687 3.87939L 29.5522 7.80493C 29.5996 7.96265 29.5127 8.12964 29.3555 8.18188C 28.0737 8.60693 26.7314 8.82349 25.3804 8.82349L 8.69238 8.82349C 7.34082 8.82349 5.99902 8.60693 4.71729 8.18188C 4.56006 8.12964 4.47266 7.96265 4.52051 7.80493ZM 8.5 12.7209C 6.58203 11.9294 5.5459 11 4.31201 9.79541C 3.98779 9.47876 3.45654 9.52368 3.19287 9.89136L 2.50879 10.8438C 2.12744 11.375 2.18799 12.103 2.65234 12.5647C 3.32568 13.2351 4.2168 13.646 5.16602 13.7246L 7.19775 13.8931C 7.77344 13.9409 8.3291 13.6738 8.64941 13.196C 8.76221 13.0276 8.68799 12.7986 8.5 12.7209ZM 25.374 12.7209C 27.2925 11.9294 28.3286 11 29.5625 9.79517C 29.8867 9.47876 30.418 9.52368 30.6816 9.89136L 31.3657 10.8435C 31.7471 11.375 31.6865 12.103 31.2222 12.5647C 30.5488 13.2349 29.6577 13.646 28.7085 13.7246L 26.6768 13.8931C 26.1011 13.9407 25.5454 13.6738 25.2251 13.1958C 25.1123 13.0276 25.1865 12.7983 25.374 12.7209ZM 8.65283 20.0684C 8.7915 19.9304 8.97949 19.853 9.17578 19.853L 24.8242 19.853C 25.02 19.853 25.208 19.9304 25.3467 20.0684L 25.9775 20.696C 26.2104 20.9275 26.0454 21.3237 25.7163 21.3237L 8.2832 21.3237C 7.9541 21.3237 7.78906 20.9275 8.02197 20.696L 8.65283 20.0684Z"/>
</defs>
</svg>
