<svg width="340" height="100" viewBox="0 0 340 100" version="1.1" xmlns="http://www.w3.org/2000/svg" xmlns:xlink="http://www.w3.org/1999/xlink">
<title>nav row</title>
<desc>Created using Figma</desc>
<g id="Canvas" transform="translate(7304 -3460)">
<clipPath id="clip-0" clip-rule="evenodd">
<path d="M -7304 3460L -6964 3460L -6964 3560L -7304 3560L -7304 3460Z" fill="#FFFFFF"/>
</clipPath>
<g id="nav row" clip-path="url(#clip-0)">
<g id="waypoints">
<g id="road icons">
<clipPath id="clip-1" clip-rule="evenodd">
<path d="M -7279 3485L -7231 3485L -7231 3533L -7279 3533L -7279 3485Z" fill="#FFFFFF"/>
</clipPath>
<g id="left turn" clip-path="url(#clip-1)">
<g id="line">
<use xlink:href="#path0_stroke" transform="translate(-7249 3492)" fill="#FFFFFF" fill-opacity="0.4"/>
</g>
<g id="Union">
<use xlink:href="#path1_fill" transform="translate(-7279 3487.46)" fill="#007BE4"/>
</g>
</g>
</g>
<g id="road name">
<use xlink:href="#path2_fill" transform="translate(-7204 3512)" fill="#FFFFFF" fill-opacity="0.4"/>
</g>
<g id="distance">
<use xlink:href="#path3_fill" transform="translate(-7204 3485)" fill="#7F97A0"/>
</g>
</g>
</g>
</g>
<defs>
<path id="path0_stroke" d="M -3 38C -3 39.6569 -1.65685 41 0 41C 1.65685 41 3 39.6569 3 38L -3 38ZM 3 0C 3 -1.65685 1.65685 -3 0 -3C -1.65685 -3 -3 -1.65685 -3 0L 3 0ZM 3 38L 3 0L -3 0L -3 38L 3 38Z"/>
<path id="path1_fill" fill-rule="evenodd" d="M 0 9.53564L 17.1641 0C 15.3042 1.72461 13.9497 3.98633 13.3472 6.53857C 24.2329 6.72363 33 15.606 33 26.5356L 33 42.5356C 33 44.1924 31.6567 45.5356 30 45.5356C 28.3433 45.5356 27 44.1924 27 42.5356L 27 26.5356C 27 18.9204 20.9199 12.7251 13.3491 12.54C 13.9521 15.0894 15.3062 17.3486 17.1641 19.0713L 0 9.53564Z"/>
<path id="path2_fill" d="M 1.72 5L 11.98 5L 11.98 7.34L 4.4 7.34L 4.4 10.8L 11.2 10.8L 11.2 13.14L 4.4 13.14L 4.4 16.66L 12.22 16.66L 12.22 19L 1.72 19L 1.72 5ZM 13.7027 8.3L 16.7027 8.3L 18.9227 11.78L 21.2027 8.3L 24.0627 8.3L 20.6627 13.52L 24.3027 19L 21.3027 19L 18.9227 15.26L 16.3427 19L 13.4427 19L 17.1827 13.52L 13.7027 8.3ZM 26.2098 8.3L 28.8098 8.3L 28.8098 19L 26.2098 19L 26.2098 8.3ZM 27.4898 3.7C 27.9165 3.7 28.2698 3.84667 28.5498 4.14C 28.8298 4.43333 28.9698 4.80667 28.9698 5.26C 28.9698 5.7 28.8298 6.06667 28.5498 6.36C 28.2698 6.65333 27.9165 6.8 27.4898 6.8C 27.0632 6.8 26.7098 6.65333 26.4298 6.36C 26.1498 6.06667 26.0098 5.7 26.0098 5.26C 26.0098 4.80667 26.1498 4.43333 26.4298 4.14C 26.7098 3.84667 27.0632 3.7 27.4898 3.7ZM 38.2902 18.34C 37.4368 18.86 36.5435 19.12 35.6102 19.12C 34.6902 19.12 33.9368 18.8533 33.3502 18.32C 32.7635 17.7733 32.4702 16.9733 32.4702 15.92L 32.4702 10.64L 30.9702 10.64L 30.9502 8.74L 32.4702 8.74L 32.4702 5.8L 35.0502 5.8L 35.0502 8.74L 38.1102 8.74L 38.1102 10.64L 35.0502 10.64L 35.0502 15.46C 35.0502 15.9533 35.1435 16.3067 35.3302 16.52C 35.5168 16.72 35.7968 16.82 36.1702 16.82C 36.5702 16.82 37.0768 16.6733 37.6902 16.38L 38.2902 18.34ZM 49.8933 4.88C 51.3599 4.88 52.5133 5.21333 53.3533 5.88C 54.2066 6.53333 54.6333 7.42667 54.6333 8.56C 54.6333 9.2 54.4599 9.78 54.1133 10.3C 53.7666 10.82 53.2866 11.2267 52.6733 11.52C 53.4999 11.8267 54.1466 12.2933 54.6133 12.92C 55.0933 13.5467 55.3333 14.2667 55.3333 15.08C 55.3333 15.8933 55.1133 16.6067 54.6733 17.22C 54.2333 17.8333 53.5999 18.3067 52.7733 18.64C 51.9599 18.96 51.0066 19.12 49.9133 19.12C 48.8199 19.12 47.8599 18.96 47.0333 18.64C 46.2199 18.3067 45.5933 17.84 45.1533 17.24C 44.7133 16.64 44.4933 15.9333 44.4933 15.12C 44.4933 14.2933 44.7399 13.5667 45.2333 12.94C 45.7266 12.3 46.4066 11.8267 47.2733 11.52C 46.6199 11.2 46.1066 10.7733 45.7333 10.24C 45.3733 9.70667 45.1933 9.11333 45.1933 8.46C 45.1933 7.36667 45.6133 6.5 46.4533 5.86C 47.3066 5.20667 48.4533 4.88 49.8933 4.88ZM 49.9133 6.8C 49.1399 6.8 48.5333 6.96667 48.0933 7.3C 47.6666 7.63333 47.4533 8.1 47.4533 8.7C 47.4533 9.3 47.6666 9.76667 48.0933 10.1C 48.5333 10.4333 49.1399 10.6 49.9133 10.6C 50.6866 10.6 51.2866 10.4333 51.7133 10.1C 52.1399 9.76667 52.3533 9.3 52.3533 8.7C 52.3533 8.1 52.1399 7.63333 51.7133 7.3C 51.2866 6.96667 50.6866 6.8 49.9133 6.8ZM 49.8933 12.68C 48.9866 12.68 48.2799 12.8667 47.7733 13.24C 47.2666 13.6133 47.0133 14.14 47.0133 14.82C 47.0133 15.5133 47.2666 16.0533 47.7733 16.44C 48.2799 16.8267 48.9933 17.02 49.9133 17.02C 50.8199 17.02 51.5266 16.8333 52.0333 16.46C 52.5533 16.0733 52.8133 15.5333 52.8133 14.84C 52.8133 14.16 52.5533 13.6333 52.0333 13.26C 51.5266 12.8733 50.8133 12.68 49.8933 12.68ZM 56.43 5L 67.23 5L 67.23 7L 61.47 19L 58.63 19L 64.21 7.34L 58.83 7.34L 58.81 9.32L 56.43 9.32L 56.43 5Z"/>
<path id="path3_fill" d="M 7.24 4.92C 9.12 4.92 10.5667 5.53333 11.58 6.76C 12.5933 7.97333 13.1 9.72 13.1 12C 13.1 14.28 12.5933 16.0333 11.58 17.26C 10.5667 18.4867 9.12 19.1 7.24 19.1C 5.34667 19.1 3.89333 18.4867 2.88 17.26C 1.88 16.0333 1.38 14.28 1.38 12C 1.38 9.72 1.88 7.97333 2.88 6.76C 3.89333 5.53333 5.34667 4.92 7.24 4.92ZM 7.24 6.44C 4.65333 6.44 3.36 8.29333 3.36 12C 3.36 13.84 3.68667 15.2267 4.34 16.16C 4.99333 17.0933 5.96 17.56 7.24 17.56C 8.52 17.56 9.48667 17.0933 10.14 16.16C 10.7933 15.2267 11.12 13.84 11.12 12C 11.12 8.29333 9.82667 6.44 7.24 6.44ZM 16.2988 16.88C 16.6054 16.88 16.8587 16.9867 17.0588 17.2C 17.2721 17.4133 17.3788 17.6867 17.3788 18.02C 17.3788 18.3533 17.2721 18.6333 17.0588 18.86C 16.8587 19.0733 16.6054 19.18 16.2988 19.18C 15.9921 19.18 15.7321 19.0733 15.5187 18.86C 15.3054 18.6333 15.1987 18.3533 15.1987 18.02C 15.1987 17.6867 15.3054 17.4133 15.5187 17.2C 15.7321 16.9867 15.9921 16.88 16.2988 16.88ZM 24.6994 10.22C 25.726 10.22 26.626 10.4 27.3994 10.76C 28.186 11.12 28.786 11.62 29.1994 12.26C 29.626 12.9 29.8394 13.62 29.8394 14.42C 29.8394 15.3533 29.6194 16.1733 29.1794 16.88C 28.7527 17.5867 28.1394 18.1333 27.3394 18.52C 26.5394 18.9067 25.6127 19.1 24.5594 19.1C 23.7327 19.1 22.8594 18.96 21.9394 18.68C 21.0327 18.3867 20.2194 18 19.4994 17.52L 20.2794 15.98C 20.8794 16.4333 21.5394 16.78 22.2594 17.02C 22.9794 17.26 23.686 17.38 24.3794 17.38C 25.4327 17.38 26.266 17.1267 26.8794 16.62C 27.4927 16.1133 27.7994 15.4267 27.7994 14.56C 27.7994 13.7467 27.4927 13.1133 26.8794 12.66C 26.266 12.1933 25.3927 11.96 24.2594 11.96C 23.846 11.96 23.246 11.9867 22.4594 12.04C 21.6727 12.0933 21.0394 12.16 20.5594 12.24L 20.5594 5L 29.2594 5L 29.2594 6.74L 22.3594 6.74L 22.3594 10.3C 22.986 10.2467 23.766 10.22 24.6994 10.22ZM 51.3784 8.36C 52.5918 8.36 53.5451 8.72667 54.2384 9.46C 54.9318 10.1933 55.2784 11.1933 55.2784 12.46L 55.2784 19L 53.3984 19L 53.3984 12.96C 53.3984 12.0667 53.1518 11.3667 52.6584 10.86C 52.1784 10.3533 51.5118 10.1 50.6584 10.1C 49.6584 10.1267 48.8718 10.48 48.2984 11.16C 47.7251 11.84 47.4384 12.7133 47.4384 13.78L 47.4384 19L 45.5584 19L 45.5584 12.96C 45.5584 12.0667 45.3184 11.3667 44.8384 10.86C 44.3584 10.3533 43.6851 10.1 42.8184 10.1C 41.8184 10.1267 41.0251 10.48 40.4384 11.16C 39.8651 11.84 39.5784 12.7133 39.5784 13.78L 39.5784 19L 37.7184 19L 37.7184 8.42L 39.5784 8.42L 39.5784 10.64C 40.2718 9.14667 41.5851 8.38667 43.5184 8.36C 44.4918 8.36 45.2984 8.59333 45.9384 9.06C 46.5918 9.52667 47.0318 10.18 47.2584 11.02C 47.9118 9.27333 49.2851 8.38667 51.3784 8.36ZM 58.5973 8.42L 60.4573 8.42L 60.4573 19L 58.5973 19L 58.5973 8.42ZM 59.5173 4.2C 59.8507 4.2 60.124 4.31333 60.3373 4.54C 60.564 4.76667 60.6773 5.05333 60.6773 5.4C 60.6773 5.74667 60.564 6.03333 60.3373 6.26C 60.124 6.48667 59.8507 6.6 59.5173 6.6C 59.184 6.6 58.904 6.48667 58.6773 6.26C 58.464 6.03333 58.3573 5.74667 58.3573 5.4C 58.3573 5.05333 58.464 4.76667 58.6773 4.54C 58.904 4.31333 59.184 4.2 59.5173 4.2Z"/>
</defs>
</svg>
