<svg width="250" height="60" viewBox="0 0 250 60" version="1.1" xmlns="http://www.w3.org/2000/svg" xmlns:xlink="http://www.w3.org/1999/xlink">
<title>search field</title>
<desc>Created using Figma</desc>
<g id="Canvas" transform="translate(6537 -9789)">
<clipPath id="clip-0" clip-rule="evenodd">
<path d="M -6537 9789L -6287 9789L -6287 9849L -6537 9849L -6537 9789Z" fill="#FFFFFF"/>
</clipPath>
<g id="search field" clip-path="url(#clip-0)">
<g id="Rectangle 12">
<mask id="mask0_outline_ins">
<use xlink:href="#path0_fill" fill="white" transform="translate(-6537 9789)"/>
</mask>
<g mask="url(#mask0_outline_ins)">
<use xlink:href="#path1_stroke_2x" transform="translate(-6537 9789)" fill="#FFFFFF" fill-opacity="0.2"/>
</g>
</g>
<g id="Anything" opacity="0.6">
<use xlink:href="#path2_fill" transform="translate(-6467 9807)" fill="#FFFFFF"/>
</g>
<clipPath id="clip-1" clip-rule="evenodd">
<path d="M -6533 9795L -6485 9795L -6485 9843L -6533 9843L -6533 9795Z" fill="#FFFFFF"/>
</clipPath>
<g id="search" clip-path="url(#clip-1)">
<g id="Union">
<use xlink:href="#path3_fill" transform="translate(-6521 9807)" fill="#FFFFFF"/>
</g>
</g>
</g>
</g>
<defs>
<path id="path0_fill" d="M 0 4C 0 1.79086 1.79086 0 4 0L 246 0C 248.209 0 250 1.79086 250 4L 250 56C 250 58.2091 248.209 60 246 60L 4 60C 1.79086 60 0 58.2091 0 56L 0 4Z"/>
<path id="path1_stroke_2x" d="M 4 2L 246 2L 246 -2L 4 -2L 4 2ZM 248 4L 248 56L 252 56L 252 4L 248 4ZM 246 58L 4 58L 4 62L 246 62L 246 58ZM 2 56L 2 4L -2 4L -2 56L 2 56ZM 4 -2C 0.686292 -2 -2 0.686292 -2 4L 2 4C 2 2.89543 2.89543 2 4 2L 4 -2ZM 246 2C 247.105 2 248 2.89543 248 4L 252 4C 252 0.686292 249.314 -2 246 -2L 246 2ZM 248 56C 248 57.1046 247.105 58 246 58L 246 62C 249.314 62 252 59.3137 252 56L 248 56ZM 4 58C 2.89543 58 2 57.1046 2 56L -2 56C -2 59.3137 0.686292 62 4 62L 4 58Z"/>
<path id="path2_fill" d="M 12.08 19L 10.84 16.04L 4 16.04L 2.76 19L -0.02 19L 6.12 5L 8.9 5L 14.96 19L 12.08 19ZM 4.96 13.74L 9.88 13.74L 7.44 7.86L 4.96 13.74ZM 23.0014 8.2C 24.2281 8.2 25.1947 8.57333 25.9014 9.32C 26.6081 10.0533 26.9614 11.0533 26.9614 12.32L 26.9614 19L 24.3414 19L 24.3414 13.08C 24.3414 12.3333 24.1281 11.7467 23.7014 11.32C 23.2747 10.88 22.6947 10.66 21.9614 10.66C 21.0947 10.6733 20.4081 10.9667 19.9014 11.54C 19.4081 12.1133 19.1614 12.8467 19.1614 13.74L 19.1614 19L 16.5614 19L 16.5614 8.3L 19.1614 8.3L 19.1614 10.3C 19.8947 8.92667 21.1747 8.22667 23.0014 8.2ZM 34.1883 20.34C 33.8549 21.22 33.3749 21.88 32.7483 22.32C 32.1349 22.7733 31.4016 23 30.5483 23C 30.0283 23 29.5549 22.92 29.1283 22.76C 28.7149 22.6133 28.3016 22.3733 27.8883 22.04L 29.0083 20.06C 29.2616 20.2467 29.4949 20.38 29.7083 20.46C 29.9216 20.5533 30.1483 20.6 30.3883 20.6C 31.0949 20.6 31.6149 20.24 31.9483 19.52L 32.2683 18.82L 27.8483 8.3L 30.5483 8.3L 33.5883 16.08L 36.3683 8.3L 38.9883 8.3L 34.1883 20.34ZM 46.7472 18.34C 45.8939 18.86 45.0005 19.12 44.0672 19.12C 43.1472 19.12 42.3939 18.8533 41.8072 18.32C 41.2205 17.7733 40.9272 16.9733 40.9272 15.92L 40.9272 10.64L 39.4272 10.64L 39.4072 8.74L 40.9272 8.74L 40.9272 5.8L 43.5072 5.8L 43.5072 8.74L 46.5672 8.74L 46.5672 10.64L 43.5072 10.64L 43.5072 15.46C 43.5072 15.9533 43.6005 16.3067 43.7872 16.52C 43.9739 16.72 44.2539 16.82 44.6272 16.82C 45.0272 16.82 45.5339 16.6733 46.1472 16.38L 46.7472 18.34ZM 55.348 8.2C 56.5746 8.2 57.5413 8.57333 58.248 9.32C 58.9546 10.0533 59.308 11.0533 59.308 12.32L 59.308 19L 56.688 19L 56.688 13.08C 56.688 12.3333 56.4746 11.7467 56.048 11.32C 55.6213 10.88 55.0413 10.66 54.308 10.66C 53.4413 10.6733 52.7546 10.9667 52.248 11.54C 51.7413 12.1133 51.488 12.8467 51.488 13.74L 51.488 19L 48.888 19L 48.888 4.16L 51.488 4.16L 51.488 10.34C 52.2213 8.94 53.508 8.22667 55.348 8.2ZM 62.2255 8.3L 64.8255 8.3L 64.8255 19L 62.2255 19L 62.2255 8.3ZM 63.5055 3.7C 63.9321 3.7 64.2855 3.84667 64.5655 4.14C 64.8455 4.43333 64.9855 4.80667 64.9855 5.26C 64.9855 5.7 64.8455 6.06667 64.5655 6.36C 64.2855 6.65333 63.9321 6.8 63.5055 6.8C 63.0788 6.8 62.7255 6.65333 62.4455 6.36C 62.1655 6.06667 62.0255 5.7 62.0255 5.26C 62.0255 4.80667 62.1655 4.43333 62.4455 4.14C 62.7255 3.84667 63.0788 3.7 63.5055 3.7ZM 74.4858 8.2C 75.7124 8.2 76.6791 8.57333 77.3858 9.32C 78.0924 10.0533 78.4458 11.0533 78.4458 12.32L 78.4458 19L 75.8258 19L 75.8258 13.08C 75.8258 12.3333 75.6124 11.7467 75.1858 11.32C 74.7591 10.88 74.1791 10.66 73.4458 10.66C 72.5791 10.6733 71.8924 10.9667 71.3858 11.54C 70.8924 12.1133 70.6458 12.8467 70.6458 13.74L 70.6458 19L 68.0458 19L 68.0458 8.3L 70.6458 8.3L 70.6458 10.3C 71.3791 8.92667 72.6591 8.22667 74.4858 8.2ZM 91.1461 8.3L 91.1461 17.98C 91.1461 18.9933 90.9128 19.8733 90.4461 20.62C 89.9928 21.38 89.3394 21.96 88.4861 22.36C 87.6461 22.7733 86.6661 22.98 85.5461 22.98C 83.9194 22.98 82.4128 22.5067 81.0261 21.56L 82.0661 19.68C 83.0794 20.4267 84.1928 20.8 85.4061 20.8C 86.3661 20.8 87.1261 20.5533 87.6861 20.06C 88.2594 19.5667 88.5461 18.8933 88.5461 18.04L 88.5461 16.78C 88.1861 17.3267 87.7194 17.7467 87.1461 18.04C 86.5728 18.32 85.9061 18.46 85.1461 18.46C 84.2128 18.46 83.3861 18.2467 82.6661 17.82C 81.9461 17.38 81.3861 16.7733 80.9861 16C 80.5861 15.2133 80.3861 14.3133 80.3861 13.3C 80.3861 12.3 80.5861 11.42 80.9861 10.66C 81.3861 9.88667 81.9461 9.28667 82.6661 8.86C 83.3861 8.43333 84.2128 8.22 85.1461 8.22C 85.8928 8.22 86.5528 8.36667 87.1261 8.66C 87.7128 8.95333 88.1861 9.36667 88.5461 9.9L 88.5461 8.3L 91.1461 8.3ZM 85.7061 16.42C 86.5461 16.42 87.2261 16.14 87.7461 15.58C 88.2794 15.0067 88.5461 14.2667 88.5461 13.36C 88.5461 12.4533 88.2794 11.72 87.7461 11.16C 87.2261 10.5867 86.5461 10.3 85.7061 10.3C 84.8661 10.3 84.1794 10.5867 83.6461 11.16C 83.1261 11.7333 82.8594 12.4667 82.8461 13.36C 82.8594 14.2667 83.1261 15.0067 83.6461 15.58C 84.1794 16.14 84.8661 16.42 85.7061 16.42Z"/>
<path id="path3_fill" fill-rule="evenodd" d="M 18 10.5C 18 14.6422 14.6426 18 10.5 18C 6.35742 18 3 14.6422 3 10.5C 3 6.35785 6.35742 3 10.5 3C 14.6426 3 18 6.35785 18 10.5ZM 16.7881 18.9095C 15.0352 20.2224 12.8584 21 10.5 21C 4.70117 21 0 16.299 0 10.5C 0 4.70099 4.70117 0 10.5 0C 16.2988 0 21 4.70099 21 10.5C 21 12.8585 20.2217 15.0354 18.9092 16.7883L 28.0605 25.9393C 28.6465 26.5251 28.6465 27.4749 28.0605 28.0607C 27.4746 28.6464 26.5254 28.6464 25.9395 28.0607L 16.7881 18.9095Z"/>
</defs>
</svg>
