<svg width="48" height="48" viewBox="0 0 48 48" version="1.1" xmlns="http://www.w3.org/2000/svg" xmlns:xlink="http://www.w3.org/1999/xlink">
<title>seat</title>
<desc>Created using Figma</desc>
<g id="Canvas" transform="translate(8174 -757)">
<clipPath id="clip-0" clip-rule="evenodd">
<path d="M -8174 757L -8126 757L -8126 805L -8174 805L -8174 757Z" fill="#FFFFFF"/>
</clipPath>
<g id="seat" clip-path="url(#clip-0)">
<g id="Vector 36">
<use xlink:href="#path0_fill" transform="translate(-8164.2 763)" fill="#FFFFFF"/>
<use xlink:href="#path1_fill" transform="translate(-8164.2 763)" fill="#FFFFFF"/>
</g>
</g>
</g>
<defs>
<path id="path0_fill" d="M 3.83807 1.13186e-32L 3.83807 0L 5.14071 0L 5.14071 5.55292e-33C 5.49926 3.24739e-17 5.84312 0.142432 6.09665 0.395963C 6.09665 0.395964 6.09665 0.395965 6.09665 0.395965C 7.02438 1.32369 7.1522 2.78355 6.39982 3.85838C 6.39982 3.85839 6.39982 3.85839 6.39982 3.85839L 6.16549 4.19314C 6.16549 4.19314 6.16549 4.19314 6.16549 4.19314C 4.96003 5.91522 4.82381 8.16836 5.81302 10.0231C 5.81302 10.0231 5.81302 10.0231 5.81302 10.0231L 9.45302 16.8481C 9.45302 16.8481 9.45302 16.8481 9.45302 16.8481C 11.1243 19.9819 10.7965 23.8054 8.61601 26.6089L 5.83894 30.1794C 5.58162 30.5102 5.05589 30.3967 4.95807 29.9891L 0.384082 10.9308C 0.384082 10.9308 0.384082 10.9308 0.384082 10.9308C -0.380241 7.74612 0.00375343 4.39387 1.46843 1.46452C 1.46843 1.46452 1.46843 1.46452 1.46843 1.46452C 1.91721 0.566965 2.83457 9.25004e-17 3.83807 1.13186e-32Z"/>
<path id="path1_fill" d="M 15.4439 28L 24.2007 28C 26.4098 28 28.2007 29.7909 28.2007 32L 28.2007 33C 28.2007 35.2091 26.4098 37 24.2007 37L 13.1002 37C 11.2437 37 9.46319 36.2625 8.15044 34.9498C 8.15044 34.9497 8.15044 34.9497 8.15043 34.9497L 7.0354 33.8347C 7.0354 33.8347 7.0354 33.8347 7.0354 33.8347C 6.59845 33.3978 6.65843 32.673 7.16127 32.3139C 7.16127 32.3139 7.16127 32.3139 7.16127 32.3139L 11.3753 29.3039C 12.5625 28.4559 13.985 28 15.4439 28Z"/>
</defs>
</svg>
