<svg width="580" height="1050" viewBox="0 0 580 1050" version="1.1" xmlns="http://www.w3.org/2000/svg" xmlns:xlink="http://www.w3.org/1999/xlink">
<title>Sidebar</title>
<desc>Created using Figma</desc>
<g id="Canvas" transform="translate(7520 -5777)">
<clipPath id="clip-0" clip-rule="evenodd">
<path d="M -7520 5777L -6940 5777L -6940 6827L -7520 6827L -7520 5777Z" fill="#FFFFFF"/>
</clipPath>
<g id="Sidebar" clip-path="url(#clip-0)">
<path d="M -7520 5777L -6940 5777L -6940 6827L -7520 6827L -7520 5777Z" fill="#0E0E0E"/>
<clipPath id="clip-1" clip-rule="evenodd">
<path d="M -7520 5777L -6940 5777L -6940 6827L -7520 6827L -7520 5777Z" fill="#FFFFFF"/>
</clipPath>
<g id="Light" clip-path="url(#clip-1)">
<path d="M -7520 5777L -6940 5777L -6940 6827L -7520 6827L -7520 5777Z" fill="#F1F1F1"/>
<clipPath id="clip-2" clip-rule="evenodd">
<path d="M -7520 6767L -6940 6767L -6940 6827L -7520 6827L -7520 6767Z" fill="#FFFFFF"/>
</clipPath>
<g id="pagination" clip-path="url(#clip-2)">
<g id="Group">
<g id="Ellipse 6">
<use xlink:href="#path0_fill" transform="translate(-7256 6792)" fill="#000000" fill-opacity="0.4"/>
</g>
<g id="Ellipse 6">
<use xlink:href="#path0_fill" transform="translate(-7231 6792)" fill="#000000" fill-opacity="0.4"/>
</g>
<g id="Ellipse 6">
<use xlink:href="#path0_fill" transform="translate(-7206 6792)" fill="#000000" fill-opacity="0.4"/>
</g>
</g>
</g>
<clipPath id="clip-3" clip-rule="evenodd">
<path d="M -7520 6627L -6940 6627L -6940 6677L -7520 6677L -7520 6627Z" fill="#FFFFFF"/>
</clipPath>
<g id="action icons" clip-path="url(#clip-3)">
<clipPath id="clip-4" clip-rule="evenodd">
<path d="M -7105 6627L -7057 6627L -7057 6675L -7105 6675L -7105 6627Z" fill="#FFFFFF"/>
</clipPath>
<g id="microphone" clip-path="url(#clip-4)">
<g id="Union">
<use xlink:href="#path1_fill" transform="translate(-7093 6632)" fill="#000000" fill-opacity="0.4"/>
</g>
</g>
<clipPath id="clip-5" clip-rule="evenodd">
<path d="M -7405 6627L -7357 6627L -7357 6675L -7405 6675L -7405 6627Z" fill="#FFFFFF"/>
</clipPath>
<g id="camera" clip-path="url(#clip-5)">
<g id="Union">
<use xlink:href="#path2_fill" transform="translate(-7398 6634)" fill="#000000" fill-opacity="0.4"/>
</g>
</g>
<clipPath id="clip-6" clip-rule="evenodd">
<path d="M -7255 6627L -7207 6627L -7207 6675L -7255 6675L -7255 6627Z" fill="#FFFFFF"/>
</clipPath>
<g id="power" clip-path="url(#clip-6)">
<g id="scale">
<use xlink:href="#path3_fill" transform="translate(-7240 6632)" fill="#000000" fill-opacity="0.4"/>
</g>
</g>
</g>
<g id="parked / light">
<clipPath id="clip-7" clip-rule="evenodd">
<path d="M -7520 5984L -6940 5984L -6940 6584L -7520 6584L -7520 5984Z" fill="#FFFFFF"/>
</clipPath>
<g id="parked / light" clip-path="url(#clip-7)">
<path d="M -7520 5984L -6940 5984L -6940 6584L -7520 6584L -7520 5984Z" fill="#0E0E0E"/>
<g id="Light">
<g id="background">
<use xlink:href="#path4_fill" transform="translate(-7520 5984)" fill="#F0F0F0"/>
</g>
<g id="MODEL 3">
<use xlink:href="#path5_fill" transform="translate(-7500 5994)" fill="#000000" fill-opacity="0.4"/>
</g>
<g id="headlights">
<g id="Vector 27" filter="url(#filter0_f)">
<use xlink:href="#path6_fill" transform="translate(-7336 5984)" fill="url(#paint8_linear)" fill-opacity="0.5"/>
</g>
<g id="Vector 27" filter="url(#filter1_f)">
<use xlink:href="#path6_fill" transform="matrix(-1 0 0 1 -7123 5984)" fill="url(#paint9_linear)" fill-opacity="0.5"/>
</g>
</g>
<g id="button">
<g id="Rectangle 12">
<use xlink:href="#path7_fill" transform="translate(-7305 6034)" fill="#0E0E0E"/>
<use xlink:href="#path7_fill" transform="translate(-7305 6034)" fill="#FFFFFF" fill-opacity="0.8"/>
</g>
<g id="OPEN">
<use xlink:href="#path8_fill" transform="translate(-7285 6052)"/>
</g>
</g>
<g id="button">
<g id="Rectangle 12">
<use xlink:href="#path7_fill" transform="translate(-7305 6464)" fill="#0E0E0E"/>
<use xlink:href="#path7_fill" transform="translate(-7305 6464)" fill="#FFFFFF" fill-opacity="0.8"/>
</g>
<g id="OPEN">
<use xlink:href="#path8_fill" transform="translate(-7285 6482)"/>
</g>
</g>
<g id="button">
<g id="Rectangle 12">
<use xlink:href="#path7_fill" transform="translate(-7470 6379)" fill="#0E0E0E"/>
<use xlink:href="#path7_fill" transform="translate(-7470 6379)" fill="#FFFFFF" fill-opacity="0.8"/>
</g>
</g>
<g id="model 3" filter="url(#filter2_d)">
<g id="Vector 21">
<use xlink:href="#path9_fill" transform="translate(-7303 6109)" fill="url(#paint18_linear)"/>
</g>
<g id="Vector 26">
<use xlink:href="#path10_fill" transform="translate(-7284.78 6405)" fill="#960000"/>
</g>
<g id="Vector 26">
<use xlink:href="#path10_fill" transform="matrix(-1 0 0 1 -7174.33 6405)" fill="#960000"/>
</g>
<g id="Vector 22">
<use xlink:href="#path11_fill" transform="translate(-7284.56 6123)" fill="url(#paint21_linear)"/>
</g>
<g id="Vector 22">
<use xlink:href="#path11_fill" transform="matrix(-1 0 0 1 -7173.63 6123)" fill="url(#paint22_linear)"/>
</g>
<g id="Frunk">
<g id="Vector 23">
<use xlink:href="#path12_fill" transform="translate(-7279.56 6116)" fill="url(#paint23_linear)"/>
<use xlink:href="#path13_stroke" transform="translate(-7279.56 6116)" fill="#DADADA"/>
</g>
<g id="Tesla Logo">
<g id="Tesla Logo">
<use xlink:href="#path14_fill" transform="matrix(-1 -1.22465e-16 1.22465e-16 -1 -7224.56 6132)" fill="#9E9E9E"/>
</g>
</g>
</g>
<g id="Vector 24">
<use xlink:href="#path15_fill" transform="translate(-7279.56 6183)" fill="url(#paint26_linear)"/>
</g>
<g id="Vector 25">
<use xlink:href="#path16_fill" transform="translate(-7286.6 6221.5)" fill="#444444"/>
</g>
<g id="Vector 25">
<use xlink:href="#path16_fill" transform="matrix(-1 0 0 1 -7172.01 6221.5)" fill="#444444"/>
</g>
</g>
<clipPath id="clip-8" clip-rule="evenodd">
<path d="M -7419 6385L -7371 6385L -7371 6433L -7419 6433L -7419 6385Z" fill="#FFFFFF"/>
</clipPath>
<g id="power" clip-path="url(#clip-8)">
<g id="scale">
<use xlink:href="#path17_fill" transform="translate(-7404 6390)"/>
</g>
</g>
</g>
</g>
</g>
<g id="Battery Level">
<g id="Remaining distance">
<use xlink:href="#path18_fill" transform="translate(-7137 5944)" fill="#000000" fill-opacity="0.4"/>
</g>
<g id="battery">
<g id="battery">
<mask id="mask0_outline_ins">
<use xlink:href="#path19_fill" fill="white" transform="translate(-7022 5947)"/>
</mask>
<g mask="url(#mask0_outline_ins)">
<use xlink:href="#path20_stroke_2x" transform="translate(-7022 5947)" fill="#000000" fill-opacity="0.4"/>
</g>
</g>
<g id="level">
<use xlink:href="#path21_fill" transform="translate(-7020 5949)" fill="#25CB55"/>
</g>
</g>
</g>
<g id="gear">
<g id="P">
<use xlink:href="#path22_fill" transform="translate(-7500 5945)" fill="#000000" fill-opacity="0.4"/>
</g>
<g id="R">
<use xlink:href="#path23_fill" transform="translate(-7473 5945)" fill="#000000" fill-opacity="0.4"/>
</g>
<g id="N">
<use xlink:href="#path24_fill" transform="translate(-7446 5945)" fill="#000000" fill-opacity="0.4"/>
</g>
<g id="D">
<use xlink:href="#path25_fill" transform="translate(-7419 5945)"/>
</g>
</g>
<g id="Speedometer">
<g id="MPH">
<use xlink:href="#path26_fill" transform="translate(-7270 5944)" fill="#000000" fill-opacity="0.4"/>
</g>
<g id="speedometer line">
<use xlink:href="#path27_fill" transform="translate(-7500 5982)" fill="#000000" fill-opacity="0.4"/>
</g>
<g id="current speed Line">
<use xlink:href="#path28_fill" transform="translate(-7230 5980)" fill="#25CB55"/>
</g>
<g id="Current speed number">
<use xlink:href="#path29_fill" transform="translate(-7510 5837)"/>
</g>
</g>
<clipPath id="clip-9" clip-rule="evenodd">
<path d="M -7520 5777L -6940 5777L -6940 5837L -7520 5837L -7520 5777Z" fill="#FFFFFF"/>
</clipPath>
<g id="top info icons" clip-path="url(#clip-9)">
<clipPath id="clip-10" clip-rule="evenodd">
<path d="M -7010 5787L -6962 5787L -6962 5835L -7010 5835L -7010 5787Z" fill="#FFFFFF"/>
</clipPath>
<g id="headlights" clip-path="url(#clip-10)">
<g id="Vector 16">
<use xlink:href="#path30_stroke" transform="translate(-7004 5796)" fill="#25CB55"/>
</g>
</g>
<clipPath id="clip-11" clip-rule="evenodd">
<path d="M -7430 5787L -7382 5787L -7382 5835L -7430 5835L -7430 5787Z" fill="#FFFFFF"/>
</clipPath>
<g id="tire pressure" clip-path="url(#clip-11)">
<g id="Group">
<g id="Vector 17">
<use xlink:href="#path31_stroke" transform="translate(-7423 5797)" fill="#FFBD0A"/>
</g>
<g id="Vector 18">
<use xlink:href="#path32_stroke" transform="translate(-7417.5 5824)" fill="#FFBD0A"/>
</g>
<g id="Vector 17">
<use xlink:href="#path33_stroke" transform="translate(-7406 5798.5)" fill="#FFBD0A"/>
</g>
</g>
</g>
</g>
</g>
</g>
</g>
<defs>
<filter id="filter0_f" filterUnits="userSpaceOnUse" x="-7361" y="5959" width="162" height="220" color-interpolation-filters="sRGB">
<feFlood flood-opacity="0" result="BackgroundImageFix"/>
<feBlend mode="normal" in="SourceGraphic" in2="BackgroundImageFix" result="shape"/>
<feGaussianBlur stdDeviation="12.5" result="effect1_foregroundBlur"/>
</filter>
<filter id="filter1_f" filterUnits="userSpaceOnUse" x="-7260" y="5959" width="162" height="220" color-interpolation-filters="sRGB">
<feFlood flood-opacity="0" result="BackgroundImageFix"/>
<feBlend mode="normal" in="SourceGraphic" in2="BackgroundImageFix" result="shape"/>
<feGaussianBlur stdDeviation="12.5" result="effect1_foregroundBlur"/>
</filter>
<filter id="filter2_d" filterUnits="userSpaceOnUse" x="-7313" y="6101" width="167" height="355" color-interpolation-filters="sRGB">
<feFlood flood-opacity="0" result="BackgroundImageFix"/>
<feColorMatrix in="SourceAlpha" type="matrix" values="0 0 0 0 0 0 0 0 0 0 0 0 0 0 0 0 0 0 255 0"/>
<feOffset dx="0" dy="2"/>
<feGaussianBlur stdDeviation="5"/>
<feColorMatrix type="matrix" values="0 0 0 0 0 0 0 0 0 0 0 0 0 0 0 0 0 0 0.25 0"/>
<feBlend mode="normal" in2="BackgroundImageFix" result="effect1_dropShadow"/>
<feBlend mode="normal" in="SourceGraphic" in2="effect1_dropShadow" result="shape"/>
</filter>
<linearGradient id="paint8_linear" x1="0" y1="0" x2="1" y2="0" gradientUnits="userSpaceOnUse" gradientTransform="matrix(6.85802e-15 170 -112 1.04095e-14 112 -1.04095e-14)">
<stop offset="0" stop-color="#FFFFFF" stop-opacity="0"/>
<stop offset="1" stop-color="#FFFFFF"/>
</linearGradient>
<linearGradient id="paint9_linear" x1="0" y1="0" x2="1" y2="0" gradientUnits="userSpaceOnUse" gradientTransform="matrix(6.85802e-15 170 -112 1.04095e-14 112 -1.04095e-14)">
<stop offset="0" stop-color="#FFFFFF" stop-opacity="0"/>
<stop offset="1" stop-color="#FFFFFF"/>
</linearGradient>
<linearGradient id="paint18_linear" x1="0" y1="0" x2="1" y2="0" gradientUnits="userSpaceOnUse" gradientTransform="matrix(146 -0.999998 0.439771 64.2067 0.22445 97.3966)">
<stop offset="0" stop-color="#FFFFFF"/>
<stop offset="0.486188" stop-color="#DEDEDE"/>
<stop offset="0.994475" stop-color="#DEDEDE"/>
</linearGradient>
<linearGradient id="paint21_linear" x1="0" y1="0" x2="1" y2="0" gradientUnits="userSpaceOnUse" gradientTransform="matrix(9 16.5 -12.7352 6.94649 19.2944 -1.47325)">
<stop offset="0" stop-color="#6E6E6E"/>
<stop offset="0.342541" stop-color="#FFFFFF"/>
<stop offset="0.480663" stop-color="#C9C9C9"/>
<stop offset="0.889503" stop-color="#5D5D5D"/>
</linearGradient>
<linearGradient id="paint22_linear" x1="0" y1="0" x2="1" y2="0" gradientUnits="userSpaceOnUse" gradientTransform="matrix(9 16.5 -12.7352 6.94649 19.2944 -1.47325)">
<stop offset="0" stop-color="#6E6E6E"/>
<stop offset="0.342541" stop-color="#FFFFFF"/>
<stop offset="0.480663" stop-color="#C9C9C9"/>
<stop offset="0.889503" stop-color="#5D5D5D"/>
</linearGradient>
<linearGradient id="paint23_linear" x1="0" y1="0" x2="1" y2="0" gradientUnits="userSpaceOnUse" gradientTransform="matrix(-82.5 0.500002 -0.602124 -99.3497 91.3011 89.2149)">
<stop offset="0" stop-color="#DADADA"/>
<stop offset="0.331492" stop-color="#F0F0F0"/>
<stop offset="1" stop-color="#FFFFFF"/>
</linearGradient>
<linearGradient id="paint26_linear" x1="0" y1="0" x2="1" y2="0" gradientUnits="userSpaceOnUse" gradientTransform="matrix(100 -4.18286e-13 -2.65349e-13 42.4628 1.38226e-13 -21.2314)">
<stop offset="0" stop-color="#262626"/>
<stop offset="0.778317" stop-color="#3A3A3A"/>
<stop offset="0.823126" stop-color="#615C5C"/>
<stop offset="0.864312" stop-color="#282828"/>
<stop offset="1" stop-color="#484848"/>
</linearGradient>
<path id="path0_fill" d="M 10 5C 10 7.76142 7.76142 10 5 10C 2.23858 10 0 7.76142 0 5C 0 2.23858 2.23858 0 5 0C 7.76142 0 10 2.23858 10 5Z"/>
<path id="path1_fill" fill-rule="evenodd" d="M 12 0C 8.68652 0 6 2.68628 6 6L 6 20C 6 23.3137 8.68652 26 12 26C 15.3135 26 18 23.3137 18 20L 18 6C 18 2.68628 15.3135 0 12 0ZM 4 18C 4 16.8955 3.10449 16 2 16C 0.895508 16 0 16.8955 0 18L 0 20C 0 25.946 4.32422 30.8818 10 31.834L 10 34L 4 34C 2.89551 34 2 34.8955 2 36C 2 37.1045 2.89551 38 4 38L 12 38L 20 38C 21.1045 38 22 37.1045 22 36C 22 34.8955 21.1045 34 20 34L 14 34L 14 31.834C 19.6758 30.8818 24 25.946 24 20L 24 18C 24 16.8955 23.1045 16 22 16C 20.8955 16 20 16.8955 20 18L 20 20C 20 24.4182 16.418 28 12 28C 7.58203 28 4 24.4182 4 20L 4 18Z"/>
<path id="path2_fill" fill-rule="evenodd" d="M 34 17C 34 26.3889 26.3887 34 17 34C 7.61133 34 0 26.3889 0 17C 0 7.61108 7.61133 0 17 0C 26.3887 0 34 7.61108 34 17ZM 31 17C 31 24.7319 24.7324 31 17 31C 9.26758 31 3 24.7319 3 17C 3 9.26807 9.26758 3 17 3C 24.7324 3 31 9.26807 31 17ZM 17 28C 23.0752 28 28 23.0752 28 17C 28 10.9248 23.0752 6 17 6C 10.9248 6 6 10.9248 6 17C 6 23.0752 10.9248 28 17 28ZM 14 18C 16.209 18 18 16.2092 18 14C 18 11.7908 16.209 10 14 10C 11.791 10 10 11.7908 10 14C 10 16.2092 11.791 18 14 18ZM 23 21.5C 23 22.8806 21.8809 24 20.5 24C 19.1191 24 18 22.8806 18 21.5C 18 20.1194 19.1191 19 20.5 19C 21.8809 19 23 20.1194 23 21.5Z"/>
<path id="path3_fill" fill-rule="evenodd" d="M 9.24392 14.6152L 9.24392 0L 0.0779038 22C -0.19651 22.6587 0.287865 23.3848 1.00124 23.3848L 8.75661 23.3848L 8.75661 38L 17.9226 16C 18.197 15.3413 17.7127 14.6152 16.9993 14.6152L 9.24392 14.6152Z"/>
<path id="path4_fill" d="M 0 0L 580 0L 580 600L 0 600L 0 0Z"/>
<path id="path5_fill" d="M 1.72 6L 4.78 6L 9.42 15.02L 14.02 6L 17.08 6L 17.08 20L 14.62 20L 14.62 9.96L 10.26 18.56L 8.54 18.56L 4.16 9.96L 4.16 20L 1.72 20L 1.72 6ZM 26.8886 5.82C 28.2753 5.82 29.5353 6.13333 30.6686 6.76C 31.8153 7.38667 32.7153 8.24667 33.3686 9.34C 34.0219 10.4333 34.3486 11.6467 34.3486 12.98C 34.3486 14.3133 34.0219 15.5333 33.3686 16.64C 32.7153 17.7333 31.8153 18.6 30.6686 19.24C 29.5353 19.88 28.2753 20.2 26.8886 20.2C 25.5019 20.2 24.2353 19.88 23.0886 19.24C 21.9553 18.6 21.0619 17.7333 20.4086 16.64C 19.7553 15.5333 19.4286 14.3133 19.4286 12.98C 19.4286 11.6467 19.7553 10.4333 20.4086 9.34C 21.0619 8.24667 21.9553 7.38667 23.0886 6.76C 24.2353 6.13333 25.5019 5.82 26.8886 5.82ZM 26.9286 8.22C 26.0753 8.22 25.2819 8.43333 24.5486 8.86C 23.8153 9.27333 23.2353 9.84667 22.8086 10.58C 22.3819 11.3 22.1686 12.1 22.1686 12.98C 22.1686 13.86 22.3819 14.6667 22.8086 15.4C 23.2486 16.1333 23.8286 16.7133 24.5486 17.14C 25.2819 17.5667 26.0753 17.78 26.9286 17.78C 27.7686 17.78 28.5486 17.5667 29.2686 17.14C 29.9886 16.7133 30.5553 16.1333 30.9686 15.4C 31.3953 14.6667 31.6086 13.86 31.6086 12.98C 31.6086 12.1 31.3953 11.3 30.9686 10.58C 30.5553 9.84667 29.9886 9.27333 29.2686 8.86C 28.5486 8.43333 27.7686 8.22 26.9286 8.22ZM 42.5205 6C 43.9205 6 45.1738 6.3 46.2805 6.9C 47.3871 7.48667 48.2538 8.31333 48.8805 9.38C 49.5071 10.4467 49.8205 11.6533 49.8205 13C 49.8205 14.3467 49.5005 15.5533 48.8605 16.62C 48.2338 17.6733 47.3605 18.5 46.2405 19.1C 45.1205 19.7 43.8471 20 42.4205 20L 36.7005 20L 36.7005 6L 42.5205 6ZM 42.5805 17.64C 43.4338 17.64 44.2005 17.4467 44.8805 17.06C 45.5738 16.66 46.1138 16.1133 46.5005 15.42C 46.8871 14.7133 47.0805 13.9133 47.0805 13.02C 47.0805 12.1267 46.8805 11.3267 46.4805 10.62C 46.0805 9.9 45.5271 9.34667 44.8205 8.96C 44.1271 8.56 43.3471 8.36 42.4805 8.36L 39.3805 8.36L 39.3805 17.64L 42.5805 17.64ZM 52.1692 6L 62.4292 6L 62.4292 8.34L 54.8492 8.34L 54.8492 11.8L 61.6492 11.8L 61.6492 14.14L 54.8492 14.14L 54.8492 17.66L 62.6692 17.66L 62.6692 20L 52.1692 20L 52.1692 6ZM 65.3919 6L 68.0719 6L 68.0719 17.58L 74.1119 17.58L 74.1119 20L 65.3919 20L 65.3919 6ZM 86.1145 11.84C 87.4079 11.96 88.4345 12.3533 89.1945 13.02C 89.9679 13.6867 90.3545 14.56 90.3545 15.64C 90.3545 16.52 90.1279 17.3 89.6745 17.98C 89.2212 18.6467 88.5745 19.1733 87.7345 19.56C 86.8945 19.9333 85.9145 20.12 84.7945 20.12C 83.8479 20.12 82.9079 19.98 81.9745 19.7C 81.0545 19.4067 80.2679 19.02 79.6145 18.54L 80.6745 16.46C 81.2345 16.9267 81.8545 17.2867 82.5345 17.54C 83.2145 17.78 83.9079 17.9 84.6145 17.9C 85.5879 17.9 86.3479 17.7 86.8945 17.3C 87.4545 16.9 87.7345 16.36 87.7345 15.68C 87.7345 14.9867 87.4612 14.46 86.9145 14.1C 86.3679 13.7267 85.5879 13.54 84.5745 13.54L 82.4545 13.54L 82.4545 11.92L 86.2145 8.28L 80.3145 8.28L 80.2945 6L 89.6545 6L 89.6545 7.66L 85.3745 11.76L 86.1145 11.84Z"/>
<path id="path6_fill" d="M 62.4262 170L 0 0L 112 0L 62.4262 170Z"/>
<path id="path7_fill" d="M 0 30C 0 13.4315 13.4315 0 30 0L 120 0C 136.569 0 150 13.4315 150 30C 150 46.5685 136.569 60 120 60L 30 60C 13.4315 60 0 46.5685 0 30Z"/>
<path id="path8_fill" d="M 33.7343 4.82C 35.121 4.82 36.381 5.13333 37.5143 5.76C 38.661 6.38667 39.561 7.24667 40.2143 8.34C 40.8676 9.43333 41.1943 10.6467 41.1943 11.98C 41.1943 13.3133 40.8676 14.5333 40.2143 15.64C 39.561 16.7333 38.661 17.6 37.5143 18.24C 36.381 18.88 35.121 19.2 33.7343 19.2C 32.3476 19.2 31.081 18.88 29.9343 18.24C 28.801 17.6 27.9076 16.7333 27.2543 15.64C 26.601 14.5333 26.2743 13.3133 26.2743 11.98C 26.2743 10.6467 26.601 9.43333 27.2543 8.34C 27.9076 7.24667 28.801 6.38667 29.9343 5.76C 31.081 5.13333 32.3476 4.82 33.7343 4.82ZM 33.7743 7.22C 32.921 7.22 32.1276 7.43333 31.3943 7.86C 30.661 8.27333 30.081 8.84667 29.6543 9.58C 29.2276 10.3 29.0143 11.1 29.0143 11.98C 29.0143 12.86 29.2276 13.6667 29.6543 14.4C 30.0943 15.1333 30.6743 15.7133 31.3943 16.14C 32.1276 16.5667 32.921 16.78 33.7743 16.78C 34.6143 16.78 35.3943 16.5667 36.1143 16.14C 36.8343 15.7133 37.401 15.1333 37.8143 14.4C 38.241 13.6667 38.4543 12.86 38.4543 11.98C 38.4543 11.1 38.241 10.3 37.8143 9.58C 37.401 8.84667 36.8343 8.27333 36.1143 7.86C 35.3943 7.43333 34.6143 7.22 33.7743 7.22ZM 49.2862 5C 51.0462 5 52.4062 5.42 53.3662 6.26C 54.3395 7.1 54.8262 8.28667 54.8262 9.82C 54.8262 11.42 54.3395 12.6667 53.3662 13.56C 52.4062 14.44 51.0462 14.88 49.2862 14.88L 46.2262 14.88L 46.2262 19L 43.5462 19L 43.5462 5L 49.2862 5ZM 49.1462 12.52C 50.1595 12.52 50.9328 12.3 51.4662 11.86C 52.0128 11.42 52.2862 10.7667 52.2862 9.9C 52.2862 9.04667 52.0128 8.40667 51.4662 7.98C 50.9328 7.55333 50.1595 7.34 49.1462 7.34L 46.2262 7.34L 46.2262 12.52L 49.1462 12.52ZM 57.0423 5L 67.3023 5L 67.3023 7.34L 59.7223 7.34L 59.7223 10.8L 66.5223 10.8L 66.5223 13.14L 59.7223 13.14L 59.7223 16.66L 67.5423 16.66L 67.5423 19L 57.0423 19L 57.0423 5ZM 80.0249 5L 82.6249 5L 82.6249 19L 80.0849 19L 72.8849 9.36L 72.8849 19L 70.2649 19L 70.2649 5L 72.8049 5L 80.0249 14.66L 80.0249 5Z"/>
<path id="path9_fill" d="M 10.4444 30C 10.4444 30 26.9443 0 73.4444 0C 119.945 0 136.444 30 136.444 30C 136.444 30 138.444 41 138.444 65C 138.444 89 135.444 95.5 135.444 98L 135.444 112C 135.444 112 145.444 116 146.444 121C 147.444 126 146.444 127.5 146.444 127.5L 135.444 121C 135.444 121 137.444 161 137.444 183C 137.444 205 136.444 234.5 136.444 234.5C 136.444 234.5 138.444 236.5 138.444 240.5L 138.444 289.5C 138.444 293 135.654 298.462 132.444 304C 129.853 312.422 127.924 315.595 123.944 319.5C 106.754 332.019 96.6497 334.192 73.4444 334C 50.2392 333.808 40.1348 332.019 22.9444 319.5C 18.9649 315.595 17.0361 312.422 14.4444 304C 11.235 298.462 8.44444 293 8.44444 289.5L 8.44444 240.5C 8.44444 236.5 10.4444 234.5 10.4444 234.5C 10.4444 234.5 9.44444 205 9.44444 183C 9.44444 161 11.4444 121 11.4444 121L 2.07526 126.536C 1.16061 127.077 0.0995696 126.727 0.0253269 125.668C -0.0457575 124.653 0.0144375 123.15 0.444444 121C 1.44444 116 11.4444 112 11.4444 112L 11.4444 98C 11.4444 95.5 8.44434 89 8.44444 65C 8.44455 41 10.4444 30 10.4444 30Z"/>
<path id="path10_fill" d="M 3.22388 20C -1.15116 15 -0.276112 5 1.22387 0C 1.89054 3.16667 2.22389 11 5.72392 16.5C 8.6051 21.0275 22.2239 29 28.2239 32C 21.7239 30 8.72389 26.2857 3.22388 20Z"/>
<path id="path11_fill" d="M 0.926794 16C 2.92672 9.5 13.9268 0 23.9268 0C 18.4268 5.5 14.9268 10 10.9268 18C 6.92675 26 5.42675 31 2.92679 31C 0.426841 31 -1.07313 22.5 0.926794 16Z"/>
<path id="path12_fill" d="M 24 7.04C 12.5 15.04 0 66.5399 0 83.04L 100 83.04C 100 66.5399 87.5 15.04 76 7.04C 64.5 -0.96 50 0.04 50 0.04C 50 0.04 35.5 -0.96 24 7.04Z"/>
<path id="path13_stroke" d="M 0 83.04L -0.5 83.04L -0.5 83.54L 0 83.54L 0 83.04ZM 50 0.04L 49.9656 0.538815L 50 0.541188L 50.0344 0.538815L 50 0.04ZM 100 83.04L 100 83.54L 100.5 83.54L 100.5 83.04L 100 83.04ZM 0.5 83.04C 0.5 74.8616 3.609 57.916 8.16819 41.9901C 10.4457 34.0337 13.0744 26.3643 15.8546 20.1745C 18.6451 13.9602 21.5361 9.36308 24.2855 7.45045L 23.7145 6.62955C 20.7139 8.71692 17.7299 13.5573 14.9423 19.7649C 12.1443 25.9969 9.49176 33.7338 7.20681 41.7149C 2.641 57.6639 -0.5 74.7183 -0.5 83.04L 0.5 83.04ZM 24.2855 7.45045C 29.9609 3.49335 36.3518 1.77953 41.3858 1.0346C 43.8948 0.662387 46.0351 0.539622 47.5648 0.508647C 48.3261 0.493121 48.9254 0.500834 49.3405 0.512461C 49.5464 0.518207 49.7025 0.524828 49.8097 0.530117C 49.8626 0.532717 49.9015 0.534899 49.9285 0.536498C 49.9415 0.537274 49.9508 0.537854 49.9574 0.538279C 49.9605 0.538478 49.9626 0.538613 49.9641 0.538717C 49.9648 0.538762 49.9652 0.538787 49.9655 0.53881C 49.9656 0.538819 49.9657 0.53882 49.9657 0.538824C 49.9657 0.538821 49.9656 0.538815 50 0.04C 50.0344 -0.458815 50.0342 -0.458829 50.0339 -0.458847C 50.0338 -0.458858 50.0335 -0.458879 50.0331 -0.458901C 50.0326 -0.458937 50.0317 -0.459002 50.0306 -0.459074C 50.0286 -0.459204 50.0254 -0.459417 50.0215 -0.459668C 50.0141 -0.460143 50.0024 -0.460875 49.9877 -0.461747C 49.959 -0.463443 49.9151 -0.465901 49.859 -0.468672C 49.7482 -0.474124 49.5815 -0.481176 49.3685 -0.487148C 48.9457 -0.498959 48.3223 -0.506871 47.5445 -0.491147C 45.9962 -0.459622 43.7927 -0.332387 41.2392 0.0453983C 36.1482 0.800473 29.5391 2.58665 23.7145 6.62955L 24.2855 7.45045ZM 100.5 83.04C 100.5 74.7183 97.359 57.6639 92.7932 41.7149C 90.5082 33.7338 87.8557 25.9969 85.0577 19.7649C 82.2701 13.5573 79.2861 8.71692 76.2855 6.62955L 75.7145 7.45045C 78.4639 9.36308 81.3549 13.9602 84.1454 20.1745C 86.9256 26.3643 89.5543 34.0337 91.8318 41.9901C 96.391 57.916 99.5 74.8616 99.5 83.04L 100.5 83.04ZM 76.2855 6.62955C 70.4609 2.58665 63.8518 0.800473 58.7608 0.0453983C 56.2073 -0.332387 54.0038 -0.459622 52.4555 -0.491147C 51.6777 -0.506871 51.0543 -0.498959 50.6315 -0.487148C 50.4185 -0.481176 50.2518 -0.474124 50.141 -0.468672C 50.0849 -0.465901 50.041 -0.463443 50.0123 -0.461747C 49.9976 -0.460875 49.9859 -0.460143 49.9785 -0.459668C 49.9746 -0.459417 49.9714 -0.459204 49.9694 -0.459074C 49.9683 -0.459002 49.9674 -0.458937 49.9669 -0.458901C 49.9665 -0.458879 49.9662 -0.458858 49.9661 -0.458847C 49.9658 -0.458829 49.9656 -0.458815 50 0.04C 50.0344 0.538815 50.0343 0.538821 50.0343 0.538824C 50.0343 0.53882 50.0344 0.538819 50.0345 0.53881C 50.0348 0.538787 50.0352 0.538762 50.0359 0.538717C 50.0374 0.538613 50.0395 0.538478 50.0426 0.538279C 50.0492 0.537854 50.0585 0.537274 50.0715 0.536498C 50.0985 0.534899 50.1374 0.532717 50.1903 0.530117C 50.2975 0.524828 50.4536 0.518207 50.6595 0.512461C 51.0746 0.500834 51.6739 0.493121 52.4352 0.508647C 53.9649 0.539622 56.1052 0.662387 58.6142 1.0346C 63.6482 1.77953 70.0391 3.49335 75.7145 7.45045L 76.2855 6.62955ZM 100 82.54L 0 82.54L 0 83.54L 100 83.54L 100 82.54Z"/>
<path id="path14_fill" fill-rule="evenodd" d="M 6.39941 2.09814L 5.00049 10L 3.59033 2.09717C 2.26562 2.09814 1.8457 2.24463 1.78467 2.84424C 1.78467 2.84424 0.889648 2.50928 0.438965 1.8291C 2.19922 1.00977 3.96826 0.972656 3.96826 0.972656L 4.99805 2.23535L 6.03076 0.972656C 6.03076 0.972656 7.79932 1.00977 9.56006 1.8291C 9.10889 2.50928 8.21436 2.84424 8.21436 2.84424C 8.15381 2.24512 7.73291 2.09814 6.39941 2.09814ZM 9.71973 1.55957C 8.05225 0.82959 6.42334 0.597168 5 0.608398C 3.57666 0.597168 1.94727 0.82959 0.279785 1.55957C 0.081543 1.19775 0 0.978516 0 0.978516C 1.82275 0.253906 3.52979 0.00634766 5 0C 6.46973 0.00634766 8.17725 0.253906 10 0.978516C 10 0.978516 9.94287 1.15625 9.71973 1.55957Z"/>
<path id="path15_fill" d="M 50 0C 14 0 0 15.5 0 15.5L 0 23.5202C 0 26.1701 0.18564 28.7962 0.551548 31.4207C 2.50814 45.4544 9 93.1372 9 108C 9 125.5 15 218.5 15 218.5C 17 222.5 21.5 235.5 50 235.5C 78.5 235.5 83 222.5 85 218.5C 85 218.5 91 125.5 91 108C 91 93.1372 97.4919 45.4544 99.4485 31.4207C 99.8144 28.7962 100 26.1701 100 23.5202L 100 15.5C 100 15.5 86 0 50 0Z"/>
<path id="path16_fill" d="M 0.0432526 74.5C -0.456747 12.5 3.54325 0 3.54325 0C 3.54325 0 12.0432 27.5 13.5432 76.5C 15.0432 125.5 15.5433 169 15.5433 169C 15.5433 169 0.543253 136.5 0.0432526 74.5Z"/>
<path id="path17_fill" fill-rule="evenodd" d="M 9.24392 14.6152L 9.24392 0L 0.0779038 22C -0.19651 22.6587 0.287865 23.3848 1.00124 23.3848L 8.7571 23.3848L 8.7571 38L 17.9231 16C 18.1975 15.3413 17.7132 14.6152 16.9998 14.6152L 9.24392 14.6152Z"/>
<path id="path18_fill" d="M 56.0881 17.04C 56.5015 17.32 56.9748 17.54 57.5081 17.7C 58.0415 17.8467 58.5748 17.92 59.1081 17.92C 60.3615 17.92 61.3015 17.5067 61.9281 16.68C 62.5548 15.84 62.8548 14.6933 62.8281 13.24C 62.4681 13.84 61.9748 14.3 61.3481 14.62C 60.7215 14.94 59.9881 15.1 59.1481 15.1C 57.7748 15.1 56.6881 14.6933 55.8881 13.88C 55.0881 13.0667 54.6881 11.9733 54.6881 10.6C 54.6881 9.64 54.8881 8.80667 55.2881 8.1C 55.7015 7.39333 56.2815 6.84667 57.0281 6.46C 57.7748 6.07333 58.6481 5.88 59.6481 5.88C 60.8348 5.88 61.8548 6.15333 62.7081 6.7C 63.5748 7.24667 64.2348 8.03333 64.6881 9.06C 65.1548 10.0867 65.3881 11.3067 65.3881 12.72C 65.3881 14.2 65.1348 15.5 64.6281 16.62C 64.1348 17.74 63.4281 18.6067 62.5081 19.22C 61.5881 19.82 60.5148 20.12 59.2881 20.12C 58.5815 20.12 57.8415 20.02 57.0681 19.82C 56.3081 19.62 55.6348 19.3533 55.0481 19.02L 56.0881 17.04ZM 59.7681 8.14C 58.9815 8.14 58.3481 8.36 57.8681 8.8C 57.3881 9.24 57.1481 9.84667 57.1481 10.62C 57.1481 11.3667 57.3748 11.9533 57.8281 12.38C 58.2815 12.8067 58.9015 13.02 59.6881 13.02C 60.5415 13.02 61.2148 12.7867 61.7081 12.32C 62.2015 11.84 62.4415 11.2467 62.4281 10.54C 62.4415 9.9 62.2148 9.34 61.7481 8.86C 61.2948 8.38 60.6348 8.14 59.7681 8.14ZM 73.5253 5.88C 75.4586 5.88 76.9453 6.49333 77.9853 7.72C 79.0253 8.94667 79.5453 10.7067 79.5453 13C 79.5453 15.28 79.0253 17.0333 77.9853 18.26C 76.9453 19.4867 75.4586 20.1 73.5253 20.1C 71.592 20.1 70.1053 19.4867 69.0653 18.26C 68.0253 17.0333 67.5053 15.28 67.5053 13C 67.5053 10.7067 68.0253 8.94667 69.0653 7.72C 70.1053 6.49333 71.592 5.88 73.5253 5.88ZM 73.5253 8C 72.4186 8 71.5986 8.40667 71.0653 9.22C 70.532 10.02 70.2653 11.28 70.2653 13C 70.2653 14.7067 70.532 15.9667 71.0653 16.78C 71.5986 17.5933 72.4186 18 73.5253 18C 74.632 18 75.452 17.5933 75.9853 16.78C 76.5186 15.9667 76.7853 14.7067 76.7853 13C 76.7853 11.28 76.5186 10.02 75.9853 9.22C 75.452 8.40667 74.632 8 73.5253 8ZM 84.9664 5.96C 86.1397 5.96 87.0597 6.33333 87.7264 7.08C 88.3931 7.81333 88.7264 8.83333 88.7264 10.14C 88.7264 11.4467 88.3931 12.48 87.7264 13.24C 87.0597 13.9867 86.1397 14.36 84.9664 14.36C 83.8064 14.36 82.8931 13.9867 82.2264 13.24C 81.5597 12.48 81.2264 11.4467 81.2264 10.14C 81.2264 8.84667 81.5597 7.82667 82.2264 7.08C 82.8931 6.33333 83.8064 5.96 84.9664 5.96ZM 84.9664 7.48C 84.3264 7.48 83.8264 7.71333 83.4664 8.18C 83.1197 8.64667 82.9464 9.3 82.9464 10.14C 82.9464 10.9933 83.1197 11.66 83.4664 12.14C 83.8264 12.6067 84.3264 12.84 84.9664 12.84C 85.6197 12.84 86.1264 12.6067 86.4864 12.14C 86.8464 11.66 87.0264 10.9933 87.0264 10.14C 87.0264 9.3 86.8464 8.64667 86.4864 8.18C 86.1264 7.71333 85.6197 7.48 84.9664 7.48ZM 94.3264 6L 96.3064 6L 86.1064 20L 84.1064 20L 94.3264 6ZM 95.5864 11.66C 96.7597 11.66 97.6797 12.0333 98.3464 12.78C 99.0131 13.5133 99.3464 14.5333 99.3464 15.84C 99.3464 17.1467 99.0131 18.18 98.3464 18.94C 97.6797 19.6867 96.7597 20.06 95.5864 20.06C 94.4264 20.06 93.5131 19.6867 92.8464 18.94C 92.1797 18.18 91.8464 17.1467 91.8464 15.84C 91.8464 14.5467 92.1797 13.5267 92.8464 12.78C 93.5131 12.0333 94.4264 11.66 95.5864 11.66ZM 95.5864 13.18C 94.9464 13.18 94.4464 13.4133 94.0864 13.88C 93.7397 14.3467 93.5664 15 93.5664 15.84C 93.5664 16.6933 93.7397 17.36 94.0864 17.84C 94.4464 18.3067 94.9464 18.54 95.5864 18.54C 96.2397 18.54 96.7464 18.3067 97.1064 17.84C 97.4664 17.36 97.6464 16.6933 97.6464 15.84C 97.6464 15 97.4664 14.3467 97.1064 13.88C 96.7464 13.4133 96.2397 13.18 95.5864 13.18Z"/>
<path id="path19_fill" fill-rule="evenodd" d="M 2 0C 0.895508 0 0 0.895386 0 2L 0 18C 0 19.1046 0.895508 20 2 20L 56 20C 57.1045 20 58 19.1046 58 18L 58 2C 58 0.895386 57.1045 0 56 0L 2 0ZM 60 15L 59 15L 59 7L 60 7C 61.1045 7 62 7.89539 62 9L 62 13C 62 14.1046 61.1045 15 60 15Z"/>
<path id="path20_stroke_2x" d="M 59 15L 57 15L 57 17L 59 17L 59 15ZM 59 7L 59 5L 57 5L 57 7L 59 7ZM 2 2L 2 -2C -0.208982 -2 -2 -0.209263 -2 2L 2 2ZM 2 18L 2 2L -2 2L -2 18L 2 18ZM 2 18L -2 18C -2 20.2093 -0.208982 22 2 22L 2 18ZM 56 18L 2 18L 2 22L 56 22L 56 18ZM 56 18L 56 22C 58.209 22 60 20.2093 60 18L 56 18ZM 56 2L 56 18L 60 18L 60 2L 56 2ZM 56 2L 60 2C 60 -0.209263 58.209 -2 56 -2L 56 2ZM 2 2L 56 2L 56 -2L 2 -2L 2 2ZM 59 17L 60 17L 60 13L 59 13L 59 17ZM 57 7L 57 15L 61 15L 61 7L 57 7ZM 60 5L 59 5L 59 9L 60 9L 60 5ZM 64 9C 64 6.79074 62.209 5 60 5L 60 9L 64 9ZM 64 13L 64 9L 60 9L 60 13L 64 13ZM 60 17C 62.209 17 64 15.2093 64 13L 60 13L 60 17Z"/>
<path id="path21_fill" d="M 0 0L 54 0L 54 16L 0 16L 0 0Z"/>
<path id="path22_fill" d="M 7.46 5C 9.22 5 10.58 5.42 11.54 6.26C 12.5133 7.1 13 8.28667 13 9.82C 13 11.42 12.5133 12.6667 11.54 13.56C 10.58 14.44 9.22 14.88 7.46 14.88L 4.4 14.88L 4.4 19L 1.72 19L 1.72 5L 7.46 5ZM 7.32 12.52C 8.33333 12.52 9.10667 12.3 9.64 11.86C 10.1867 11.42 10.46 10.7667 10.46 9.9C 10.46 9.04667 10.1867 8.40667 9.64 7.98C 9.10667 7.55333 8.33333 7.34 7.32 7.34L 4.4 7.34L 4.4 12.52L 7.32 12.52Z"/>
<path id="path23_fill" d="M 10.48 19L 8.06 14.86C 7.95333 14.8733 7.78667 14.88 7.56 14.88L 4.4 14.88L 4.4 19L 1.72 19L 1.72 5L 7.56 5C 9.37333 5 10.7733 5.42 11.76 6.26C 12.7467 7.1 13.24 8.28667 13.24 9.82C 13.24 10.9133 13 11.8467 12.52 12.62C 12.0533 13.3933 11.3667 13.9733 10.46 14.36L 13.54 19L 10.48 19ZM 4.4 12.52L 7.56 12.52C 8.57333 12.52 9.34667 12.3 9.88 11.86C 10.4133 11.42 10.68 10.7667 10.68 9.9C 10.68 9.04667 10.4133 8.40667 9.88 7.98C 9.34667 7.55333 8.57333 7.34 7.56 7.34L 4.4 7.34L 4.4 12.52Z"/>
<path id="path24_fill" d="M 11.48 5L 14.08 5L 14.08 19L 11.54 19L 4.34 9.36L 4.34 19L 1.72 19L 1.72 5L 4.26 5L 11.48 14.66L 11.48 5Z"/>
<path id="path25_fill" d="M 7.54 5C 8.94 5 10.1933 5.3 11.3 5.9C 12.4067 6.48667 13.2733 7.31333 13.9 8.38C 14.5267 9.44667 14.84 10.6533 14.84 12C 14.84 13.3467 14.52 14.5533 13.88 15.62C 13.2533 16.6733 12.38 17.5 11.26 18.1C 10.14 18.7 8.86667 19 7.44 19L 1.72 19L 1.72 5L 7.54 5ZM 7.6 16.64C 8.45333 16.64 9.22 16.4467 9.9 16.06C 10.5933 15.66 11.1333 15.1133 11.52 14.42C 11.9067 13.7133 12.1 12.9133 12.1 12.02C 12.1 11.1267 11.9 10.3267 11.5 9.62C 11.1 8.9 10.5467 8.34667 9.84 7.96C 9.14667 7.56 8.36667 7.36 7.5 7.36L 4.4 7.36L 4.4 16.64L 7.6 16.64Z"/>
<path id="path26_fill" d="M 17.6673 6L 20.7273 6L 25.3673 15.02L 29.9673 6L 33.0273 6L 33.0273 20L 30.5673 20L 30.5673 9.96L 26.2073 18.56L 24.4873 18.56L 20.1073 9.96L 20.1073 20L 17.6673 20L 17.6673 6ZM 42.2159 6C 43.9759 6 45.3359 6.42 46.2959 7.26C 47.2692 8.1 47.7559 9.28667 47.7559 10.82C 47.7559 12.42 47.2692 13.6667 46.2959 14.56C 45.3359 15.44 43.9759 15.88 42.2159 15.88L 39.1559 15.88L 39.1559 20L 36.4759 20L 36.4759 6L 42.2159 6ZM 42.0759 13.52C 43.0892 13.52 43.8625 13.3 44.3959 12.86C 44.9425 12.42 45.2159 11.7667 45.2159 10.9C 45.2159 10.0467 44.9425 9.40667 44.3959 8.98C 43.8625 8.55333 43.0892 8.34 42.0759 8.34L 39.1559 8.34L 39.1559 13.52L 42.0759 13.52ZM 49.972 6L 52.652 6L 52.652 11.98L 59.632 11.98L 59.632 6L 62.312 6L 62.312 20L 59.632 20L 59.632 14.32L 52.652 14.32L 52.652 20L 49.972 20L 49.972 6Z"/>
<path id="path27_fill" d="M 0 0L 540 0L 540 2L 0 2L 0 0Z"/>
<path id="path28_fill" d="M 0 3C 0 1.34315 1.34315 0 3 0L 38 0C 39.6569 0 41 1.34315 41 3C 41 4.65685 39.6569 6 38 6L 3 6C 1.34315 6 0 4.65685 0 3Z"/>
<path id="path29_fill" d="M 269.243 28.28C 266.969 26.6667 264.329 25.4567 261.323 24.65C 258.389 23.77 255.419 23.33 252.413 23.33C 245.519 23.33 240.313 25.64 236.793 30.26C 233.346 34.88 231.733 41.1867 231.953 49.18C 233.933 45.8067 236.609 43.2767 239.983 41.59C 243.429 39.83 247.499 38.95 252.193 38.95C 259.819 38.95 265.869 41.1867 270.343 45.66C 274.816 50.1333 277.053 56.11 277.053 63.59C 277.053 68.87 275.916 73.49 273.643 77.45C 271.369 81.3367 268.143 84.3433 263.963 86.47C 259.856 88.5967 255.053 89.66 249.553 89.66C 243.026 89.66 237.379 88.1567 232.613 85.15C 227.846 82.1433 224.179 77.8167 221.613 72.17C 219.119 66.5233 217.873 59.7767 217.873 51.93C 217.873 43.79 219.229 36.6767 221.943 30.59C 224.729 24.43 228.653 19.7 233.713 16.4C 238.773 13.0267 244.713 11.34 251.533 11.34C 255.493 11.34 259.563 11.89 263.743 12.99C 267.996 14.0167 271.699 15.4467 274.853 17.28L 269.243 28.28ZM 249.333 50.28C 244.639 50.28 240.899 51.6 238.113 54.24C 235.326 56.88 233.969 60.1433 234.043 64.03C 233.969 66.23 234.483 68.3567 235.583 70.41C 236.683 72.39 238.333 74.04 240.533 75.36C 242.806 76.6067 245.593 77.23 248.893 77.23C 253.293 77.23 256.813 76.02 259.453 73.6C 262.093 71.18 263.413 67.8067 263.413 63.48C 263.413 59.4467 262.129 56.2567 259.563 53.91C 257.069 51.49 253.659 50.28 249.333 50.28ZM 319.162 44.12C 326.275 44.78 331.922 46.9433 336.102 50.61C 340.355 54.2767 342.482 59.08 342.482 65.02C 342.482 69.86 341.235 74.15 338.742 77.89C 336.249 81.5567 332.692 84.4533 328.072 86.58C 323.452 88.6333 318.062 89.66 311.902 89.66C 306.695 89.66 301.525 88.89 296.392 87.35C 291.332 85.7367 287.005 83.61 283.412 80.97L 289.242 69.53C 292.322 72.0967 295.732 74.0767 299.472 75.47C 303.212 76.79 307.025 77.45 310.912 77.45C 316.265 77.45 320.445 76.35 323.452 74.15C 326.532 71.95 328.072 68.98 328.072 65.24C 328.072 61.4267 326.569 58.53 323.562 56.55C 320.555 54.4967 316.265 53.47 310.692 53.47L 299.032 53.47L 299.032 44.56L 319.712 24.54L 287.262 24.54L 287.152 12L 338.632 12L 338.632 21.13L 315.092 43.68L 319.162 44.12Z"/>
<path id="path30_stroke" d="M 22 0L 22.1425 -1.99492L 22.0713 -2L 22 -2L 22 0ZM 22 28L 22 30L 22.0713 30L 22.1425 29.9949L 22 28ZM 11.6094 6.6641C 12.5285 6.0514 12.7768 4.80966 12.1641 3.8906C 11.5514 2.97154 10.3097 2.72319 9.3906 3.3359L 11.6094 6.6641ZM -1.1094 10.3359C -2.02846 10.9486 -2.27681 12.1903 -1.6641 13.1094C -1.0514 14.0285 0.190343 14.2768 1.1094 13.6641L -1.1094 10.3359ZM 11.6094 12.6641C 12.5285 12.0514 12.7768 10.8097 12.1641 9.8906C 11.5514 8.97154 10.3097 8.72319 9.3906 9.3359L 11.6094 12.6641ZM -1.1094 16.3359C -2.02846 16.9486 -2.27681 18.1903 -1.6641 19.1094C -1.0514 20.0285 0.190343 20.2768 1.1094 19.6641L -1.1094 16.3359ZM 11.6094 18.6641C 12.5285 18.0514 12.7768 16.8097 12.1641 15.8906C 11.5514 14.9715 10.3097 14.7232 9.3906 15.3359L 11.6094 18.6641ZM -1.1094 22.3359C -2.02846 22.9486 -2.27681 24.1903 -1.6641 25.1094C -1.0514 26.0285 0.190343 26.2768 1.1094 25.6641L -1.1094 22.3359ZM 11.6094 24.6641C 12.5285 24.0514 12.7768 22.8097 12.1641 21.8906C 11.5514 20.9715 10.3097 20.7232 9.3906 21.3359L 11.6094 24.6641ZM -1.1094 28.3359C -2.02846 28.9486 -2.27681 30.1903 -1.6641 31.1094C -1.0514 32.0285 0.190343 32.2768 1.1094 31.6641L -1.1094 28.3359ZM 21.8575 1.99492C 23.7981 2.13353 26.9195 3.1149 29.5213 5.1406C 32.0645 7.12067 34 9.99741 34 14L 38 14C 38 8.50259 35.2688 4.546 31.9787 1.9844C 28.7471 -0.531571 24.8685 -1.8002 22.1425 -1.99492L 21.8575 1.99492ZM 22 -2C 19.9134 -2 17.8346 -1.46773 16.5009 0.625179C 15.3504 2.43044 15 5.08312 15 8.5L 19 8.5C 19 5.11688 19.3996 3.51956 19.8741 2.77482C 20.1654 2.31773 20.5866 2 22 2L 22 -2ZM 22.1425 29.9949C 24.8685 29.8002 28.7471 28.5316 31.9787 26.0156C 35.2688 23.454 38 19.4974 38 14L 34 14C 34 18.0026 32.0645 20.8793 29.5213 22.8594C 26.9195 24.8851 23.7981 25.8665 21.8575 26.0051L 22.1425 29.9949ZM 22 26C 20.5866 26 20.1654 25.6823 19.8741 25.2252C 19.3996 24.4804 19 22.8831 19 19.5L 15 19.5C 15 22.9169 15.3504 25.5696 16.5009 27.3748C 17.8346 29.4677 19.9134 30 22 30L 22 26ZM 19 19.5L 19 8.5L 15 8.5L 15 19.5L 19 19.5ZM 9.3906 3.3359L -1.1094 10.3359L 1.1094 13.6641L 11.6094 6.6641L 9.3906 3.3359ZM 9.3906 9.3359L -1.1094 16.3359L 1.1094 19.6641L 11.6094 12.6641L 9.3906 9.3359ZM 9.3906 15.3359L -1.1094 22.3359L 1.1094 25.6641L 11.6094 18.6641L 9.3906 15.3359ZM 9.3906 21.3359L -1.1094 28.3359L 1.1094 31.6641L 11.6094 24.6641L 9.3906 21.3359Z"/>
<path id="path31_stroke" d="M 6.5 0C 6.5 -1.10457 5.60457 -2 4.5 -2C 3.39543 -2 2.5 -1.10457 2.5 0L 6.5 0ZM 5.5 27L 4.15465 28.4799C 4.5228 28.8146 5.00247 29 5.5 29L 5.5 27ZM 31.5 0C 31.5 -1.10457 30.6046 -2 29.5 -2C 28.3954 -2 27.5 -1.10457 27.5 0L 31.5 0ZM 28.5 27L 28.5 29C 28.9975 29 29.4772 28.8146 29.8453 28.4799L 28.5 27ZM 2.5 0C 2.5 0.5 2.5 2.7 2.5 3.5L 6.5 3.5C 6.5 2.7 6.5 0.5 6.5 0L 2.5 0ZM 2.5 3.5C 2.5 3.01779 2.71715 2.75598 2.59165 2.96515C 2.51104 3.10261 2.38627 3.27459 2.18129 3.55544C 1.76717 4.12301 1.1528 4.94652 0.535014 5.97101C -0.655725 7.9645 -1.95916 11.0979 -2 15L 2 15C 1.95916 11.9021 2.90572 9.7855 3.96499 8.02899C 4.4722 7.17848 4.98283 6.50199 5.41246 5.91331C 5.62936 5.61603 5.85615 5.29583 6.02163 5.02313C 6.14222 4.82214 6.5 4.23221 6.5 3.5L 2.5 3.5ZM -2 15C -2 21.3865 2.10431 26.6159 4.15465 28.4799L 6.84535 25.5201C 5.22902 24.0507 2 19.8135 2 15L -2 15ZM 27.5 0L 27.5 3.5L 31.5 3.5L 31.5 0L 27.5 0ZM 27.5 3.5C 27.5 4.23221 27.8578 4.82214 27.9784 5.02313C 28.1438 5.29583 28.3706 5.61603 28.5875 5.91331C 29.0172 6.50199 29.5278 7.17848 30.035 8.02899C 31.0943 9.7855 32.0408 11.9021 32 15L 36 15C 35.9592 11.0979 34.6557 7.9645 33.465 5.97101C 32.8472 4.94652 32.2328 4.12301 31.8187 3.55544C 31.6137 3.27459 31.489 3.10261 31.4083 2.96515C 31.2828 2.75598 31.5 3.01779 31.5 3.5L 27.5 3.5ZM 32 15C 32 19.8135 28.771 24.0507 27.1547 25.5201L 29.8453 28.4799C 31.8957 26.6159 36 21.3865 36 15L 32 15ZM 28.5 25L 5.5 25L 5.5 29L 28.5 29L 28.5 25Z"/>
<path id="path32_stroke" d="M 13.5 4L 13.5 0L 9.5 0L 9.5 4L 13.5 4ZM 7.5 4L 7.5 0L 3.5 0L 3.5 4L 7.5 4ZM 19.5 4L 19.5 0L 15.5 0L 15.5 4L 19.5 4ZM 25 4L 25 0L 21 0L 21 4L 25 4ZM 2 4L 2 0L -2 0L -2 4L 2 4Z"/>
<path id="path33_stroke" d="M 2 0C 2 -1.10457 1.10457 -2 0 -2C -1.10457 -2 -2 -1.10457 -2 0L 2 0ZM -2 12C -2 13.1046 -1.10457 14 0 14C 1.10457 14 2 13.1046 2 12L -2 12ZM -2 18.5C -2 19.6046 -1.10457 20.5 0 20.5C 1.10457 20.5 2 19.6046 2 18.5L -2 18.5ZM 2 18C 2 16.8954 1.10457 16 0 16C -1.10457 16 -2 16.8954 -2 18L 2 18ZM -2 0L -2 12L 2 12L 2 0L -2 0ZM 2 18.5L 2 18L -2 18L -2 18.5L 2 18.5Z"/>
</defs>
</svg>
