<svg width="48" height="48" viewBox="0 0 48 48" version="1.1" xmlns="http://www.w3.org/2000/svg" xmlns:xlink="http://www.w3.org/1999/xlink">
<title>Speed Limit</title>
<desc>Created using Figma</desc>
<g id="Canvas" transform="translate(7886 -829)">
<clipPath id="clip-0" clip-rule="evenodd">
<path d="M -7886 829L -7838 829L -7838 877L -7886 877L -7886 829Z" fill="#FFFFFF"/>
</clipPath>
<g id="Speed Limit" clip-path="url(#clip-0)">
<g id="Dark">
<g id="Rectangle">
<use xlink:href="#path0_fill" transform="translate(-7880 829)" fill="#FFFFFF"/>
</g>
<g id="Speed Limit">
<use xlink:href="#path1_fill" transform="translate(-7880 831)"/>
</g>
<g id="80">
<use xlink:href="#path2_fill" transform="translate(-7880 849)"/>
</g>
</g>
</g>
</g>
<defs>
<path id="path0_fill" d="M 0 2C 0 0.895431 0.895431 0 2 0L 34 0C 35.1046 0 36 0.895431 36 2L 36 46C 36 47.1046 35.1046 48 34 48L 2 48C 0.895431 48 0 47.1046 0 46L 0 2Z"/>
<path id="path1_fill" d="M 8.61425 3.84C 8.32625 3.664 8.03025 3.528 7.72625 3.432C 7.42758 3.336 7.16358 3.288 6.93425 3.288C 6.67825 3.288 6.47558 3.336 6.32625 3.432C 6.17692 3.528 6.10225 3.66133 6.10225 3.832C 6.10225 3.98667 6.15292 4.11733 6.25425 4.224C 6.36092 4.32533 6.49158 4.41067 6.64625 4.48C 6.80625 4.544 7.02225 4.616 7.29425 4.696C 7.67292 4.808 7.98225 4.92 8.22225 5.032C 8.46758 5.144 8.67558 5.30933 8.84625 5.528C 9.01692 5.74667 9.10225 6.03467 9.10225 6.392C 9.10225 6.73333 9.00892 7.032 8.82225 7.288C 8.64092 7.53867 8.38758 7.73067 8.06225 7.864C 7.74225 7.99733 7.37425 8.064 6.95825 8.064C 6.52092 8.064 6.09425 7.984 5.67825 7.824C 5.26225 7.65867 4.89958 7.44 4.59025 7.168L 5.03825 6.256C 5.32092 6.51733 5.63825 6.72267 5.99025 6.872C 6.34225 7.02133 6.67025 7.096 6.97425 7.096C 7.27292 7.096 7.50758 7.04 7.67825 6.928C 7.84892 6.81067 7.93425 6.65333 7.93425 6.456C 7.93425 6.296 7.88092 6.16533 7.77425 6.064C 7.67292 5.95733 7.54225 5.872 7.38225 5.808C 7.22225 5.744 7.00358 5.672 6.72625 5.592C 6.34758 5.48 6.03825 5.37067 5.79825 5.264C 5.55825 5.15733 5.35292 4.99733 5.18225 4.784C 5.01158 4.56533 4.92625 4.28 4.92625 3.928C 4.92625 3.60267 5.01158 3.32 5.18225 3.08C 5.35825 2.83467 5.60358 2.64533 5.91825 2.512C 6.23825 2.37867 6.60625 2.312 7.02225 2.312C 7.38492 2.312 7.74225 2.36533 8.09425 2.472C 8.45158 2.57867 8.76892 2.72267 9.04625 2.904L 8.61425 3.84ZM 12.4137 2.4C 13.1177 2.4 13.6617 2.568 14.0457 2.904C 14.435 3.24 14.6297 3.71467 14.6297 4.328C 14.6297 4.968 14.435 5.46667 14.0457 5.824C 13.6617 6.176 13.1177 6.352 12.4137 6.352L 11.1897 6.352L 11.1897 8L 10.1177 8L 10.1177 2.4L 12.4137 2.4ZM 12.3577 5.408C 12.763 5.408 13.0724 5.32 13.2857 5.144C 13.5044 4.968 13.6137 4.70667 13.6137 4.36C 13.6137 4.01867 13.5044 3.76267 13.2857 3.592C 13.0724 3.42133 12.763 3.336 12.3577 3.336L 11.1897 3.336L 11.1897 5.408L 12.3577 5.408ZM 15.5161 2.4L 19.6201 2.4L 19.6201 3.336L 16.5881 3.336L 16.5881 4.72L 19.3081 4.72L 19.3081 5.656L 16.5881 5.656L 16.5881 7.064L 19.7161 7.064L 19.7161 8L 15.5161 8L 15.5161 2.4ZM 20.8052 2.4L 24.9092 2.4L 24.9092 3.336L 21.8772 3.336L 21.8772 4.72L 24.5972 4.72L 24.5972 5.656L 21.8772 5.656L 21.8772 7.064L 25.0052 7.064L 25.0052 8L 20.8052 8L 20.8052 2.4ZM 28.4223 2.4C 28.9822 2.4 29.4836 2.52 29.9262 2.76C 30.3689 2.99467 30.7156 3.32533 30.9662 3.752C 31.2169 4.17867 31.3422 4.66133 31.3422 5.2C 31.3422 5.73867 31.2143 6.22133 30.9583 6.648C 30.7076 7.06933 30.3583 7.4 29.9103 7.64C 29.4623 7.88 28.9529 8 28.3823 8L 26.0943 8L 26.0943 2.4L 28.4223 2.4ZM 28.4462 7.056C 28.7876 7.056 29.0942 6.97867 29.3663 6.824C 29.6436 6.664 29.8596 6.44533 30.0142 6.168C 30.1689 5.88533 30.2463 5.56533 30.2463 5.208C 30.2463 4.85067 30.1663 4.53067 30.0062 4.248C 29.8463 3.96 29.6249 3.73867 29.3423 3.584C 29.0649 3.424 28.7529 3.344 28.4062 3.344L 27.1662 3.344L 27.1662 7.056L 28.4462 7.056ZM 7.96534 10.4L 9.03734 10.4L 9.03734 15.032L 11.4533 15.032L 11.4533 16L 7.96534 16L 7.96534 10.4ZM 12.2935 10.4L 13.3655 10.4L 13.3655 16L 12.2935 16L 12.2935 10.4ZM 14.7388 10.4L 15.9628 10.4L 17.8188 14.008L 19.6588 10.4L 20.8828 10.4L 20.8828 16L 19.8988 16L 19.8988 11.984L 18.1548 15.424L 17.4668 15.424L 15.7148 11.984L 15.7148 16L 14.7388 16L 14.7388 10.4ZM 22.2622 10.4L 23.3342 10.4L 23.3342 16L 22.2622 16L 22.2622 10.4ZM 24.0835 10.4L 28.6515 10.4L 28.6515 11.352L 26.9075 11.352L 26.9075 16L 25.8275 16L 25.8275 11.352L 24.0835 11.352L 24.0835 10.4Z"/>
<path id="path2_fill" d="M 10.9011 6.88C 12.3678 6.88 13.5211 7.21333 14.3611 7.88C 15.2144 8.53333 15.6411 9.42667 15.6411 10.56C 15.6411 11.2 15.4678 11.78 15.1211 12.3C 14.7744 12.82 14.2944 13.2267 13.6811 13.52C 14.5078 13.8267 15.1544 14.2933 15.6211 14.92C 16.1011 15.5467 16.3411 16.2667 16.3411 17.08C 16.3411 17.8933 16.1211 18.6067 15.6811 19.22C 15.2411 19.8333 14.6078 20.3067 13.7811 20.64C 12.9678 20.96 12.0144 21.12 10.9211 21.12C 9.82776 21.12 8.86776 20.96 8.04109 20.64C 7.22776 20.3067 6.60109 19.84 6.16109 19.24C 5.72109 18.64 5.50109 17.9333 5.50109 17.12C 5.50109 16.2933 5.74776 15.5667 6.24109 14.94C 6.73443 14.3 7.41443 13.8267 8.28109 13.52C 7.62776 13.2 7.11443 12.7733 6.74109 12.24C 6.38109 11.7067 6.20109 11.1133 6.20109 10.46C 6.20109 9.36667 6.62109 8.5 7.46109 7.86C 8.31443 7.20667 9.46109 6.88 10.9011 6.88ZM 10.9211 8.8C 10.1478 8.8 9.54109 8.96667 9.10109 9.3C 8.67443 9.63333 8.46109 10.1 8.46109 10.7C 8.46109 11.3 8.67443 11.7667 9.10109 12.1C 9.54109 12.4333 10.1478 12.6 10.9211 12.6C 11.6944 12.6 12.2944 12.4333 12.7211 12.1C 13.1478 11.7667 13.3611 11.3 13.3611 10.7C 13.3611 10.1 13.1478 9.63333 12.7211 9.3C 12.2944 8.96667 11.6944 8.8 10.9211 8.8ZM 10.9011 14.68C 9.99443 14.68 9.28776 14.8667 8.78109 15.24C 8.27443 15.6133 8.02109 16.14 8.02109 16.82C 8.02109 17.5133 8.27443 18.0533 8.78109 18.44C 9.28776 18.8267 10.0011 19.02 10.9211 19.02C 11.8278 19.02 12.5344 18.8333 13.0411 18.46C 13.5611 18.0733 13.8211 17.5333 13.8211 16.84C 13.8211 16.16 13.5611 15.6333 13.0411 15.26C 12.5344 14.8733 11.8211 14.68 10.9011 14.68ZM 24.3378 6.88C 26.2711 6.88 27.7578 7.49333 28.7978 8.72C 29.8378 9.94667 30.3578 11.7067 30.3578 14C 30.3578 16.28 29.8378 18.0333 28.7978 19.26C 27.7578 20.4867 26.2711 21.1 24.3378 21.1C 22.4045 21.1 20.9178 20.4867 19.8778 19.26C 18.8378 18.0333 18.3178 16.28 18.3178 14C 18.3178 11.7067 18.8378 9.94667 19.8778 8.72C 20.9178 7.49333 22.4045 6.88 24.3378 6.88ZM 24.3378 9C 23.2311 9 22.4111 9.40667 21.8778 10.22C 21.3445 11.02 21.0778 12.28 21.0778 14C 21.0778 15.7067 21.3445 16.9667 21.8778 17.78C 22.4111 18.5933 23.2311 19 24.3378 19C 25.4445 19 26.2645 18.5933 26.7978 17.78C 27.3311 16.9667 27.5978 15.7067 27.5978 14C 27.5978 12.28 27.3311 11.02 26.7978 10.22C 26.2645 9.40667 25.4445 9 24.3378 9Z"/>
</defs>
</svg>
