<svg width="1340" height="60" viewBox="0 0 1340 60" version="1.1" xmlns="http://www.w3.org/2000/svg" xmlns:xlink="http://www.w3.org/1999/xlink">
<title>status bar</title>
<desc>Created using Figma</desc>
<g id="Canvas" transform="translate(6760 -5017)">
<clipPath id="clip-0" clip-rule="evenodd">
<path d="M -6760 5017L -5420 5017L -5420 5077L -6760 5077L -6760 5017Z" fill="#FFFFFF"/>
</clipPath>
<g id="status bar" clip-path="url(#clip-0)">
<g id="Light">
<g id="Dark">
<use xlink:href="#path0_fill" transform="translate(-6760 5017)" fill="url(#paint0_linear)"/>
</g>
<clipPath id="clip-1" clip-rule="evenodd">
<path d="M -6740 5027L -6692 5027L -6692 5075L -6740 5075L -6740 5027Z" fill="#FFFFFF"/>
</clipPath>
<g id="lock" clip-path="url(#clip-1)">
<g id="Union">
<use xlink:href="#path1_fill" transform="translate(-6726 5037)"/>
</g>
</g>
<clipPath id="clip-2" clip-rule="evenodd">
<path d="M -6680 5027L -6632 5027L -6632 5075L -6680 5075L -6680 5027Z" fill="#FFFFFF"/>
</clipPath>
<g id="bluetooth" clip-path="url(#clip-2)">
<g id="Subtract">
<use xlink:href="#path2_fill" transform="translate(-6665 5037)"/>
</g>
</g>
<clipPath id="clip-3" clip-rule="evenodd">
<path d="M -6620 5027L -6572 5027L -6572 5075L -6620 5075L -6620 5027Z" fill="#FFFFFF"/>
</clipPath>
<g id="cell signal" clip-path="url(#clip-3)">
<g id="Union">
<use xlink:href="#path3_fill" transform="translate(-6617 5037.5)"/>
</g>
</g>
<clipPath id="clip-4" clip-rule="evenodd">
<path d="M -6500 5027L -6452 5027L -6452 5075L -6500 5075L -6500 5027Z" fill="#FFFFFF"/>
</clipPath>
<g id="alert" clip-path="url(#clip-4)">
<g id="Group">
<g id="Rectangle 14">
<use xlink:href="#path4_fill" transform="translate(-6494 5035)" fill="#E82127"/>
</g>
<g id="Vector 31">
<use xlink:href="#path5_fill" transform="translate(-6478 5042)" fill="#FFFFFF"/>
<use xlink:href="#path6_fill" transform="translate(-6478 5042)" fill="#FFFFFF"/>
</g>
</g>
</g>
<g id="Tesla Logo">
<g id="Tesla Logo">
<use xlink:href="#path7_fill" transform="matrix(-1 0 0 1 -6395 5032)"/>
</g>
</g>
<g id="Clock">
<use xlink:href="#path8_fill" transform="translate(-5570 5039)"/>
</g>
<g id="Temp">
<use xlink:href="#path9_fill" transform="translate(-5720 5039)"/>
</g>
</g>
</g>
</g>
<defs>
<linearGradient id="paint0_linear" x1="0" y1="0" x2="1" y2="0" gradientUnits="userSpaceOnUse" gradientTransform="matrix(8.20513e-14 60 -1340 3.67394e-15 1340 -3.67394e-15)">
<stop offset="0" stop-color="#FFFFFF" stop-opacity="0.6"/>
<stop offset="1" stop-color="#FFFFFF" stop-opacity="0"/>
</linearGradient>
<path id="path0_fill" d="M 0 0L 1340 0L 1340 60L 0 60L 0 0Z"/>
<path id="path1_fill" fill-rule="evenodd" d="M 5 12L 15 12L 15 8C 15 5.23859 12.7617 3 10 3C 7.23828 3 5 5.23859 5 8L 5 12ZM 18 12C 19.1045 12 20 12.8954 20 14L 20 26C 20 27.1046 19.1045 28 18 28L 2 28C 0.895508 28 0 27.1046 0 26L 0 14C 0 12.8954 0.895508 12 2 12L 2 8C 2 3.58173 5.58203 0 10 0C 14.418 0 18 3.58173 18 8L 18 12Z"/>
<path id="path2_fill" fill-rule="evenodd" d="M 9 0C 4.0293 0 0 4.02942 0 9L 0 19C 0 23.9706 4.0293 28 9 28C 13.9707 28 18 23.9706 18 19L 18 9C 18 4.02942 13.9707 0 9 0ZM 8.63086 4.32483C 7.97754 3.79388 7 4.25891 7 5.10095L 7 12L 4.20703 9.20709C 3.81641 8.81659 3.18359 8.81659 2.79297 9.20709L 2.70703 9.29291C 2.31641 9.68341 2.31641 10.3166 2.70703 10.7071L 6 14L 2.70703 17.2929C 2.31641 17.6834 2.31641 18.3166 2.70703 18.7071L 2.79297 18.7929C 3.18359 19.1834 3.81641 19.1834 4.20703 18.7929L 7 16L 7 22.099C 7 22.9042 7.90332 23.3792 8.56641 22.923L 13.9551 19.2187C 14.4873 18.8523 14.5381 18.084 14.0566 17.6514L 10 14L 14.1309 10.2822C 14.5879 9.87134 14.5693 9.14996 14.0928 8.76276L 8.63086 4.32483ZM 10 8L 10 11.5L 12 9.5L 10 8ZM 10 20L 10 16.5L 12 18.5L 10 20Z"/>
<path id="path3_fill" fill-rule="evenodd" d="M 5.5 0L 8 0L 8 6L 9 6L 9 8L 8 8L 8 11L 6 11L 6 8L 0 8L 0 6L 5.5 0ZM 6 6L 6 3L 3 6L 6 6ZM 37 6C 37 5.44769 37.4473 5 38 5L 40 5C 40.5527 5 41 5.44769 41 6L 41 26C 41 26.5523 40.5527 27 40 27L 38 27C 37.4473 27 37 26.5523 37 26L 37 6ZM 31 9C 31 8.44769 31.4473 8 32 8L 34 8C 34.5527 8 35 8.44769 35 9L 35 26C 35 26.5523 34.5527 27 34 27L 32 27C 31.4473 27 31 26.5523 31 26L 31 9ZM 26 11C 25.4473 11 25 11.4477 25 12L 25 26C 25 26.5523 25.4473 27 26 27L 28 27C 28.5527 27 29 26.5523 29 26L 29 12C 29 11.4477 28.5527 11 28 11L 26 11ZM 19 15C 19 14.4477 19.4473 14 20 14L 22 14C 22.5527 14 23 14.4477 23 15L 23 26C 23 26.5523 22.5527 27 22 27L 20 27C 19.4473 27 19 26.5523 19 26L 19 15ZM 14 17C 13.4473 17 13 17.4477 13 18L 13 26C 13 26.5523 13.4473 27 14 27L 16 27C 16.5527 27 17 26.5523 17 26L 17 18C 17 17.4477 16.5527 17 16 17L 14 17ZM 19.5 3L 20.5 1.5C 20.5 1.5 19 0 16.5 0C 13 0 11 2.5 11 5.5C 11 8.5 13 11 16.5 11C 19.5 11 21 9 21 9L 21 5L 17 5L 17 7L 19 7L 19 8C 19 8 18.5 9 16.5 9C 14.5 9 13 7.5 13 5.5C 13 3.5 14.5 2 16.5 2C 18.4199 2 19.5 3 19.5 3Z"/>
<path id="path4_fill" d="M 0 10C 0 4.47715 4.47715 0 10 0L 26 0C 31.5228 0 36 4.47715 36 10L 36 22C 36 27.5228 31.5228 32 26 32L 10 32C 4.47715 32 0 27.5228 0 22L 0 10Z"/>
<path id="path5_fill" d="M 4 0L 1 0C 0.447715 0 0 0.447715 0 1L 0 2.90706C 0 2.96889 0.00573382 3.03058 0.0171278 3.09135L 1.34705 10.1843C 1.43574 10.6573 1.84871 11 2.32993 11L 2.67007 11C 3.15129 11 3.56426 10.6573 3.65295 10.1843L 4.98287 3.09135C 4.99427 3.03058 5 2.96889 5 2.90706L 5 1C 5 0.447715 4.55228 0 4 0Z"/>
<path id="path6_fill" d="M 4 13L 1 13C 0.447715 13 0 13.4477 0 14L 0 16C 0 16.5523 0.447715 17 1 17L 4 17C 4.55228 17 5 16.5523 5 16L 5 14C 5 13.4477 4.55228 13 4 13Z"/>
<path id="path7_fill" fill-rule="evenodd" d="M 38.8789 6.23743C 32.209 3.31769 25.6924 2.38953 20 2.43323C 14.3066 2.38953 7.78906 3.31769 1.12012 6.23743C 0.325195 4.79095 0 3.91364 0 3.91364C 7.29102 1.01654 14.1191 0.0248413 19.999 0C 25.8799 0.0248413 32.708 1.01636 40 3.91364C 40 3.91364 39.7705 4.62585 38.8789 6.23743ZM 25.5986 8.39331L 20.002 40L 14.3613 8.38867C 9.06348 8.39252 7.38281 8.97992 7.13867 11.3776C 7.13867 11.3776 3.55859 10.0378 1.75586 7.31653C 8.79688 4.03925 15.873 3.8913 15.873 3.8913L 19.9932 8.94269L 24.1221 3.89209C 24.1221 3.89209 31.1982 4.03992 38.2402 7.3172C 36.4355 10.0384 32.8574 11.3783 32.8574 11.3783C 32.6152 8.98065 30.9326 8.39331 25.5986 8.39331Z"/>
<path id="path8_fill" d="M 15.6841 6L 21.3041 6L 21.3041 20L 18.6241 20L 18.6241 8.36L 15.6841 8.36L 15.6841 6ZM 30.3808 5.88C 32.3141 5.88 33.8008 6.49333 34.8408 7.72C 35.8808 8.94667 36.4008 10.7067 36.4008 13C 36.4008 15.28 35.8808 17.0333 34.8408 18.26C 33.8008 19.4867 32.3141 20.1 30.3808 20.1C 28.4474 20.1 26.9608 19.4867 25.9208 18.26C 24.8808 17.0333 24.3608 15.28 24.3608 13C 24.3608 10.7067 24.8808 8.94667 25.9208 7.72C 26.9608 6.49333 28.4474 5.88 30.3808 5.88ZM 30.3808 8C 29.2741 8 28.4541 8.40667 27.9208 9.22C 27.3874 10.02 27.1208 11.28 27.1208 13C 27.1208 14.7067 27.3874 15.9667 27.9208 16.78C 28.4541 17.5933 29.2741 18 30.3808 18C 31.4874 18 32.3074 17.5933 32.8408 16.78C 33.3741 15.9667 33.6408 14.7067 33.6408 13C 33.6408 11.28 33.3741 10.02 32.8408 9.22C 32.3074 8.40667 31.4874 8 30.3808 8ZM 39.6619 11.36C 40.0619 11.36 40.3885 11.4933 40.6419 11.76C 40.9085 12.0267 41.0419 12.3667 41.0419 12.78C 41.0419 13.2067 40.9085 13.56 40.6419 13.84C 40.3885 14.1067 40.0619 14.24 39.6619 14.24C 39.2752 14.24 38.9485 14.1 38.6819 13.82C 38.4285 13.54 38.3019 13.1933 38.3019 12.78C 38.3019 12.3667 38.4285 12.0267 38.6819 11.76C 38.9485 11.4933 39.2752 11.36 39.6619 11.36ZM 39.6619 17.3C 40.0619 17.3 40.3885 17.4333 40.6419 17.7C 40.9085 17.9667 41.0419 18.3067 41.0419 18.72C 41.0419 19.1467 40.9085 19.5 40.6419 19.78C 40.3885 20.0467 40.0619 20.18 39.6619 20.18C 39.2752 20.18 38.9485 20.04 38.6819 19.76C 38.4285 19.48 38.3019 19.1333 38.3019 18.72C 38.3019 18.3067 38.4285 17.9667 38.6819 17.7C 38.9485 17.4333 39.2752 17.3 39.6619 17.3ZM 53.0341 17.66L 53.0341 20L 42.6741 20L 42.6741 18.06L 47.9541 12.62C 48.4607 12.1133 48.8674 11.6133 49.1741 11.12C 49.4807 10.6267 49.6341 10.2 49.6341 9.84C 49.6341 9.33333 49.4341 8.94 49.0341 8.66C 48.6341 8.36667 48.0807 8.22 47.3741 8.22C 46.7607 8.22 46.1074 8.37333 45.4141 8.68C 44.7207 8.98667 44.0674 9.41333 43.4541 9.96L 42.3941 7.9C 43.2207 7.26 44.0874 6.76667 44.9941 6.42C 45.9141 6.06 46.8341 5.88 47.7541 5.88C 48.6741 5.88 49.4874 6.02667 50.1941 6.32C 50.9007 6.61333 51.4474 7.03333 51.8341 7.58C 52.2341 8.11333 52.4341 8.73333 52.4341 9.44C 52.4341 10.12 52.2007 10.84 51.7341 11.6C 51.2674 12.36 50.6141 13.18 49.7741 14.06L 46.2141 17.66L 53.0341 17.66ZM 53.7309 6L 59.3509 6L 59.3509 20L 56.6709 20L 56.6709 8.36L 53.7309 8.36L 53.7309 6ZM 78.33 20L 77.09 17.04L 70.25 17.04L 69.01 20L 66.23 20L 72.37 6L 75.15 6L 81.21 20L 78.33 20ZM 71.21 14.74L 76.13 14.74L 73.69 8.86L 71.21 14.74ZM 82.9114 6L 85.9714 6L 90.6114 15.02L 95.2114 6L 98.2714 6L 98.2714 20L 95.8114 20L 95.8114 9.96L 91.4514 18.56L 89.7314 18.56L 85.3514 9.96L 85.3514 20L 82.9114 20L 82.9114 6Z"/>
<path id="path9_fill" d="M 53.8677 6L 59.4877 6L 59.4877 20L 56.8077 20L 56.8077 8.36L 53.8677 8.36L 53.8677 6ZM 61.6644 6L 72.4644 6L 72.4644 8L 66.7044 20L 63.8644 20L 69.4444 8.34L 64.0644 8.34L 64.0444 10.32L 61.6644 10.32L 61.6644 6ZM 81.9706 4.42C 83.024 4.42 83.8773 4.72 84.5306 5.32C 85.184 5.90667 85.5106 6.68667 85.5106 7.66C 85.5106 8.63333 85.184 9.42 84.5306 10.02C 83.8773 10.6067 83.024 10.9 81.9706 10.9C 80.9173 10.9 80.064 10.6067 79.4106 10.02C 78.7573 9.42 78.4306 8.63333 78.4306 7.66C 78.4306 6.68667 78.7573 5.90667 79.4106 5.32C 80.064 4.72 80.9173 4.42 81.9706 4.42ZM 81.9706 5.92C 81.464 5.92 81.0506 6.08 80.7306 6.4C 80.424 6.72 80.2706 7.14667 80.2706 7.68C 80.2706 8.21333 80.424 8.64 80.7306 8.96C 81.0506 9.28 81.464 9.44 81.9706 9.44C 82.4773 9.44 82.884 9.28 83.1906 8.96C 83.5106 8.64 83.6706 8.21333 83.6706 7.68C 83.6706 7.14667 83.5106 6.72 83.1906 6.4C 82.884 6.08 82.4773 5.92 81.9706 5.92ZM 97.9342 10.04C 97.4409 9.46667 96.8542 9.02 96.1742 8.7C 95.5076 8.38 94.8276 8.22 94.1342 8.22C 93.2676 8.22 92.4742 8.42667 91.7542 8.84C 91.0342 9.25333 90.4676 9.82667 90.0542 10.56C 89.6409 11.28 89.4342 12.0733 89.4342 12.94C 89.4342 13.8067 89.6409 14.6067 90.0542 15.34C 90.4676 16.06 91.0342 16.6333 91.7542 17.06C 92.4742 17.4733 93.2676 17.68 94.1342 17.68C 94.8009 17.68 95.4676 17.5333 96.1342 17.24C 96.8142 16.9467 97.4142 16.54 97.9342 16.02L 99.5142 17.78C 98.7809 18.5267 97.9276 19.12 96.9542 19.56C 95.9809 19.9867 94.9942 20.2 93.9942 20.2C 92.6476 20.2 91.4142 19.88 90.2942 19.24C 89.1742 18.6 88.2942 17.7333 87.6542 16.64C 87.0142 15.5333 86.6942 14.3133 86.6942 12.98C 86.6942 11.6467 87.0209 10.4333 87.6742 9.34C 88.3276 8.24667 89.2142 7.38667 90.3342 6.76C 91.4676 6.13333 92.7209 5.82 94.0942 5.82C 95.0942 5.82 96.0742 6.02 97.0342 6.42C 97.9942 6.82 98.8142 7.37333 99.4942 8.08L 97.9342 10.04Z"/>
</defs>
</svg>
