<svg width="48" height="48" viewBox="0 0 48 48" version="1.1" xmlns="http://www.w3.org/2000/svg" xmlns:xlink="http://www.w3.org/1999/xlink">
<title>steering wheel</title>
<desc>Created using Figma</desc>
<g id="Canvas" transform="translate(8030 -829)">
<clipPath id="clip-0" clip-rule="evenodd">
<path d="M -8030 829L -7982 829L -7982 877L -8030 877L -8030 829Z" fill="#FFFFFF"/>
</clipPath>
<g id="steering wheel" clip-path="url(#clip-0)">
<g id="Union">
<use xlink:href="#path0_fill" transform="translate(-8028 831)" fill="#007BE4"/>
</g>
</g>
</g>
<defs>
<path id="path0_fill" fill-rule="evenodd" d="M 44 22C 44 34.1501 34.1501 44 22 44C 9.84985 44 0 34.1501 0 22C 0 9.84985 9.84985 0 22 0C 34.1501 0 44 9.84985 44 22ZM 4.24927 25.0017C 13.9578 25.1345 18.4526 33.0271 18.9526 39.7432C 11.438 38.4619 5.51172 32.5227 4.24927 25.0017ZM 4.10986 20L 8.5 20C 10.2219 20 11.666 19.4441 13.3108 18.8108C 15.4866 17.9729 18.0134 17 22 17C 25.9866 17 28.5134 17.9729 30.6892 18.8108C 32.334 19.4441 33.7781 20 35.5 20L 39.8901 20C 38.8953 11 31.2651 4 22 4C 12.7349 4 5.10474 11 4.10986 20ZM 25.0474 39.7432C 25.5474 33.0271 30.0422 25.1345 39.7507 25.0017C 38.4883 32.5227 32.562 38.4619 25.0474 39.7432Z"/>
</defs>
</svg>
