<svg width="48" height="48" viewBox="0 0 48 48" version="1.1" xmlns="http://www.w3.org/2000/svg" xmlns:xlink="http://www.w3.org/1999/xlink">
<title>tire pressure</title>
<desc>Created using Figma</desc>
<g id="Canvas" transform="translate(8174 -829)">
<clipPath id="clip-0" clip-rule="evenodd">
<path d="M -8174 829L -8126 829L -8126 877L -8174 877L -8174 829Z" fill="#FFFFFF"/>
</clipPath>
<g id="tire pressure" clip-path="url(#clip-0)">
<g id="Group">
<g id="Vector 17">
<use xlink:href="#path0_stroke" transform="translate(-8167 839)" fill="#FFBD0A"/>
</g>
<g id="Vector 18">
<use xlink:href="#path1_stroke" transform="translate(-8161.5 866)" fill="#FFBD0A"/>
</g>
<g id="Vector 17">
<use xlink:href="#path2_stroke" transform="translate(-8150 840.5)" fill="#FFBD0A"/>
</g>
</g>
</g>
</g>
<defs>
<path id="path0_stroke" d="M 6.5 0C 6.5 -1.10457 5.60457 -2 4.5 -2C 3.39543 -2 2.5 -1.10457 2.5 0L 6.5 0ZM 5.5 27L 4.15465 28.4799C 4.5228 28.8146 5.00247 29 5.5 29L 5.5 27ZM 31.5 0C 31.5 -1.10457 30.6046 -2 29.5 -2C 28.3954 -2 27.5 -1.10457 27.5 0L 31.5 0ZM 28.5 27L 28.5 29C 28.9975 29 29.4772 28.8146 29.8453 28.4799L 28.5 27ZM 2.5 0C 2.5 0.5 2.5 2.7 2.5 3.5L 6.5 3.5C 6.5 2.7 6.5 0.5 6.5 0L 2.5 0ZM 2.5 3.5C 2.5 3.01779 2.71715 2.75598 2.59165 2.96515C 2.51104 3.10261 2.38627 3.27459 2.18129 3.55544C 1.76717 4.12301 1.1528 4.94652 0.535014 5.97101C -0.655725 7.9645 -1.95916 11.0979 -2 15L 2 15C 1.95916 11.9021 2.90572 9.7855 3.96499 8.02899C 4.4722 7.17848 4.98283 6.50199 5.41246 5.91331C 5.62936 5.61603 5.85615 5.29583 6.02163 5.02313C 6.14222 4.82214 6.5 4.23221 6.5 3.5L 2.5 3.5ZM -2 15C -2 21.3865 2.10431 26.6159 4.15465 28.4799L 6.84535 25.5201C 5.22902 24.0507 2 19.8135 2 15L -2 15ZM 27.5 0L 27.5 3.5L 31.5 3.5L 31.5 0L 27.5 0ZM 27.5 3.5C 27.5 4.23221 27.8578 4.82214 27.9784 5.02313C 28.1438 5.29583 28.3706 5.61603 28.5875 5.91331C 29.0172 6.50199 29.5278 7.17848 30.035 8.02899C 31.0943 9.7855 32.0408 11.9021 32 15L 36 15C 35.9592 11.0979 34.6557 7.9645 33.465 5.97101C 32.8472 4.94652 32.2328 4.12301 31.8187 3.55544C 31.6137 3.27459 31.489 3.10261 31.4083 2.96515C 31.2828 2.75598 31.5 3.01779 31.5 3.5L 27.5 3.5ZM 32 15C 32 19.8135 28.771 24.0507 27.1547 25.5201L 29.8453 28.4799C 31.8957 26.6159 36 21.3865 36 15L 32 15ZM 28.5 25L 5.5 25L 5.5 29L 28.5 29L 28.5 25Z"/>
<path id="path1_stroke" d="M 13.5 4L 13.5 0L 9.5 0L 9.5 4L 13.5 4ZM 7.5 4L 7.5 0L 3.5 0L 3.5 4L 7.5 4ZM 19.5 4L 19.5 0L 15.5 0L 15.5 4L 19.5 4ZM 25 4L 25 0L 21 0L 21 4L 25 4ZM 2 4L 2 0L -2 0L -2 4L 2 4Z"/>
<path id="path2_stroke" d="M 2 0C 2 -1.10457 1.10457 -2 0 -2C -1.10457 -2 -2 -1.10457 -2 0L 2 0ZM -2 12C -2 13.1046 -1.10457 14 0 14C 1.10457 14 2 13.1046 2 12L -2 12ZM -2 18.5C -2 19.6046 -1.10457 20.5 0 20.5C 1.10457 20.5 2 19.6046 2 18.5L -2 18.5ZM 2 18C 2 16.8954 1.10457 16 0 16C -1.10457 16 -2 16.8954 -2 18L 2 18ZM -2 0L -2 12L 2 12L 2 0L -2 0ZM 2 18.5L 2 18L -2 18L -2 18.5L 2 18.5Z"/>
</defs>
</svg>
