<?xml version="1.0" encoding="UTF-8" standalone="no"?><!DOCTYPE svg PUBLIC "-//W3C//DTD SVG 1.1//EN" "http://www.w3.org/Graphics/SVG/1.1/DTD/svg11.dtd"><svg width="100%" height="100%" viewBox="0 0 804 706" version="1.1" xmlns="http://www.w3.org/2000/svg" xmlns:xlink="http://www.w3.org/1999/xlink" xml:space="preserve" xmlns:serif="http://www.serif.com/" style="fill-rule:evenodd;clip-rule:evenodd;stroke-linejoin:round;stroke-miterlimit:1.41421;"><g id="Dark"><path id="path0_fill" d="M-20.524,4.964c0,-5.936 4.732,-10.749 10.569,-10.749l820.192,0c5.838,0 10.57,4.813 10.57,10.749l0,728.744c0,5.936 -4.732,10.748 -10.57,10.748l-820.192,0c-5.837,0 -10.569,-4.812 -10.569,-10.748l0,-728.744Z" style="fill:#171717;fill-rule:nonzero;"/><g id="Group"><path id="path2_stroke_2x" d="M42,78l720,0l0,-4l-720,0l0,4Zm728,8l0,572l4,0l0,-572l-4,0Zm-8,580l-720,0l0,4l720,0l0,-4Zm-728,-8l0,-572l-4,0l0,572l4,0Zm8,-584c-6.627,0 -12,5.373 -12,12l4,0c0,-4.418 3.582,-8 8,-8l0,-4Zm720,4c4.418,0 8,3.582 8,8l4,0c0,-6.627 -5.373,-12 -12,-12l0,4Zm8,580c0,4.418 -3.582,8 -8,8l0,4c6.627,0 12,-5.373 12,-12l-4,0Zm-728,8c-4.418,0 -8,-3.582 -8,-8l-4,0c0,6.627 5.373,12 12,12l0,-4Z" style="fill-rule:nonzero;"/><rect id="path3_fill" x="34" y="210" width="736" height="285" style="fill:none;"/><path id="path4_fill" d="M64.036,523.8l10.116,0l0,25.2l-4.824,0l0,-20.952l-5.292,0l0,-4.248Zm14.034,0l19.44,0l0,3.6l-10.368,21.6l-5.112,0l10.044,-20.988l-9.684,0l-0.036,3.564l-4.284,0l0,-7.776Zm40.399,20.988l0,4.212l-18.648,0l0,-3.492l9.504,-9.792c0.912,-0.912 1.644,-1.812 2.196,-2.7c0.552,-0.888 0.828,-1.656 0.828,-2.304c0,-0.912 -0.36,-1.62 -1.08,-2.124c-0.72,-0.528 -1.716,-0.792 -2.988,-0.792c-1.104,0 -2.28,0.276 -3.528,0.828c-1.248,0.552 -2.424,1.32 -3.528,2.304l-1.908,-3.708c1.488,-1.152 3.048,-2.04 4.68,-2.664c1.656,-0.648 3.312,-0.972 4.968,-0.972c1.656,0 3.12,0.264 4.392,0.792c1.272,0.528 2.256,1.284 2.952,2.268c0.72,0.96 1.08,2.076 1.08,3.348c0,1.224 -0.42,2.52 -1.26,3.888c-0.84,1.368 -2.016,2.844 -3.528,4.428l-6.408,6.48l12.276,0Z" style="fill:#fff;fill-rule:nonzero;"/><path id="path5_fill" d="M150.332,534.96c1.577,0 2.817,0.485 3.718,1.456c0.901,0.953 1.352,2.253 1.352,3.9l0,8.684l-3.406,0l0,-7.696c0,-0.988 -0.277,-1.759 -0.832,-2.314c-0.537,-0.572 -1.274,-0.858 -2.21,-0.858c-1.075,0.035 -1.933,0.425 -2.574,1.17c-0.624,0.745 -0.936,1.69 -0.936,2.834l0,6.864l-3.406,0l0,-7.696c0,-0.988 -0.269,-1.759 -0.806,-2.314c-0.537,-0.572 -1.274,-0.858 -2.21,-0.858c-1.092,0.035 -1.959,0.425 -2.6,1.17c-0.624,0.745 -0.936,1.69 -0.936,2.834l0,6.864l-3.38,0l0,-13.91l3.38,0l0,2.574c0.919,-1.768 2.548,-2.669 4.888,-2.704c1.213,0 2.227,0.295 3.042,0.884c0.832,0.572 1.413,1.387 1.742,2.444c0.884,-2.184 2.609,-3.293 5.174,-3.328Zm8.84,0.13l3.38,0l0,13.91l-3.38,0l0,-13.91Zm1.664,-5.98c0.555,0 1.014,0.191 1.378,0.572c0.364,0.381 0.546,0.867 0.546,1.456c0,0.572 -0.182,1.049 -0.546,1.43c-0.364,0.381 -0.823,0.572 -1.378,0.572c-0.554,0 -1.014,-0.191 -1.378,-0.572c-0.364,-0.381 -0.546,-0.858 -0.546,-1.43c0,-0.589 0.182,-1.075 0.546,-1.456c0.364,-0.381 0.824,-0.572 1.378,-0.572Z" style="fill:#fff;fill-opacity:0.4;fill-rule:nonzero;"/><path id="path6_fill" d="M64.052,564.8l3.744,0l5.356,14.326l5.408,-14.326l3.588,0l-7.28,18.2l-3.614,0l-7.202,-18.2Zm20.415,0l3.484,0l0,18.2l-3.484,0l0,-18.2Zm20.635,0l3.38,0l0,18.2l-3.302,0l-9.36,-12.532l0,12.532l-3.406,0l0,-18.2l3.302,0l9.386,12.558l0,-12.558Zm30.008,7.046l-3.64,0l-0.52,4.264l3.562,0l-0.26,2.548l-3.614,0l-0.546,4.342l-2.496,0l0.546,-4.342l-4.342,0l-0.546,4.342l-2.496,0l0.546,-4.342l-3.588,0l0.26,-2.548l3.64,0l0.52,-4.264l-3.562,0l0.234,-2.522l3.64,0l0.572,-4.524l2.47,0l-0.546,4.524l4.342,0l0.572,-4.524l2.47,0l-0.546,4.524l3.588,0l-0.26,2.522Zm-6.656,4.264l0.52,-4.264l-4.342,0l-0.52,4.264l4.342,0Zm24.428,-11.31l-6.63,12.246l0,5.954l-3.484,0l0,-5.824l-6.786,-12.376l3.536,0l4.966,8.554l4.888,-8.554l3.51,0Zm11.322,12.48c0,1.855 -0.52,3.302 -1.56,4.342c-1.04,1.023 -2.462,1.534 -4.264,1.534c-2.254,0 -4.126,-0.91 -5.616,-2.73l1.638,-2.6c0.606,0.641 1.248,1.144 1.924,1.508c0.693,0.347 1.343,0.52 1.95,0.52c0.762,0 1.352,-0.225 1.768,-0.676c0.433,-0.468 0.65,-1.127 0.65,-1.976l0,-9.308l-6.266,0l0,-3.094l9.776,0l0,12.48Zm10.602,-4.888c1.682,0.156 3.016,0.667 4.004,1.534c1.006,0.867 1.508,2.002 1.508,3.406c0,1.144 -0.294,2.158 -0.884,3.042c-0.589,0.867 -1.43,1.551 -2.522,2.054c-1.092,0.485 -2.366,0.728 -3.822,0.728c-1.23,0 -2.452,-0.182 -3.666,-0.546c-1.196,-0.381 -2.218,-0.884 -3.068,-1.508l1.378,-2.704c0.728,0.607 1.534,1.075 2.418,1.404c0.884,0.312 1.786,0.468 2.704,0.468c1.266,0 2.254,-0.26 2.964,-0.78c0.728,-0.52 1.092,-1.222 1.092,-2.106c0,-0.901 -0.355,-1.586 -1.066,-2.054c-0.71,-0.485 -1.724,-0.728 -3.042,-0.728l-2.756,0l0,-2.106l4.888,-4.732l-7.67,0l-0.026,-2.964l12.168,0l0,2.158l-5.564,5.33l0.962,0.104Zm16.998,-7.592c1.942,0 3.467,0.407 4.576,1.222c1.127,0.815 1.69,1.924 1.69,3.328c0,1.005 -0.286,1.872 -0.858,2.6c-0.554,0.711 -1.326,1.187 -2.314,1.43c1.214,0.225 2.158,0.745 2.834,1.56c0.694,0.815 1.04,1.829 1.04,3.042c0,1.56 -0.606,2.791 -1.82,3.692c-1.196,0.884 -2.834,1.326 -4.914,1.326l-8.32,0l0,-18.2l8.086,0Zm-0.182,7.436c0.902,0 1.604,-0.199 2.106,-0.598c0.52,-0.399 0.78,-0.953 0.78,-1.664c0,-0.693 -0.26,-1.231 -0.78,-1.612c-0.502,-0.381 -1.204,-0.563 -2.106,-0.546l-4.42,0l0,4.42l4.42,0Zm0,7.748c1.11,0.017 1.976,-0.191 2.6,-0.624c0.624,-0.433 0.936,-1.04 0.936,-1.82c0,-0.745 -0.312,-1.326 -0.936,-1.742c-0.624,-0.433 -1.49,-0.641 -2.6,-0.624l-4.42,0l0,4.81l4.42,0Zm16.458,-15.34c1.907,0 3.406,0.433 4.498,1.3c1.109,0.849 1.664,2.011 1.664,3.484c0,0.832 -0.225,1.586 -0.676,2.262c-0.451,0.676 -1.075,1.205 -1.872,1.586c1.075,0.399 1.915,1.005 2.522,1.82c0.624,0.815 0.936,1.751 0.936,2.808c0,1.057 -0.286,1.985 -0.858,2.782c-0.572,0.797 -1.395,1.413 -2.47,1.846c-1.057,0.416 -2.297,0.624 -3.718,0.624c-1.421,0 -2.669,-0.208 -3.744,-0.624c-1.057,-0.433 -1.872,-1.04 -2.444,-1.82c-0.572,-0.78 -0.858,-1.699 -0.858,-2.756c0,-1.075 0.321,-2.019 0.962,-2.834c0.641,-0.832 1.525,-1.447 2.652,-1.846c-0.849,-0.416 -1.517,-0.971 -2.002,-1.664c-0.468,-0.693 -0.702,-1.465 -0.702,-2.314c0,-1.421 0.546,-2.548 1.638,-3.38c1.109,-0.849 2.6,-1.274 4.472,-1.274Zm0.026,2.496c-1.005,0 -1.794,0.217 -2.366,0.65c-0.555,0.433 -0.832,1.04 -0.832,1.82c0,0.78 0.277,1.387 0.832,1.82c0.572,0.433 1.361,0.65 2.366,0.65c1.005,0 1.785,-0.217 2.34,-0.65c0.555,-0.433 0.832,-1.04 0.832,-1.82c0,-0.78 -0.277,-1.387 -0.832,-1.82c-0.555,-0.433 -1.335,-0.65 -2.34,-0.65Zm-0.026,7.644c-1.179,0 -2.097,0.243 -2.756,0.728c-0.659,0.485 -0.988,1.17 -0.988,2.054c0,0.901 0.329,1.603 0.988,2.106c0.659,0.503 1.586,0.754 2.782,0.754c1.179,0 2.097,-0.243 2.756,-0.728c0.676,-0.503 1.014,-1.205 1.014,-2.106c0,-0.884 -0.338,-1.569 -1.014,-2.054c-0.659,-0.503 -1.586,-0.754 -2.782,-0.754Zm10.5,-9.984l13.338,0l0,3.042l-9.854,0l0,4.498l8.84,0l0,3.042l-8.84,0l0,4.576l10.166,0l0,3.042l-13.65,0l0,-18.2Zm23.689,7.592c1.682,0.156 3.016,0.667 4.004,1.534c1.006,0.867 1.508,2.002 1.508,3.406c0,1.144 -0.294,2.158 -0.884,3.042c-0.589,0.867 -1.43,1.551 -2.522,2.054c-1.092,0.485 -2.366,0.728 -3.822,0.728c-1.23,0 -2.452,-0.182 -3.666,-0.546c-1.196,-0.381 -2.218,-0.884 -3.068,-1.508l1.378,-2.704c0.728,0.607 1.534,1.075 2.418,1.404c0.884,0.312 1.786,0.468 2.704,0.468c1.266,0 2.254,-0.26 2.964,-0.78c0.728,-0.52 1.092,-1.222 1.092,-2.106c0,-0.901 -0.355,-1.586 -1.066,-2.054c-0.71,-0.485 -1.724,-0.728 -3.042,-0.728l-2.756,0l0,-2.106l4.888,-4.732l-7.67,0l-0.026,-2.964l12.168,0l0,2.158l-5.564,5.33l0.962,0.104Zm14.84,-7.748c1.907,0 3.406,0.433 4.498,1.3c1.11,0.849 1.664,2.011 1.664,3.484c0,0.832 -0.225,1.586 -0.676,2.262c-0.45,0.676 -1.074,1.205 -1.872,1.586c1.075,0.399 1.916,1.005 2.522,1.82c0.624,0.815 0.936,1.751 0.936,2.808c0,1.057 -0.286,1.985 -0.858,2.782c-0.572,0.797 -1.395,1.413 -2.47,1.846c-1.057,0.416 -2.296,0.624 -3.718,0.624c-1.421,0 -2.669,-0.208 -3.744,-0.624c-1.057,-0.433 -1.872,-1.04 -2.444,-1.82c-0.572,-0.78 -0.858,-1.699 -0.858,-2.756c0,-1.075 0.321,-2.019 0.962,-2.834c0.642,-0.832 1.526,-1.447 2.652,-1.846c-0.849,-0.416 -1.516,-0.971 -2.002,-1.664c-0.468,-0.693 -0.702,-1.465 -0.702,-2.314c0,-1.421 0.546,-2.548 1.638,-3.38c1.11,-0.849 2.6,-1.274 4.472,-1.274Zm0.026,2.496c-1.005,0 -1.794,0.217 -2.366,0.65c-0.554,0.433 -0.832,1.04 -0.832,1.82c0,0.78 0.278,1.387 0.832,1.82c0.572,0.433 1.361,0.65 2.366,0.65c1.006,0 1.786,-0.217 2.34,-0.65c0.555,-0.433 0.832,-1.04 0.832,-1.82c0,-0.78 -0.277,-1.387 -0.832,-1.82c-0.554,-0.433 -1.334,-0.65 -2.34,-0.65Zm-0.026,7.644c-1.178,0 -2.097,0.243 -2.756,0.728c-0.658,0.485 -0.988,1.17 -0.988,2.054c0,0.901 0.33,1.603 0.988,2.106c0.659,0.503 1.586,0.754 2.782,0.754c1.179,0 2.098,-0.243 2.756,-0.728c0.676,-0.503 1.014,-1.205 1.014,-2.106c0,-0.884 -0.338,-1.569 -1.014,-2.054c-0.658,-0.503 -1.586,-0.754 -2.782,-0.754Zm22.85,-0.832l3.042,0l0,6.916c-0.953,0.711 -2.08,1.291 -3.38,1.742c-1.3,0.433 -2.574,0.65 -3.822,0.65c-1.785,0 -3.415,-0.416 -4.888,-1.248c-1.456,-0.832 -2.609,-1.959 -3.458,-3.38c-0.849,-1.439 -1.274,-3.025 -1.274,-4.758c0,-1.733 0.433,-3.302 1.3,-4.706c0.867,-1.421 2.045,-2.539 3.536,-3.354c1.508,-0.832 3.172,-1.248 4.992,-1.248c1.3,0 2.583,0.234 3.848,0.702c1.265,0.468 2.357,1.109 3.276,1.924l-1.976,2.574c-0.693,-0.659 -1.499,-1.17 -2.418,-1.534c-0.901,-0.364 -1.811,-0.546 -2.73,-0.546c-1.144,0 -2.201,0.277 -3.172,0.832c-0.953,0.537 -1.707,1.283 -2.262,2.236c-0.555,0.953 -0.832,1.993 -0.832,3.12c0,1.144 0.277,2.193 0.832,3.146c0.572,0.953 1.335,1.707 2.288,2.262c0.953,0.555 2.011,0.832 3.172,0.832c0.624,0 1.274,-0.095 1.95,-0.286c0.693,-0.208 1.352,-0.494 1.976,-0.858l0,-5.018Zm7.074,-9.152l12.558,0l-0.026,3.042l-9.048,0l0,4.914l8.242,0l0,3.042l-8.242,0l0,7.202l-3.484,0l0,-18.2Zm12.948,0l7.306,0l0,18.2l-3.484,0l0,-15.132l-3.822,0l0,-3.068Zm24.67,10.92l0,2.99l-2.626,0l0,4.29l-3.224,0l0,-4.29l-8.71,0l0,-2.574l5.928,-11.336l3.354,0l-5.564,10.92l4.992,0l0,-4.212l3.224,0l0,4.212l2.626,0Zm3.76,3.432c0.537,0.364 1.152,0.65 1.846,0.858c0.693,0.191 1.386,0.286 2.08,0.286c1.629,0 2.851,-0.537 3.666,-1.612c0.814,-1.092 1.204,-2.583 1.17,-4.472c-0.468,0.78 -1.11,1.378 -1.924,1.794c-0.815,0.416 -1.768,0.624 -2.86,0.624c-1.786,0 -3.198,-0.529 -4.238,-1.586c-1.04,-1.057 -1.56,-2.479 -1.56,-4.264c0,-1.248 0.26,-2.331 0.78,-3.25c0.537,-0.919 1.291,-1.629 2.262,-2.132c0.97,-0.503 2.106,-0.754 3.406,-0.754c1.542,0 2.868,0.355 3.978,1.066c1.126,0.711 1.984,1.733 2.574,3.068c0.606,1.335 0.91,2.921 0.91,4.758c0,1.924 -0.33,3.614 -0.988,5.07c-0.642,1.456 -1.56,2.583 -2.756,3.38c-1.196,0.78 -2.592,1.17 -4.186,1.17c-0.919,0 -1.881,-0.13 -2.886,-0.39c-0.988,-0.26 -1.864,-0.607 -2.626,-1.04l1.352,-2.574Zm4.784,-11.57c-1.023,0 -1.846,0.286 -2.47,0.858c-0.624,0.572 -0.936,1.361 -0.936,2.366c0,0.971 0.294,1.733 0.884,2.288c0.589,0.555 1.395,0.832 2.418,0.832c1.109,0 1.984,-0.303 2.626,-0.91c0.641,-0.624 0.953,-1.395 0.936,-2.314c0.017,-0.832 -0.278,-1.56 -0.884,-2.184c-0.59,-0.624 -1.448,-0.936 -2.574,-0.936Zm22.07,1.066c-0.537,-0.381 -1.161,-0.667 -1.872,-0.858c-0.693,-0.208 -1.395,-0.312 -2.106,-0.312c-1.629,0 -2.86,0.546 -3.692,1.638c-0.815,1.092 -1.196,2.583 -1.144,4.472c0.468,-0.797 1.101,-1.395 1.898,-1.794c0.815,-0.416 1.777,-0.624 2.886,-0.624c1.803,0 3.233,0.529 4.29,1.586c1.057,1.057 1.586,2.47 1.586,4.238c0,1.248 -0.269,2.34 -0.806,3.276c-0.537,0.919 -1.3,1.629 -2.288,2.132c-0.971,0.503 -2.106,0.754 -3.406,0.754c-1.543,0 -2.877,-0.355 -4.004,-1.066c-1.127,-0.711 -1.993,-1.733 -2.6,-3.068c-0.589,-1.335 -0.884,-2.929 -0.884,-4.784c0,-1.924 0.321,-3.605 0.962,-5.044c0.659,-1.456 1.586,-2.574 2.782,-3.354c1.196,-0.797 2.6,-1.196 4.212,-1.196c0.936,0 1.898,0.13 2.886,0.39c1.005,0.243 1.881,0.581 2.626,1.014l-1.326,2.6Zm-4.706,5.2c-1.109,0 -1.993,0.312 -2.652,0.936c-0.659,0.624 -0.979,1.395 -0.962,2.314c-0.017,0.52 0.104,1.023 0.364,1.508c0.26,0.468 0.65,0.858 1.17,1.17c0.537,0.295 1.196,0.442 1.976,0.442c1.04,0 1.872,-0.286 2.496,-0.858c0.624,-0.572 0.936,-1.369 0.936,-2.392c0,-0.953 -0.303,-1.707 -0.91,-2.262c-0.589,-0.572 -1.395,-0.858 -2.418,-0.858Zm21.159,-5.2c-0.537,-0.381 -1.161,-0.667 -1.872,-0.858c-0.693,-0.208 -1.395,-0.312 -2.106,-0.312c-1.629,0 -2.86,0.546 -3.692,1.638c-0.815,1.092 -1.196,2.583 -1.144,4.472c0.468,-0.797 1.101,-1.395 1.898,-1.794c0.815,-0.416 1.777,-0.624 2.886,-0.624c1.803,0 3.233,0.529 4.29,1.586c1.057,1.057 1.586,2.47 1.586,4.238c0,1.248 -0.269,2.34 -0.806,3.276c-0.537,0.919 -1.3,1.629 -2.288,2.132c-0.971,0.503 -2.106,0.754 -3.406,0.754c-1.543,0 -2.877,-0.355 -4.004,-1.066c-1.127,-0.711 -1.993,-1.733 -2.6,-3.068c-0.589,-1.335 -0.884,-2.929 -0.884,-4.784c0,-1.924 0.321,-3.605 0.962,-5.044c0.659,-1.456 1.586,-2.574 2.782,-3.354c1.196,-0.797 2.6,-1.196 4.212,-1.196c0.936,0 1.898,0.13 2.886,0.39c1.005,0.243 1.881,0.581 2.626,1.014l-1.326,2.6Zm-4.706,5.2c-1.109,0 -1.993,0.312 -2.652,0.936c-0.659,0.624 -0.979,1.395 -0.962,2.314c-0.017,0.52 0.104,1.023 0.364,1.508c0.26,0.468 0.65,0.858 1.17,1.17c0.537,0.295 1.196,0.442 1.976,0.442c1.04,0 1.872,-0.286 2.496,-0.858c0.624,-0.572 0.936,-1.369 0.936,-2.392c0,-0.953 -0.303,-1.707 -0.91,-2.262c-0.589,-0.572 -1.395,-0.858 -2.418,-0.858Zm8.003,-9.048l14.04,0l0,2.6l-7.488,15.6l-3.692,0l7.254,-15.158l-6.994,0l-0.026,2.574l-3.094,0l0,-5.616Zm17.659,14.352c0.538,0.364 1.153,0.65 1.846,0.858c0.694,0.191 1.387,0.286 2.08,0.286c1.63,0 2.852,-0.537 3.666,-1.612c0.815,-1.092 1.205,-2.583 1.17,-4.472c-0.468,0.78 -1.109,1.378 -1.924,1.794c-0.814,0.416 -1.768,0.624 -2.86,0.624c-1.785,0 -3.198,-0.529 -4.238,-1.586c-1.04,-1.057 -1.56,-2.479 -1.56,-4.264c0,-1.248 0.26,-2.331 0.78,-3.25c0.538,-0.919 1.292,-1.629 2.262,-2.132c0.971,-0.503 2.106,-0.754 3.406,-0.754c1.543,0 2.869,0.355 3.978,1.066c1.127,0.711 1.985,1.733 2.574,3.068c0.607,1.335 0.91,2.921 0.91,4.758c0,1.924 -0.329,3.614 -0.988,5.07c-0.641,1.456 -1.56,2.583 -2.756,3.38c-1.196,0.78 -2.591,1.17 -4.186,1.17c-0.918,0 -1.88,-0.13 -2.886,-0.39c-0.988,-0.26 -1.863,-0.607 -2.626,-1.04l1.352,-2.574Zm4.784,-11.57c-1.022,0 -1.846,0.286 -2.47,0.858c-0.624,0.572 -0.936,1.361 -0.936,2.366c0,0.971 0.295,1.733 0.884,2.288c0.59,0.555 1.396,0.832 2.418,0.832c1.11,0 1.985,-0.303 2.626,-0.91c0.642,-0.624 0.954,-1.395 0.936,-2.314c0.018,-0.832 -0.277,-1.56 -0.884,-2.184c-0.589,-0.624 -1.447,-0.936 -2.574,-0.936Z" style="fill:#fff;fill-opacity:0.4;fill-rule:nonzero;"/><path id="path7_fill" d="M63.98,602.32l2.72,-0.02l2.8,8.14l2.74,-8.14l2.62,0l-4.08,10.7l-2.68,0l-4.12,-10.68Zm17.042,-3.44c1.467,0 2.62,0.333 3.46,1c0.854,0.653 1.28,1.547 1.28,2.68c0,0.64 -0.173,1.22 -0.52,1.74c-0.346,0.52 -0.826,0.927 -1.44,1.22c0.827,0.307 1.474,0.773 1.94,1.4c0.48,0.627 0.72,1.347 0.72,2.16c0,0.813 -0.22,1.527 -0.66,2.14c-0.44,0.613 -1.073,1.087 -1.9,1.42c-0.813,0.32 -1.766,0.48 -2.86,0.48c-1.093,0 -2.053,-0.16 -2.88,-0.48c-0.813,-0.333 -1.44,-0.8 -1.88,-1.4c-0.44,-0.6 -0.66,-1.307 -0.66,-2.12c0,-0.827 0.247,-1.553 0.74,-2.18c0.494,-0.64 1.174,-1.113 2.04,-1.42c-0.653,-0.32 -1.166,-0.747 -1.54,-1.28c-0.36,-0.533 -0.54,-1.127 -0.54,-1.78c0,-1.093 0.42,-1.96 1.26,-2.6c0.854,-0.653 2,-0.98 3.44,-0.98Zm0.02,1.92c-0.773,0 -1.38,0.167 -1.82,0.5c-0.426,0.333 -0.64,0.8 -0.64,1.4c0,0.6 0.214,1.067 0.64,1.4c0.44,0.333 1.047,0.5 1.82,0.5c0.774,0 1.374,-0.167 1.8,-0.5c0.427,-0.333 0.64,-0.8 0.64,-1.4c0,-0.6 -0.213,-1.067 -0.64,-1.4c-0.426,-0.333 -1.026,-0.5 -1.8,-0.5Zm-0.02,5.88c-0.906,0 -1.613,0.187 -2.12,0.56c-0.506,0.373 -0.76,0.9 -0.76,1.58c0,0.693 0.254,1.233 0.76,1.62c0.507,0.387 1.22,0.58 2.14,0.58c0.907,0 1.614,-0.187 2.12,-0.56c0.52,-0.387 0.78,-0.927 0.78,-1.62c0,-0.68 -0.26,-1.207 -0.78,-1.58c-0.506,-0.387 -1.22,-0.58 -2.14,-0.58Zm8.597,3.62c0.4,0 0.727,0.133 0.98,0.4c0.267,0.267 0.4,0.607 0.4,1.02c0,0.427 -0.133,0.78 -0.4,1.06c-0.253,0.267 -0.58,0.4 -0.98,0.4c-0.387,0 -0.713,-0.14 -0.98,-0.42c-0.253,-0.28 -0.38,-0.627 -0.38,-1.04c0,-0.413 0.127,-0.753 0.38,-1.02c0.267,-0.267 0.593,-0.4 0.98,-0.4Zm2.272,-11.3l5.62,0l0,14l-2.68,0l0,-11.64l-2.94,0l0,-2.36Zm18.679,-0.84c-0.746,1.173 -1.333,2.507 -1.76,4c-0.413,1.493 -0.62,3.047 -0.62,4.66c0,1.613 0.207,3.167 0.62,4.66c0.427,1.493 1.014,2.827 1.76,4l-2.36,0c-0.8,-1.147 -1.413,-2.46 -1.84,-3.94c-0.413,-1.493 -0.62,-3.067 -0.62,-4.72c0,-1.653 0.207,-3.22 0.62,-4.7c0.427,-1.493 1.04,-2.813 1.84,-3.96l2.36,0Zm11.366,12.5l0,2.34l-10.36,0l0,-1.94l5.28,-5.44c0.507,-0.507 0.914,-1.007 1.22,-1.5c0.307,-0.493 0.46,-0.92 0.46,-1.28c0,-0.507 -0.2,-0.9 -0.6,-1.18c-0.4,-0.293 -0.953,-0.44 -1.66,-0.44c-0.613,0 -1.266,0.153 -1.96,0.46c-0.693,0.307 -1.346,0.733 -1.96,1.28l-1.06,-2.06c0.827,-0.64 1.694,-1.133 2.6,-1.48c0.92,-0.36 1.84,-0.54 2.76,-0.54c0.92,0 1.734,0.147 2.44,0.44c0.707,0.293 1.254,0.713 1.64,1.26c0.4,0.533 0.6,1.153 0.6,1.86c0,0.68 -0.233,1.4 -0.7,2.16c-0.466,0.76 -1.12,1.58 -1.96,2.46l-3.56,3.6l6.82,0Zm7.757,-11.78c1.934,0 3.42,0.613 4.46,1.84c1.04,1.227 1.56,2.987 1.56,5.28c0,2.28 -0.52,4.033 -1.56,5.26c-1.04,1.227 -2.526,1.84 -4.46,1.84c-1.933,0 -3.42,-0.613 -4.46,-1.84c-1.04,-1.227 -1.56,-2.98 -1.56,-5.26c0,-2.293 0.52,-4.053 1.56,-5.28c1.04,-1.227 2.527,-1.84 4.46,-1.84Zm0,2.12c-1.106,0 -1.926,0.407 -2.46,1.22c-0.533,0.8 -0.8,2.06 -0.8,3.78c0,1.707 0.267,2.967 0.8,3.78c0.534,0.813 1.354,1.22 2.46,1.22c1.107,0 1.927,-0.407 2.46,-1.22c0.534,-0.813 0.8,-2.073 0.8,-3.78c0,-1.72 -0.266,-2.98 -0.8,-3.78c-0.533,-0.813 -1.353,-1.22 -2.46,-1.22Zm7.061,-2l5.62,0l0,14l-2.68,0l0,-11.64l-2.94,0l0,-2.36Zm7.797,0l10.8,0l0,2l-5.76,12l-2.84,0l5.58,-11.66l-5.38,0l-0.02,1.98l-2.38,0l0,-4.32Zm12.919,11.3c0.4,0 0.727,0.133 0.98,0.4c0.267,0.267 0.4,0.607 0.4,1.02c0,0.427 -0.133,0.78 -0.4,1.06c-0.253,0.267 -0.58,0.4 -0.98,0.4c-0.386,0 -0.713,-0.14 -0.98,-0.42c-0.253,-0.28 -0.38,-0.627 -0.38,-1.04c0,-0.413 0.127,-0.753 0.38,-1.02c0.267,-0.267 0.594,-0.4 0.98,-0.4Zm8.973,-5.46c1.293,0.12 2.32,0.513 3.08,1.18c0.773,0.667 1.16,1.54 1.16,2.62c0,0.88 -0.227,1.66 -0.68,2.34c-0.454,0.667 -1.1,1.193 -1.94,1.58c-0.84,0.373 -1.82,0.56 -2.94,0.56c-0.947,0 -1.887,-0.14 -2.82,-0.42c-0.92,-0.293 -1.707,-0.68 -2.36,-1.16l1.06,-2.08c0.56,0.467 1.18,0.827 1.86,1.08c0.68,0.24 1.373,0.36 2.08,0.36c0.973,0 1.733,-0.2 2.28,-0.6c0.56,-0.4 0.84,-0.94 0.84,-1.62c0,-0.693 -0.274,-1.22 -0.82,-1.58c-0.547,-0.373 -1.327,-0.56 -2.34,-0.56l-2.12,0l0,-1.62l3.76,-3.64l-5.9,0l-0.02,-2.28l9.36,0l0,1.66l-4.28,4.1l0.74,0.08Zm12.215,-5.96c1.933,0 3.42,0.613 4.46,1.84c1.04,1.227 1.56,2.987 1.56,5.28c0,2.28 -0.52,4.033 -1.56,5.26c-1.04,1.227 -2.527,1.84 -4.46,1.84c-1.933,0 -3.42,-0.613 -4.46,-1.84c-1.04,-1.227 -1.56,-2.98 -1.56,-5.26c0,-2.293 0.52,-4.053 1.56,-5.28c1.04,-1.227 2.527,-1.84 4.46,-1.84Zm0,2.12c-1.107,0 -1.927,0.407 -2.46,1.22c-0.533,0.8 -0.8,2.06 -0.8,3.78c0,1.707 0.267,2.967 0.8,3.78c0.533,0.813 1.353,1.22 2.46,1.22c1.107,0 1.927,-0.407 2.46,-1.22c0.533,-0.813 0.8,-2.073 0.8,-3.78c0,-1.72 -0.267,-2.98 -0.8,-3.78c-0.533,-0.813 -1.353,-1.22 -2.46,-1.22Zm18.664,3.84c1.293,0.12 2.32,0.513 3.08,1.18c0.773,0.667 1.16,1.54 1.16,2.62c0,0.88 -0.227,1.66 -0.68,2.34c-0.454,0.667 -1.1,1.193 -1.94,1.58c-0.84,0.373 -1.82,0.56 -2.94,0.56c-0.947,0 -1.887,-0.14 -2.82,-0.42c-0.92,-0.293 -1.707,-0.68 -2.36,-1.16l1.06,-2.08c0.56,0.467 1.18,0.827 1.86,1.08c0.68,0.24 1.373,0.36 2.08,0.36c0.973,0 1.733,-0.2 2.28,-0.6c0.56,-0.4 0.84,-0.94 0.84,-1.62c0,-0.693 -0.274,-1.22 -0.82,-1.58c-0.547,-0.373 -1.327,-0.56 -2.34,-0.56l-2.12,0l0,-1.62l3.76,-3.64l-5.9,0l-0.02,-2.28l9.36,0l0,1.66l-4.28,4.1l0.74,0.08Zm5.315,-5.84l10.8,0l0,2l-5.76,12l-2.84,0l5.58,-11.66l-5.38,0l-0.02,1.98l-2.38,0l0,-4.32Zm20.304,6.68c-0.72,-0.787 -1.653,-1.18 -2.8,-1.18c-0.867,0 -1.573,0.293 -2.12,0.88c-0.533,0.587 -0.8,1.347 -0.8,2.28c0,0.96 0.267,1.733 0.8,2.32c0.547,0.587 1.253,0.88 2.12,0.88c1.28,0 2.24,-0.42 2.88,-1.26l1.62,1.34c-0.48,0.693 -1.113,1.227 -1.9,1.6c-0.787,0.373 -1.7,0.56 -2.74,0.56c-1.053,0 -1.993,-0.227 -2.82,-0.68c-0.813,-0.453 -1.447,-1.087 -1.9,-1.9c-0.453,-0.827 -0.68,-1.773 -0.68,-2.84c0,-1.08 0.227,-2.033 0.68,-2.86c0.467,-0.827 1.107,-1.467 1.92,-1.92c0.827,-0.453 1.773,-0.68 2.84,-0.68c0.973,0 1.84,0.173 2.6,0.52c0.773,0.333 1.4,0.813 1.88,1.44l-1.58,1.5Zm9.878,7.32l0,-1.3c-0.373,0.467 -0.853,0.82 -1.44,1.06c-0.587,0.24 -1.26,0.36 -2.02,0.36c-0.747,0 -1.407,-0.14 -1.98,-0.42c-0.56,-0.293 -0.993,-0.693 -1.3,-1.2c-0.307,-0.507 -0.46,-1.073 -0.46,-1.7c0,-1 0.353,-1.78 1.06,-2.34c0.707,-0.573 1.707,-0.867 3,-0.88l3.12,0l0,-0.28c0,-0.627 -0.207,-1.113 -0.62,-1.46c-0.413,-0.347 -1.013,-0.52 -1.8,-0.52c-1.013,0 -2.073,0.333 -3.18,1l-0.94,-1.8c0.84,-0.467 1.6,-0.8 2.28,-1c0.693,-0.213 1.5,-0.32 2.42,-0.32c1.387,0 2.46,0.333 3.22,1c0.773,0.667 1.167,1.6 1.18,2.8l0.02,7l-2.56,0Zm-2.84,-1.88c0.747,0 1.387,-0.173 1.92,-0.52c0.533,-0.36 0.833,-0.8 0.9,-1.32l0,-0.96l-2.7,0c-0.693,0 -1.207,0.107 -1.54,0.32c-0.32,0.2 -0.48,0.533 -0.48,1c0,0.453 0.167,0.813 0.5,1.08c0.347,0.267 0.813,0.4 1.4,0.4Zm15.677,-5.44c-0.72,-0.787 -1.654,-1.18 -2.8,-1.18c-0.867,0 -1.574,0.293 -2.12,0.88c-0.534,0.587 -0.8,1.347 -0.8,2.28c0,0.96 0.266,1.733 0.8,2.32c0.546,0.587 1.253,0.88 2.12,0.88c1.28,0 2.24,-0.42 2.88,-1.26l1.62,1.34c-0.48,0.693 -1.114,1.227 -1.9,1.6c-0.787,0.373 -1.7,0.56 -2.74,0.56c-1.054,0 -1.994,-0.227 -2.82,-0.68c-0.814,-0.453 -1.447,-1.087 -1.9,-1.9c-0.454,-0.827 -0.68,-1.773 -0.68,-2.84c0,-1.08 0.226,-2.033 0.68,-2.86c0.466,-0.827 1.106,-1.467 1.92,-1.92c0.826,-0.453 1.773,-0.68 2.84,-0.68c0.973,0 1.84,0.173 2.6,0.52c0.773,0.333 1.4,0.813 1.88,1.44l-1.58,1.5Zm8.389,-5.4c-0.4,0 -0.733,0.113 -1,0.34c-0.253,0.227 -0.38,0.567 -0.38,1.02l0,1.1l2.68,0l0,1.9l-2.68,0l0,8.36l-2.6,0l0,-8.36l-1.4,0l0,-1.9l1.4,0l0,-1.02c0,-0.787 0.173,-1.453 0.52,-2c0.347,-0.56 0.807,-0.98 1.38,-1.26c0.587,-0.28 1.22,-0.42 1.9,-0.42c0.667,0 1.32,0.153 1.96,0.46l-0.46,2.1c-0.533,-0.213 -0.973,-0.32 -1.32,-0.32Zm3.825,-2.12c0.8,1.147 1.406,2.467 1.82,3.96c0.426,1.48 0.64,3.047 0.64,4.7c0,1.653 -0.214,3.227 -0.64,4.72c-0.414,1.48 -1.02,2.793 -1.82,3.94l-2.36,0c0.746,-1.173 1.326,-2.507 1.74,-4c0.426,-1.493 0.64,-3.047 0.64,-4.66c0,-1.613 -0.214,-3.167 -0.64,-4.66c-0.414,-1.493 -0.994,-2.827 -1.74,-4l2.36,0Z" style="fill:#fff;fill-opacity:0.4;fill-rule:nonzero;"/><g id="Model-3-Logo" serif:id="Model 3 Logo"><path id="path8_fill" d="M201,125l9.775,0l24.573,25.176l23.775,-25.176l9.614,0l0,34.419l-9.614,0l0,-28.922l-26.584,28.922l-26.949,-28.922l0,28.922l-4.59,0l0,-34.419Zm75.804,20.043l0,-0.097c0,-8.295 12.424,-15.543 30.694,-15.543c18.271,0 30.512,7.175 30.512,15.47l0,0.073c0,8.295 -12.356,16.054 -30.603,16.054c-18.248,0.024 -30.603,-7.662 -30.603,-15.957Zm52.504,-0.365c0,-7.735 -9.226,-12.721 -21.878,-12.721c-12.652,0 -22.085,4.986 -22.085,12.721c0,7.736 9.433,13.354 22.085,13.354c12.652,0.025 21.878,-5.618 21.878,-13.354Zm18.677,-14.181l22.13,0c26.355,0.244 35.719,7.249 35.719,14.449c0,8.149 -9.41,14.449 -35.719,14.449l-22.13,0l0,-28.898Zm22.838,26.052c15.804,0 26.012,-3.479 25.875,-11.603l0,-0.097c0,-8.368 -10.094,-11.676 -25.875,-11.676l-14.639,0l0,23.376l14.639,0Zm44.123,-26.052l45.767,0l0,2.846l-37.5,0l0,9.633l32.088,0l0,3.283l-32.088,0l0,9.925l39.19,0l0,3.21l-47.457,0l0,-28.897Zm57.62,0.049l8.473,-0.073l0,25.711l36.86,0l0.115,3.21l-45.448,0l0,-28.848Z" style="fill:#fff;fill-rule:nonzero;"/><path id="path9_fill" d="M552,125l0,4l33.5,0l-18.5,11c12.601,0.234 26.5,1.5 26.5,9c0,5.5 -6.5,9 -20,9c-13.5,0 -26,-7.5 -26,-7.5l-2,2c0,0 12,8 30,8c23,0 27.5,-7.5 27.5,-10.5c0,-8 -17,-12 -25,-12l22,-13l-48,0Z" style="fill:#fff;fill-rule:nonzero;"/></g></g><path id="path10_fill" d="M649.896,43l-1.24,-2.96l-6.84,0l-1.24,2.96l-2.78,0l6.14,-14l2.78,0l6.06,14l-2.88,0Zm-7.12,-5.26l4.92,0l-2.44,-5.88l-2.48,5.88Zm11.702,-9.58l2.6,0l0,14.84l-2.6,0l0,-14.84Zm12.235,4.06c1,0 1.88,0.233 2.64,0.7c0.773,0.453 1.367,1.093 1.78,1.92c0.427,0.827 0.64,1.78 0.64,2.86c0,1.067 -0.207,2.007 -0.62,2.82c-0.413,0.813 -1,1.447 -1.76,1.9c-0.76,0.453 -1.64,0.68 -2.64,0.68c-0.8,0 -1.507,-0.153 -2.12,-0.46c-0.613,-0.32 -1.12,-0.78 -1.52,-1.38l0,5.62l-2.6,0l0,-14.58l2.6,0l0,1.76c0.387,-0.6 0.88,-1.053 1.48,-1.36c0.613,-0.32 1.32,-0.48 2.12,-0.48Zm-0.58,8.64c0.88,0 1.6,-0.3 2.16,-0.9c0.56,-0.613 0.84,-1.393 0.84,-2.34c0,-0.947 -0.28,-1.72 -0.84,-2.32c-0.56,-0.6 -1.28,-0.9 -2.16,-0.9c-0.893,0 -1.62,0.3 -2.18,0.9c-0.56,0.6 -0.84,1.373 -0.84,2.32c0,0.96 0.28,1.74 0.84,2.34c0.56,0.6 1.287,0.9 2.18,0.9Zm14.453,-8.66c1.227,0 2.194,0.373 2.9,1.12c0.707,0.733 1.06,1.733 1.06,3l0,6.68l-2.62,0l0,-5.92c0,-0.747 -0.213,-1.333 -0.64,-1.76c-0.426,-0.44 -1.006,-0.66 -1.74,-0.66c-0.866,0.013 -1.553,0.307 -2.06,0.88c-0.506,0.573 -0.76,1.307 -0.76,2.2l0,5.26l-2.6,0l0,-14.84l2.6,0l0,6.18c0.734,-1.4 2.02,-2.113 3.86,-2.14Zm13.198,10.8l0,-1.3c-0.374,0.467 -0.854,0.82 -1.44,1.06c-0.587,0.24 -1.26,0.36 -2.02,0.36c-0.747,0 -1.407,-0.14 -1.98,-0.42c-0.56,-0.293 -0.994,-0.693 -1.3,-1.2c-0.307,-0.507 -0.46,-1.073 -0.46,-1.7c0,-1 0.353,-1.78 1.06,-2.34c0.706,-0.573 1.706,-0.867 3,-0.88l3.12,0l0,-0.28c0,-0.627 -0.207,-1.113 -0.62,-1.46c-0.414,-0.347 -1.014,-0.52 -1.8,-0.52c-1.014,0 -2.074,0.333 -3.18,1l-0.94,-1.8c0.84,-0.467 1.6,-0.8 2.28,-1c0.693,-0.213 1.5,-0.32 2.42,-0.32c1.386,0 2.46,0.333 3.22,1c0.773,0.667 1.166,1.6 1.18,2.8l0.02,7l-2.56,0Zm-2.84,-1.88c0.746,0 1.386,-0.173 1.92,-0.52c0.533,-0.36 0.833,-0.8 0.9,-1.32l0,-0.96l-2.7,0c-0.694,0 -1.207,0.107 -1.54,0.32c-0.32,0.2 -0.48,0.533 -0.48,1c0,0.453 0.166,0.813 0.5,1.08c0.346,0.267 0.813,0.4 1.4,0.4Zm19.679,-12.3c1.387,0 2.647,0.313 3.78,0.94c1.147,0.627 2.047,1.487 2.7,2.58c0.653,1.093 0.98,2.307 0.98,3.64c0,1.333 -0.327,2.553 -0.98,3.66c-0.653,1.093 -1.553,1.96 -2.7,2.6c-1.133,0.64 -2.393,0.96 -3.78,0.96c-1.387,0 -2.653,-0.32 -3.8,-0.96c-1.133,-0.64 -2.027,-1.507 -2.68,-2.6c-0.653,-1.107 -0.98,-2.327 -0.98,-3.66c0,-1.333 0.327,-2.547 0.98,-3.64c0.653,-1.093 1.547,-1.953 2.68,-2.58c1.147,-0.627 2.413,-0.94 3.8,-0.94Zm0.04,2.4c-0.853,0 -1.647,0.213 -2.38,0.64c-0.733,0.413 -1.313,0.987 -1.74,1.72c-0.427,0.72 -0.64,1.52 -0.64,2.4c0,0.88 0.213,1.687 0.64,2.42c0.44,0.733 1.02,1.313 1.74,1.74c0.733,0.427 1.527,0.64 2.38,0.64c0.84,0 1.62,-0.213 2.34,-0.64c0.72,-0.427 1.287,-1.007 1.7,-1.74c0.427,-0.733 0.64,-1.54 0.64,-2.42c0,-0.88 -0.213,-1.68 -0.64,-2.4c-0.413,-0.733 -0.98,-1.307 -1.7,-1.72c-0.72,-0.427 -1.5,-0.64 -2.34,-0.64Zm23.692,0.98c1.213,0 2.167,0.373 2.86,1.12c0.693,0.733 1.04,1.733 1.04,3l0,6.68l-2.62,0l0,-5.92c0,-0.76 -0.213,-1.353 -0.64,-1.78c-0.413,-0.44 -0.98,-0.66 -1.7,-0.66c-0.827,0.027 -1.487,0.327 -1.98,0.9c-0.48,0.573 -0.72,1.3 -0.72,2.18l0,5.28l-2.62,0l0,-5.92c0,-0.76 -0.207,-1.353 -0.62,-1.78c-0.413,-0.44 -0.98,-0.66 -1.7,-0.66c-0.84,0.027 -1.507,0.327 -2,0.9c-0.48,0.573 -0.72,1.3 -0.72,2.18l0,5.28l-2.6,0l0,-10.7l2.6,0l0,1.98c0.707,-1.36 1.96,-2.053 3.76,-2.08c0.933,0 1.713,0.227 2.34,0.68c0.64,0.44 1.087,1.067 1.34,1.88c0.68,-1.68 2.007,-2.533 3.98,-2.56Zm11.26,0.02c1.707,0 2.987,0.487 3.84,1.46c0.867,0.973 1.3,2.34 1.3,4.1c0,0.347 -0.007,0.607 -0.02,0.78l-7.9,0c0.173,0.76 0.527,1.36 1.06,1.8c0.547,0.427 1.213,0.64 2,0.64c0.547,0 1.067,-0.1 1.56,-0.3c0.507,-0.213 0.947,-0.513 1.32,-0.9l1.4,1.46c-0.533,0.587 -1.187,1.04 -1.96,1.36c-0.76,0.32 -1.607,0.48 -2.54,0.48c-1.093,0 -2.06,-0.227 -2.9,-0.68c-0.827,-0.453 -1.467,-1.087 -1.92,-1.9c-0.453,-0.827 -0.68,-1.773 -0.68,-2.84c0,-1.067 0.227,-2.013 0.68,-2.84c0.467,-0.827 1.113,-1.467 1.94,-1.92c0.827,-0.467 1.767,-0.7 2.82,-0.7Zm2.76,4.6c-0.027,-0.787 -0.287,-1.413 -0.78,-1.88c-0.493,-0.467 -1.147,-0.7 -1.96,-0.7c-0.76,0 -1.4,0.233 -1.92,0.7c-0.507,0.453 -0.82,1.08 -0.94,1.88l5.6,0Zm14.396,-4.52l0,9.68c0,1.013 -0.233,1.893 -0.7,2.64c-0.453,0.76 -1.107,1.34 -1.96,1.74c-0.84,0.413 -1.82,0.62 -2.94,0.62c-1.627,0 -3.133,-0.473 -4.52,-1.42l1.04,-1.88c1.013,0.747 2.127,1.12 3.34,1.12c0.96,0 1.72,-0.247 2.28,-0.74c0.573,-0.493 0.86,-1.167 0.86,-2.02l0,-1.26c-0.36,0.547 -0.827,0.967 -1.4,1.26c-0.573,0.28 -1.24,0.42 -2,0.42c-0.933,0 -1.76,-0.213 -2.48,-0.64c-0.72,-0.44 -1.28,-1.047 -1.68,-1.82c-0.4,-0.787 -0.6,-1.687 -0.6,-2.7c0,-1 0.2,-1.88 0.6,-2.64c0.4,-0.773 0.96,-1.373 1.68,-1.8c0.72,-0.427 1.547,-0.64 2.48,-0.64c0.747,0 1.407,0.147 1.98,0.44c0.587,0.293 1.06,0.707 1.42,1.24l0,-1.6l2.6,0Zm-5.44,8.12c0.84,0 1.52,-0.28 2.04,-0.84c0.533,-0.573 0.8,-1.313 0.8,-2.22c0,-0.907 -0.267,-1.64 -0.8,-2.2c-0.52,-0.573 -1.2,-0.86 -2.04,-0.86c-0.84,0 -1.527,0.287 -2.06,0.86c-0.52,0.573 -0.787,1.307 -0.8,2.2c0.013,0.907 0.28,1.647 0.8,2.22c0.533,0.56 1.22,0.84 2.06,0.84Zm14.812,2.58l0,-1.3c-0.373,0.467 -0.853,0.82 -1.44,1.06c-0.587,0.24 -1.26,0.36 -2.02,0.36c-0.747,0 -1.407,-0.14 -1.98,-0.42c-0.56,-0.293 -0.993,-0.693 -1.3,-1.2c-0.307,-0.507 -0.46,-1.073 -0.46,-1.7c0,-1 0.353,-1.78 1.06,-2.34c0.707,-0.573 1.707,-0.867 3,-0.88l3.12,0l0,-0.28c0,-0.627 -0.207,-1.113 -0.62,-1.46c-0.413,-0.347 -1.013,-0.52 -1.8,-0.52c-1.013,0 -2.073,0.333 -3.18,1l-0.94,-1.8c0.84,-0.467 1.6,-0.8 2.28,-1c0.693,-0.213 1.5,-0.32 2.42,-0.32c1.387,0 2.46,0.333 3.22,1c0.773,0.667 1.167,1.6 1.18,2.8l0.02,7l-2.56,0Zm-2.84,-1.88c0.747,0 1.387,-0.173 1.92,-0.52c0.533,-0.36 0.833,-0.8 0.9,-1.32l0,-0.96l-2.7,0c-0.693,0 -1.207,0.107 -1.54,0.32c-0.32,0.2 -0.48,0.533 -0.48,1c0,0.453 0.167,0.813 0.5,1.08c0.347,0.267 0.813,0.4 1.4,0.4Z" style="fill:#007be4;fill-rule:nonzero;"/><path id="path12_fill" d="M123.704,49l-1.612,-3.848l-8.892,0l-1.612,3.848l-3.614,0l7.982,-18.2l3.614,0l7.878,18.2l-3.744,0Zm-9.256,-6.838l6.396,0l-3.172,-7.644l-3.224,7.644Zm23.272,-7.176c1.3,0 2.444,0.303 3.432,0.91c1.005,0.589 1.776,1.421 2.314,2.496c0.554,1.075 0.832,2.314 0.832,3.718c0,1.387 -0.269,2.609 -0.806,3.666c-0.537,1.057 -1.3,1.881 -2.288,2.47c-0.988,0.589 -2.132,0.884 -3.432,0.884c-1.04,0 -1.959,-0.199 -2.756,-0.598c-0.797,-0.416 -1.456,-1.014 -1.976,-1.794l0,2.262l-3.38,0l0,-19.292l3.38,0l0,7.67c0.502,-0.78 1.144,-1.369 1.924,-1.768c0.797,-0.416 1.716,-0.624 2.756,-0.624Zm-0.754,11.232c1.144,0 2.08,-0.39 2.808,-1.17c0.728,-0.797 1.092,-1.811 1.092,-3.042c0,-1.231 -0.364,-2.236 -1.092,-3.016c-0.728,-0.78 -1.664,-1.17 -2.808,-1.17c-1.162,0 -2.106,0.39 -2.834,1.17c-0.728,0.78 -1.092,1.785 -1.092,3.016c0,1.248 0.364,2.262 1.092,3.042c0.728,0.78 1.672,1.17 2.834,1.17Zm16.345,-11.232c1.439,0 2.704,0.295 3.796,0.884c1.109,0.589 1.967,1.421 2.574,2.496c0.624,1.057 0.936,2.279 0.936,3.666c0,1.404 -0.312,2.643 -0.936,3.718c-0.607,1.075 -1.465,1.907 -2.574,2.496c-1.092,0.589 -2.357,0.884 -3.796,0.884c-1.456,0 -2.739,-0.295 -3.848,-0.884c-1.109,-0.589 -1.976,-1.421 -2.6,-2.496c-0.607,-1.075 -0.91,-2.314 -0.91,-3.718c0,-1.387 0.303,-2.609 0.91,-3.666c0.624,-1.075 1.491,-1.907 2.6,-2.496c1.109,-0.589 2.392,-0.884 3.848,-0.884Zm0,2.886c-1.179,0 -2.132,0.39 -2.86,1.17c-0.728,0.78 -1.092,1.794 -1.092,3.042c0,1.248 0.364,2.262 1.092,3.042c0.728,0.78 1.681,1.17 2.86,1.17c1.144,0 2.08,-0.39 2.808,-1.17c0.728,-0.78 1.092,-1.794 1.092,-3.042c0,-1.248 -0.364,-2.262 -1.092,-3.042c-0.728,-0.78 -1.664,-1.17 -2.808,-1.17Zm23.086,-2.782l0,13.91l-3.406,0l0,-2.574c-0.936,1.803 -2.548,2.704 -4.836,2.704c-1.56,0 -2.79,-0.477 -3.692,-1.43c-0.901,-0.953 -1.352,-2.253 -1.352,-3.9l0,-8.71l3.406,0l0,7.722c0,0.971 0.26,1.733 0.78,2.288c0.538,0.555 1.274,0.832 2.21,0.832c1.075,-0.017 1.924,-0.399 2.548,-1.144c0.624,-0.745 0.936,-1.69 0.936,-2.834l0,-6.864l3.406,0Zm12.357,13.052c-1.11,0.676 -2.271,1.014 -3.484,1.014c-1.196,0 -2.176,-0.347 -2.938,-1.04c-0.763,-0.711 -1.144,-1.751 -1.144,-3.12l0,-6.864l-1.95,0l-0.026,-2.47l1.976,0l0,-3.822l3.354,0l0,3.822l3.978,0l0,2.47l-3.978,0l0,6.266c0,0.641 0.121,1.101 0.364,1.378c0.242,0.26 0.606,0.39 1.092,0.39c0.52,0 1.178,-0.191 1.976,-0.572l0.78,2.548Zm23.794,-17.342l-6.63,12.246l0,5.954l-3.484,0l0,-5.824l-6.786,-12.376l3.536,0l4.966,8.554l4.888,-8.554l3.51,0Zm6.753,4.186c1.439,0 2.704,0.295 3.796,0.884c1.11,0.589 1.968,1.421 2.574,2.496c0.624,1.057 0.936,2.279 0.936,3.666c0,1.404 -0.312,2.643 -0.936,3.718c-0.606,1.075 -1.464,1.907 -2.574,2.496c-1.092,0.589 -2.357,0.884 -3.796,0.884c-1.456,0 -2.738,-0.295 -3.848,-0.884c-1.109,-0.589 -1.976,-1.421 -2.6,-2.496c-0.606,-1.075 -0.91,-2.314 -0.91,-3.718c0,-1.387 0.304,-2.609 0.91,-3.666c0.624,-1.075 1.491,-1.907 2.6,-2.496c1.11,-0.589 2.392,-0.884 3.848,-0.884Zm0,2.886c-1.178,0 -2.132,0.39 -2.86,1.17c-0.728,0.78 -1.092,1.794 -1.092,3.042c0,1.248 0.364,2.262 1.092,3.042c0.728,0.78 1.682,1.17 2.86,1.17c1.144,0 2.08,-0.39 2.808,-1.17c0.728,-0.78 1.092,-1.794 1.092,-3.042c0,-1.248 -0.364,-2.262 -1.092,-3.042c-0.728,-0.78 -1.664,-1.17 -2.808,-1.17Zm23.086,-2.782l0,13.91l-3.405,0l0,-2.574c-0.937,1.803 -2.549,2.704 -4.837,2.704c-1.56,0 -2.79,-0.477 -3.692,-1.43c-0.901,-0.953 -1.351,-2.253 -1.351,-3.9l0,-8.71l3.405,0l0,7.722c0,0.971 0.26,1.733 0.78,2.288c0.538,0.555 1.274,0.832 2.211,0.832c1.074,-0.017 1.924,-0.399 2.547,-1.144c0.625,-0.745 0.937,-1.69 0.937,-2.834l0,-6.864l3.405,0Zm7.599,2.678c0.468,-0.901 1.101,-1.586 1.898,-2.054c0.815,-0.485 1.759,-0.737 2.834,-0.754l0,3.276c-1.439,-0.087 -2.591,0.251 -3.458,1.014c-0.849,0.745 -1.274,1.759 -1.274,3.042l0,6.708l-3.38,0l0,-13.91l3.38,0l0,2.678Zm11.581,-6.968l14.846,0l0,3.094l-5.668,0l0,15.106l-3.51,0l0,-15.106l-5.668,0l0,-3.094Zm21.179,4.186c2.218,0 3.882,0.633 4.992,1.898c1.126,1.265 1.69,3.042 1.69,5.33c0,0.451 -0.009,0.789 -0.026,1.014l-10.27,0c0.225,0.988 0.684,1.768 1.378,2.34c0.71,0.555 1.577,0.832 2.6,0.832c0.71,0 1.386,-0.13 2.028,-0.39c0.658,-0.277 1.23,-0.667 1.716,-1.17l1.82,1.898c-0.694,0.763 -1.543,1.352 -2.548,1.768c-0.988,0.416 -2.089,0.624 -3.302,0.624c-1.422,0 -2.678,-0.295 -3.77,-0.884c-1.075,-0.589 -1.907,-1.413 -2.496,-2.47c-0.59,-1.075 -0.884,-2.305 -0.884,-3.692c0,-1.387 0.294,-2.617 0.884,-3.692c0.606,-1.075 1.447,-1.907 2.522,-2.496c1.074,-0.607 2.296,-0.91 3.666,-0.91Zm3.588,5.98c-0.035,-1.023 -0.373,-1.837 -1.014,-2.444c-0.642,-0.607 -1.491,-0.91 -2.548,-0.91c-0.988,0 -1.82,0.303 -2.496,0.91c-0.659,0.589 -1.066,1.404 -1.222,2.444l7.28,0Zm14.243,-2.106c-0.676,-0.399 -1.378,-0.711 -2.106,-0.936c-0.711,-0.225 -1.37,-0.338 -1.976,-0.338c-0.572,0 -1.032,0.104 -1.378,0.312c-0.33,0.191 -0.494,0.494 -0.494,0.91c0,0.433 0.208,0.771 0.624,1.014c0.433,0.225 1.109,0.468 2.028,0.728c0.97,0.295 1.768,0.589 2.392,0.884c0.624,0.277 1.161,0.702 1.612,1.274c0.468,0.555 0.702,1.291 0.702,2.21c0,1.352 -0.52,2.392 -1.56,3.12c-1.04,0.728 -2.349,1.092 -3.926,1.092c-1.075,0 -2.124,-0.165 -3.146,-0.494c-1.023,-0.347 -1.89,-0.832 -2.6,-1.456l1.17,-2.366c0.624,0.537 1.369,0.962 2.236,1.274c0.866,0.295 1.69,0.442 2.47,0.442c0.624,0 1.118,-0.104 1.482,-0.312c0.381,-0.225 0.572,-0.555 0.572,-0.988c0,-0.485 -0.217,-0.849 -0.65,-1.092c-0.434,-0.243 -1.136,-0.511 -2.106,-0.806c-0.936,-0.277 -1.699,-0.546 -2.288,-0.806c-0.59,-0.277 -1.101,-0.685 -1.534,-1.222c-0.434,-0.555 -0.65,-1.274 -0.65,-2.158c0,-1.369 0.494,-2.409 1.482,-3.12c1.005,-0.728 2.262,-1.092 3.77,-1.092c0.918,0 1.82,0.13 2.704,0.39c0.901,0.26 1.698,0.624 2.392,1.092l-1.222,2.444Zm4.43,-9.152l3.38,0l0,19.292l-3.38,0l0,-19.292Zm15.932,19.292l0,-1.69c-0.485,0.607 -1.109,1.066 -1.872,1.378c-0.762,0.312 -1.638,0.468 -2.626,0.468c-0.97,0 -1.828,-0.182 -2.574,-0.546c-0.728,-0.381 -1.291,-0.901 -1.69,-1.56c-0.398,-0.659 -0.598,-1.395 -0.598,-2.21c0,-1.3 0.46,-2.314 1.378,-3.042c0.919,-0.745 2.219,-1.127 3.9,-1.144l4.056,0l0,-0.364c0,-0.815 -0.268,-1.447 -0.806,-1.898c-0.537,-0.451 -1.317,-0.676 -2.34,-0.676c-1.317,0 -2.695,0.433 -4.134,1.3l-1.222,-2.34c1.092,-0.607 2.08,-1.04 2.964,-1.3c0.902,-0.277 1.95,-0.416 3.146,-0.416c1.803,0 3.198,0.433 4.186,1.3c1.006,0.867 1.517,2.08 1.534,3.64l0.026,9.1l-3.328,0Zm-3.692,-2.444c0.971,0 1.803,-0.225 2.496,-0.676c0.694,-0.468 1.084,-1.04 1.17,-1.716l0,-1.248l-3.51,0c-0.901,0 -1.568,0.139 -2.002,0.416c-0.416,0.26 -0.624,0.693 -0.624,1.3c0,0.589 0.217,1.057 0.65,1.404c0.451,0.347 1.058,0.52 1.82,0.52Z" style="fill:#fff;fill-rule:nonzero;"/></g></svg>