<svg width="48" height="48" viewBox="0 0 48 48" version="1.1" xmlns="http://www.w3.org/2000/svg" xmlns:xlink="http://www.w3.org/1999/xlink">
<title>wiper</title>
<desc>Created using Figma</desc>
<g id="Canvas" transform="translate(7526 -901)">
<clipPath id="clip-0" clip-rule="evenodd">
<path d="M -7526 901L -7478 901L -7478 949L -7526 949L -7526 901Z" fill="#FFFFFF"/>
</clipPath>
<g id="wiper" clip-path="url(#clip-0)">
<g id="Vector">
<use xlink:href="#path0_stroke" transform="translate(-7519 914)" fill="#FFFFFF"/>
</g>
</g>
</g>
<defs>
<path id="path0_stroke" d="M 6 18.9408L 4.59647 19.47C 4.88677 20.2399 5.743 20.6322 6.51561 20.3494L 6 18.9408ZM 0 3.02931L -0.520432 1.62248C -0.895075 1.76108 -1.19896 2.04338 -1.36474 2.40681C -1.53051 2.77025 -1.54447 3.18479 -1.40353 3.55856L 0 3.02931ZM 28 18.9408L 27.4844 20.3494C 28.257 20.6322 29.1132 20.2399 29.4035 19.47L 28 18.9408ZM 34 3.02931L 35.4035 3.55856C 35.5445 3.18479 35.5305 2.77025 35.3647 2.40681C 35.199 2.04338 34.8951 1.76108 34.5204 1.62248L 34 3.02931ZM 12.4045 7.47331C 12.1136 6.69763 11.249 6.30463 10.4733 6.59551C 9.69763 6.88639 9.30463 7.751 9.59551 8.52668L 12.4045 7.47331ZM 15.5955 24.5267C 15.8864 25.3024 16.751 25.6954 17.5267 25.4045C 18.3024 25.1136 18.6954 24.249 18.4045 23.4733L 15.5955 24.5267ZM 6.51561 20.3494C 9.82566 19.1321 13.272 18.4937 17 18.5L 17 15.5C 12.998 15.5063 9.03446 16.2383 5.48439 17.5322L 6.51561 20.3494ZM 0.520432 4.43613C 5.69536 2.516 11.1614 1.49361 17 1.5L 17 -1.5C 10.8847 -1.49361 4.89654 -0.375693 -0.520432 1.62248L 0.520432 4.43613ZM 7.40353 18.4115L 1.40353 2.50006L -1.40353 3.55856L 4.59647 19.47L 7.40353 18.4115ZM 17 18.5C 20.728 18.4937 24.1743 19.1321 27.4844 20.3494L 28.5156 17.5322C 24.9655 16.2383 21.002 15.5063 17 15.5L 17 18.5ZM 17 1.5C 22.8386 1.49361 28.3046 2.516 33.4796 4.43613L 34.5204 1.62248C 29.1035 -0.375693 23.1153 -1.49361 17 -1.5L 17 1.5ZM 29.4035 19.47L 35.4035 3.55856L 32.5965 2.50006L 26.5965 18.4115L 29.4035 19.47ZM 9.59551 8.52668L 15.5955 24.5267L 18.4045 23.4733L 12.4045 7.47331L 9.59551 8.52668Z"/>
</defs>
</svg>
