<svg width="348" height="88" viewBox="0 0 348 88" version="1.1" xmlns="http://www.w3.org/2000/svg" xmlns:xlink="http://www.w3.org/1999/xlink">
<title> light</title>
<desc>Created using Figma</desc>
<g id="Canvas" transform="translate(7737 -1390)">
<g id="navigate button / light">
<g id="navigate button / light" filter="url(#filter0_d)">
<g id="button">
<use xlink:href="#path0_fill" transform="translate(-7733 1390)" fill="#F0F0F0"/>
</g>
<g id="Navigate">
<use xlink:href="#path1_fill" transform="translate(-7653 1417.5)" fill="#000000" fill-opacity="0.6"/>
</g>
<clipPath id="clip-0" clip-rule="evenodd">
<path d="M -7718 1405L -7670 1405L -7670 1453L -7718 1453L -7718 1405Z" fill="#FFFFFF"/>
</clipPath>
<g id="navigate icon" clip-path="url(#clip-0)">
<clipPath id="clip-1" clip-rule="evenodd">
<path d="M -7710 1429L -7694.44 1413.44L -7678.89 1429L -7694.44 1444.56L -7710 1429Z" fill="#FFFFFF"/>
</clipPath>
<g id="navicon" clip-path="url(#clip-1)">
<g id="Group">
<g id="Vector 43">
<use xlink:href="#path2_stroke" transform="matrix(0.707107 -0.707107 0.707107 0.707107 -7706.48 1429.96)" fill="#000000" fill-opacity="0.6"/>
</g>
</g>
</g>
</g>
<clipPath id="clip-2" clip-rule="evenodd">
<path d="M -7458 1455L -7458 1407L -7410 1407L -7410 1455L -7458 1455Z" fill="#FFFFFF"/>
</clipPath>
<g id="arrow" clip-path="url(#clip-2)">
<g id="Vector 37">
<use xlink:href="#path3_stroke" transform="matrix(6.12323e-17 -1 1 6.12323e-17 -7437.5 1438)" fill="#000000" fill-opacity="0.6"/>
</g>
</g>
</g>
</g>
</g>
<defs>
<filter id="filter0_d" filterUnits="userSpaceOnUse" x="-7737" y="1390" width="348" height="88" color-interpolation-filters="sRGB">
<feFlood flood-opacity="0" result="BackgroundImageFix"/>
<feColorMatrix in="SourceAlpha" type="matrix" values="0 0 0 0 0 0 0 0 0 0 0 0 0 0 0 0 0 0 255 0"/>
<feOffset dx="0" dy="4"/>
<feGaussianBlur stdDeviation="2"/>
<feColorMatrix type="matrix" values="0 0 0 0 0 0 0 0 0 0 0 0 0 0 0 0 0 0 0.25 0"/>
<feBlend mode="normal" in2="BackgroundImageFix" result="effect1_dropShadow"/>
<feBlend mode="normal" in="SourceGraphic" in2="effect1_dropShadow" result="shape"/>
</filter>
<path id="path0_fill" d="M 0 40C 0 17.9086 17.9086 0 40 0L 300 0C 322.091 0 340 17.9086 340 40C 340 62.0914 322.091 80 300 80L 40 80C 17.9086 80 0 62.0914 0 40Z"/>
<path id="path1_fill" d="M 11.48 5L 14.08 5L 14.08 19L 11.54 19L 4.34 9.36L 4.34 19L 1.72 19L 1.72 5L 4.26 5L 11.48 14.66L 11.48 5ZM 23.7408 19L 23.7408 17.7C 23.3674 18.1667 22.8874 18.52 22.3008 18.76C 21.7141 19 21.0408 19.12 20.2808 19.12C 19.5341 19.12 18.8741 18.98 18.3008 18.7C 17.7408 18.4067 17.3074 18.0067 17.0008 17.5C 16.6941 16.9933 16.5408 16.4267 16.5408 15.8C 16.5408 14.8 16.8941 14.02 17.6008 13.46C 18.3074 12.8867 19.3074 12.5933 20.6008 12.58L 23.7208 12.58L 23.7208 12.3C 23.7208 11.6733 23.5141 11.1867 23.1008 10.84C 22.6874 10.4933 22.0874 10.32 21.3008 10.32C 20.2874 10.32 19.2274 10.6533 18.1208 11.32L 17.1808 9.52C 18.0208 9.05333 18.7808 8.72 19.4608 8.52C 20.1541 8.30667 20.9608 8.2 21.8808 8.2C 23.2674 8.2 24.3408 8.53333 25.1008 9.2C 25.8741 9.86667 26.2674 10.8 26.2808 12L 26.3008 19L 23.7408 19ZM 20.9008 17.12C 21.6474 17.12 22.2874 16.9467 22.8208 16.6C 23.3541 16.24 23.6541 15.8 23.7208 15.28L 23.7208 14.32L 21.0208 14.32C 20.3274 14.32 19.8141 14.4267 19.4808 14.64C 19.1608 14.84 19.0008 15.1733 19.0008 15.64C 19.0008 16.0933 19.1674 16.4533 19.5008 16.72C 19.8474 16.9867 20.3141 17.12 20.9008 17.12ZM 27.3042 8.32L 30.0242 8.3L 32.8242 16.44L 35.5642 8.3L 38.1842 8.3L 34.1042 19L 31.4242 19L 27.3042 8.32ZM 39.6864 8.3L 42.2864 8.3L 42.2864 19L 39.6864 19L 39.6864 8.3ZM 40.9664 3.7C 41.3931 3.7 41.7464 3.84667 42.0264 4.14C 42.3064 4.43333 42.4464 4.80667 42.4464 5.26C 42.4464 5.7 42.3064 6.06667 42.0264 6.36C 41.7464 6.65333 41.3931 6.8 40.9664 6.8C 40.5397 6.8 40.1864 6.65333 39.9064 6.36C 39.6264 6.06667 39.4864 5.7 39.4864 5.26C 39.4864 4.80667 39.6264 4.43333 39.9064 4.14C 40.1864 3.84667 40.5397 3.7 40.9664 3.7ZM 55.2867 8.3L 55.2867 17.98C 55.2867 18.9933 55.0534 19.8733 54.5867 20.62C 54.1334 21.38 53.4801 21.96 52.6267 22.36C 51.7867 22.7733 50.8067 22.98 49.6867 22.98C 48.0601 22.98 46.5534 22.5067 45.1667 21.56L 46.2067 19.68C 47.2201 20.4267 48.3334 20.8 49.5467 20.8C 50.5067 20.8 51.2667 20.5533 51.8267 20.06C 52.4001 19.5667 52.6867 18.8933 52.6867 18.04L 52.6867 16.78C 52.3267 17.3267 51.8601 17.7467 51.2867 18.04C 50.7134 18.32 50.0467 18.46 49.2867 18.46C 48.3534 18.46 47.5267 18.2467 46.8067 17.82C 46.0867 17.38 45.5267 16.7733 45.1267 16C 44.7267 15.2133 44.5267 14.3133 44.5267 13.3C 44.5267 12.3 44.7267 11.42 45.1267 10.66C 45.5267 9.88667 46.0867 9.28667 46.8067 8.86C 47.5267 8.43333 48.3534 8.22 49.2867 8.22C 50.0334 8.22 50.6934 8.36667 51.2667 8.66C 51.8534 8.95333 52.3267 9.36667 52.6867 9.9L 52.6867 8.3L 55.2867 8.3ZM 49.8467 16.42C 50.6867 16.42 51.3667 16.14 51.8867 15.58C 52.4201 15.0067 52.6867 14.2667 52.6867 13.36C 52.6867 12.4533 52.4201 11.72 51.8867 11.16C 51.3667 10.5867 50.6867 10.3 49.8467 10.3C 49.0067 10.3 48.3201 10.5867 47.7867 11.16C 47.2667 11.7333 47.0001 12.4667 46.9867 13.36C 47.0001 14.2667 47.2667 15.0067 47.7867 15.58C 48.3201 16.14 49.0067 16.42 49.8467 16.42ZM 64.6588 19L 64.6588 17.7C 64.2854 18.1667 63.8054 18.52 63.2187 18.76C 62.6321 19 61.9587 19.12 61.1988 19.12C 60.4521 19.12 59.7921 18.98 59.2188 18.7C 58.6588 18.4067 58.2254 18.0067 57.9187 17.5C 57.6121 16.9933 57.4588 16.4267 57.4588 15.8C 57.4588 14.8 57.8121 14.02 58.5188 13.46C 59.2254 12.8867 60.2254 12.5933 61.5187 12.58L 64.6387 12.58L 64.6387 12.3C 64.6387 11.6733 64.4321 11.1867 64.0188 10.84C 63.6054 10.4933 63.0054 10.32 62.2188 10.32C 61.2054 10.32 60.1454 10.6533 59.0387 11.32L 58.0987 9.52C 58.9388 9.05333 59.6988 8.72 60.3787 8.52C 61.0721 8.30667 61.8787 8.2 62.7987 8.2C 64.1854 8.2 65.2587 8.53333 66.0188 9.2C 66.7921 9.86667 67.1854 10.8 67.1987 12L 67.2187 19L 64.6588 19ZM 61.8187 17.12C 62.5654 17.12 63.2054 16.9467 63.7388 16.6C 64.2721 16.24 64.5721 15.8 64.6387 15.28L 64.6387 14.32L 61.9388 14.32C 61.2454 14.32 60.7321 14.4267 60.3988 14.64C 60.0787 14.84 59.9187 15.1733 59.9187 15.64C 59.9187 16.0933 60.0854 16.4533 60.4188 16.72C 60.7654 16.9867 61.2321 17.12 61.8187 17.12ZM 76.3956 18.34C 75.5423 18.86 74.649 19.12 73.7156 19.12C 72.7956 19.12 72.0423 18.8533 71.4556 18.32C 70.869 17.7733 70.5756 16.9733 70.5756 15.92L 70.5756 10.64L 69.0756 10.64L 69.0556 8.74L 70.5756 8.74L 70.5756 5.8L 73.1556 5.8L 73.1556 8.74L 76.2156 8.74L 76.2156 10.64L 73.1556 10.64L 73.1556 15.46C 73.1556 15.9533 73.249 16.3067 73.4356 16.52C 73.6223 16.72 73.9023 16.82 74.2756 16.82C 74.6756 16.82 75.1823 16.6733 75.7956 16.38L 76.3956 18.34ZM 82.7987 8.22C 84.5054 8.22 85.7854 8.70667 86.6387 9.68C 87.5054 10.6533 87.9387 12.02 87.9387 13.78C 87.9387 14.1267 87.9321 14.3867 87.9188 14.56L 80.0188 14.56C 80.1921 15.32 80.5454 15.92 81.0787 16.36C 81.6254 16.7867 82.2921 17 83.0787 17C 83.6254 17 84.1454 16.9 84.6387 16.7C 85.1454 16.4867 85.5854 16.1867 85.9588 15.8L 87.3588 17.26C 86.8254 17.8467 86.1721 18.3 85.3987 18.62C 84.6387 18.94 83.7921 19.1 82.8588 19.1C 81.7654 19.1 80.7987 18.8733 79.9588 18.42C 79.1321 17.9667 78.4921 17.3333 78.0387 16.52C 77.5854 15.6933 77.3588 14.7467 77.3588 13.68C 77.3588 12.6133 77.5854 11.6667 78.0387 10.84C 78.5054 10.0133 79.1521 9.37333 79.9788 8.92C 80.8054 8.45333 81.7454 8.22 82.7987 8.22ZM 85.5588 12.82C 85.5321 12.0333 85.2721 11.4067 84.7787 10.94C 84.2854 10.4733 83.6321 10.24 82.8188 10.24C 82.0587 10.24 81.4187 10.4733 80.8988 10.94C 80.3921 11.3933 80.0787 12.02 79.9588 12.82L 85.5588 12.82Z"/>
<path id="path2_stroke" d="M 3.80957 7.6299L 2.92874 8.10333L 2.92874 8.10333L 3.80957 7.6299ZM 0.0530406 0.640766L -0.827791 1.1142L -0.827791 1.1142L 0.0530406 0.640766ZM 0.62366 0.0373228L 1.01312 -0.88372L 1.01312 -0.88372L 0.62366 0.0373228ZM 18.113 7.43266L 18.5025 6.51161L 18.5025 6.51161L 18.113 7.43266ZM 3.80957 8.0361L 2.92874 7.56267L 2.92874 7.56267L 3.80957 8.0361ZM 0.0530406 15.0252L -0.827791 14.5518L -0.827791 14.5518L 0.0530406 15.0252ZM 0.62366 15.6287L 1.01312 16.5497L 1.01312 16.5497L 0.62366 15.6287ZM 18.113 8.23334L 18.5025 9.15439L 18.113 8.23334ZM 4.6904 7.15647L 0.933872 0.167336L -0.827791 1.1142L 2.92874 8.10333L 4.6904 7.15647ZM 0.234199 0.958366L 17.7235 8.3537L 18.5025 6.51161L 1.01312 -0.88372L 0.234199 0.958366ZM 2.92874 7.56267L -0.827791 14.5518L 0.933872 15.4987L 4.6904 8.50953L 2.92874 7.56267ZM 1.01312 16.5497L 18.5025 9.15439L 17.7235 7.3123L 0.234199 14.7076L 1.01312 16.5497ZM 2.92874 8.10333C 2.83818 7.93484 2.83818 7.73116 2.92874 7.56267L 4.6904 8.50953C 4.91762 8.08677 4.91762 7.57923 4.6904 7.15647L 2.92874 8.10333ZM 0.933872 0.167336C 1.22032 0.700277 0.648866 1.13371 0.234199 0.958366L 1.01312 -0.88372C -0.172859 -1.38521 -1.50553 -0.146767 -0.827791 1.1142L 0.933872 0.167336ZM 17.7235 8.3537C 17.2679 8.16102 17.2679 7.50498 17.7235 7.3123L 18.5025 9.15439C 19.6749 8.65863 19.6749 7.00737 18.5025 6.51161L 17.7235 8.3537ZM -0.827791 14.5518C -1.50553 15.8128 -0.172858 17.0512 1.01312 16.5497L 0.234199 14.7076C 0.648865 14.5323 1.22032 14.9657 0.933872 15.4987L -0.827791 14.5518Z"/>
<path id="path3_stroke" d="M 1.06066 -1.06066C 0.474874 -1.64645 -0.474874 -1.64645 -1.06066 -1.06066C -1.64645 -0.474874 -1.64645 0.474874 -1.06066 1.06066L 1.06066 -1.06066ZM 7 7L 5.93934 8.06066C 6.52513 8.64645 7.47487 8.64645 8.06066 8.06066L 7 7ZM 15.0607 1.06066C 15.6464 0.474874 15.6464 -0.474874 15.0607 -1.06066C 14.4749 -1.64645 13.5251 -1.64645 12.9393 -1.06066L 15.0607 1.06066ZM -1.06066 1.06066L 5.93934 8.06066L 8.06066 5.93934L 1.06066 -1.06066L -1.06066 1.06066ZM 8.06066 8.06066L 15.0607 1.06066L 12.9393 -1.06066L 5.93934 5.93934L 8.06066 8.06066Z"/>
</defs>
</svg>
