<svg width="48" height="48" viewBox="0 0 48 48" version="1.1" xmlns="http://www.w3.org/2000/svg" xmlns:xlink="http://www.w3.org/1999/xlink">
<title>brightness</title>
<desc>Created using Figma</desc>
<g id="Canvas" transform="translate(8102 -901)">
<rect x="-8102" y="901" width="48" height="48" fill="#777777"/>
<clipPath id="clip-0" clip-rule="evenodd">
<path d="M -8102 901L -8054 901L -8054 949L -8102 949L -8102 901Z" fill="#FFFFFF"/>
</clipPath>
<g id="brightness" clip-path="url(#clip-0)">
<g id="Union">
<use xlink:href="#path0_fill" transform="translate(-8092.5 910.5)" fill="#FFFFFF"/>
</g>
</g>
</g>
<defs>
<path id="path0_fill" fill-rule="evenodd" d="M 16 1.5C 16 0.671387 15.3284 0 14.5 0C 13.6716 0 13 0.671387 13 1.5L 13 5.5C 13 6.32861 13.6716 7 14.5 7C 15.3284 7 16 6.32861 16 5.5L 16 1.5ZM 6.36816 4.24707C 5.78247 3.66113 4.83276 3.66113 4.24707 4.24707C 3.66113 4.83252 3.66113 5.78271 4.24707 6.36816L 7.07544 9.19678C 7.66113 9.78271 8.61084 9.78271 9.19678 9.19678C 9.78247 8.61084 9.78247 7.66113 9.19678 7.0752L 6.36816 4.24707ZM 24.7532 6.36816C 25.3389 5.78271 25.3389 4.83252 24.7532 4.24707C 24.1672 3.66113 23.2175 3.66113 22.6318 4.24707L 19.8032 7.0752C 19.2175 7.66113 19.2175 8.61084 19.8032 9.19678C 20.3892 9.78271 21.3389 9.78271 21.9246 9.19678L 24.7532 6.36816ZM 1.5 13C 0.671631 13 0 13.6714 0 14.5C 0 15.3286 0.671631 16 1.5 16L 5.5 16C 6.32837 16 7 15.3286 7 14.5C 7 13.6714 6.32837 13 5.5 13L 1.5 13ZM 23.5 13C 22.6716 13 22 13.6714 22 14.5C 22 15.3286 22.6716 16 23.5 16L 27.5 16C 28.3284 16 29 15.3286 29 14.5C 29 13.6714 28.3284 13 27.5 13L 23.5 13ZM 9.19678 21.9248C 9.78247 21.3389 9.78247 20.3892 9.19678 19.8032C 8.61084 19.2173 7.66113 19.2173 7.07544 19.8032L 4.24707 22.6318C 3.66113 23.2173 3.66113 24.1675 4.24707 24.7529C 4.83276 25.3389 5.78247 25.3389 6.36816 24.7529L 9.19678 21.9248ZM 21.9246 19.8032C 21.3389 19.2173 20.3892 19.2173 19.8032 19.8032C 19.2175 20.3892 19.2175 21.3389 19.8032 21.9248L 22.6318 24.7529C 23.2175 25.3389 24.1672 25.3389 24.7532 24.7529C 25.3389 24.1675 25.3389 23.2173 24.7532 22.6318L 21.9246 19.8032ZM 16 23.5C 16 22.6714 15.3284 22 14.5 22C 13.6716 22 13 22.6714 13 23.5L 13 27.5C 13 28.3286 13.6716 29 14.5 29C 15.3284 29 16 28.3286 16 27.5L 16 23.5ZM 17.5 14.5C 17.5 16.1567 16.1567 17.5 14.5 17.5C 12.8433 17.5 11.5 16.1567 11.5 14.5C 11.5 12.8433 12.8433 11.5 14.5 11.5C 16.1567 11.5 17.5 12.8433 17.5 14.5ZM 20.5 14.5C 20.5 17.8135 17.8137 20.5 14.5 20.5C 11.1863 20.5 8.5 17.8135 8.5 14.5C 8.5 11.1865 11.1863 8.5 14.5 8.5C 17.8137 8.5 20.5 11.1865 20.5 14.5Z"/>
</defs>
</svg>
