<svg width="48" height="48" viewBox="0 0 48 48" version="1.1" xmlns="http://www.w3.org/2000/svg" xmlns:xlink="http://www.w3.org/1999/xlink">
<title>Cruise Setting</title>
<desc>Created using Figma</desc>
<g id="Canvas" transform="translate(8174 -685)">
<clipPath id="clip-0" clip-rule="evenodd">
<path d="M -8174 685L -8126 685L -8126 733L -8174 733L -8174 685Z" fill="#FFFFFF"/>
</clipPath>
<g id="Cruise Setting" clip-path="url(#clip-0)">
<g id="Ellipse 2">
<mask id="mask0_outline_ins">
<use xlink:href="#path0_fill" fill="white" transform="translate(-8174 685)"/>
</mask>
<g mask="url(#mask0_outline_ins)">
<use xlink:href="#path1_stroke_2x" transform="translate(-8174 685)" fill="#FFFFFF" fill-opacity="0.5"/>
</g>
</g>
<g id="30">
<use xlink:href="#path2_fill" transform="translate(-8174 697)" fill="#FFFFFF" fill-opacity="0.5"/>
</g>
</g>
</g>
<defs>
<path id="path0_fill" d="M 48 24C 48 37.2548 37.2548 48 24 48C 10.7452 48 0 37.2548 0 24C 0 10.7452 10.7452 0 24 0C 37.2548 0 48 10.7452 48 24Z"/>
<path id="path1_stroke_2x" d="M 44 24C 44 35.0457 35.0457 44 24 44L 24 52C 39.464 52 52 39.464 52 24L 44 24ZM 24 44C 12.9543 44 4 35.0457 4 24L -4 24C -4 39.464 8.53603 52 24 52L 24 44ZM 4 24C 4 12.9543 12.9543 4 24 4L 24 -4C 8.53603 -4 -4 8.53603 -4 24L 4 24ZM 24 4C 35.0457 4 44 12.9543 44 24L 52 24C 52 8.53603 39.464 -4 24 -4L 24 4Z"/>
<path id="path2_fill" d="M 15.5378 10.984C 17.2838 11.146 18.6698 11.677 19.6958 12.577C 20.7398 13.477 21.2618 14.656 21.2618 16.114C 21.2618 17.302 20.9558 18.355 20.3438 19.273C 19.7318 20.173 18.8588 20.884 17.7248 21.406C 16.5908 21.91 15.2678 22.162 13.7558 22.162C 12.4778 22.162 11.2088 21.973 9.94882 21.595C 8.70682 21.199 7.64482 20.677 6.76282 20.029L 8.19382 17.221C 8.94982 17.851 9.78682 18.337 10.7048 18.679C 11.6228 19.003 12.5588 19.165 13.5128 19.165C 14.8268 19.165 15.8528 18.895 16.5908 18.355C 17.3468 17.815 17.7248 17.086 17.7248 16.168C 17.7248 15.232 17.3558 14.521 16.6178 14.035C 15.8798 13.531 14.8268 13.279 13.4588 13.279L 10.5968 13.279L 10.5968 11.092L 15.6728 6.178L 7.70782 6.178L 7.68082 3.1L 20.3168 3.1L 20.3168 5.341L 14.5388 10.876L 15.5378 10.984ZM 32.0287 2.938C 34.6387 2.938 36.6457 3.766 38.0497 5.422C 39.4537 7.078 40.1557 9.454 40.1557 12.55C 40.1557 15.628 39.4537 17.995 38.0497 19.651C 36.6457 21.307 34.6387 22.135 32.0287 22.135C 29.4187 22.135 27.4117 21.307 26.0077 19.651C 24.6037 17.995 23.9017 15.628 23.9017 12.55C 23.9017 9.454 24.6037 7.078 26.0077 5.422C 27.4117 3.766 29.4187 2.938 32.0287 2.938ZM 32.0287 5.8C 30.5347 5.8 29.4277 6.349 28.7077 7.447C 27.9877 8.527 27.6277 10.228 27.6277 12.55C 27.6277 14.854 27.9877 16.555 28.7077 17.653C 29.4277 18.751 30.5347 19.3 32.0287 19.3C 33.5227 19.3 34.6297 18.751 35.3497 17.653C 36.0697 16.555 36.4297 14.854 36.4297 12.55C 36.4297 10.228 36.0697 8.527 35.3497 7.447C 34.6297 6.349 33.5227 5.8 32.0287 5.8Z"/>
</defs>
</svg>
