<svg width="48" height="48" viewBox="0 0 48 48" version="1.1" xmlns="http://www.w3.org/2000/svg" xmlns:xlink="http://www.w3.org/1999/xlink">
<title>defrost</title>
<desc>Created using Figma</desc>
<g id="Canvas" transform="translate(8030 -757)">
<clipPath id="clip-0" clip-rule="evenodd">
<path d="M -8030 757L -7982 757L -7982 805L -8030 805L -8030 757Z" fill="#FFFFFF"/>
</clipPath>
<g id="defrost" clip-path="url(#clip-0)" filter="url(#filter0_d)">
<g id="Union">
<use xlink:href="#path0_fill" transform="translate(-8026 765)" fill="#007BE4"/>
</g>
</g>
</g>
<defs>
<filter id="filter0_d" filterUnits="userSpaceOnUse" x="-8036" y="751" width="60" height="60" color-interpolation-filters="sRGB">
<feFlood flood-opacity="0" result="BackgroundImageFix"/>
<feColorMatrix in="SourceAlpha" type="matrix" values="0 0 0 0 0 0 0 0 0 0 0 0 0 0 0 0 0 0 255 0"/>
<feOffset dx="0" dy="0"/>
<feGaussianBlur stdDeviation="3"/>
<feColorMatrix type="matrix" values="0 0 0 0 0.392157 0 0 0 0 0.823529 0 0 0 0 1 0 0 0 1 0"/>
<feBlend mode="normal" in2="BackgroundImageFix" result="effect1_dropShadow"/>
<feBlend mode="normal" in="SourceGraphic" in2="effect1_dropShadow" result="shape"/>
</filter>
<path id="path0_fill" fill-rule="evenodd" d="M 5.03955 6.27704L 2.64697 7.73236L 9.52393 21.8044L 10.4146 21.8044L 10.4146 20.3847C 10.4243 19.7036 10.6104 19.0129 10.811 18.468C 10.8745 18.2968 10.9424 18.1266 11.0098 17.9589L 11.0317 17.904L 11.0352 17.8962L 11.0469 17.8671L 11.0557 17.8452C 11.1523 17.6071 11.2466 17.3749 11.3242 17.1537L 9.59717 17.1537L 12.4346 11.3474L 15.272 17.1537L 13.4126 17.1537C 13.3247 17.6625 13.1284 18.1391 12.9326 18.6144L 12.9175 18.6513C 12.8428 18.8329 12.7686 19.0148 12.7007 19.1984C 12.5269 19.6672 12.4248 19.9943 12.4346 20.3832L 12.4346 21.8044L 18.4946 21.8044L 18.4946 20.4059C 18.5044 19.7248 18.6904 19.0341 18.8911 18.4892C 18.9546 18.3181 19.0225 18.1479 19.0898 17.9802L 19.1118 17.9252L 19.1152 17.9174L 19.127 17.8884L 19.1357 17.8664C 19.2324 17.6284 19.3267 17.3962 19.4043 17.175L 17.6772 17.175L 20.5146 11.3686L 23.3521 17.175L 21.4927 17.175C 21.4048 17.6838 21.2085 18.1603 21.0127 18.6357L 20.9976 18.6725C 20.9229 18.8542 20.8486 19.0361 20.7808 19.2197C 20.6069 19.6884 20.5049 20.0156 20.5146 20.4045L 20.5146 21.8044L 26.0703 21.8044L 26.0703 20.3847C 26.0801 19.7036 26.2661 19.0129 26.4668 18.468C 26.5371 18.2783 26.6133 18.0895 26.6875 17.904L 26.6909 17.8962L 26.7026 17.8671L 26.7114 17.8452C 26.8081 17.6071 26.9023 17.3749 26.98 17.1537L 25.2529 17.1537L 28.0903 11.3474L 30.9277 17.1537L 29.0684 17.1537C 28.9805 17.6625 28.7842 18.1391 28.5884 18.6144L 28.5732 18.6513C 28.4985 18.8329 28.4243 19.0148 28.3564 19.1984C 28.1826 19.6672 28.0806 19.9943 28.0903 20.3832L 28.0903 21.8044L 30.9839 21.8044L 37.396 7.74554L 34.9819 6.27704C 25.7549 0.663757 14.2666 0.663757 5.03955 6.27704ZM 36.0146 4.50018L 39.2144 6.44696L 40 6.92474L 39.6133 7.7724L 32.5425 23.2748L 32.2705 23.8713L 31.627 23.8713L 30.1787 23.8713C 30.4238 24.6037 30.6167 25.4965 30.6167 26.4555C 30.6152 27.5405 30.4697 28.989 30.0645 30.3193C 29.6484 31.6674 28.9243 33.0505 27.687 33.9999L 26.4751 32.3464C 27.2578 31.7455 27.7969 30.8034 28.1382 29.697C 28.4907 28.5727 28.5977 27.4374 28.5962 26.4555C 28.5962 25.413 28.2729 24.455 28.0024 23.8713L 22.0981 23.8713C 22.3433 24.6037 22.5361 25.4965 22.5361 26.4555C 22.5347 27.5405 22.3892 28.989 21.9839 30.3193C 21.5679 31.6674 20.8438 33.0505 19.6064 33.9999L 18.3945 32.3464C 19.1772 31.7455 19.7163 30.8034 20.0576 29.697C 20.4102 28.5727 20.5171 27.4374 20.5156 26.4555C 20.5156 25.413 20.1924 24.455 19.9219 23.8713L 13.5117 23.8713C 13.7568 24.6037 13.9497 25.4965 13.9497 26.4555C 13.9482 27.5405 13.8027 28.989 13.3975 30.3193C 12.9814 31.6674 12.2573 33.0505 11.02 33.9999L 9.80811 32.3464C 10.5908 31.7455 11.1299 30.8034 11.4712 29.697C 11.8237 28.5727 11.9307 27.4374 11.9292 26.4555C 11.9292 25.413 11.606 24.455 11.3354 23.8713L 8.89941 23.8713L 8.2749 23.8713L 7.99609 23.3L 0.419922 7.7973L 0 6.93793L 0.807129 6.44696L 3.83496 4.60492L 4.00684 4.50018C 13.8701 -1.50006 26.1514 -1.50006 36.0146 4.50018Z"/>
</defs>
</svg>
