<svg width="48" height="48" viewBox="0 0 48 48" version="1.1" xmlns="http://www.w3.org/2000/svg" xmlns:xlink="http://www.w3.org/1999/xlink">
<title>heart</title>
<desc>Created using Figma</desc>
<g id="Canvas" transform="translate(7814 -541)">
<rect x="-7814" y="541" width="48" height="48" fill="#777777"/>
<clipPath id="clip-0" clip-rule="evenodd">
<path d="M -7814 541L -7766 541L -7766 589L -7814 589L -7814 541Z" fill="#FFFFFF"/>
</clipPath>
<g id="heart" clip-path="url(#clip-0)">
<g id="Vector 39">
<use xlink:href="#path0_stroke" transform="translate(-7799 557)" fill="#FFFFFF" fill-opacity="0.4"/>
</g>
</g>
</g>
<defs>
<path id="path0_stroke" d="M 9 3.60886L 7.90154 4.63032L 8.99998 5.81157L 10.0984 4.63033L 9 3.60886ZM 6.75229 1.1917L 5.65383 2.21316L 6.75229 1.1917ZM 1.16045 7.29072L 2.27531 6.28718L 1.16045 7.29072ZM 9 15.9999L 7.88514 17.0035L 9 18.242L 10.1149 17.0035L 9 15.9999ZM 1.36344 1.06634L 0.314851 -0.00625268L 1.36344 1.06634ZM 11.2477 1.19179L 10.1492 0.170315L 11.2477 1.19179ZM 16.8395 7.29079L 17.9544 8.29433L 16.8395 7.29079ZM 16.6366 1.06641L 15.588 2.139L 16.6366 1.06641ZM 6.75229 1.1917L 5.65383 2.21316L 6.75229 1.1917ZM 1.16045 7.29072L 2.27531 6.28718L 1.16045 7.29072ZM 1.36344 1.06634L 0.314851 -0.00625243L 1.36344 1.06634ZM 11.2477 1.19175L 10.1493 0.170282L 11.2477 1.19175ZM 16.8396 7.29078L 15.7247 6.28724L 16.8396 7.29078ZM 16.6366 1.06641L 15.588 2.139L 16.6366 1.06641ZM 10.0985 2.5874L 7.85075 0.170244L 5.65383 2.21316L 7.90154 4.63032L 10.0985 2.5874ZM 0.0455892 8.29425L 7.88514 17.0035L 10.1149 14.9964L 2.27531 6.28718L 0.0455892 8.29425ZM 7.85075 0.170244C 5.84526 -1.98643 2.42009 -2.06438 0.314851 -0.00625268L 2.41203 2.13894C 3.31379 1.25736 4.79875 1.29363 5.65383 2.21316L 7.85075 0.170244ZM 0.314851 -0.00625243C -1.99547 2.25237 -2.11621 5.89264 0.045589 8.29425L 2.27531 6.28718C 1.1924 5.08414 1.24936 3.27559 2.41203 2.13894L 0.314851 -0.00625243ZM 10.0984 4.63033L 12.3461 2.21327L 10.1492 0.170315L 7.90155 2.58738L 10.0984 4.63033ZM 15.7247 6.28725L 7.88514 14.9964L 10.1149 17.0035L 17.9544 8.29433L 15.7247 6.28725ZM 12.3462 2.21322C 13.2013 1.2937 14.6862 1.25743 15.588 2.139L 17.6852 -0.00618587C 15.5799 -2.06431 12.1548 -1.98637 10.1493 0.170282L 12.3462 2.21322ZM 15.588 2.139C 16.7506 3.27565 16.8076 5.0842 15.7247 6.28724L 17.9544 8.29431C 20.1162 5.89269 19.9955 2.25243 17.6852 -0.00618562L 15.588 2.139ZM 7.85075 0.170244C 7.85075 0.170244 7.85075 0.170244 7.85075 0.170244L 5.65383 2.21316L 7.85075 0.170244ZM 2.27531 6.28718L 2.27531 6.28718L 0.045589 8.29425C 0.0455891 8.29425 0.0455892 8.29425 0.0455892 8.29425L 2.27531 6.28718ZM 0.314851 -0.00625268C 0.314851 -0.00625259 0.314851 -0.0062525 0.314851 -0.00625243L 2.41203 2.13894C 2.41203 2.13894 2.41203 2.13894 2.41203 2.13894L 0.314851 -0.00625268ZM 12.3461 2.21327C 12.3462 2.21325 12.3462 2.21323 12.3462 2.21322L 10.1493 0.170282C 10.1493 0.170297 10.1493 0.170307 10.1492 0.170315L 12.3461 2.21327ZM 17.9544 8.29433C 17.9544 8.29432 17.9544 8.29432 17.9544 8.29431L 15.7247 6.28724C 15.7247 6.28724 15.7247 6.28725 15.7247 6.28725L 17.9544 8.29433ZM 15.588 2.139C 15.588 2.139 15.588 2.139 15.588 2.139L 17.6852 -0.00618561C 17.6852 -0.00618569 17.6852 -0.00618578 17.6852 -0.00618587L 15.588 2.139Z"/>
</defs>
</svg>
