<svg width="1920" height="128" viewBox="0 0 1920 128" version="1.1" xmlns="http://www.w3.org/2000/svg" xmlns:xlink="http://www.w3.org/1999/xlink">
<title>main control bar</title>
<desc>Created using Figma</desc>
<g id="Canvas" transform="translate(8190 -3189)">
<g id="main control bar">
<g id="Background">
<use xlink:href="#path0_fill" transform="translate(-8190 3189)"/>
</g>
<g id="Volume">
<clipPath id="clip-0" clip-rule="evenodd">
<path d="M -6430 3231L -6480 3231L -6480 3201L -6430 3201L -6430 3231Z" fill="#FFFFFF"/>
</clipPath>
<g id="arrow" clip-path="url(#clip-0)">
<g id="Vector 37">
<use xlink:href="#path1_stroke" transform="matrix(-1 -1.22465e-16 1.22465e-16 -1 -6448 3219.5)" fill="#FFFFFF"/>
</g>
</g>
<clipPath id="clip-1" clip-rule="evenodd">
<path d="M -6480 3283L -6430 3283L -6430 3313L -6480 3313L -6480 3283Z" fill="#FFFFFF"/>
</clipPath>
<g id="arrow" clip-path="url(#clip-1)">
<g id="Vector 37">
<use xlink:href="#path1_stroke" transform="translate(-6462 3294.5)" fill="#FFFFFF"/>
</g>
</g>
<clipPath id="clip-2" clip-rule="evenodd">
<path d="M -6480 3232L -6432 3232L -6432 3280L -6480 3280L -6480 3232Z" fill="#FFFFFF"/>
</clipPath>
<g id="volume" clip-path="url(#clip-2)">
<g id="Union">
<use xlink:href="#path2_fill" transform="translate(-6480 3244)" fill="#FFFFFF"/>
</g>
<g id="Ellipse 9 (Stroke)">
<use xlink:href="#path3_fill" transform="translate(-6457 3245)" fill="#FFFFFF"/>
</g>
<g id="Ellipse 9 (Stroke)">
<use xlink:href="#path4_fill" transform="translate(-6450 3241)" fill="#FFFFFF"/>
</g>
<g id="Ellipse 9 (Stroke)">
<use xlink:href="#path5_fill" transform="translate(-6441.75 3235)" fill="#FFFFFF" fill-opacity="0.4"/>
</g>
</g>
</g>
<clipPath id="clip-3" clip-rule="evenodd">
<path d="M -6630 3232L -6582 3232L -6582 3280L -6630 3280L -6630 3232Z" fill="#FFFFFF"/>
</clipPath>
<g id="phone" clip-path="url(#clip-3)">
<g id="Subtract">
<use xlink:href="#path6_fill" transform="translate(-6619 3236)" fill="#FFFFFF"/>
</g>
</g>
<clipPath id="clip-4" clip-rule="evenodd">
<path d="M -6780 3232L -6732 3232L -6732 3280L -6780 3280L -6780 3232Z" fill="#FFFFFF"/>
</clipPath>
<g id="music" clip-path="url(#clip-4)">
<g id="Union">
<use xlink:href="#path7_fill" transform="translate(-6773 3235.5)" fill="#FFFFFF"/>
</g>
</g>
<clipPath id="clip-5" clip-rule="evenodd">
<path d="M -6880 3232L -6928 3232L -6928 3280L -6880 3280L -6880 3232Z" fill="#FFFFFF"/>
</clipPath>
<g id="seat" clip-path="url(#clip-5)">
<g id="Vector 36">
<use xlink:href="#path8_fill" transform="matrix(-1 0 0 1 -6889.8 3238)" fill="#FFFFFF"/>
<use xlink:href="#path9_fill" transform="matrix(-1 0 0 1 -6889.8 3238)" fill="#FFFFFF"/>
</g>
</g>
<g id="Passenger Temp">
<clipPath id="clip-6" clip-rule="evenodd">
<path d="M -7055 3227L -7105 3227L -7105 3197L -7055 3197L -7055 3227Z" fill="#FFFFFF"/>
</clipPath>
<g id="arrow" clip-path="url(#clip-6)">
<g id="Vector 37">
<use xlink:href="#path1_stroke" transform="matrix(-1 -1.22465e-16 1.22465e-16 -1 -7073 3215.5)" fill="#FFFFFF"/>
</g>
</g>
<clipPath id="clip-7" clip-rule="evenodd">
<path d="M -7105 3283L -7055 3283L -7055 3313L -7105 3313L -7105 3283Z" fill="#FFFFFF"/>
</clipPath>
<g id="arrow" clip-path="url(#clip-7)">
<g id="Vector 37">
<use xlink:href="#path1_stroke" transform="translate(-7087 3294.5)" fill="#FFFFFF"/>
</g>
</g>
<g id="20&#194;&#186;">
<use xlink:href="#path10_fill" transform="translate(-7155 3227)" fill="#FFFFFF"/>
<use xlink:href="#path11_fill" transform="translate(-7155 3227)" fill="#FFFFFF" fill-opacity="0.4"/>
</g>
</g>
<g id="Fan Level">
<clipPath id="clip-8" clip-rule="evenodd">
<path d="M -7255 3220L -7207 3220L -7207 3268L -7255 3268L -7255 3220Z" fill="#FFFFFF"/>
</clipPath>
<g id="fan" clip-path="url(#clip-8)">
<g id="Vector 38">
<use xlink:href="#path12_fill" transform="translate(-7252 3223)" fill="#FFFBFB"/>
</g>
</g>
<g id="Remaining distance">
<use xlink:href="#path13_fill" transform="translate(-7280 3270)" fill="#FFFFFF"/>
</g>
</g>
<g id="Driver Temp">
<clipPath id="clip-9" clip-rule="evenodd">
<path d="M -7355 3227L -7405 3227L -7405 3197L -7355 3197L -7355 3227Z" fill="#FFFFFF"/>
</clipPath>
<g id="arrow" clip-path="url(#clip-9)">
<g id="Vector 37">
<use xlink:href="#path1_stroke" transform="matrix(-1 -1.22465e-16 1.22465e-16 -1 -7373 3215.5)" fill="#FFFFFF"/>
</g>
</g>
<clipPath id="clip-10" clip-rule="evenodd">
<path d="M -7405 3283L -7355 3283L -7355 3313L -7405 3313L -7405 3283Z" fill="#FFFFFF"/>
</clipPath>
<g id="arrow" clip-path="url(#clip-10)">
<g id="Vector 37">
<use xlink:href="#path1_stroke" transform="translate(-7387 3294.5)" fill="#FFFFFF"/>
</g>
</g>
<g id="20&#194;&#186;">
<use xlink:href="#path14_fill" transform="translate(-7455 3227)" fill="#FFFFFF"/>
<use xlink:href="#path15_fill" transform="translate(-7455 3227)" fill="#FFFFFF" fill-opacity="0.4"/>
</g>
</g>
<clipPath id="clip-11" clip-rule="evenodd">
<path d="M -7580 3232L -7532 3232L -7532 3280L -7580 3280L -7580 3232Z" fill="#FFFFFF"/>
</clipPath>
<g id="seat" clip-path="url(#clip-11)">
<g id="Vector 36">
<use xlink:href="#path8_fill" transform="translate(-7570.2 3238)" fill="#FFFFFF"/>
<use xlink:href="#path9_fill" transform="translate(-7570.2 3238)" fill="#FFFFFF"/>
</g>
</g>
<clipPath id="clip-12" clip-rule="evenodd">
<path d="M -7730 3232L -7682 3232L -7682 3280L -7730 3280L -7730 3232Z" fill="#FFFFFF"/>
</clipPath>
<g id="heater" clip-path="url(#clip-12)" filter="url(#filter0_d)">
<g id="Union" filter="url(#filter1_d)">
<use xlink:href="#path16_fill" transform="translate(-7724 3240)" fill="#D0021B"/>
</g>
</g>
<clipPath id="clip-13" clip-rule="evenodd">
<path d="M -7880 3232L -7830 3232L -7830 3282L -7880 3282L -7880 3232Z" fill="#FFFFFF"/>
</clipPath>
<g id="defrost" clip-path="url(#clip-13)" filter="url(#filter2_d)">
<g id="Union">
<use xlink:href="#path17_fill" transform="translate(-7876 3240)" fill="#007BE4"/>
</g>
</g>
<clipPath id="clip-14" clip-rule="evenodd">
<path d="M -8030 3232L -7982 3232L -7982 3280L -8030 3280L -8030 3232Z" fill="#FFFFFF"/>
</clipPath>
<g id="model3-icon" clip-path="url(#clip-14)">
<g id="tesla">
<use xlink:href="#path18_fill" transform="translate(-8029 3239)" fill="#FFFFFF"/>
</g>
</g>
</g>
</g>
<defs>
<filter id="filter0_d" filterUnits="userSpaceOnUse" x="-7736" y="3226" width="60" height="60" color-interpolation-filters="sRGB">
<feFlood flood-opacity="0" result="BackgroundImageFix"/>
<feColorMatrix in="SourceAlpha" type="matrix" values="0 0 0 0 0 0 0 0 0 0 0 0 0 0 0 0 0 0 255 0"/>
<feOffset dx="0" dy="0"/>
<feGaussianBlur stdDeviation="3"/>
<feColorMatrix type="matrix" values="0 0 0 0 0.815686 0 0 0 0 0.00784314 0 0 0 0 0.105882 0 0 0 0.5 0"/>
<feBlend mode="normal" in2="BackgroundImageFix" result="effect1_dropShadow"/>
<feBlend mode="normal" in="SourceGraphic" in2="effect1_dropShadow" result="shape"/>
</filter>
<filter id="filter1_d" filterUnits="userSpaceOnUse" x="-7730" y="3234" width="48" height="44" color-interpolation-filters="sRGB">
<feFlood flood-opacity="0" result="BackgroundImageFix"/>
<feColorMatrix in="SourceAlpha" type="matrix" values="0 0 0 0 0 0 0 0 0 0 0 0 0 0 0 0 0 0 255 0"/>
<feOffset dx="0" dy="0"/>
<feGaussianBlur stdDeviation="3"/>
<feColorMatrix type="matrix" values="0 0 0 0 0.815686 0 0 0 0 0.00784314 0 0 0 0 0.105882 0 0 0 1 0"/>
<feBlend mode="normal" in2="BackgroundImageFix" result="effect1_dropShadow"/>
<feBlend mode="normal" in="SourceGraphic" in2="effect1_dropShadow" result="shape"/>
</filter>
<filter id="filter2_d" filterUnits="userSpaceOnUse" x="-7886" y="3226" width="62" height="62" color-interpolation-filters="sRGB">
<feFlood flood-opacity="0" result="BackgroundImageFix"/>
<feColorMatrix in="SourceAlpha" type="matrix" values="0 0 0 0 0 0 0 0 0 0 0 0 0 0 0 0 0 0 255 0"/>
<feOffset dx="0" dy="0"/>
<feGaussianBlur stdDeviation="3"/>
<feColorMatrix type="matrix" values="0 0 0 0 0.392157 0 0 0 0 0.823529 0 0 0 0 1 0 0 0 1 0"/>
<feBlend mode="normal" in2="BackgroundImageFix" result="effect1_dropShadow"/>
<feBlend mode="normal" in="SourceGraphic" in2="effect1_dropShadow" result="shape"/>
</filter>
<path id="path0_fill" d="M 1920 128L 1920 0C 1920 4.41828 1916.42 8 1912 8L 8 8C 3.58172 8 0 4.41828 0 0L 0 128L 1920 128Z"/>
<path id="path1_stroke" d="M 1.06066 -1.06066C 0.474874 -1.64645 -0.474874 -1.64645 -1.06066 -1.06066C -1.64645 -0.474874 -1.64645 0.474874 -1.06066 1.06066L 1.06066 -1.06066ZM 7 7L 5.93934 8.06066C 6.52513 8.64645 7.47487 8.64645 8.06066 8.06066L 7 7ZM 15.0607 1.06066C 15.6464 0.474874 15.6464 -0.474874 15.0607 -1.06066C 14.4749 -1.64645 13.5251 -1.64645 12.9393 -1.06066L 15.0607 1.06066ZM -1.06066 1.06066L 5.93934 8.06066L 8.06066 5.93934L 1.06066 -1.06066L -1.06066 1.06066ZM 8.06066 8.06066L 15.0607 1.06066L 12.9393 -1.06066L 5.93934 5.93934L 8.06066 8.06066Z"/>
<path id="path2_fill" fill-rule="evenodd" d="M 14.6826 0.499021L 7 7.22363L 2 7.22363C 0.895508 7.22363 0 8.11914 0 9.22363L 0 16.7778C 0 17.8823 0.895508 18.7778 2 18.7778L 7 18.7778L 14.6826 25.5024C 15.9756 26.6343 18 25.7158 18 23.9976L 18 2.0039C 18 0.285154 15.9756 -0.632815 14.6826 0.499021Z"/>
<path id="path3_fill" fill-rule="evenodd" d="M 0.212219 0.384145C 0.552371 -0.0509585 1.18084 -0.127933 1.61594 0.212219C 4.89147 2.77293 7.00004 6.76435 7.00004 11.2477C 7.00004 15.4802 5.12061 19.2749 2.15421 21.8405C 1.73649 22.2018 1.10498 22.1561 0.743694 21.7383C 0.382408 21.3206 0.428157 20.6891 0.845878 20.3278C 3.39174 18.1259 5.00004 14.8752 5.00004 11.2477C 5.00004 7.40581 3.19569 3.98586 0.384145 1.78787C -0.0509585 1.44772 -0.127933 0.819249 0.212219 0.384145Z"/>
<path id="path4_fill" fill-rule="evenodd" d="M 0.3001 0.285759C 0.694565 -0.100785 1.3277 -0.094364 1.71424 0.3001C 5.60154 4.26705 8 9.7029 8 15.6969C 7.98038 21.3544 5.75855 26.6695 2.2379 30.5407C 1.86516 30.9482 1.23263 30.9764 0.825095 30.6037C 0.417562 30.2309 0.389356 29.5984 0.762096 29.1909C 4.07346 25.5923 6.01962 20.9602 6 15.6969C 6 10.2472 3.82158 5.30817 0.285759 1.6999C -0.100785 1.30544 -0.094364 0.672303 0.3001 0.285759Z"/>
<path id="path5_fill" fill-rule="evenodd" d="M 0.338443 0.250128C 0.752593 -0.115247 1.38452 -0.0757064 1.7499 0.338443C 6.67055 5.93725 9.72681 13.4482 9.74548 21.5C 9.72871 29.1281 6.98512 36.2808 2.51928 41.7563C 2.16945 42.1837 1.53941 42.2465 1.11205 41.8967C 0.68469 41.5469 0.621842 40.9168 0.971675 40.4895C 5.25586 35.2759 7.76225 28.7634 7.74548 21.5C 7.76414 13.8328 4.97071 6.99107 0.250128 1.66158C -0.115247 1.24743 -0.0757064 0.615502 0.338443 0.250128Z"/>
<path id="path6_fill" fill-rule="evenodd" d="M 6 0C 2.68628 0 0 2.68652 0 6L 0 34C 0 37.3135 2.68628 40 6 40L 20 40C 23.3137 40 26 37.3135 26 34L 26 6C 26 2.68652 23.3137 0 20 0L 6 0ZM 16 2L 10 2C 10 2.55225 10.4478 3 11 3L 15 3C 15.5522 3 16 2.55225 16 2ZM 13 39C 13.8284 39 14.5 38.3286 14.5 37.5C 14.5 36.6714 13.8284 36 13 36C 12.1716 36 11.5 36.6714 11.5 37.5C 11.5 38.3286 12.1716 39 13 39ZM 3 7C 3 5.89551 3.89539 5 5 5L 21 5C 22.1046 5 23 5.89551 23 7L 23 33C 23 34.1045 22.1046 35 21 35L 5 35C 3.89539 35 3 34.1045 3 33L 3 7Z"/>
<path id="path7_fill" fill-rule="evenodd" d="M 32 0L 8 6L 8 14L 8 31.9995C 7.16431 31.3716 6.12561 31 5 31C 2.23853 31 0 33.2388 0 36C 0 38.7612 2.23853 41 5 41C 7.76147 41 10 38.7612 10 36L 10 13.5L 30 8.5L 30 26.9995C 29.1643 26.3716 28.1256 26 27 26C 24.2385 26 22 28.2388 22 31C 22 33.7612 24.2385 36 27 36C 29.7615 36 32 33.7612 32 31L 32 8L 32 1L 32 0Z"/>
<path id="path8_fill" d="M 3.83807 1.13186e-32L 3.83807 0L 5.14071 0L 5.14071 5.55292e-33C 5.49926 3.24739e-17 5.84312 0.142432 6.09665 0.395963C 6.09665 0.395964 6.09665 0.395965 6.09665 0.395965C 7.02438 1.32369 7.1522 2.78355 6.39982 3.85838C 6.39982 3.85839 6.39982 3.85839 6.39982 3.85839L 6.16549 4.19314C 6.16549 4.19314 6.16549 4.19314 6.16549 4.19314C 4.96003 5.91522 4.82381 8.16836 5.81302 10.0231C 5.81302 10.0231 5.81302 10.0231 5.81302 10.0231L 9.45302 16.8481C 9.45302 16.8481 9.45302 16.8481 9.45302 16.8481C 11.1243 19.9819 10.7965 23.8054 8.61601 26.6089L 5.83894 30.1794C 5.58162 30.5102 5.05589 30.3967 4.95807 29.9891L 0.384082 10.9308C 0.384082 10.9308 0.384082 10.9308 0.384082 10.9308C -0.380241 7.74612 0.00375343 4.39387 1.46843 1.46452C 1.46843 1.46452 1.46843 1.46452 1.46843 1.46452C 1.91721 0.566965 2.83457 9.25004e-17 3.83807 1.13186e-32Z"/>
<path id="path9_fill" d="M 15.4439 28L 24.2007 28C 26.4098 28 28.2007 29.7909 28.2007 32L 28.2007 33C 28.2007 35.2091 26.4098 37 24.2007 37L 13.1002 37C 11.2437 37 9.46319 36.2625 8.15044 34.9498C 8.15044 34.9497 8.15044 34.9497 8.15043 34.9497L 7.0354 33.8347C 7.0354 33.8347 7.0354 33.8347 7.0354 33.8347C 6.59845 33.3978 6.65843 32.673 7.16127 32.3139C 7.16127 32.3139 7.16127 32.3139 7.16127 32.3139L 11.3753 29.3039C 12.5625 28.4559 13.985 28 15.4439 28Z"/>
<path id="path10_fill" d="M 59.5625 42.9L 59.5625 46L 34.7625 46L 34.7625 43.15L 48.5625 28.75C 50.1625 27.0833 51.4292 25.4667 52.3625 23.9C 53.2958 22.3 53.7625 20.9167 53.7625 19.75C 53.7625 17.9167 53.0792 16.4833 51.7125 15.45C 50.3458 14.4167 48.4458 13.9 46.0125 13.9C 44.3458 13.9 42.6292 14.2833 40.8625 15.05C 39.0958 15.7833 37.4958 16.8167 36.0625 18.15L 34.5125 15.6C 36.2125 14.1 38.0958 12.9333 40.1625 12.1C 42.2625 11.2667 44.3458 10.85 46.4125 10.85C 49.7458 10.85 52.3958 11.6167 54.3625 13.15C 56.3625 14.6833 57.3625 16.7333 57.3625 19.3C 57.3625 20.8667 56.7792 22.6333 55.6125 24.6C 54.4792 26.5333 52.9125 28.55 50.9125 30.65L 39.1125 42.9L 59.5625 42.9ZM 79.8781 10.85C 84.5115 10.85 88.0615 12.3833 90.5281 15.45C 92.9948 18.4833 94.2281 22.8333 94.2281 28.5C 94.2281 34.1667 92.9948 38.5333 90.5281 41.6C 88.0615 44.6667 84.5115 46.2 79.8781 46.2C 75.2781 46.2 71.7281 44.6667 69.2281 41.6C 66.7615 38.5333 65.5281 34.1667 65.5281 28.5C 65.5281 22.8333 66.7615 18.4833 69.2281 15.45C 71.7281 12.3833 75.2781 10.85 79.8781 10.85ZM 79.8781 13.6C 76.3448 13.6 73.6615 14.8667 71.8281 17.4C 69.9948 19.9 69.0781 23.6 69.0781 28.5C 69.0781 33.4 69.9948 37.1167 71.8281 39.65C 73.6615 42.15 76.3448 43.4 79.8781 43.4C 83.4115 43.4 86.0948 42.15 87.9281 39.65C 89.7948 37.1167 90.7281 33.4 90.7281 28.5C 90.7281 23.6 89.7948 19.9 87.9281 17.4C 86.0948 14.8667 83.4115 13.6 79.8781 13.6Z"/>
<path id="path11_fill" d="M 107.12 7.6C 109.487 7.6 111.437 8.33333 112.97 9.8C 114.504 11.2333 115.27 13.1 115.27 15.4C 115.27 17.7 114.504 19.5667 112.97 21C 111.47 22.4333 109.52 23.15 107.12 23.15C 104.687 23.15 102.704 22.4333 101.17 21C 99.6703 19.5667 98.9203 17.7 98.9203 15.4C 98.9203 13.1 99.6703 11.2333 101.17 9.8C 102.704 8.33333 104.687 7.6 107.12 7.6ZM 107.12 9.7C 105.454 9.7 104.087 10.2333 103.02 11.3C 101.987 12.3333 101.47 13.7 101.47 15.4C 101.47 17.1 101.987 18.4833 103.02 19.55C 104.087 20.6167 105.454 21.15 107.12 21.15C 108.754 21.15 110.087 20.6167 111.12 19.55C 112.154 18.4833 112.67 17.1 112.67 15.4C 112.67 13.7 112.154 12.3333 111.12 11.3C 110.087 10.2333 108.754 9.7 107.12 9.7Z"/>
<path id="path12_fill" d="M 3.54217 10C 3.54217 17.5 16.6988 21.5 16.6988 21.5C 16.6988 21.5 14.6747 24 12.1446 24C 9.61446 24 8.60241 22 5.56627 22C 2.53012 22 0 23.5 0 27C 0 30.5 2.53012 38 10.1205 38C 17.7108 38 21.759 26 21.759 26C 21.759 26 24.2892 27.5 24.2892 30C 24.2892 32.5 22.2651 33.5 22.2651 36.5C 22.2651 39.5 23.7831 42 27.3253 42C 30.8675 42 38.4578 39.5 38.4578 32C 38.4578 24.5 25.8072 20.5 25.8072 20.5C 25.8072 20.5 27.3253 18 29.8554 18C 32.3855 18 33.3976 20 36.4337 20C 39.4699 20 42 18.5 42 15C 42 11.5 39.4699 4 31.8795 4C 24.2892 4 20.241 16 20.241 16C 20.241 16 17.7108 14.5 17.7108 12C 17.7108 9.5 19.7349 8.5 19.7349 5.5C 19.7349 2.5 18.2169 0 14.6747 0C 11.1325 0 3.54217 2.5 3.54217 10Z"/>
<path id="path13_fill" d="M 17.5254 7.5L 19.8204 7.5L 23.3004 14.265L 26.7504 7.5L 29.0454 7.5L 29.0454 18L 27.2004 18L 27.2004 10.47L 23.9304 16.92L 22.6404 16.92L 19.3554 10.47L 19.3554 18L 17.5254 18L 17.5254 7.5ZM 39.4018 18L 38.4718 15.78L 33.3418 15.78L 32.4118 18L 30.3268 18L 34.9318 7.5L 37.0168 7.5L 41.5618 18L 39.4018 18ZM 34.0618 14.055L 37.7518 14.055L 35.9218 9.645L 34.0618 14.055ZM 50.1579 7.5L 52.1079 7.5L 52.1079 18L 50.2029 18L 44.8029 10.77L 44.8029 18L 42.8379 18L 42.8379 7.5L 44.7429 7.5L 50.1579 14.745L 50.1579 7.5ZM 56.5034 13.68C 56.5034 14.51 56.7384 15.16 57.2084 15.63C 57.6784 16.1 58.3084 16.335 59.0984 16.335C 59.8884 16.335 60.5084 16.1 60.9584 15.63C 61.4184 15.16 61.6484 14.51 61.6484 13.68L 61.6484 7.5L 63.6584 7.5L 63.6584 13.68C 63.6584 14.59 63.4734 15.385 63.1034 16.065C 62.7334 16.735 62.2034 17.25 61.5134 17.61C 60.8334 17.97 60.0284 18.15 59.0984 18.15C 58.1584 18.15 57.3384 17.97 56.6384 17.61C 55.9484 17.25 55.4184 16.735 55.0484 16.065C 54.6784 15.385 54.4934 14.59 54.4934 13.68L 54.4934 7.5L 56.5034 7.5L 56.5034 13.68ZM 73.5034 18L 72.5734 15.78L 67.4434 15.78L 66.5134 18L 64.4284 18L 69.0334 7.5L 71.1184 7.5L 75.6634 18L 73.5034 18ZM 68.1634 14.055L 71.8534 14.055L 70.0234 9.645L 68.1634 14.055ZM 76.9394 7.5L 78.9494 7.5L 78.9494 16.185L 83.4794 16.185L 83.4794 18L 76.9394 18L 76.9394 7.5Z"/>
<path id="path14_fill" d="M 59.5625 42.9L 59.5625 46L 34.7625 46L 34.7625 43.15L 48.5625 28.75C 50.1625 27.0833 51.4292 25.4667 52.3625 23.9C 53.2958 22.3 53.7625 20.9167 53.7625 19.75C 53.7625 17.9167 53.0792 16.4833 51.7125 15.45C 50.3458 14.4167 48.4458 13.9 46.0125 13.9C 44.3458 13.9 42.6292 14.2833 40.8625 15.05C 39.0958 15.7833 37.4958 16.8167 36.0625 18.15L 34.5125 15.6C 36.2125 14.1 38.0958 12.9333 40.1625 12.1C 42.2625 11.2667 44.3458 10.85 46.4125 10.85C 49.7458 10.85 52.3958 11.6167 54.3625 13.15C 56.3625 14.6833 57.3625 16.7333 57.3625 19.3C 57.3625 20.8667 56.7792 22.6333 55.6125 24.6C 54.4792 26.5333 52.9125 28.55 50.9125 30.65L 39.1125 42.9L 59.5625 42.9ZM 79.8781 10.85C 84.5115 10.85 88.0615 12.3833 90.5281 15.45C 92.9948 18.4833 94.2281 22.8333 94.2281 28.5C 94.2281 34.1667 92.9948 38.5333 90.5281 41.6C 88.0615 44.6667 84.5115 46.2 79.8781 46.2C 75.2781 46.2 71.7281 44.6667 69.2281 41.6C 66.7615 38.5333 65.5281 34.1667 65.5281 28.5C 65.5281 22.8333 66.7615 18.4833 69.2281 15.45C 71.7281 12.3833 75.2781 10.85 79.8781 10.85ZM 79.8781 13.6C 76.3448 13.6 73.6615 14.8667 71.8281 17.4C 69.9948 19.9 69.0781 23.6 69.0781 28.5C 69.0781 33.4 69.9948 37.1167 71.8281 39.65C 73.6615 42.15 76.3448 43.4 79.8781 43.4C 83.4115 43.4 86.0948 42.15 87.9281 39.65C 89.7948 37.1167 90.7281 33.4 90.7281 28.5C 90.7281 23.6 89.7948 19.9 87.9281 17.4C 86.0948 14.8667 83.4115 13.6 79.8781 13.6Z"/>
<path id="path15_fill" d="M 107.12 7.6C 109.487 7.6 111.437 8.33333 112.97 9.8C 114.504 11.2333 115.27 13.1 115.27 15.4C 115.27 17.7 114.504 19.5667 112.97 21C 111.47 22.4333 109.52 23.15 107.12 23.15C 104.687 23.15 102.704 22.4333 101.17 21C 99.6703 19.5667 98.9203 17.7 98.9203 15.4C 98.9203 13.1 99.6703 11.2333 101.17 9.8C 102.704 8.33333 104.687 7.6 107.12 7.6ZM 107.12 9.7C 105.454 9.7 104.087 10.2333 103.02 11.3C 101.987 12.3333 101.47 13.7 101.47 15.4C 101.47 17.1 101.987 18.4833 103.02 19.55C 104.087 20.6167 105.454 21.15 107.12 21.15C 108.754 21.15 110.087 20.6167 111.12 19.55C 112.154 18.4833 112.67 17.1 112.67 15.4C 112.67 13.7 112.154 12.3333 111.12 11.3C 110.087 10.2333 108.754 9.7 107.12 9.7Z"/>
<path id="path16_fill" fill-rule="evenodd" d="M 2 2L 34 2L 34 20.0703L 26.3091 20.0703L 26.3091 17.7793C 26.2993 17.4019 26.4004 17.084 26.5723 16.6294C 26.644 16.4395 26.7227 16.2515 26.8018 16.063C 26.9956 15.6016 27.1899 15.1387 27.2769 14.6445L 29.1182 14.6445L 26.3091 9.0083L 23.5 14.6445L 25.21 14.6445C 25.1396 14.8403 25.0562 15.0439 24.9697 15.2539L 24.9551 15.2896L 24.9443 15.3154C 24.8623 15.5137 24.7788 15.7163 24.7017 15.9199C 24.5029 16.4487 24.3188 17.1196 24.3091 17.7808L 24.3091 20.0703L 18.3091 20.0703L 18.3091 17.7793C 18.2993 17.4019 18.4004 17.084 18.5723 16.6294C 18.644 16.4395 18.7227 16.2515 18.8018 16.063C 18.9956 15.6016 19.1899 15.1387 19.2769 14.6445L 21.1182 14.6445L 18.3091 9.0083L 15.5 14.6445L 17.21 14.6445C 17.1396 14.8403 17.0562 15.0439 16.9697 15.2539L 16.9551 15.2896L 16.9443 15.3154C 16.8623 15.5137 16.7788 15.7163 16.7017 15.9199C 16.5029 16.4487 16.3188 17.1196 16.3091 17.7808L 16.3091 20.0703L 10.3101 20.0703L 10.3101 17.7793C 10.3003 17.4019 10.4014 17.084 10.5732 16.6294C 10.645 16.4395 10.7236 16.2515 10.8027 16.063C 10.9966 15.6016 11.1909 15.1387 11.2778 14.6445L 13.1191 14.6445L 10.3101 9.0083L 7.50098 14.6445L 9.21094 14.6445C 9.14062 14.8403 9.05713 15.0439 8.9707 15.2539L 8.95605 15.2896L 8.94531 15.3154C 8.86328 15.5137 8.77979 15.7163 8.70264 15.9199C 8.50391 16.4487 8.31982 17.1196 8.31006 17.7808L 8.31006 20.0703L 2 20.0703L 2 2ZM 0 2C 0 0.895508 0.895508 0 2 0L 34 0C 35.1045 0 36 0.895508 36 2L 36 20.0703C 36 21.1753 35.1045 22.0703 34 22.0703L 28.8423 22.0703C 29.1011 22.7988 29.3101 23.7026 29.3101 24.6768C 29.3086 25.73 29.1646 27.1357 28.7637 28.4272C 28.3516 29.7358 27.6348 31.0786 26.4102 32L 25.21 30.395C 25.9849 29.8115 26.5181 28.897 26.8564 27.8232C 27.2056 26.7319 27.311 25.6299 27.3101 24.6768C 27.3101 23.604 26.9507 22.6235 26.6748 22.0703L 20.8423 22.0703C 21.1011 22.7988 21.3101 23.7026 21.3101 24.6768C 21.3086 25.73 21.1646 27.1357 20.7637 28.4272C 20.3516 29.7358 19.6348 31.0786 18.4102 32L 17.21 30.395C 17.9849 29.8115 18.5181 28.897 18.8564 27.8232C 19.2056 26.7319 19.311 25.6299 19.3101 24.6768C 19.3101 23.604 18.9507 22.6235 18.6748 22.0703L 12.3423 22.0703C 12.6011 22.7988 12.8101 23.7026 12.8101 24.6768C 12.8086 25.73 12.6646 27.1357 12.2637 28.4272C 11.8516 29.7358 11.1348 31.0786 9.91016 32L 8.70996 30.395C 9.48486 29.8115 10.0181 28.897 10.3564 27.8232C 10.7056 26.7319 10.811 25.6299 10.8101 24.6768C 10.8101 23.604 10.4507 22.6235 10.1748 22.0703L 2 22.0703C 0.895508 22.0703 0 21.1753 0 20.0703L 0 2Z"/>
<path id="path17_fill" fill-rule="evenodd" d="M 5.03906 6.27699L 2.64648 7.73256L 9.52344 21.8045L 10.415 21.8045L 10.415 20.3848C 10.4248 19.7036 10.6104 19.0129 10.8115 18.468C 10.8809 18.2808 10.9551 18.0947 11.0293 17.9118L 11.0586 17.8389L 11.0684 17.8153L 11.0947 17.7509L 11.1172 17.6959C 11.1914 17.5101 11.2637 17.3286 11.3252 17.1538L 9.59766 17.1538L 12.4355 11.3475L 15.2725 17.1538L 13.4131 17.1538C 13.3252 17.6616 13.1299 18.1369 12.9346 18.611L 12.9102 18.67C 12.8379 18.8457 12.7666 19.0213 12.7012 19.1986C 12.5273 19.6672 12.4248 19.9943 12.4355 20.3835L 12.4355 21.8045L 18.4951 21.8045L 18.4951 20.406C 18.5049 19.7248 18.6904 19.0341 18.8916 18.4892C 18.9609 18.302 19.0352 18.1159 19.1094 17.933L 19.1387 17.8601L 19.1484 17.8365L 19.1748 17.7721L 19.1973 17.7171C 19.2715 17.5313 19.3438 17.3497 19.4053 17.1749L 17.6777 17.1749L 20.5156 11.3687L 23.3525 17.1749L 21.4932 17.1749C 21.4053 17.6828 21.21 18.158 21.0146 18.6322L 20.9902 18.6912C 20.918 18.8668 20.8467 19.0425 20.7812 19.2198C 20.6074 19.6884 20.5049 20.0155 20.5156 20.4047L 20.5156 21.8045L 26.0703 21.8045L 26.0703 20.3848C 26.0801 19.7036 26.2656 19.0129 26.4668 18.468C 26.5361 18.2808 26.6104 18.0947 26.6846 17.9118L 26.7139 17.8389L 26.7236 17.8153L 26.75 17.7509L 26.7725 17.6959C 26.8467 17.5101 26.9189 17.3286 26.9805 17.1538L 25.2529 17.1538L 28.0908 11.3475L 30.9277 17.1538L 29.0684 17.1538C 28.9805 17.6616 28.7852 18.1369 28.5898 18.611L 28.5654 18.67C 28.4932 18.8457 28.4219 19.0213 28.3564 19.1986C 28.1826 19.6672 28.0801 19.9943 28.0908 20.3835L 28.0908 21.8045L 30.9834 21.8045L 37.3965 7.74568L 34.9824 6.27699C 25.7549 0.663712 14.2666 0.663712 5.03906 6.27699ZM 36.0146 4.50032L 39.2139 6.44698L 40 6.92488L 39.6133 7.77235L 32.543 23.275L 32.2705 23.8715L 31.627 23.8715L 30.1777 23.8715C 30.4229 24.6038 30.6162 25.4966 30.6162 26.4555C 30.6152 27.5405 30.4688 28.9891 30.0645 30.3195C 29.6484 31.6675 28.9238 33.0507 27.6865 34.0002L 26.4746 32.3466C 27.2578 31.7457 27.7959 30.8035 28.1377 29.697C 28.4902 28.5728 28.5967 27.4376 28.5957 26.4555C 28.5957 25.4132 28.2725 24.4552 28.002 23.8715L 22.0977 23.8715C 22.3428 24.6038 22.5361 25.4966 22.5361 26.4555C 22.5352 27.5405 22.3887 28.9891 21.9844 30.3195C 21.5684 31.6675 20.8438 33.0507 19.6064 34.0002L 18.3945 32.3466C 19.1777 31.7457 19.7158 30.8035 20.0576 29.697C 20.4102 28.5728 20.5166 27.4376 20.5156 26.4555C 20.5156 25.4132 20.1924 24.4552 19.9219 23.8715L 13.5117 23.8715C 13.7568 24.6038 13.9502 25.4966 13.9502 26.4555C 13.9492 27.5405 13.8027 28.9891 13.3984 30.3195C 12.9824 31.6675 12.2578 33.0507 11.0205 34.0002L 9.80859 32.3466C 10.5918 31.7457 11.1299 30.8035 11.4717 29.697C 11.8242 28.5728 11.9307 27.4376 11.9297 26.4555C 11.9297 25.4132 11.6064 24.4552 11.3359 23.8715L 8.89941 23.8715L 8.27539 23.8715L 7.99609 23.3002L 0.419922 7.7975L 0 6.93806L 0.807617 6.44698L 3.83496 4.60487L 4.00684 4.50032C 13.8701 -1.50011 26.1514 -1.50011 36.0146 4.50032Z"/>
<path id="path18_fill" fill-rule="evenodd" d="M 42 34L 41 34C 39.3433 34 38 32.6567 38 31L 11 31C 9.82812 31 8.82031 31.8145 7.83789 32.6084C 7.43115 32.937 7.02881 33.2622 6.62109 33.5249C 6.15381 33.8257 5.59717 34 5 34L 4 34C 2.34326 34 1 32.6567 1 31L 1 17.4854C 1 15.894 1.63232 14.3677 2.75732 13.2427L 4 12L 1.97314 12C 0.883301 12 0 11.1167 0 10.0269C 0 9.42334 0.410645 8.89746 0.996094 8.75098L 2.75732 8.31055C 3.38867 8.15283 4 8.63037 4 9.28076L 4 11L 5 11L 6.79443 4.42139C 7.50635 1.81104 9.87695 0 12.583 0L 33.417 0C 36.123 0 38.4937 1.81104 39.2056 4.42139L 41 11L 42 11L 42 9.28076C 42 8.63037 42.6113 8.15283 43.2427 8.31055L 45.0039 8.75098C 45.5894 8.89746 46 9.42334 46 10.0269C 46 11.1167 45.1167 12 44.0269 12L 42 12L 43.2427 13.2427C 44.3677 14.3677 45 15.894 45 17.4854L 45 31C 45 32.6567 43.6567 34 42 34ZM 7.71729 5.27588L 6.11572 10.6147C 6.05127 10.8291 6.16895 11.0562 6.38184 11.1274C 8.11621 11.7051 9.93213 12 11.7598 12L 34.3384 12C 36.166 12 37.9819 11.7051 39.7163 11.1274C 39.9292 11.0562 40.0469 10.8291 39.9824 10.6147L 38.3809 5.27588C 37.6196 2.73779 35.2837 1 32.6338 1L 13.4644 1C 10.8145 1 8.47852 2.73779 7.71729 5.27588ZM 5.83398 13.3218C 7.50342 14.96 8.90527 16.2241 11.5005 17.3003C 11.7544 17.4058 11.855 17.7173 11.7021 17.9463C 11.269 18.5962 10.5166 18.9595 9.73828 18.8945L 6.98975 18.6655C 5.70508 18.5586 4.5 17.9995 3.58838 17.0879C 2.96045 16.46 2.87842 15.4702 3.39453 14.7476L 4.31982 13.4521C 4.67676 12.9521 5.39551 12.8911 5.83398 13.3218ZM 39.9966 13.3213C 38.3271 14.96 36.9248 16.2236 34.3301 17.3003C 34.0757 17.4058 33.9756 17.7173 34.1284 17.9463C 34.5615 18.5962 35.3135 18.9595 36.0918 18.8945L 38.8408 18.6655C 40.1255 18.5586 41.3306 17.9995 42.2422 17.0879C 42.8701 16.46 42.9521 15.4697 42.436 14.7471L 41.5107 13.4521C 41.1533 12.9521 40.4351 12.8911 39.9966 13.3213ZM 9 25C 6.39941 24.5249 5.05859 24.1196 3 23L 2.81055 23.7573C 2.65283 24.3887 3.13037 25 3.78076 25L 9 25ZM 36.7803 25C 39.3809 24.5249 40.7217 24.1196 42.7803 23L 42.9697 23.7573C 43.1274 24.3887 42.6499 25 41.9995 25L 36.7803 25ZM 11.707 27.293C 11.8945 27.1055 12.1489 27 12.4141 27L 33.5859 27C 33.8511 27 34.1055 27.1055 34.293 27.293L 35.1465 28.1465C 35.4614 28.4614 35.2383 29 34.793 29L 11.207 29C 10.7617 29 10.5386 28.4614 10.8535 28.1465L 11.707 27.293Z"/>
</defs>
</svg>
