<svg width="80" height="80" viewBox="0 0 80 80" version="1.1" xmlns="http://www.w3.org/2000/svg" xmlns:xlink="http://www.w3.org/1999/xlink">
<title>map settings</title>
<desc>Created using Figma</desc>
<g id="Canvas" transform="translate(8175 -1284)">
<g id="map settings">
<g id="Ellipse 11">
<use xlink:href="#path0_fill" transform="translate(-8175 1284)" fill="#000000" fill-opacity="0.9"/>
</g>
<g id="gear">
<use xlink:href="#path1_fill" transform="translate(-8155 1304)" fill="#FFFFFF" fill-opacity="0.4"/>
</g>
</g>
</g>
<defs>
<path id="path0_fill" d="M 80 40C 80 62.0914 62.0914 80 40 80C 17.9086 80 0 62.0914 0 40C 0 17.9086 17.9086 0 40 0C 62.0914 0 80 17.9086 80 40Z"/>
<path id="path1_fill" fill-rule="evenodd" d="M 17 3C 17 1.34326 18.3431 0 20 0C 21.6569 0 23 1.34326 23 3L 23 5.30029C 24.9152 5.68896 26.6978 6.44238 28.2722 7.48535L 29.8995 5.85791C 31.071 4.68652 32.9706 4.68652 34.1422 5.85791C 35.3137 7.0293 35.3137 8.9292 34.1422 10.1006L 32.5149 11.728C 33.5576 13.3022 34.3112 15.085 34.7 17L 37 17C 38.6569 17 40 18.3433 40 20C 40 21.6567 38.6569 23 37 23L 34.7 23C 34.3112 24.915 33.5575 26.6982 32.5146 28.2725L 34.1421 29.8999C 35.3137 31.0713 35.3137 32.9707 34.1421 34.1421C 32.9705 35.314 31.071 35.314 29.8995 34.1421L 28.272 32.5146C 26.6976 33.5571 24.915 34.311 23 34.6997L 23 37C 23 38.6567 21.6569 40 20 40C 18.3431 40 17 38.6567 17 37L 17 34.6997C 15.085 34.311 13.3024 33.5576 11.7281 32.5151L 10.1005 34.1426C 8.92896 35.314 7.02942 35.314 5.85785 34.1426C 4.68628 32.9707 4.68628 31.0713 5.85785 29.8999L 7.48529 28.2725C 6.44244 26.6982 5.68884 24.915 5.30005 23L 3 23C 1.34314 23 0 21.6567 0 20C 0 18.3433 1.34314 17 3 17L 5.30005 17C 5.68878 15.085 6.44244 13.3018 7.48523 11.7275L 5.85785 10.1006C 4.68628 8.92871 4.68628 7.0293 5.85785 5.85791C 7.02942 4.68652 8.92889 4.68652 10.1005 5.85791L 11.7278 7.48535C 13.3022 6.44238 15.0848 5.68896 17 5.30029L 17 3ZM 20 27C 23.866 27 27 23.8662 27 20C 27 16.1338 23.866 13 20 13C 16.134 13 13 16.1338 13 20C 13 23.8662 16.134 27 20 27Z"/>
</defs>
</svg>
