<svg width="330" height="177" viewBox="0 0 330 177" version="1.1" xmlns="http://www.w3.org/2000/svg" xmlns:xlink="http://www.w3.org/1999/xlink">
<title>Parking Brake - On</title>
<desc>Created using Figma</desc>
<g id="Canvas" transform="translate(8598 -1977)">
<clipPath id="clip-0" clip-rule="evenodd">
<path d="M -8598 1977L -8268 1977L -8268 2154L -8598 2154L -8598 1977Z" fill="#FFFFFF"/>
</clipPath>
<g id="Parking Brake - On" clip-path="url(#clip-0)">
<g id="Rectangle 12">
<use xlink:href="#path0_fill" transform="translate(-8598 1977)" fill="#0E0E0E"/>
<use xlink:href="#path0_fill" transform="translate(-8598 1977)" fill="#FFFFFF" fill-opacity="0.4"/>
</g>
<g id="BRAKE IS ON">
<use xlink:href="#path1_fill" transform="translate(-8578 2099)" fill="#FFFFFF"/>
</g>
<g id="Parking Brake">
<use xlink:href="#path2_fill" transform="translate(-8474 2030)" fill="#FFFFFF"/>
</g>
<g id="Parking Brake Icon">
<clipPath id="clip-1" clip-rule="evenodd">
<path d="M -8530 2017.96L -8482 2017.96L -8482 2065.96L -8530 2065.96L -8530 2017.96Z" fill="#FFFFFF"/>
</clipPath>
<g id="Cruise Setting" clip-path="url(#clip-1)">
<g id="Ellipse 2">
<mask id="mask0_outline_ins">
<use xlink:href="#path3_fill" fill="white" transform="translate(-8530 2017.96)"/>
</mask>
<g mask="url(#mask0_outline_ins)">
<use xlink:href="#path4_stroke_2x" transform="translate(-8530 2017.96)" fill="#FFFFFF"/>
</g>
</g>
<g id="P">
<use xlink:href="#path5_fill" transform="translate(-8530 2029.96)" fill="#FFFFFF"/>
</g>
</g>
<g id="Ellipse 18">
<use xlink:href="#path6_stroke" transform="translate(-8538 2017)" fill="#FFFFFF"/>
</g>
</g>
</g>
</g>
<defs>
<path id="path0_fill" d="M 0 50C 0 22.3858 22.3858 0 50 0L 280 0C 307.614 0 330 22.3858 330 50L 330 127C 330 154.614 307.614 177 280 177L 50 177C 22.3858 177 0 154.614 0 127L 0 50Z"/>
<path id="path1_fill" d="M 87.0611 6C 88.5544 6 89.7278 6.31333 90.5811 6.94C 91.4478 7.56667 91.8811 8.42 91.8811 9.5C 91.8811 10.2733 91.6611 10.94 91.2211 11.5C 90.7944 12.0467 90.2011 12.4133 89.4411 12.6C 90.3744 12.7733 91.1011 13.1733 91.6211 13.8C 92.1544 14.4267 92.4211 15.2067 92.4211 16.14C 92.4211 17.34 91.9544 18.2867 91.0211 18.98C 90.1011 19.66 88.8411 20 87.2411 20L 80.8411 20L 80.8411 6L 87.0611 6ZM 86.9211 11.72C 87.6144 11.72 88.1544 11.5667 88.5411 11.26C 88.9411 10.9533 89.1411 10.5267 89.1411 9.98C 89.1411 9.44667 88.9411 9.03333 88.5411 8.74C 88.1544 8.44667 87.6144 8.30667 86.9211 8.32L 83.5211 8.32L 83.5211 11.72L 86.9211 11.72ZM 86.9211 17.68C 87.7744 17.6933 88.4411 17.5333 88.9211 17.2C 89.4011 16.8667 89.6411 16.4 89.6411 15.8C 89.6411 15.2267 89.4011 14.78 88.9211 14.46C 88.4411 14.1267 87.7744 13.9667 86.9211 13.98L 83.5211 13.98L 83.5211 17.68L 86.9211 17.68ZM 103.781 20L 101.361 15.86C 101.254 15.8733 101.087 15.88 100.861 15.88L 97.7008 15.88L 97.7008 20L 95.0208 20L 95.0208 6L 100.861 6C 102.674 6 104.074 6.42 105.061 7.26C 106.047 8.1 106.541 9.28667 106.541 10.82C 106.541 11.9133 106.301 12.8467 105.821 13.62C 105.354 14.3933 104.667 14.9733 103.761 15.36L 106.841 20L 103.781 20ZM 97.7008 13.52L 100.861 13.52C 101.874 13.52 102.647 13.3 103.181 12.86C 103.714 12.42 103.981 11.7667 103.981 10.9C 103.981 10.0467 103.714 9.40667 103.181 8.98C 102.647 8.55333 101.874 8.34 100.861 8.34L 97.7008 8.34L 97.7008 13.52ZM 119.834 20L 118.594 17.04L 111.754 17.04L 110.514 20L 107.734 20L 113.874 6L 116.654 6L 122.714 20L 119.834 20ZM 112.714 14.74L 117.634 14.74L 115.194 8.86L 112.714 14.74ZM 136.915 20L 133.695 20L 129.295 14L 127.095 16.42L 127.095 20L 124.415 20L 124.415 6L 127.095 6L 127.095 12.98L 133.415 6L 136.575 6L 131.195 11.92L 136.915 20ZM 138.927 6L 149.187 6L 149.187 8.34L 141.607 8.34L 141.607 11.8L 148.407 11.8L 148.407 14.14L 141.607 14.14L 141.607 17.66L 149.427 17.66L 149.427 20L 138.927 20L 138.927 6ZM 157.052 6L 159.732 6L 159.732 20L 157.052 20L 157.052 6ZM 171.965 9.6C 171.245 9.16 170.505 8.82 169.745 8.58C 168.999 8.34 168.339 8.22 167.765 8.22C 167.125 8.22 166.619 8.34 166.245 8.58C 165.872 8.82 165.685 9.15333 165.685 9.58C 165.685 9.96667 165.812 10.2933 166.065 10.56C 166.332 10.8133 166.659 11.0267 167.045 11.2C 167.445 11.36 167.985 11.54 168.665 11.74C 169.612 12.02 170.385 12.3 170.985 12.58C 171.599 12.86 172.119 13.2733 172.545 13.82C 172.972 14.3667 173.185 15.0867 173.185 15.98C 173.185 16.8333 172.952 17.58 172.485 18.22C 172.032 18.8467 171.399 19.3267 170.585 19.66C 169.785 19.9933 168.865 20.16 167.825 20.16C 166.732 20.16 165.665 19.96 164.625 19.56C 163.585 19.1467 162.679 18.6 161.905 17.92L 163.025 15.64C 163.732 16.2933 164.525 16.8067 165.405 17.18C 166.285 17.5533 167.105 17.74 167.865 17.74C 168.612 17.74 169.199 17.6 169.625 17.32C 170.052 17.0267 170.265 16.6333 170.265 16.14C 170.265 15.74 170.132 15.4133 169.865 15.16C 169.612 14.8933 169.285 14.68 168.885 14.52C 168.485 14.36 167.939 14.18 167.245 13.98C 166.299 13.7 165.525 13.4267 164.925 13.16C 164.325 12.8933 163.812 12.4933 163.385 11.96C 162.959 11.4133 162.745 10.7 162.745 9.82C 162.745 9.00667 162.959 8.3 163.385 7.7C 163.825 7.08667 164.439 6.61333 165.225 6.28C 166.025 5.94667 166.945 5.78 167.985 5.78C 168.892 5.78 169.785 5.91333 170.665 6.18C 171.559 6.44667 172.352 6.80667 173.045 7.26L 171.965 9.6ZM 186.986 5.82C 188.373 5.82 189.633 6.13333 190.766 6.76C 191.913 7.38667 192.813 8.24667 193.466 9.34C 194.12 10.4333 194.446 11.6467 194.446 12.98C 194.446 14.3133 194.12 15.5333 193.466 16.64C 192.813 17.7333 191.913 18.6 190.766 19.24C 189.633 19.88 188.373 20.2 186.986 20.2C 185.6 20.2 184.333 19.88 183.186 19.24C 182.053 18.6 181.16 17.7333 180.506 16.64C 179.853 15.5333 179.526 14.3133 179.526 12.98C 179.526 11.6467 179.853 10.4333 180.506 9.34C 181.16 8.24667 182.053 7.38667 183.186 6.76C 184.333 6.13333 185.6 5.82 186.986 5.82ZM 187.026 8.22C 186.173 8.22 185.38 8.43333 184.646 8.86C 183.913 9.27333 183.333 9.84667 182.906 10.58C 182.48 11.3 182.266 12.1 182.266 12.98C 182.266 13.86 182.48 14.6667 182.906 15.4C 183.346 16.1333 183.926 16.7133 184.646 17.14C 185.38 17.5667 186.173 17.78 187.026 17.78C 187.866 17.78 188.646 17.5667 189.366 17.14C 190.086 16.7133 190.653 16.1333 191.066 15.4C 191.493 14.6667 191.706 13.86 191.706 12.98C 191.706 12.1 191.493 11.3 191.066 10.58C 190.653 9.84667 190.086 9.27333 189.366 8.86C 188.646 8.43333 187.866 8.22 187.026 8.22ZM 206.558 6L 209.158 6L 209.158 20L 206.618 20L 199.418 10.36L 199.418 20L 196.798 20L 196.798 6L 199.338 6L 206.558 15.66L 206.558 6Z"/>
<path id="path2_fill" d="M 53.7901 -7C 55.5501 -7 56.9101 -6.58 57.8701 -5.74C 58.8434 -4.9 59.3301 -3.71333 59.3301 -2.18C 59.3301 -0.58 58.8434 0.666667 57.8701 1.56C 56.9101 2.44 55.5501 2.88 53.7901 2.88L 50.7301 2.88L 50.7301 7L 48.0501 7L 48.0501 -7L 53.7901 -7ZM 53.6501 0.52C 54.6634 0.52 55.4367 0.3 55.9701 -0.14C 56.5167 -0.58 56.7901 -1.23333 56.7901 -2.1C 56.7901 -2.95333 56.5167 -3.59333 55.9701 -4.02C 55.4367 -4.44667 54.6634 -4.66 53.6501 -4.66L 50.7301 -4.66L 50.7301 0.52L 53.6501 0.52ZM 70.9882 7L 69.7482 4.04L 62.9082 4.04L 61.6682 7L 58.8882 7L 65.0282 -7L 67.8082 -7L 73.8682 7L 70.9882 7ZM 63.8682 1.74L 68.7882 1.74L 66.3482 -4.14L 63.8682 1.74ZM 84.3296 7L 81.9096 2.86C 81.8029 2.87333 81.6363 2.88 81.4096 2.88L 78.2496 2.88L 78.2496 7L 75.5696 7L 75.5696 -7L 81.4096 -7C 83.2229 -7 84.6229 -6.58 85.6096 -5.74C 86.5963 -4.9 87.0896 -3.71333 87.0896 -2.18C 87.0896 -1.08667 86.8496 -0.153333 86.3696 0.62C 85.9029 1.39333 85.2163 1.97333 84.3096 2.36L 87.3896 7L 84.3296 7ZM 78.2496 0.52L 81.4096 0.52C 82.4229 0.52 83.1963 0.3 83.7296 -0.14C 84.2629 -0.58 84.5296 -1.23333 84.5296 -2.1C 84.5296 -2.95333 84.2629 -3.59333 83.7296 -4.02C 83.1963 -4.44667 82.4229 -4.66 81.4096 -4.66L 78.2496 -4.66L 78.2496 0.52ZM 102.523 7L 99.3027 7L 94.9027 1L 92.7027 3.42L 92.7027 7L 90.0227 7L 90.0227 -7L 92.7027 -7L 92.7027 -0.0200002L 99.0227 -7L 102.183 -7L 96.8027 -1.08L 102.523 7ZM 104.534 -7L 107.214 -7L 107.214 7L 104.534 7L 104.534 -7ZM 120.408 -7L 123.008 -7L 123.008 7L 120.468 7L 113.268 -2.64L 113.268 7L 110.648 7L 110.648 -7L 113.188 -7L 120.408 2.66L 120.408 -7ZM 135.949 0.0400002L 138.289 0.0400002L 138.289 5.36C 137.555 5.90667 136.689 6.35333 135.689 6.7C 134.689 7.03333 133.709 7.2 132.749 7.2C 131.375 7.2 130.122 6.88 128.989 6.24C 127.869 5.6 126.982 4.73333 126.329 3.64C 125.675 2.53333 125.349 1.31333 125.349 -0.0200002C 125.349 -1.35333 125.682 -2.56 126.349 -3.64C 127.015 -4.73333 127.922 -5.59333 129.069 -6.22C 130.229 -6.86 131.509 -7.18 132.909 -7.18C 133.909 -7.18 134.895 -7 135.869 -6.64C 136.842 -6.28 137.682 -5.78667 138.389 -5.16L 136.869 -3.18C 136.335 -3.68667 135.715 -4.08 135.009 -4.36C 134.315 -4.64 133.615 -4.78 132.909 -4.78C 132.029 -4.78 131.215 -4.56667 130.469 -4.14C 129.735 -3.72667 129.155 -3.15333 128.729 -2.42C 128.302 -1.68667 128.089 -0.886667 128.089 -0.0200002C 128.089 0.86 128.302 1.66667 128.729 2.4C 129.169 3.13333 129.755 3.71333 130.489 4.14C 131.222 4.56667 132.035 4.78 132.929 4.78C 133.409 4.78 133.909 4.70667 134.429 4.56C 134.962 4.4 135.469 4.18 135.949 3.9L 135.949 0.0400002ZM 65.2857 18C 66.779 18 67.9524 18.3133 68.8057 18.94C 69.6724 19.5667 70.1057 20.42 70.1057 21.5C 70.1057 22.2733 69.8857 22.94 69.4457 23.5C 69.019 24.0467 68.4257 24.4133 67.6657 24.6C 68.599 24.7733 69.3257 25.1733 69.8457 25.8C 70.379 26.4267 70.6457 27.2067 70.6457 28.14C 70.6457 29.34 70.179 30.2867 69.2457 30.98C 68.3257 31.66 67.0657 32 65.4657 32L 59.0657 32L 59.0657 18L 65.2857 18ZM 65.1457 23.72C 65.839 23.72 66.379 23.5667 66.7657 23.26C 67.1657 22.9533 67.3657 22.5267 67.3657 21.98C 67.3657 21.4467 67.1657 21.0333 66.7657 20.74C 66.379 20.4467 65.839 20.3067 65.1457 20.32L 61.7457 20.32L 61.7457 23.72L 65.1457 23.72ZM 65.1457 29.68C 65.999 29.6933 66.6657 29.5333 67.1457 29.2C 67.6257 28.8667 67.8657 28.4 67.8657 27.8C 67.8657 27.2267 67.6257 26.78 67.1457 26.46C 66.6657 26.1267 65.999 25.9667 65.1457 25.98L 61.7457 25.98L 61.7457 29.68L 65.1457 29.68ZM 82.0054 32L 79.5854 27.86C 79.4787 27.8733 79.3121 27.88 79.0854 27.88L 75.9254 27.88L 75.9254 32L 73.2454 32L 73.2454 18L 79.0854 18C 80.8987 18 82.2987 18.42 83.2854 19.26C 84.2721 20.1 84.7654 21.2867 84.7654 22.82C 84.7654 23.9133 84.5254 24.8467 84.0454 25.62C 83.5787 26.3933 82.8921 26.9733 81.9854 27.36L 85.0654 32L 82.0054 32ZM 75.9254 25.52L 79.0854 25.52C 80.0987 25.52 80.8721 25.3 81.4054 24.86C 81.9387 24.42 82.2054 23.7667 82.2054 22.9C 82.2054 22.0467 81.9387 21.4067 81.4054 20.98C 80.8721 20.5533 80.0987 20.34 79.0854 20.34L 75.9254 20.34L 75.9254 25.52ZM 98.0585 32L 96.8185 29.04L 89.9785 29.04L 88.7385 32L 85.9585 32L 92.0985 18L 94.8785 18L 100.939 32L 98.0585 32ZM 90.9385 26.74L 95.8585 26.74L 93.4185 20.86L 90.9385 26.74ZM 115.14 32L 111.92 32L 107.52 26L 105.32 28.42L 105.32 32L 102.64 32L 102.64 18L 105.32 18L 105.32 24.98L 111.64 18L 114.8 18L 109.42 23.92L 115.14 32ZM 117.152 18L 127.412 18L 127.412 20.34L 119.832 20.34L 119.832 23.8L 126.632 23.8L 126.632 26.14L 119.832 26.14L 119.832 29.66L 127.652 29.66L 127.652 32L 117.152 32L 117.152 18Z"/>
<path id="path3_fill" d="M 48 24C 48 37.2548 37.2548 48 24 48C 10.7452 48 0 37.2548 0 24C 0 10.7452 10.7452 0 24 0C 37.2548 0 48 10.7452 48 24Z"/>
<path id="path4_stroke_2x" d="M 44 24C 44 35.0457 35.0457 44 24 44L 24 52C 39.464 52 52 39.464 52 24L 44 24ZM 24 44C 12.9543 44 4 35.0457 4 24L -4 24C -4 39.464 8.53603 52 24 52L 24 44ZM 4 24C 4 12.9543 12.9543 4 24 4L 24 -4C 8.53603 -4 -4 8.53603 -4 24L 4 24ZM 24 4C 35.0457 4 44 12.9543 44 24L 52 24C 52 8.53603 39.464 -4 24 -4L 24 4Z"/>
<path id="path5_fill" d="M 24.9611 3.1C 27.3371 3.1 29.1731 3.667 30.4691 4.801C 31.7831 5.935 32.4401 7.537 32.4401 9.607C 32.4401 11.767 31.7831 13.45 30.4691 14.656C 29.1731 15.844 27.3371 16.438 24.9611 16.438L 20.8301 16.438L 20.8301 22L 17.2121 22L 17.2121 3.1L 24.9611 3.1ZM 24.7721 13.252C 26.1401 13.252 27.1841 12.955 27.9041 12.361C 28.6421 11.767 29.0111 10.885 29.0111 9.715C 29.0111 8.563 28.6421 7.699 27.9041 7.123C 27.1841 6.547 26.1401 6.259 24.7721 6.259L 20.8301 6.259L 20.8301 13.252L 24.7721 13.252Z"/>
<path id="path6_stroke" d="M 54.6274 1.89424L 53.2006 3.2957L 54.6274 1.89424ZM 54.6274 47.9688L 56.0543 49.3702L 54.6274 47.9688ZM 9.37258 47.9688L 10.7994 46.5673L 9.37258 47.9688ZM 12.4073 1.77237C 13.2361 1.0422 13.3161 -0.221606 12.5859 -1.05042C 11.8557 -1.87923 10.5919 -1.95919 9.76313 -1.22902L 12.4073 1.77237ZM 53.9052 -1.51747C 53.0671 -2.23699 51.8044 -2.14087 51.0849 -1.30279C 50.3654 -0.464716 50.4615 0.797961 51.2996 1.51747L 53.9052 -1.51747ZM 50.5597 48.9606C 49.6992 49.6531 49.5629 50.9121 50.2554 51.7726C 50.9479 52.6332 52.2069 52.7694 53.0674 52.0769L 50.5597 48.9606ZM 10.592 51.7992C 11.4436 52.5027 12.7042 52.3827 13.4077 51.5311C 14.1112 50.6795 13.9911 49.4189 13.1396 48.7154L 10.592 51.7992ZM 53.2006 3.2957C 64.9331 15.2408 64.9331 34.6222 53.2006 46.5673L 56.0543 49.3702C 69.3152 35.869 69.3152 13.9939 56.0543 0.492771L 53.2006 3.2957ZM 10.7994 46.5673C -0.933144 34.6222 -0.933144 15.2408 10.7994 3.2957L 7.94573 0.492771C -5.31524 13.9939 -5.31524 35.869 7.94573 49.3702L 10.7994 46.5673ZM 10.7994 3.2957C 11.3297 2.75538 11.8486 2.26414 12.4073 1.77237L 9.76313 -1.22902C 9.15115 -0.689449 8.52742 -0.098982 7.94573 0.492771L 10.7994 3.2957ZM 51.2996 1.51747C 51.9628 2.08625 52.5765 2.65966 53.2006 3.2957L 56.0543 0.492771C 55.3694 -0.203802 54.6316 -0.89322 53.9052 -1.51747L 51.2996 1.51747ZM 53.2006 46.5673C 52.343 47.4417 51.4897 48.2133 50.5597 48.9606L 53.0674 52.0769C 54.0861 51.2561 55.1126 50.3277 56.0543 49.3702L 53.2006 46.5673ZM 13.1396 48.7154C 12.3185 48.038 11.5627 47.3453 10.7994 46.5673L 7.94573 49.3702C 8.78362 50.2223 9.69262 51.0554 10.592 51.7992L 13.1396 48.7154Z"/>
</defs>
</svg>
