<svg width="48" height="48" viewBox="0 0 48 48" version="1.1" xmlns="http://www.w3.org/2000/svg" xmlns:xlink="http://www.w3.org/1999/xlink">
<title>phone</title>
<desc>Created using Figma</desc>
<g id="Canvas" transform="translate(7958 -901)">
<clipPath id="clip-0" clip-rule="evenodd">
<path d="M -7958 901L -7910 901L -7910 949L -7958 949L -7958 901Z" fill="#FFFFFF"/>
</clipPath>
<g id="phone" clip-path="url(#clip-0)">
<g id="Subtract">
<use xlink:href="#path0_fill" transform="translate(-7947 905)" fill="#FFFFFF"/>
</g>
</g>
</g>
<defs>
<path id="path0_fill" fill-rule="evenodd" d="M 6 0C 2.68628 0 0 2.68652 0 6L 0 34C 0 37.3135 2.68628 40 6 40L 20 40C 23.3137 40 26 37.3135 26 34L 26 6C 26 2.68652 23.3137 0 20 0L 6 0ZM 16 2L 10 2C 10 2.55225 10.4478 3 11 3L 15 3C 15.5522 3 16 2.55225 16 2ZM 13 39C 13.8284 39 14.5 38.3286 14.5 37.5C 14.5 36.6714 13.8284 36 13 36C 12.1716 36 11.5 36.6714 11.5 37.5C 11.5 38.3286 12.1716 39 13 39ZM 3 7C 3 5.89551 3.89539 5 5 5L 21 5C 22.1046 5 23 5.89551 23 7L 23 33C 23 34.1045 22.1046 35 21 35L 5 35C 3.89539 35 3 34.1045 3 33L 3 7Z"/>
</defs>
</svg>
