<svg width="48" height="48" viewBox="0 0 48 48" version="1.1" xmlns="http://www.w3.org/2000/svg" xmlns:xlink="http://www.w3.org/1999/xlink">
<title>plus</title>
<desc>Created using Figma</desc>
<g id="Canvas" transform="translate(8102 -469)">
<rect x="-8102" y="469" width="48" height="48" fill="#777777"/>
<clipPath id="clip-0" clip-rule="evenodd">
<path d="M -8102 469L -8054 469L -8054 517L -8102 517L -8102 469Z" fill="#FFFFFF"/>
</clipPath>
<g id="plus" clip-path="url(#clip-0)">
<g id="Union">
<use xlink:href="#path0_fill" transform="translate(-8088 483)" fill="#FFFFFF" fill-opacity="0.6"/>
</g>
</g>
</g>
<defs>
<path id="path0_fill" fill-rule="evenodd" d="M 9.5 0C 8.94775 0 8.5 0.447754 8.5 1L 8.5 8.5L 1 8.5C 0.447754 8.5 0 8.94775 0 9.5L 0 10.5C 0 11.0522 0.447754 11.5 1 11.5L 8.5 11.5L 8.5 19C 8.5 19.5522 8.94775 20 9.5 20L 10.5 20C 11.0522 20 11.5 19.5522 11.5 19L 11.5 11.5L 19 11.5C 19.5522 11.5 20 11.0522 20 10.5L 20 9.5C 20 8.94775 19.5522 8.5 19 8.5L 11.5 8.5L 11.5 1C 11.5 0.447754 11.0522 0 10.5 0L 9.5 0Z"/>
</defs>
</svg>
