<svg width="54" height="40" viewBox="0 0 54 40" version="1.1" xmlns="http://www.w3.org/2000/svg" xmlns:xlink="http://www.w3.org/1999/xlink">
<title>road label</title>
<desc>Created using Figma</desc>
<g id="Canvas" transform="translate(8258 -12658)">
<g id="road label">
<g id="road label">
<use xlink:href="#path0_fill" transform="translate(-8258 12658)" fill="#7071C5"/>
</g>
<g id="M8">
<use xlink:href="#path1_fill" transform="translate(-8250 12666)" fill="#FFFFFF"/>
</g>
</g>
</g>
<defs>
<path id="path0_fill" d="M 0 6C 0 2.68629 2.68629 0 6 0L 48 0C 51.3137 0 54 2.68629 54 6L 54 34C 54 37.3137 51.3137 40 48 40L 6 40C 2.68629 40 0 37.3137 0 34L 0 6Z"/>
<path id="path1_fill" d="M 1.98081 4.2L 6.20481 4.2L 11.4368 14.52L 16.6208 4.2L 20.8208 4.2L 20.8208 21L 17.4128 21L 17.4128 9.648L 12.6368 19.296L 10.1888 19.296L 5.38881 9.648L 5.38881 21L 1.98081 21L 1.98081 4.2ZM 30.0951 4.032C 31.8871 4.032 33.3031 4.44 34.3431 5.256C 35.3831 6.056 35.9031 7.144 35.9031 8.52C 35.9031 9.256 35.7031 9.936 35.3031 10.56C 34.9191 11.168 34.3911 11.656 33.7191 12.024C 34.6631 12.392 35.4071 12.952 35.9511 13.704C 36.4951 14.456 36.7671 15.312 36.7671 16.272C 36.7671 17.264 36.4951 18.128 35.9511 18.864C 35.4071 19.6 34.6311 20.168 33.6231 20.568C 32.6311 20.968 31.4631 21.168 30.1191 21.168C 28.7911 21.168 27.6231 20.976 26.6151 20.592C 25.6231 20.192 24.8551 19.632 24.3111 18.912C 23.7671 18.176 23.4951 17.32 23.4951 16.344C 23.4951 15.384 23.7831 14.52 24.3591 13.752C 24.9351 12.968 25.7191 12.392 26.7111 12.024C 25.9751 11.624 25.3911 11.104 24.9591 10.464C 24.5431 9.824 24.3351 9.128 24.3351 8.376C 24.3351 7.048 24.8551 5.992 25.8951 5.208C 26.9351 4.424 28.3351 4.032 30.0951 4.032ZM 30.1191 6.648C 29.2871 6.648 28.6391 6.832 28.1751 7.2C 27.7271 7.552 27.5031 8.056 27.5031 8.712C 27.5031 9.352 27.7271 9.856 28.1751 10.224C 28.6391 10.576 29.2871 10.752 30.1191 10.752C 30.9511 10.752 31.5911 10.576 32.0391 10.224C 32.5031 9.872 32.7351 9.368 32.7351 8.712C 32.7351 8.056 32.5031 7.552 32.0391 7.2C 31.5911 6.832 30.9511 6.648 30.1191 6.648ZM 30.1191 13.608C 29.1431 13.608 28.3831 13.808 27.8391 14.208C 27.3111 14.608 27.0471 15.184 27.0471 15.936C 27.0471 16.688 27.3111 17.272 27.8391 17.688C 28.3831 18.104 29.1431 18.312 30.1191 18.312C 31.0951 18.312 31.8551 18.112 32.3991 17.712C 32.9431 17.296 33.2151 16.712 33.2151 15.96C 33.2151 15.208 32.9431 14.632 32.3991 14.232C 31.8551 13.816 31.0951 13.608 30.1191 13.608Z"/>
</defs>
</svg>
