<svg width="48" height="48" viewBox="0 0 48 48" version="1.1" xmlns="http://www.w3.org/2000/svg" xmlns:xlink="http://www.w3.org/1999/xlink">
<title>service</title>
<desc>Created using Figma</desc>
<g id="Canvas" transform="translate(7238 -901)">
<clipPath id="clip-0" clip-rule="evenodd">
<path d="M -7238 901L -7190 901L -7190 949L -7238 949L -7238 901Z" fill="#FFFFFF"/>
</clipPath>
<g id="service" clip-path="url(#clip-0)">
<g id="Union">
<use xlink:href="#path0_fill" transform="matrix(0.707107 0.707107 -0.707107 0.707107 -7208 908)" fill="#FFFFFF"/>
</g>
</g>
</g>
<defs>
<path id="path0_fill" fill-rule="evenodd" d="M 5.01811 3.33378C 5.75491 2.51067 5.68482 1.24665 4.8617 0.509846C 4.03859 -0.226954 2.77457 -0.156864 2.03777 0.666252C 0.883883 1.99829 0.0383246 4.07507 0 5.99994C 0.000345267 8.96129 1.60894 11.5463 4.00026 12.9294L 4.00026 31C 4.00026 32.1049 4.89554 33.0002 6.00039 33.0002L 10.0003 32.9998C 11.1048 33.0002 12.0004 32.1045 12.0001 31L 12.0001 12.9301C 14.3914 11.547 16 8.96129 16.0004 5.99994C 15.962 4.07507 15.1165 1.99829 13.9626 0.666252C 13.2258 -0.156864 11.9618 -0.226954 11.1387 0.509846C 10.3155 1.24665 10.2455 2.51067 10.9823 3.33378C 11.7284 4.12479 12.0381 4.85158 12.0001 5.99994C 12.0001 8.20895 10.2092 9.99986 8.00018 9.99986C 5.79116 9.99986 4.00026 8.20895 4.00026 5.99994C 3.96194 4.85192 4.27199 4.12479 5.01811 3.33378Z"/>
</defs>
</svg>
