<svg width="1920" height="128" viewBox="0 0 1920 128" version="1.1" xmlns="http://www.w3.org/2000/svg" xmlns:xlink="http://www.w3.org/1999/xlink">
<title>main control bar</title>
<desc>Created using Figma</desc>
<g id="Canvas" transform="translate(56 -1770)">
<g id="main control bar">
<g id="Background">
<use xlink:href="#path0_fill" transform="translate(-56 1770)"/>
</g>
<g id="Volume">
<clipPath id="clip-0" clip-rule="evenodd">
<path d="M 1704 1812L 1654 1812L 1654 1782L 1704 1782L 1704 1812Z" fill="#FFFFFF"/>
</clipPath>
<g id="arrow" clip-path="url(#clip-0)">
<g id="Vector 37">
<use xlink:href="#path1_stroke" transform="matrix(-1 -1.22465e-16 1.22465e-16 -1 1686 1800.5)" fill="#FFFFFF"/>
</g>
</g>
<clipPath id="clip-1" clip-rule="evenodd">
<path d="M 1654 1864L 1704 1864L 1704 1894L 1654 1894L 1654 1864Z" fill="#FFFFFF"/>
</clipPath>
<g id="arrow" clip-path="url(#clip-1)">
<g id="Vector 37">
<use xlink:href="#path1_stroke" transform="translate(1672 1875.5)" fill="#FFFFFF"/>
</g>
</g>
<clipPath id="clip-2" clip-rule="evenodd">
<path d="M 1654 1813L 1702 1813L 1702 1861L 1654 1861L 1654 1813Z" fill="#FFFFFF"/>
</clipPath>
<g id="volume" clip-path="url(#clip-2)">
<g id="Union">
<use xlink:href="#path2_fill" transform="translate(1654 1825)" fill="#FFFFFF"/>
</g>
<g id="Ellipse 9 (Stroke)">
<use xlink:href="#path3_fill" transform="translate(1677 1826)" fill="#FFFFFF"/>
</g>
<g id="Ellipse 9 (Stroke)">
<use xlink:href="#path4_fill" transform="translate(1684 1822)" fill="#FFFFFF"/>
</g>
<g id="Ellipse 9 (Stroke)">
<use xlink:href="#path5_fill" transform="translate(1692.25 1816)" fill="#FFFFFF" fill-opacity="0.4"/>
</g>
</g>
</g>
<clipPath id="clip-3" clip-rule="evenodd">
<path d="M 1504 1813L 1552 1813L 1552 1861L 1504 1861L 1504 1813Z" fill="#FFFFFF"/>
</clipPath>
<g id="phone" clip-path="url(#clip-3)">
<g id="Subtract">
<use xlink:href="#path6_fill" transform="translate(1515 1817)" fill="#FFFFFF"/>
</g>
</g>
<clipPath id="clip-4" clip-rule="evenodd">
<path d="M 1354 1813L 1402 1813L 1402 1861L 1354 1861L 1354 1813Z" fill="#FFFFFF"/>
</clipPath>
<g id="music" clip-path="url(#clip-4)">
<g id="Union">
<use xlink:href="#path7_fill" transform="translate(1361 1816.5)" fill="#FFFFFF"/>
</g>
</g>
<clipPath id="clip-5" clip-rule="evenodd">
<path d="M 1254 1813L 1206 1813L 1206 1861L 1254 1861L 1254 1813Z" fill="#FFFFFF"/>
</clipPath>
<g id="seat" clip-path="url(#clip-5)">
<g id="Vector 36">
<use xlink:href="#path8_fill" transform="matrix(-1 0 0 1 1244.2 1819)" fill="#FFFFFF"/>
<use xlink:href="#path9_fill" transform="matrix(-1 0 0 1 1244.2 1819)" fill="#FFFFFF"/>
</g>
</g>
<g id="Passenger Temp">
<clipPath id="clip-6" clip-rule="evenodd">
<path d="M 1079 1808L 1029 1808L 1029 1778L 1079 1778L 1079 1808Z" fill="#FFFFFF"/>
</clipPath>
<g id="arrow" clip-path="url(#clip-6)">
<g id="Vector 37">
<use xlink:href="#path1_stroke" transform="matrix(-1 -1.22465e-16 1.22465e-16 -1 1061 1796.5)" fill="#FFFFFF"/>
</g>
</g>
<clipPath id="clip-7" clip-rule="evenodd">
<path d="M 1029 1864L 1079 1864L 1079 1894L 1029 1894L 1029 1864Z" fill="#FFFFFF"/>
</clipPath>
<g id="arrow" clip-path="url(#clip-7)">
<g id="Vector 37">
<use xlink:href="#path1_stroke" transform="translate(1047 1875.5)" fill="#FFFFFF"/>
</g>
</g>
<g id="20&#194;&#186;">
<use xlink:href="#path10_fill" transform="translate(979 1808)" fill="#FFFFFF"/>
<use xlink:href="#path11_fill" transform="translate(979 1808)" fill="#FFFFFF" fill-opacity="0.4"/>
</g>
</g>
<g id="Fan Level">
<clipPath id="clip-8" clip-rule="evenodd">
<path d="M 879 1801L 927 1801L 927 1849L 879 1849L 879 1801Z" fill="#FFFFFF"/>
</clipPath>
<g id="fan" clip-path="url(#clip-8)">
<g id="Vector 38">
<use xlink:href="#path12_fill" transform="translate(882 1804)" fill="#FFFBFB"/>
</g>
</g>
<g id="Remaining distance">
<use xlink:href="#path13_fill" transform="translate(854 1851)" fill="#FFFFFF"/>
</g>
</g>
<g id="Driver Temp">
<clipPath id="clip-9" clip-rule="evenodd">
<path d="M 779 1808L 729 1808L 729 1778L 779 1778L 779 1808Z" fill="#FFFFFF"/>
</clipPath>
<g id="arrow" clip-path="url(#clip-9)">
<g id="Vector 37">
<use xlink:href="#path1_stroke" transform="matrix(-1 -1.22465e-16 1.22465e-16 -1 761 1796.5)" fill="#FFFFFF"/>
</g>
</g>
<clipPath id="clip-10" clip-rule="evenodd">
<path d="M 729 1864L 779 1864L 779 1894L 729 1894L 729 1864Z" fill="#FFFFFF"/>
</clipPath>
<g id="arrow" clip-path="url(#clip-10)">
<g id="Vector 37">
<use xlink:href="#path1_stroke" transform="translate(747 1875.5)" fill="#FFFFFF"/>
</g>
</g>
<g id="20&#194;&#186;">
<use xlink:href="#path14_fill" transform="translate(679 1808)" fill="#FFFFFF"/>
<use xlink:href="#path15_fill" transform="translate(679 1808)" fill="#FFFFFF" fill-opacity="0.4"/>
</g>
</g>
<clipPath id="clip-11" clip-rule="evenodd">
<path d="M 554 1813L 602 1813L 602 1861L 554 1861L 554 1813Z" fill="#FFFFFF"/>
</clipPath>
<g id="seat" clip-path="url(#clip-11)">
<g id="Vector 36">
<use xlink:href="#path8_fill" transform="translate(563.799 1819)" fill="#FFFFFF"/>
<use xlink:href="#path9_fill" transform="translate(563.799 1819)" fill="#FFFFFF"/>
</g>
</g>
<clipPath id="clip-12" clip-rule="evenodd">
<path d="M 404 1813L 452 1813L 452 1861L 404 1861L 404 1813Z" fill="#FFFFFF"/>
</clipPath>
<g id="heater" clip-path="url(#clip-12)" filter="url(#filter0_d)">
<g id="Union" filter="url(#filter1_d)">
<use xlink:href="#path16_fill" transform="translate(410 1821)" fill="#D0021B"/>
</g>
</g>
<clipPath id="clip-13" clip-rule="evenodd">
<path d="M 254 1813L 304 1813L 304 1863L 254 1863L 254 1813Z" fill="#FFFFFF"/>
</clipPath>
<g id="defrost" clip-path="url(#clip-13)" filter="url(#filter2_d)">
<g id="Union">
<use xlink:href="#path17_fill" transform="translate(258 1821)" fill="#007BE4"/>
</g>
</g>
<clipPath id="clip-14" clip-rule="evenodd">
<path d="M 104 1813L 152 1813L 152 1861L 104 1861L 104 1813Z" fill="#FFFFFF"/>
</clipPath>
<g id="model3-icon" clip-path="url(#clip-14)">
<g id="tesla">
<use xlink:href="#path18_fill" transform="translate(105 1820)" fill="#FFFFFF"/>
</g>
</g>
</g>
</g>
<defs>
<filter id="filter0_d" filterUnits="userSpaceOnUse" x="398" y="1807" width="60" height="60" color-interpolation-filters="sRGB">
<feFlood flood-opacity="0" result="BackgroundImageFix"/>
<feColorMatrix in="SourceAlpha" type="matrix" values="0 0 0 0 0 0 0 0 0 0 0 0 0 0 0 0 0 0 255 0"/>
<feOffset dx="0" dy="0"/>
<feGaussianBlur stdDeviation="3"/>
<feColorMatrix type="matrix" values="0 0 0 0 0.815686 0 0 0 0 0.00784314 0 0 0 0 0.105882 0 0 0 0.5 0"/>
<feBlend mode="normal" in2="BackgroundImageFix" result="effect1_dropShadow"/>
<feBlend mode="normal" in="SourceGraphic" in2="effect1_dropShadow" result="shape"/>
</filter>
<filter id="filter1_d" filterUnits="userSpaceOnUse" x="404" y="1815" width="48" height="44" color-interpolation-filters="sRGB">
<feFlood flood-opacity="0" result="BackgroundImageFix"/>
<feColorMatrix in="SourceAlpha" type="matrix" values="0 0 0 0 0 0 0 0 0 0 0 0 0 0 0 0 0 0 255 0"/>
<feOffset dx="0" dy="0"/>
<feGaussianBlur stdDeviation="3"/>
<feColorMatrix type="matrix" values="0 0 0 0 0.815686 0 0 0 0 0.00784314 0 0 0 0 0.105882 0 0 0 1 0"/>
<feBlend mode="normal" in2="BackgroundImageFix" result="effect1_dropShadow"/>
<feBlend mode="normal" in="SourceGraphic" in2="effect1_dropShadow" result="shape"/>
</filter>
<filter id="filter2_d" filterUnits="userSpaceOnUse" x="248" y="1807" width="62" height="62" color-interpolation-filters="sRGB">
<feFlood flood-opacity="0" result="BackgroundImageFix"/>
<feColorMatrix in="SourceAlpha" type="matrix" values="0 0 0 0 0 0 0 0 0 0 0 0 0 0 0 0 0 0 255 0"/>
<feOffset dx="0" dy="0"/>
<feGaussianBlur stdDeviation="3"/>
<feColorMatrix type="matrix" values="0 0 0 0 0.392157 0 0 0 0 0.823529 0 0 0 0 1 0 0 0 1 0"/>
<feBlend mode="normal" in2="BackgroundImageFix" result="effect1_dropShadow"/>
<feBlend mode="normal" in="SourceGraphic" in2="effect1_dropShadow" result="shape"/>
</filter>
<path id="path0_fill" d="M 1920 128L 1920 0C 1920 4.41828 1916.42 8 1912 8L 8 8C 3.58172 8 0 4.41828 0 0L 0 128L 1920 128Z"/>
<path id="path1_stroke" d="M 1.06066 -1.06066C 0.474874 -1.64645 -0.474874 -1.64645 -1.06066 -1.06066C -1.64645 -0.474874 -1.64645 0.474874 -1.06066 1.06066L 1.06066 -1.06066ZM 7 7L 5.93934 8.06066C 6.52513 8.64645 7.47487 8.64645 8.06066 8.06066L 7 7ZM 15.0607 1.06066C 15.6464 0.474874 15.6464 -0.474874 15.0607 -1.06066C 14.4749 -1.64645 13.5251 -1.64645 12.9393 -1.06066L 15.0607 1.06066ZM -1.06066 1.06066L 5.93934 8.06066L 8.06066 5.93934L 1.06066 -1.06066L -1.06066 1.06066ZM 8.06066 8.06066L 15.0607 1.06066L 12.9393 -1.06066L 5.93934 5.93934L 8.06066 8.06066Z"/>
<path id="path2_fill" fill-rule="evenodd" d="M 14.6827 0.498947L 7 7.22368L 2 7.22368C 0.895386 7.22368 0 8.11906 0 9.22368L 0 16.7778C 0 17.8822 0.895386 18.7778 2 18.7778L 7 18.7778L 14.6827 25.5025C 15.9758 26.6343 18 25.7161 18 23.9976L 18 2.00395C 18 0.285446 15.9758 -0.632889 14.6827 0.498947Z"/>
<path id="path3_fill" fill-rule="evenodd" d="M 0.212219 0.384145C 0.552371 -0.0509585 1.18084 -0.127933 1.61594 0.212219C 4.89147 2.77293 7.00004 6.76435 7.00004 11.2477C 7.00004 15.4802 5.12061 19.2749 2.15421 21.8405C 1.73649 22.2018 1.10498 22.1561 0.743694 21.7383C 0.382408 21.3206 0.428157 20.6891 0.845878 20.3278C 3.39174 18.1259 5.00004 14.8752 5.00004 11.2477C 5.00004 7.40581 3.19569 3.98586 0.384145 1.78787C -0.0509585 1.44772 -0.127933 0.819249 0.212219 0.384145Z"/>
<path id="path4_fill" fill-rule="evenodd" d="M 0.3001 0.285759C 0.694565 -0.100785 1.3277 -0.094364 1.71424 0.3001C 5.60154 4.26705 8 9.7029 8 15.6969C 7.98038 21.3544 5.75855 26.6695 2.2379 30.5407C 1.86516 30.9482 1.23263 30.9764 0.825095 30.6037C 0.417562 30.2309 0.389356 29.5984 0.762096 29.1909C 4.07346 25.5923 6.01962 20.9602 6 15.6969C 6 10.2472 3.82158 5.30817 0.285759 1.6999C -0.100785 1.30544 -0.094364 0.672303 0.3001 0.285759Z"/>
<path id="path5_fill" fill-rule="evenodd" d="M 0.338443 0.250128C 0.752593 -0.115247 1.38452 -0.0757064 1.7499 0.338443C 6.67055 5.93725 9.72681 13.4482 9.74548 21.5C 9.72871 29.1281 6.98512 36.2808 2.51928 41.7563C 2.16945 42.1837 1.53941 42.2465 1.11205 41.8967C 0.68469 41.5469 0.621842 40.9168 0.971675 40.4895C 5.25586 35.2759 7.76225 28.7634 7.74548 21.5C 7.76414 13.8328 4.97071 6.99107 0.250128 1.66158C -0.115247 1.24743 -0.0757064 0.615502 0.338443 0.250128Z"/>
<path id="path6_fill" fill-rule="evenodd" d="M 6 0C 2.68628 0 0 2.68628 0 6L 0 34C 0 37.3137 2.68628 40 6 40L 20 40C 23.3137 40 26 37.3137 26 34L 26 6C 26 2.68628 23.3137 0 20 0L 6 0ZM 16 2L 10 2C 10 2.55225 10.4478 3 11 3L 15 3C 15.5522 3 16 2.55225 16 2ZM 13 39C 13.8284 39 14.5 38.3284 14.5 37.5C 14.5 36.6716 13.8284 36 13 36C 12.1716 36 11.5 36.6716 11.5 37.5C 11.5 38.3284 12.1716 39 13 39ZM 3 7C 3 5.89539 3.89539 5 5 5L 21 5C 22.1046 5 23 5.89539 23 7L 23 33C 23 34.1046 22.1046 35 21 35L 5 35C 3.89539 35 3 34.1046 3 33L 3 7Z"/>
<path id="path7_fill" fill-rule="evenodd" d="M 32 0L 8 6L 8 14L 8 31.9996C 7.16431 31.3719 6.12561 31 5 31C 2.23853 31 0 33.2385 0 36C 0 38.7615 2.23853 41 5 41C 7.76147 41 10 38.7615 10 36L 10 13.5L 30 8.5L 30 26.9996C 29.1643 26.3719 28.1256 26 27 26C 24.2385 26 22 28.2385 22 31C 22 33.7615 24.2385 36 27 36C 29.7615 36 32 33.7615 32 31L 32 8L 32 1L 32 0Z"/>
<path id="path8_fill" d="M 3.83807 1.13186e-32L 3.83807 0L 5.14071 0L 5.14071 5.55292e-33C 5.49926 3.24739e-17 5.84312 0.142432 6.09665 0.395963C 6.09665 0.395964 6.09665 0.395965 6.09665 0.395965C 7.02438 1.32369 7.1522 2.78355 6.39982 3.85838C 6.39982 3.85839 6.39982 3.85839 6.39982 3.85839L 6.16549 4.19314C 6.16549 4.19314 6.16549 4.19314 6.16549 4.19314C 4.96003 5.91522 4.82381 8.16836 5.81302 10.0231C 5.81302 10.0231 5.81302 10.0231 5.81302 10.0231L 9.45302 16.8481C 9.45302 16.8481 9.45302 16.8481 9.45302 16.8481C 11.1243 19.9819 10.7965 23.8054 8.61601 26.6089L 5.83894 30.1794C 5.58162 30.5102 5.05589 30.3967 4.95807 29.9891L 0.384082 10.9308C 0.384082 10.9308 0.384082 10.9308 0.384082 10.9308C -0.380241 7.74612 0.00375343 4.39387 1.46843 1.46452C 1.46843 1.46452 1.46843 1.46452 1.46843 1.46452C 1.91721 0.566965 2.83457 9.25004e-17 3.83807 1.13186e-32Z"/>
<path id="path9_fill" d="M 15.4439 28L 24.2007 28C 26.4098 28 28.2007 29.7909 28.2007 32L 28.2007 33C 28.2007 35.2091 26.4098 37 24.2007 37L 13.1002 37C 11.2437 37 9.46319 36.2625 8.15044 34.9498C 8.15044 34.9497 8.15044 34.9497 8.15043 34.9497L 7.0354 33.8347C 7.0354 33.8347 7.0354 33.8347 7.0354 33.8347C 6.59845 33.3978 6.65843 32.673 7.16127 32.3139C 7.16127 32.3139 7.16127 32.3139 7.16127 32.3139L 11.3753 29.3039C 12.5625 28.4559 13.985 28 15.4439 28Z"/>
<path id="path10_fill" d="M 59.5625 42.9L 59.5625 46L 34.7625 46L 34.7625 43.15L 48.5625 28.75C 50.1625 27.0833 51.4292 25.4667 52.3625 23.9C 53.2958 22.3 53.7625 20.9167 53.7625 19.75C 53.7625 17.9167 53.0792 16.4833 51.7125 15.45C 50.3458 14.4167 48.4458 13.9 46.0125 13.9C 44.3458 13.9 42.6292 14.2833 40.8625 15.05C 39.0958 15.7833 37.4958 16.8167 36.0625 18.15L 34.5125 15.6C 36.2125 14.1 38.0958 12.9333 40.1625 12.1C 42.2625 11.2667 44.3458 10.85 46.4125 10.85C 49.7458 10.85 52.3958 11.6167 54.3625 13.15C 56.3625 14.6833 57.3625 16.7333 57.3625 19.3C 57.3625 20.8667 56.7792 22.6333 55.6125 24.6C 54.4792 26.5333 52.9125 28.55 50.9125 30.65L 39.1125 42.9L 59.5625 42.9ZM 79.8781 10.85C 84.5115 10.85 88.0615 12.3833 90.5281 15.45C 92.9948 18.4833 94.2281 22.8333 94.2281 28.5C 94.2281 34.1667 92.9948 38.5333 90.5281 41.6C 88.0615 44.6667 84.5115 46.2 79.8781 46.2C 75.2781 46.2 71.7281 44.6667 69.2281 41.6C 66.7615 38.5333 65.5281 34.1667 65.5281 28.5C 65.5281 22.8333 66.7615 18.4833 69.2281 15.45C 71.7281 12.3833 75.2781 10.85 79.8781 10.85ZM 79.8781 13.6C 76.3448 13.6 73.6615 14.8667 71.8281 17.4C 69.9948 19.9 69.0781 23.6 69.0781 28.5C 69.0781 33.4 69.9948 37.1167 71.8281 39.65C 73.6615 42.15 76.3448 43.4 79.8781 43.4C 83.4115 43.4 86.0948 42.15 87.9281 39.65C 89.7948 37.1167 90.7281 33.4 90.7281 28.5C 90.7281 23.6 89.7948 19.9 87.9281 17.4C 86.0948 14.8667 83.4115 13.6 79.8781 13.6Z"/>
<path id="path11_fill" d="M 107.12 7.6C 109.487 7.6 111.437 8.33333 112.97 9.8C 114.504 11.2333 115.27 13.1 115.27 15.4C 115.27 17.7 114.504 19.5667 112.97 21C 111.47 22.4333 109.52 23.15 107.12 23.15C 104.687 23.15 102.704 22.4333 101.17 21C 99.6703 19.5667 98.9203 17.7 98.9203 15.4C 98.9203 13.1 99.6703 11.2333 101.17 9.8C 102.704 8.33333 104.687 7.6 107.12 7.6ZM 107.12 9.7C 105.454 9.7 104.087 10.2333 103.02 11.3C 101.987 12.3333 101.47 13.7 101.47 15.4C 101.47 17.1 101.987 18.4833 103.02 19.55C 104.087 20.6167 105.454 21.15 107.12 21.15C 108.754 21.15 110.087 20.6167 111.12 19.55C 112.154 18.4833 112.67 17.1 112.67 15.4C 112.67 13.7 112.154 12.3333 111.12 11.3C 110.087 10.2333 108.754 9.7 107.12 9.7Z"/>
<path id="path12_fill" d="M 3.54217 10C 3.54217 17.5 16.6988 21.5 16.6988 21.5C 16.6988 21.5 14.6747 24 12.1446 24C 9.61446 24 8.60241 22 5.56627 22C 2.53012 22 0 23.5 0 27C 0 30.5 2.53012 38 10.1205 38C 17.7108 38 21.759 26 21.759 26C 21.759 26 24.2892 27.5 24.2892 30C 24.2892 32.5 22.2651 33.5 22.2651 36.5C 22.2651 39.5 23.7831 42 27.3253 42C 30.8675 42 38.4578 39.5 38.4578 32C 38.4578 24.5 25.8072 20.5 25.8072 20.5C 25.8072 20.5 27.3253 18 29.8554 18C 32.3855 18 33.3976 20 36.4337 20C 39.4699 20 42 18.5 42 15C 42 11.5 39.4699 4 31.8795 4C 24.2892 4 20.241 16 20.241 16C 20.241 16 17.7108 14.5 17.7108 12C 17.7108 9.5 19.7349 8.5 19.7349 5.5C 19.7349 2.5 18.2169 0 14.6747 0C 11.1325 0 3.54217 2.5 3.54217 10Z"/>
<path id="path13_fill" d="M 17.5254 7.5L 19.8204 7.5L 23.3004 14.265L 26.7504 7.5L 29.0454 7.5L 29.0454 18L 27.2004 18L 27.2004 10.47L 23.9304 16.92L 22.6404 16.92L 19.3554 10.47L 19.3554 18L 17.5254 18L 17.5254 7.5ZM 39.4018 18L 38.4718 15.78L 33.3418 15.78L 32.4118 18L 30.3268 18L 34.9318 7.5L 37.0168 7.5L 41.5618 18L 39.4018 18ZM 34.0618 14.055L 37.7518 14.055L 35.9218 9.645L 34.0618 14.055ZM 50.1579 7.5L 52.1079 7.5L 52.1079 18L 50.2029 18L 44.8029 10.77L 44.8029 18L 42.8379 18L 42.8379 7.5L 44.7429 7.5L 50.1579 14.745L 50.1579 7.5ZM 56.5034 13.68C 56.5034 14.51 56.7384 15.16 57.2084 15.63C 57.6784 16.1 58.3084 16.335 59.0984 16.335C 59.8884 16.335 60.5084 16.1 60.9584 15.63C 61.4184 15.16 61.6484 14.51 61.6484 13.68L 61.6484 7.5L 63.6584 7.5L 63.6584 13.68C 63.6584 14.59 63.4734 15.385 63.1034 16.065C 62.7334 16.735 62.2034 17.25 61.5134 17.61C 60.8334 17.97 60.0284 18.15 59.0984 18.15C 58.1584 18.15 57.3384 17.97 56.6384 17.61C 55.9484 17.25 55.4184 16.735 55.0484 16.065C 54.6784 15.385 54.4934 14.59 54.4934 13.68L 54.4934 7.5L 56.5034 7.5L 56.5034 13.68ZM 73.5034 18L 72.5734 15.78L 67.4434 15.78L 66.5134 18L 64.4284 18L 69.0334 7.5L 71.1184 7.5L 75.6634 18L 73.5034 18ZM 68.1634 14.055L 71.8534 14.055L 70.0234 9.645L 68.1634 14.055ZM 76.9394 7.5L 78.9494 7.5L 78.9494 16.185L 83.4794 16.185L 83.4794 18L 76.9394 18L 76.9394 7.5Z"/>
<path id="path14_fill" d="M 59.5625 42.9L 59.5625 46L 34.7625 46L 34.7625 43.15L 48.5625 28.75C 50.1625 27.0833 51.4292 25.4667 52.3625 23.9C 53.2958 22.3 53.7625 20.9167 53.7625 19.75C 53.7625 17.9167 53.0792 16.4833 51.7125 15.45C 50.3458 14.4167 48.4458 13.9 46.0125 13.9C 44.3458 13.9 42.6292 14.2833 40.8625 15.05C 39.0958 15.7833 37.4958 16.8167 36.0625 18.15L 34.5125 15.6C 36.2125 14.1 38.0958 12.9333 40.1625 12.1C 42.2625 11.2667 44.3458 10.85 46.4125 10.85C 49.7458 10.85 52.3958 11.6167 54.3625 13.15C 56.3625 14.6833 57.3625 16.7333 57.3625 19.3C 57.3625 20.8667 56.7792 22.6333 55.6125 24.6C 54.4792 26.5333 52.9125 28.55 50.9125 30.65L 39.1125 42.9L 59.5625 42.9ZM 79.8781 10.85C 84.5115 10.85 88.0615 12.3833 90.5281 15.45C 92.9948 18.4833 94.2281 22.8333 94.2281 28.5C 94.2281 34.1667 92.9948 38.5333 90.5281 41.6C 88.0615 44.6667 84.5115 46.2 79.8781 46.2C 75.2781 46.2 71.7281 44.6667 69.2281 41.6C 66.7615 38.5333 65.5281 34.1667 65.5281 28.5C 65.5281 22.8333 66.7615 18.4833 69.2281 15.45C 71.7281 12.3833 75.2781 10.85 79.8781 10.85ZM 79.8781 13.6C 76.3448 13.6 73.6615 14.8667 71.8281 17.4C 69.9948 19.9 69.0781 23.6 69.0781 28.5C 69.0781 33.4 69.9948 37.1167 71.8281 39.65C 73.6615 42.15 76.3448 43.4 79.8781 43.4C 83.4115 43.4 86.0948 42.15 87.9281 39.65C 89.7948 37.1167 90.7281 33.4 90.7281 28.5C 90.7281 23.6 89.7948 19.9 87.9281 17.4C 86.0948 14.8667 83.4115 13.6 79.8781 13.6Z"/>
<path id="path15_fill" d="M 107.12 7.6C 109.487 7.6 111.437 8.33333 112.97 9.8C 114.504 11.2333 115.27 13.1 115.27 15.4C 115.27 17.7 114.504 19.5667 112.97 21C 111.47 22.4333 109.52 23.15 107.12 23.15C 104.687 23.15 102.704 22.4333 101.17 21C 99.6703 19.5667 98.9203 17.7 98.9203 15.4C 98.9203 13.1 99.6703 11.2333 101.17 9.8C 102.704 8.33333 104.687 7.6 107.12 7.6ZM 107.12 9.7C 105.454 9.7 104.087 10.2333 103.02 11.3C 101.987 12.3333 101.47 13.7 101.47 15.4C 101.47 17.1 101.987 18.4833 103.02 19.55C 104.087 20.6167 105.454 21.15 107.12 21.15C 108.754 21.15 110.087 20.6167 111.12 19.55C 112.154 18.4833 112.67 17.1 112.67 15.4C 112.67 13.7 112.154 12.3333 111.12 11.3C 110.087 10.2333 108.754 9.7 107.12 9.7Z"/>
<path id="path16_fill" fill-rule="evenodd" d="M 2 2L 34 2L 34 20.0706L 26.309 20.0706L 26.309 17.7793C 26.2992 17.4016 26.4003 17.0841 26.5724 16.6293C 26.6441 16.4386 26.7234 16.2499 26.8027 16.061L 26.8032 16.0599C 26.9965 15.5992 27.1902 15.1377 27.2771 14.6444L 29.118 14.6444L 26.309 9.0083L 23.5 14.6444L 25.21 14.6444C 25.1327 14.8594 25.0395 15.0848 24.9439 15.316C 24.8621 15.5142 24.7785 15.7166 24.7016 15.92C 24.503 16.449 24.3189 17.1194 24.309 17.7806L 24.309 20.0706L 18.309 20.0706L 18.309 17.7793C 18.2992 17.4016 18.4003 17.0841 18.5724 16.6293C 18.6441 16.4386 18.7234 16.2499 18.8027 16.061L 18.8032 16.0599C 18.9965 15.5992 19.1902 15.1377 19.2771 14.6444L 21.118 14.6444L 18.309 9.0083L 15.5 14.6444L 17.21 14.6444C 17.1327 14.8594 17.0395 15.0848 16.9439 15.316C 16.8621 15.5142 16.7785 15.7166 16.7016 15.92C 16.503 16.449 16.3189 17.1194 16.309 17.7806L 16.309 20.0706L 10.31 20.0706L 10.31 17.7793C 10.3001 17.4016 10.4012 17.0841 10.5734 16.6293C 10.6451 16.4386 10.7243 16.2499 10.8036 16.061L 10.8041 16.0599C 10.9974 15.5992 11.1911 15.1377 11.2781 14.6444L 13.119 14.6444L 10.31 9.0083L 7.50098 14.6444L 9.21094 14.6444C 9.13364 14.8594 9.04047 15.0848 8.94492 15.316C 8.86304 15.5142 8.77945 15.7166 8.70258 15.92C 8.50397 16.449 8.31985 17.1194 8.31 17.7806L 8.31 20.0706L 2 20.0706L 2 2ZM 0 2C 0 0.895386 0.895416 0 2 0L 34 0C 35.1046 0 36 0.895386 36 2L 36 20.0706C 36 21.1752 35.1046 22.0706 34 22.0706L 28.8423 22.0706C 29.1009 22.799 29.31 23.7026 29.31 24.6766C 29.3087 25.7297 29.1645 27.1359 28.7635 28.4272C 28.3517 29.7357 27.6349 31.0784 26.41 32L 25.21 30.3949C 25.9851 29.8116 26.5183 28.8971 26.8564 27.823C 27.2054 26.7318 27.3112 25.6299 27.31 24.6766C 27.31 23.6044 26.9503 22.6239 26.6745 22.0706L 20.8423 22.0706C 21.1009 22.799 21.31 23.7026 21.31 24.6766C 21.3087 25.7297 21.1645 27.1359 20.7635 28.4272C 20.3517 29.7357 19.6349 31.0784 18.41 32L 17.21 30.3949C 17.9851 29.8116 18.5183 28.8971 18.8564 27.823C 19.2054 26.7318 19.3112 25.6299 19.31 24.6766C 19.31 23.6044 18.9503 22.6239 18.6745 22.0706L 12.3423 22.0706C 12.6009 22.799 12.81 23.7026 12.81 24.6766C 12.8087 25.7297 12.6645 27.1359 12.2635 28.4272C 11.8517 29.7357 11.1349 31.0784 9.90997 32L 8.70996 30.3949C 9.48508 29.8116 10.0183 28.8971 10.3564 27.823C 10.7054 26.7318 10.8112 25.6299 10.81 24.6766C 10.81 23.6044 10.4503 22.6239 10.1745 22.0706L 2 22.0706C 0.895416 22.0706 0 21.1752 0 20.0706L 0 2Z"/>
<path id="path17_fill" fill-rule="evenodd" d="M 5.03955 6.27699L 2.64697 7.73256L 9.52371 21.8045L 10.4144 21.8045L 10.4144 20.3848C 10.4243 19.7035 10.6103 19.0128 10.8109 18.4679C 10.8885 18.2584 10.9729 18.0502 11.0555 17.8463L 11.0573 17.8419C 11.1533 17.605 11.2468 17.3739 11.3245 17.1537L 9.59717 17.1537L 12.4346 11.3474L 15.2721 17.1537L 13.4125 17.1537C 13.3246 17.6622 13.1287 18.1383 12.9332 18.6133C 12.8531 18.8079 12.7731 19.0023 12.7007 19.1986C 12.5268 19.6671 12.4247 19.9943 12.4346 20.3834L 12.4346 21.8045L 18.4944 21.8045L 18.4944 20.406C 18.5044 19.7247 18.6904 19.0341 18.891 18.4892C 18.9686 18.2797 19.0529 18.0714 19.1356 17.8676L 19.1374 17.8632C 19.2333 17.6262 19.3269 17.3952 19.4045 17.1749L 17.6772 17.1749L 20.5147 11.3687L 23.3521 17.1749L 21.4926 17.1749C 21.4047 17.6835 21.2087 18.1596 21.0133 18.6345C 20.9332 18.8291 20.8532 19.0236 20.7807 19.2199C 20.6069 19.6884 20.5048 20.0155 20.5147 20.4047L 20.5147 21.8045L 26.0701 21.8045L 26.0701 20.3848C 26.0801 19.7035 26.2661 19.0128 26.4667 18.4679C 26.5443 18.2584 26.6286 18.0502 26.7113 17.8463L 26.713 17.8419C 26.809 17.605 26.9026 17.3739 26.9802 17.1537L 25.2529 17.1537L 28.0904 11.3474L 30.9278 17.1537L 29.0683 17.1537C 28.9804 17.6622 28.7844 18.1383 28.589 18.6133C 28.5089 18.8079 28.4289 19.0023 28.3564 19.1986C 28.1826 19.6671 28.0804 19.9943 28.0904 20.3834L 28.0904 21.8045L 30.9839 21.8045L 37.3962 7.74574L 34.982 6.27699C 25.7551 0.663712 14.2664 0.663712 5.03955 6.27699ZM 36.0145 4.50038L 39.2143 6.44691L 39.9999 6.92494L 39.6134 7.77235L 32.5425 23.275L 32.2705 23.8715L 31.6272 23.8715L 30.1786 23.8715C 30.4237 24.6038 30.6166 25.4966 30.6166 26.4555C 30.6154 27.5404 30.4696 28.989 30.0647 30.3194C 29.6486 31.6675 28.9245 33.0507 27.6873 34.0001L 26.4751 32.3465C 27.2581 31.7456 27.7967 30.8035 28.1382 29.6969C 28.4908 28.5728 28.5976 27.4375 28.5963 26.4555C 28.5963 25.4131 28.2729 24.4552 28.0024 23.8715L 22.098 23.8715C 22.3431 24.6038 22.536 25.4966 22.536 26.4555C 22.5348 27.5404 22.3891 28.989 21.9841 30.3194C 21.568 31.6675 20.844 33.0507 19.6067 34.0001L 18.3945 32.3465C 19.1775 31.7456 19.7161 30.8035 20.0576 29.6969C 20.4102 28.5728 20.5171 27.4375 20.5158 26.4555C 20.5158 25.4131 20.1924 24.4552 19.9218 23.8715L 13.5116 23.8715C 13.7567 24.6038 13.9496 25.4966 13.9496 26.4555C 13.9484 27.5404 13.8026 28.989 13.3977 30.3194C 12.9816 31.6675 12.2575 33.0507 11.0203 34.0001L 9.80811 32.3465C 10.5911 31.7456 11.1297 30.8035 11.4712 29.6969C 11.8238 28.5728 11.9306 27.4375 11.9294 26.4555C 11.9294 25.4131 11.6059 24.4552 11.3354 23.8715L 8.89941 23.8715L 8.27512 23.8715L 7.99594 23.3002L 0.420013 7.7975L 0 6.938L 0.80722 6.44691L 3.83517 4.60487L 4.00705 4.50026C 13.8703 -1.50011 26.1512 -1.50011 36.0145 4.50038Z"/>
<path id="path18_fill" fill-rule="evenodd" d="M 42 34L 41 34C 39.3431 34 38 32.6569 38 31L 11 31C 9.82821 31 8.82058 31.8143 7.83813 32.6083C 7.43146 32.937 7.02909 33.2622 6.62119 33.5247C 6.15369 33.8254 5.59723 34 5 34L 4 34C 2.34315 34 1 32.6569 1 31L 1 17.4852C 1 15.894 1.63214 14.3679 2.75736 13.2427L 4 12L 1.97301 12C 0.883347 12 0 11.1167 0 10.027C 0 9.42346 0.410774 8.89734 0.996323 8.75098L 2.75746 8.31067C 3.38861 8.15283 4 8.63025 4 9.28076L 4 11L 5 11L 6.79419 4.42126C 7.50611 1.81091 9.87707 0 12.5828 0L 33.4172 0C 36.1229 0 38.4939 1.81091 39.2058 4.42126L 41 11L 42 11L 42 9.28076C 42 8.63025 42.6114 8.15283 43.2425 8.31067L 45.0037 8.75098C 45.5892 8.89734 46 9.42346 46 10.027C 46 11.1167 45.1167 12 44.027 12L 42 12L 43.2426 13.2427C 44.3679 14.3679 45 15.894 45 17.4852L 45 31C 45 32.6569 43.6569 34 42 34ZM 7.71738 5.27588L 6.1158 10.6145C 6.05138 10.8292 6.16923 11.0563 6.38197 11.1273C 8.1161 11.7053 9.93208 12 11.76 12L 34.3382 12C 36.1662 12 37.9822 11.7053 39.7164 11.1272C 39.929 11.0563 40.0469 10.8292 39.9825 10.6145L 38.3809 5.27588C 37.6195 2.73804 35.2836 1 32.6339 1L 13.4643 1C 10.8147 1 8.47876 2.73804 7.71738 5.27588ZM 39.9966 13.3215C 38.3272 14.9598 36.925 16.2239 34.3301 17.3004C 34.0759 17.4059 33.9756 17.7174 34.1282 17.9463C 34.5615 18.5962 35.3136 18.9594 36.092 18.8945L 38.8409 18.6654C 40.1255 18.5583 41.3306 17.9994 42.2422 17.0879C 42.8702 16.46 42.9521 15.47 42.4359 14.7473L 41.5108 13.4521C 41.1536 12.952 40.4352 12.8911 39.9966 13.3215ZM 5.834 13.3217C 7.50339 14.96 8.9055 16.224 11.5005 17.3005C 11.7546 17.406 11.8549 17.7175 11.7023 17.9464C 11.2691 18.5963 10.5169 18.9595 9.73853 18.8947L 6.98969 18.6655C 5.70503 18.5585 4.4999 17.9995 3.58836 17.088C 2.96037 16.4601 2.87844 15.4701 3.39464 14.7474L 4.31974 13.4523C 4.67695 12.9521 5.39538 12.8912 5.834 13.3217ZM 9.00005 25C 6.39957 24.525 5.05862 24.1195 3.00005 23L 2.81068 23.7574C 2.6529 24.3887 3.13026 25 3.78083 25L 9.00005 25ZM 36.7803 25C 39.3808 24.525 40.7218 24.1195 42.7803 23L 42.9697 23.7574C 43.1275 24.3887 42.6501 25 41.9996 25L 36.7803 25ZM 11.7071 27.2928C 11.8947 27.1053 12.149 27 12.4142 27L 33.5858 27C 33.851 27 34.1054 27.1053 34.2929 27.2928L 35.1465 28.1465C 35.4614 28.4614 35.2383 29 34.7929 29L 11.2071 29C 10.7617 29 10.5386 28.4614 10.8536 28.1465L 11.7071 27.2928Z"/>
</defs>
</svg>
