<?xml version="1.0" encoding="UTF-8" standalone="no"?><!DOCTYPE svg PUBLIC "-//W3C//DTD SVG 1.1//EN" "http://www.w3.org/Graphics/SVG/1.1/DTD/svg11.dtd"><svg width="100%" height="100%" viewBox="0 0 2417 4375" version="1.1" xmlns="http://www.w3.org/2000/svg" xmlns:xlink="http://www.w3.org/1999/xlink" xml:space="preserve" xmlns:serif="http://www.serif.com/" style="fill-rule:evenodd;clip-rule:evenodd;stroke-linejoin:round;stroke-miterlimit:1.41421;"><g id="Sidebar"><g id="Dark"><g id="Group"><path id="path0_fill" d="M1141.67,4250c0,11.506 -9.328,20.833 -20.834,20.833c-11.506,0 -20.833,-9.327 -20.833,-20.833c0,-11.506 9.327,-20.833 20.833,-20.833c11.506,0 20.834,9.327 20.834,20.833Z" style="fill:#fff;fill-opacity:0.8;fill-rule:nonzero;"/><path id="path0_fill1" serif:id="path0_fill" d="M1245.83,4250c0,11.506 -9.327,20.833 -20.833,20.833c-11.506,0 -20.833,-9.327 -20.833,-20.833c0,-11.506 9.327,-20.833 20.833,-20.833c11.506,0 20.833,9.327 20.833,20.833Z" style="fill:#fff;fill-opacity:0.4;fill-rule:nonzero;"/><path id="path0_fill2" serif:id="path0_fill" d="M1350,4250c0,11.506 -9.327,20.833 -20.833,20.833c-11.506,0 -20.834,-9.327 -20.834,-20.833c0,-11.506 9.328,-20.833 20.834,-20.833c11.506,0 20.833,9.327 20.833,20.833Z" style="fill:#fff;fill-opacity:0.4;fill-rule:nonzero;"/></g><g id="action-icons" serif:id="action icons"><path id="path1_fill" d="M1829.17,3562.5c-13.808,0 -25,11.194 -25,25l0,58.333c0,13.807 11.192,25 25,25c13.807,0 25,-11.193 25,-25l0,-58.333c0,-13.806 -11.193,-25 -25,-25Zm-33.334,75c0,-4.602 -3.731,-8.333 -8.333,-8.333c-4.602,0 -8.333,3.731 -8.333,8.333l0,8.333c0,24.775 18.018,45.341 41.666,49.309l0,9.025l-25,0c-4.602,0 -8.333,3.731 -8.333,8.333c0,4.602 3.731,8.333 8.333,8.333l66.667,0c4.602,0 8.333,-3.731 8.333,-8.333c0,-4.602 -3.731,-8.333 -8.333,-8.333l-25,0l0,-9.025c23.648,-3.968 41.667,-24.534 41.667,-49.309l0,-8.333c0,-4.602 -3.732,-8.333 -8.334,-8.333c-4.602,0 -8.333,3.731 -8.333,8.333l0,8.333c0,18.411 -14.924,33.334 -33.333,33.334c-18.41,0 -33.334,-14.923 -33.334,-33.334l0,-8.333Z" style="fill:#fff;fill-opacity:0.4;"/><path id="path2_fill" d="M650,3641.67c0,39.119 -31.713,70.833 -70.833,70.833c-39.121,0 -70.834,-31.714 -70.834,-70.833c0,-39.12 31.713,-70.834 70.834,-70.834c39.12,0 70.833,31.714 70.833,70.834Zm-12.5,0c0,32.216 -26.117,58.333 -58.333,58.333c-32.217,0 -58.334,-26.117 -58.334,-58.333c0,-32.217 26.117,-58.334 58.334,-58.334c32.216,0 58.333,26.117 58.333,58.334Zm-58.333,45.833c25.313,0 45.833,-20.52 45.833,-45.833c0,-25.314 -20.52,-45.834 -45.833,-45.834c-25.314,0 -45.834,20.52 -45.834,45.834c0,25.313 20.52,45.833 45.834,45.833Zm-12.5,-41.667c9.205,0 16.666,-7.462 16.666,-16.666c0,-9.204 -7.461,-16.667 -16.666,-16.667c-9.205,0 -16.667,7.463 -16.667,16.667c0,9.204 7.462,16.666 16.667,16.666Zm37.5,14.584c0,5.753 -4.665,10.416 -10.417,10.416c-5.753,0 -10.417,-4.663 -10.417,-10.416c0,-5.754 4.664,-10.417 10.417,-10.417c5.752,0 10.417,4.663 10.417,10.417Z" style="fill:#fff;fill-opacity:0.4;"/><path id="path3_fill" d="M1205.18,3623.4l0,-60.898l-38.191,91.667c-1.144,2.744 0.87,5.769 3.845,5.769l32.312,0l0,60.897l38.191,-91.667c1.144,-2.744 -0.87,-5.768 -3.845,-5.768l-32.312,0Z" style="fill:#fff;fill-opacity:0.4;"/></g><g id="driving"><rect x="0" y="862.5" width="2416.67" height="2500" style="fill:#0e0e0e;fill-rule:nonzero;"/><g id="Dark1" serif:id="Dark"><g id="Group1" serif:id="Group"><path id="path4_stroke" d="M1802.8,2880.88l-454.443,-1160.42l19.396,-7.597l454.445,1160.41l-19.398,7.6Zm-1208.32,-7.629l458.534,-1160.41l19.375,7.656l-458.534,1160.42l-19.375,-7.659Z" style="fill:#0e0e0e;fill-rule:nonzero;"/><path id="path5_stroke" d="M1781.96,2880.85l-450.619,-1160.42l19.421,-7.541l450.619,1160.42l-19.421,7.542Zm-1166.66,-7.542l450.616,-1160.42l19.421,7.541l-450.621,1160.42l-19.416,-7.542Z" style="fill:#24c0ff;fill-rule:nonzero;"/><path id="path6_fill" d="M1414.47,1851.15l311.041,706.58c60.613,137.696 -40.233,292.271 -190.676,292.271l-652.999,0c-150.441,0 -251.287,-154.575 -190.675,-292.271l311.042,-706.58c35.975,-81.728 116.837,-134.482 206.133,-134.482c89.296,0 170.159,52.754 206.134,134.482Z" style="fill:url(#_Linear1);fill-rule:nonzero;"/><path id="path7_fill" d="M1490.15,1755.46l464.077,779.645c82.661,138.871 -17.41,314.892 -179.02,314.892l-1142.09,0c-161.608,0 -261.679,-176.021 -179.017,-314.892l464.075,-779.646c45.075,-75.728 126.692,-122.129 214.821,-122.129l142.333,0c88.13,0 169.746,46.401 214.821,122.13Z" style="fill:url(#_Linear2);fill-rule:nonzero;"/><rect id="path8_fill" x="0" y="1516.67" width="2416.67" height="487.5" style="fill:url(#_Linear3);fill-rule:nonzero;"/><rect id="path9_fill" x="0" y="2400" width="2416.67" height="587.5" style="fill:url(#_Linear4);fill-rule:nonzero;"/><g id="Model-3" serif:id="Model 3"><path id="path10_fill" d="M1479.17,2791.67c0,59.831 -122.188,108.333 -272.917,108.333c-150.728,0 -272.917,-48.502 -272.917,-108.333c0,-59.831 122.189,-108.334 272.917,-108.334c150.729,0 272.917,48.503 272.917,108.334Z" style="fill-rule:nonzero;"/><g id="Headlights"><path id="path11_fill" d="M1829.17,2222.92c0,0 -278.888,177.083 -622.917,177.083c-344.027,0 -622.917,-177.083 -622.917,-177.083c0,-97.801 278.89,-177.084 622.917,-177.084c344.029,0 622.917,79.283 622.917,177.084Z" style="fill:url(#_Linear5);fill-rule:nonzero;"/><path id="path12_fill" d="M1558.33,2302.1c0,58.68 -157.633,106.25 -352.083,106.25c-194.45,0 -352.083,-47.57 -352.083,-106.25c0,-58.681 157.633,-56.25 352.083,-56.25c194.45,0 352.083,-2.431 352.083,56.25Z" style="fill:#fff;fill-opacity:0.298039;fill-rule:nonzero;"/></g><g id="Car"><path id="path13_fill" d="M1016.67,2845.83c-13.334,1.667 -19.445,9.03 -20.834,12.5l-39.583,0c-11.111,-11.804 -33.333,-47.083 -33.333,-93.75c0,-58.333 0,-93.75 8.333,-106.25c8.333,-12.5 33.333,-100 37.5,-143.75c4.167,-43.75 12.5,-137.5 22.917,-156.25c10.416,-18.75 22.916,-35.416 41.666,-41.666c18.75,-6.25 31.25,-6.25 39.584,-6.25c6.666,0 15.278,6.944 18.75,10.416c22.916,-1.389 80.833,-4.166 112.5,-4.166l2.083,0c31.667,0 89.583,2.777 112.5,4.166c3.472,-3.472 12.083,-10.416 18.75,-10.416c8.333,0 20.833,0 39.583,6.25c18.75,6.25 31.25,22.916 41.667,41.666c10.417,18.75 18.75,112.5 22.917,156.25c4.166,43.75 29.166,131.25 37.5,143.75c8.333,12.5 8.333,47.917 8.333,106.25c0,46.667 -22.221,81.946 -33.333,93.75l-39.584,0c-1.387,-3.47 -7.5,-10.833 -20.833,-12.5c-16.667,-2.083 -158.333,-4.166 -187.5,-4.166l-2.083,0c-29.167,0 -170.834,2.083 -187.5,4.166Z" style="fill:#f7f7f7;fill-rule:nonzero;"/><path id="path14_fill" d="M950.375,2602.58c18.717,-3.869 44.861,-14.675 51.721,-37.996c2.718,-9.246 4.871,-20.623 7.158,-32.72c6.477,-34.241 14.046,-74.258 38.676,-88.113l308.333,0c24.629,13.855 32.2,53.872 38.675,88.112c2.287,12.098 4.441,23.475 7.158,32.721c7.708,26.209 39.775,36.611 58.283,39.124c-8.362,-30.167 -16.483,-65.841 -18.7,-89.124l-0.758,-8.006c-4.371,-46.261 -12.338,-130.57 -22.158,-148.244c-10.417,-18.75 -22.917,-35.416 -41.667,-41.666c-18.75,-6.25 -31.25,-6.25 -39.583,-6.25c-6.665,0 -15.279,6.944 -18.75,10.416c-22.917,-1.389 -80.835,-4.166 -112.5,-4.166l-2.083,0c-31.665,0 -89.584,2.777 -112.5,4.166c-3.471,-3.472 -12.085,-10.416 -18.75,-10.416c-8.334,0 -20.834,0 -39.584,6.25c-18.75,6.25 -31.25,22.916 -41.666,41.666c-9.819,17.674 -17.786,101.983 -22.16,148.244l-0.757,8.006c-2.189,22.993 -10.132,58.072 -18.388,87.996Z" style="fill:#fff;"/><g id="Group2" serif:id="Group"><g id="Vector-2" serif:id="Vector 2"><path id="path15_fill" d="M1025,2502.08l0,-154.166c-20.833,20.833 -33.333,87.5 -33.333,125c0,37.5 12.5,52.083 18.75,52.083c6.25,0 14.583,-10.417 14.583,-22.917Z" style="fill:#252525;fill-rule:nonzero;"/><path id="path16_stroke_2x" d="M1025,2347.92l2.083,0c0,-0.843 -0.507,-1.603 -1.286,-1.925c-0.778,-0.323 -1.674,-0.144 -2.27,0.452l1.473,1.473Zm-2.083,0l0,154.166l4.166,0l0,-154.166l-4.166,0Zm0,154.166c0.031,5.889 -1.853,11.026 -4.582,14.966c-2.736,3.979 -5.837,5.868 -7.918,5.868l0,4.166c4.168,0 8.359,-3.32 11.352,-7.673c3,-4.394 5.283,-10.715 5.314,-17.327l-4.166,0Zm-12.5,20.834c-0.801,0 -2.263,-0.512 -4.13,-2.29c-1.916,-1.812 -3.839,-4.493 -5.703,-8.49c-3.742,-7.985 -6.834,-20.684 -6.834,-39.22l-4.167,0c0,18.963 3.159,32.305 7.229,40.988c2.042,4.336 4.416,7.645 6.601,9.739c2.236,2.129 4.68,3.439 7.004,3.439l0,-4.166Zm-16.667,-50c-0.004,-18.626 3.092,-44.425 8.797,-68.266c5.73,-23.962 13.965,-45.3 23.926,-55.261l-2.946,-2.946c-10.872,10.872 -19.304,33.283 -25.032,57.238c-5.754,24.076 -8.908,50.361 -8.912,69.235l4.167,0Z" style="fill:#a3a3a3;fill-rule:nonzero;"/></g><g id="Vector-3" serif:id="Vector 3"><path id="path17_fill" d="M1037.5,2541.67l0,-197.917c13.889,-6.25 59.167,-18.75 129.167,-18.75l66.666,0c70,0 115.278,12.5 129.167,18.75l0,197.917c0,31.25 -27.083,58.333 -108.333,58.333l-108.334,0c-81.25,0 -108.333,-27.083 -108.333,-58.333Z" style="fill:#545454;fill-rule:nonzero;"/><path id="path17_fill1" serif:id="path17_fill" d="M1037.5,2541.67l0,-197.917c13.889,-6.25 59.167,-18.75 129.167,-18.75l66.666,0c70,0 115.278,12.5 129.167,18.75l0,197.917c0,31.25 -27.083,58.333 -108.333,58.333l-108.334,0c-81.25,0 -108.333,-27.083 -108.333,-58.333Z" style="fill:url(#_Radial6);fill-rule:nonzero;"/></g><rect id="path18_fill" x="1079.17" y="2329.17" width="241.667" height="54.167" style="fill:url(#_Radial7);fill-rule:nonzero;"/><g id="Vector-21" serif:id="Vector 2"><path id="path15_fill1" serif:id="path15_fill" d="M1377.08,2502.08l0,-154.166c20.834,20.833 33.334,87.5 33.334,125c0,37.5 -12.5,52.083 -18.75,52.083c-6.25,0 -14.584,-10.417 -14.584,-22.917Z" style="fill:#252525;fill-rule:nonzero;"/><path id="path16_stroke_2x1" serif:id="path16_stroke_2x" d="M1377.08,2347.92l-2.083,0c0,-0.843 0.508,-1.603 1.286,-1.925c0.779,-0.323 1.675,-0.144 2.27,0.452l-1.473,1.473Zm2.084,0l0,154.166l-4.167,0l0,-154.166l4.167,0Zm0,154.166c-0.032,5.889 1.852,11.026 4.581,14.966c2.736,3.979 5.837,5.868 7.919,5.868l0,4.166c-4.169,0 -8.359,-3.32 -11.352,-7.673c-3.001,-4.394 -5.283,-10.715 -5.315,-17.327l4.167,0Zm12.5,20.834c0.801,0 2.263,-0.512 4.129,-2.29c1.916,-1.812 3.839,-4.493 5.703,-8.49c3.743,-7.985 6.834,-20.684 6.834,-39.22l4.167,0c0,18.963 -3.158,32.305 -7.228,40.988c-2.043,4.336 -4.416,7.645 -6.602,9.739c-2.235,2.129 -4.679,3.439 -7.003,3.439l0,-4.166Zm16.666,-50c0.004,-18.626 -3.092,-44.425 -8.797,-68.266c-5.73,-23.962 -13.965,-45.3 -23.926,-55.261l2.946,-2.946c10.873,10.872 19.304,33.283 25.033,57.238c5.753,24.076 8.907,50.361 8.911,69.235l-4.167,0Z" style="fill:#a3a3a3;fill-rule:nonzero;"/></g><path id="path19_stroke" d="M1042.79,2423.15c-1.02,0.532 -1.415,1.791 -0.883,2.811c0.532,1.02 1.791,1.415 2.811,0.883l-1.928,-3.694Zm310.449,3.71c1.029,0.515 2.28,0.098 2.795,-0.931c0.515,-1.029 0.098,-2.281 -0.932,-2.795l-1.863,3.726Zm-308.521,-0.016c15.577,-8.127 68.407,-24.764 153.203,-24.764l0,-4.166c-85.205,0 -138.763,16.696 -155.131,25.236l1.928,3.694Zm153.203,-24.764c84.789,0 139.027,16.635 155.318,24.78l1.863,-3.726c-17.042,-8.522 -71.971,-25.22 -157.181,-25.22l0,4.166Z" style="fill-opacity:0.4;fill-rule:nonzero;"/><path id="path20_fill" d="M1037.5,2529.17l0,12.5c0,31.25 27.083,58.333 108.333,58.333l108.334,0c81.25,0 108.333,-27.083 108.333,-58.333l0,-12.5c0,31.25 -27.083,58.333 -108.333,58.333l-108.334,0c-81.25,0 -108.333,-27.083 -108.333,-58.333Z" style="fill:#f2f2f2;fill-opacity:0.0980392;"/><rect id="path21_fill" x="1143.75" y="2583.33" width="108.333" height="8.333" style="fill:#d0021b;fill-opacity:0.4;fill-rule:nonzero;"/></g><g id="Group3" serif:id="Group"><path id="path22_fill" d="M1047.92,2654.17c15.374,0 25.963,16.604 31.028,28.926c1.191,2.899 -1.384,5.788 -4.48,5.302c-8.785,-1.378 -22.233,-2.978 -34.882,-2.978c-62.5,0 -22.916,10.416 -54.166,10.416c-10.417,0 -35.417,0 -35.417,-20.833c0,-13.866 4.807,-25.81 8.422,-32.231c1.049,-1.864 3.404,-2.382 5.324,-1.441c6.455,3.166 18.324,8.003 32.087,10.755c20.834,4.167 29.167,2.084 52.084,2.084Z" style="fill:#6d0000;fill-rule:nonzero;"/><path id="path23_stroke" d="M1064.62,2681.68c0.25,1.124 1.363,1.832 2.486,1.582c1.123,-0.249 1.831,-1.362 1.582,-2.486l-4.068,0.904Zm-16.716,-21.285l0.294,-2.062l-0.294,2.062Zm-77.083,27.084l-0.343,2.055l0.343,-2.055Zm31.438,-0.009c1.146,-0.104 1.99,-1.117 1.886,-2.263c-0.104,-1.146 -1.117,-1.991 -2.264,-1.886l0.378,4.149Zm-3.745,-11.881c-0.814,0.814 -0.814,2.133 0,2.946c0.813,0.814 2.132,0.814 2.946,0l-2.946,-2.946Zm-19.971,-7.47c0.814,-0.814 0.814,-2.133 0,-2.947c-0.813,-0.813 -2.132,-0.813 -2.946,0l2.946,2.947Zm90.145,12.657c-0.73,-3.261 -2.662,-8.445 -5.868,-12.905c-3.253,-4.492 -8.039,-8.598 -14.622,-9.538l-0.589,4.124c5.084,0.727 8.979,3.913 11.837,7.858c2.905,3.978 4.515,8.377 5.174,11.365l4.068,-0.904Zm-20.49,-22.443c-7.493,-1.061 -17.565,-0.54 -27.173,-0.281c-9.732,0.263 -18.712,0.228 -24.546,-1.717l-1.318,3.953c6.666,2.222 16.437,2.187 25.976,1.929c9.662,-0.261 19.382,-0.782 26.472,0.24l0.589,-4.124Zm-51.719,-1.998c-12.56,-4.186 -23.609,-6.505 -34.766,-2.042l1.548,3.869c9.676,-3.871 19.46,-2.02 31.9,2.126l1.318,-3.953Zm-34.766,-2.042c-3.319,1.328 -5.485,4.202 -6.63,7.502c-1.085,3.188 -1.315,7.242 -0.633,10.963c1.41,7.523 6.58,15.201 16.028,16.776l0.685,-4.11c-7.219,-1.203 -11.424,-7.067 -12.618,-13.434c-0.62,-3.223 -0.459,-6.201 0.474,-8.829c0.873,-2.516 2.353,-4.243 4.242,-4.999l-1.548,-3.869Zm8.765,35.241c16.964,2.827 24.947,-1.443 31.781,-2.064l-0.378,-4.149c-8.444,0.767 -14.348,4.831 -30.718,2.103l-0.685,4.11Zm30.982,-10.999c0.553,-0.553 0.964,-1.401 0.851,-2.413c-0.107,-0.962 -0.649,-1.736 -1.283,-2.316c-1.217,-1.114 -3.384,-2.081 -6.786,-2.932l-1.011,4.043c3.265,0.816 4.57,1.584 4.985,1.963c0.182,0.168 -0.004,0.079 -0.046,-0.297c-0.047,-0.426 0.138,-0.788 0.344,-0.994l2.946,2.946Zm-7.218,-7.661c-4.589,-1.102 -8.172,-0.549 -10.81,-0.021c-2.853,0.57 -4.122,0.833 -5.43,0.179l-1.864,3.727c2.859,1.429 5.756,0.65 8.112,0.179c2.571,-0.514 5.237,-1.003 8.981,-0.021l1.011,-4.043Zm-16.24,0.158c-0.518,-0.259 -0.631,-0.471 -0.653,-0.517c-0.024,-0.052 -0.063,-0.169 -0.009,-0.429c0.127,-0.618 0.651,-1.415 1.203,-1.967l-2.946,-2.947c-0.836,0.837 -1.98,2.332 -2.338,4.074c-0.158,0.844 -0.077,2.113 0.329,3.061c0.507,1.065 1.401,1.877 2.55,2.452l1.864,-3.727Z" style="fill:#fb4e4e;fill-rule:nonzero;"/></g><g id="Group4" serif:id="Group"><path id="path22_fill1" serif:id="path22_fill" d="M1354.17,2654.17c-15.374,0 -25.963,16.604 -31.028,28.926c-1.191,2.899 1.384,5.788 4.479,5.302c8.785,-1.378 22.233,-2.978 34.882,-2.978c62.5,0 22.917,10.416 54.167,10.416c10.416,0 35.416,0 35.416,-20.833c0,-13.866 -4.807,-25.81 -8.421,-32.231c-1.049,-1.864 -3.405,-2.382 -5.325,-1.441c-6.455,3.166 -18.324,8.003 -32.087,10.755c-20.833,4.167 -29.167,2.084 -52.083,2.084Z" style="fill:#6d0000;fill-rule:nonzero;"/><path id="path23_stroke1" serif:id="path23_stroke" d="M1337.46,2681.68c-0.249,1.124 -1.362,1.832 -2.486,1.582c-1.122,-0.249 -1.831,-1.362 -1.581,-2.486l4.067,0.904Zm16.717,-21.285l-0.295,-2.062l0.295,2.062Zm77.083,27.084l0.342,2.055l-0.342,-2.055Zm-31.438,-0.009c-1.146,-0.104 -1.991,-1.117 -1.887,-2.263c0.104,-1.146 1.118,-1.991 2.264,-1.886l-0.377,4.149Zm3.745,-11.881c0.813,0.814 0.813,2.133 0,2.946c-0.814,0.814 -2.133,0.814 -2.947,0l2.947,-2.946Zm19.97,-7.47c-0.813,-0.814 -0.813,-2.133 0,-2.947c0.814,-0.813 2.133,-0.813 2.946,0l-2.946,2.947Zm-90.144,12.657c0.729,-3.261 2.661,-8.445 5.867,-12.905c3.254,-4.492 8.039,-8.598 14.622,-9.538l0.589,4.124c-5.084,0.727 -8.979,3.913 -11.837,7.858c-2.905,3.978 -4.515,8.377 -5.174,11.365l-4.067,-0.904Zm20.489,-22.443c7.493,-1.061 17.565,-0.54 27.174,-0.281c9.731,0.263 18.711,0.228 24.545,-1.717l1.318,3.953c-6.665,2.222 -16.436,2.187 -25.976,1.929c-9.662,-0.261 -19.382,-0.782 -26.472,0.24l-0.589,-4.124Zm51.719,-1.998c12.56,-4.186 23.609,-6.505 34.766,-2.042l-1.548,3.869c-9.676,-3.871 -19.46,-2.02 -31.9,2.126l-1.318,-3.953Zm34.766,-2.042c3.319,1.328 5.486,4.202 6.631,7.502c1.084,3.188 1.315,7.242 0.632,10.963c-1.41,7.523 -6.579,15.201 -16.028,16.776l-0.685,-4.11c7.219,-1.203 11.424,-7.067 12.618,-13.434c0.62,-3.223 0.46,-6.201 -0.474,-8.829c-0.873,-2.516 -2.353,-4.243 -4.242,-4.999l1.548,-3.869Zm-8.765,35.241c-16.963,2.827 -24.947,-1.443 -31.78,-2.064l0.377,-4.149c8.444,0.767 14.349,4.831 30.718,2.103l0.685,4.11Zm-30.982,-10.999c-0.553,-0.553 -0.963,-1.401 -0.851,-2.413c0.107,-0.962 0.65,-1.736 1.283,-2.316c1.217,-1.114 3.384,-2.081 6.786,-2.932l1.011,4.043c-3.264,0.816 -4.57,1.584 -4.985,1.963c-0.182,0.168 0.004,0.079 0.046,-0.297c0.047,-0.426 -0.137,-0.788 -0.343,-0.994l-2.947,2.946Zm7.218,-7.661c4.589,-1.102 8.173,-0.549 10.81,-0.021c2.853,0.57 4.122,0.833 5.431,0.179l1.863,3.727c-2.858,1.429 -5.756,0.65 -8.111,0.179c-2.571,-0.514 -5.238,-1.003 -8.982,-0.021l-1.011,-4.043Zm16.241,0.158c0.517,-0.259 0.63,-0.471 0.652,-0.517c0.025,-0.052 0.063,-0.169 0.01,-0.429c-0.128,-0.618 -0.651,-1.415 -1.204,-1.967l2.946,-2.947c0.837,0.837 1.98,2.332 2.339,4.074c0.157,0.844 0.076,2.113 -0.33,3.061c-0.507,1.065 -1.401,1.877 -2.55,2.452l-1.863,-3.727Z" style="fill:#fb4e4e;fill-rule:nonzero;"/></g><path id="path24_stroke" d="M1010.42,2654.21c0.351,15.708 2.785,39.433 8.895,59.165c3.071,9.885 7.186,19.022 12.399,25.584c5.319,6.668 12.044,11.038 20.372,11.038l0,-4.167c-6.671,0 -12.307,-3.442 -17.114,-9.469c-4.913,-6.134 -8.689,-14.574 -11.677,-24.221c-6.008,-19.33 -8.365,-42.48 -8.709,-58.023l-4.166,0.093Zm377.083,-0.093c-0.343,15.543 -2.701,38.693 -8.708,58.023c-2.989,9.647 -6.764,18.087 -11.677,24.221c-4.807,6.027 -10.443,9.469 -17.115,9.469l0,4.167c8.328,0 15.054,-4.37 20.372,-11.038c5.213,-6.562 9.328,-15.699 12.399,-25.584c6.111,-19.732 8.544,-43.457 8.895,-59.165l-4.166,-0.093Zm-335.417,95.88l297.917,0l0,-4.167l-297.917,0l0,4.167Z" style="fill-opacity:0.4;fill-rule:nonzero;"/><path id="path25_fill" d="M1206.03,2695.83c-189.953,0 -222.032,-101.986 -214.328,-152.98l-4.202,-135.982l138.683,-77.704l268.959,33.995l33.621,179.691c4.904,50.994 -32.781,152.98 -222.733,152.98Z" style="fill-opacity:0.0980392;fill-rule:nonzero;"/><g id="Rectangle-6" serif:id="Rectangle 6"><path id="path26_fill" d="M1154.17,2700c0,-2.301 1.865,-4.167 4.166,-4.167l91.667,0c2.301,0 4.167,1.866 4.167,4.167l0,37.5c0,2.301 -1.866,4.167 -4.167,4.167l-91.667,0c-2.301,0 -4.166,-1.866 -4.166,-4.167l0,-37.5Z" style="fill:#e9e9e9;fill-rule:nonzero;"/><path id="path27_stroke_2x" d="M1158.33,2700l91.667,0l0,-8.333l-91.667,0l0,8.333Zm91.667,0l0,37.5l8.333,0l0,-37.5l-8.333,0Zm0,37.5l-91.667,0l0,8.333l91.667,0l0,-8.333Zm-91.667,0l0,-37.5l-8.333,0l0,37.5l8.333,0Zm0,-45.833c-4.602,0 -8.333,3.731 -8.333,8.333l8.333,0l0,-8.333Zm91.667,8.333l8.333,0c0,-4.602 -3.73,-8.333 -8.333,-8.333l0,8.333Zm0,37.5l0,8.333c4.603,0 8.333,-3.731 8.333,-8.333l-8.333,0Zm-91.667,0l-8.333,0c0,4.602 3.731,8.333 8.333,8.333l0,-8.333Z" style="fill:#ccc;fill-rule:nonzero;"/></g><path id="path28_fill" d="M1219.9,2654.55c-5.559,-2.129 -10.989,-2.805 -15.733,-2.774c-4.745,-0.031 -10.177,0.645 -15.733,2.774c-0.663,-1.055 -0.934,-1.695 -0.934,-1.695c6.075,-2.111 11.766,-2.835 16.667,-2.853c4.899,0.018 10.589,0.742 16.666,2.853c0,0 -0.191,0.52 -0.934,1.695Zm-11.067,1.572l-4.663,23.047l-4.702,-23.05c-4.415,0.002 -5.815,0.431 -6.018,2.179c0,0 -2.983,-0.977 -4.486,-2.962c5.867,-2.389 11.765,-2.497 11.765,-2.497l3.433,3.684l3.44,-3.683c0,0 5.898,0.108 11.765,2.497c-1.503,1.984 -4.486,2.962 -4.486,2.962c-0.201,-1.749 -1.603,-2.177 -6.048,-2.177Z" style="fill:#888585;"/><path id="path29_fill" d="M1204.17,2633.33c-63.334,0 -119.445,5.556 -139.584,8.334l281.25,0c-20.833,-2.778 -78.333,-8.334 -141.666,-8.334Z" style="fill-opacity:0.0980392;fill-rule:nonzero;"/><path id="path29_fill1" serif:id="path29_fill" d="M1204.17,2700c-63.334,0 -119.445,-5.556 -139.584,-8.333l281.25,0c-20.833,2.777 -78.333,8.333 -141.666,8.333Z" style="fill:#c9c9c9;fill-rule:nonzero;"/><path id="path30_fill" d="M1058.33,2816.69l-14.583,14.583c-8.333,-3.333 -54.861,-1.389 -77.083,0c0,0 10,-5.417 33.333,-10.417c23.333,-5 48.611,-4.861 58.333,-4.166Z" style="fill:#510000;fill-rule:nonzero;"/><path id="path30_fill1" serif:id="path30_fill" d="M1345.83,2816.69l14.584,14.583c8.333,-3.333 54.861,-1.389 77.083,0c0,0 -10,-5.417 -33.333,-10.417c-23.334,-5 -48.612,-4.861 -58.334,-4.166Z" style="fill:#510000;fill-rule:nonzero;"/><rect id="path31_stroke" x="987.5" y="2645.83" width="420.833" height="4.167" style="fill:#fff;fill-rule:nonzero;"/><g id="Group5" serif:id="Group"><path id="path32_fill" d="M975,2400l10.417,0l0,12.5l-10.417,0c0,8.333 -10.417,14.583 -27.083,14.583c-18.75,0 -31.25,-2.083 -31.25,-14.583c0,-18.75 33.333,-29.167 45.833,-29.167c10,0 12.5,11.111 12.5,16.667Z" style="fill:#fff;fill-rule:nonzero;"/><path id="path33_fill" d="M964.251,2424.5c-4.341,1.638 -9.867,2.579 -16.335,2.579c-15.098,0 -26.145,-1.351 -29.874,-8.403c5.898,-9.728 29.146,-20.763 38.208,-20.763c10.416,0 12.5,8.333 12.5,14.583c0,3.814 -2.423,8.677 -4.499,12.004Z" style="fill:#a8a5a5;"/></g><g id="Group6" serif:id="Group"><path id="path32_fill1" serif:id="path32_fill" d="M1435.42,2400l-10.417,0l0,12.5l10.417,0c0,8.333 10.416,14.583 27.083,14.583c18.75,0 31.25,-2.083 31.25,-14.583c0,-18.75 -33.333,-29.167 -45.833,-29.167c-10,0 -12.5,11.111 -12.5,16.667Z" style="fill:#fff;fill-rule:nonzero;"/><path id="path34_fill" d="M1492.38,2418.68c-5.898,-9.728 -29.146,-20.763 -38.208,-20.763c-10.417,0 -12.5,8.333 -12.5,14.583c0,3.814 2.423,8.677 4.498,12.004c4.342,1.638 9.868,2.579 16.335,2.579c15.098,0 26.146,-1.351 29.875,-8.403Z" style="fill:#a8a5a5;"/></g><path id="path35_fill" d="M991.667,2762.5c0,-16.108 13.058,-29.167 29.166,-29.167l358.334,0c16.108,0 29.166,13.059 29.166,29.167c0,16.108 -13.058,29.167 -29.166,29.167l-358.334,0c-16.108,0 -29.166,-13.059 -29.166,-29.167Z" style="fill-opacity:0.0980392;fill-rule:nonzero;"/></g></g><rect id="path36_fill" x="1033.33" y="1600" width="352.647" height="283.333" style="fill:none;"/></g><g id="Cruise-Control" serif:id="Cruise Control"><clipPath id="_clip8"><rect x="1104.17" y="945.833" width="200" height="200"/></clipPath><g clip-path="url(#_clip8)"><path id="path38_stroke_2x" d="M1287.5,1045.83c0,46.024 -37.31,83.334 -83.333,83.334l0,33.333c64.433,0 116.666,-52.233 116.666,-116.667l-33.333,0Zm-83.333,83.334c-46.024,0 -83.334,-37.31 -83.334,-83.334l-33.333,0c0,64.434 52.233,116.667 116.667,116.667l0,-33.333Zm-83.334,-83.334c0,-46.023 37.31,-83.333 83.334,-83.333l0,-33.333c-64.434,0 -116.667,52.233 -116.667,116.666l33.333,0Zm83.334,-83.333c46.023,0 83.333,37.31 83.333,83.333l33.333,0c0,-64.433 -52.233,-116.666 -116.666,-116.666l0,33.333Z" style="fill:#fff;fill-opacity:0.498039;fill-rule:nonzero;"/><path id="path39_fill" d="M1168.91,1041.6c7.274,0.675 13.049,2.888 17.324,6.638c4.35,3.75 6.525,8.662 6.525,14.737c0,4.95 -1.275,9.338 -3.825,13.163c-2.55,3.75 -6.187,6.712 -10.912,8.887c-4.725,2.1 -10.238,3.15 -16.538,3.15c-5.325,0 -10.612,-0.787 -15.862,-2.362c-5.175,-1.65 -9.6,-3.825 -13.275,-6.525l5.963,-11.7c3.15,2.625 6.637,4.65 10.462,6.075c3.825,1.35 7.725,2.025 11.7,2.025c5.475,0 9.75,-1.125 12.825,-3.375c3.15,-2.25 4.725,-5.288 4.725,-9.113c0,-3.9 -1.537,-6.862 -4.612,-8.887c-3.075,-2.1 -7.463,-3.15 -13.163,-3.15l-11.925,0l0,-9.113l21.15,-20.475l-33.187,0l-0.113,-12.825l52.65,0l0,9.338l-24.075,23.062l4.162,0.45Zm68.713,-33.525c10.875,0 19.237,3.45 25.087,10.35c5.85,6.9 8.775,16.8 8.775,29.7c0,12.825 -2.925,22.688 -8.775,29.588c-5.85,6.9 -14.212,10.35 -25.087,10.35c-10.875,0 -19.238,-3.45 -25.088,-10.35c-5.85,-6.9 -8.775,-16.763 -8.775,-29.588c0,-12.9 2.925,-22.8 8.775,-29.7c5.85,-6.9 14.213,-10.35 25.088,-10.35Zm0,11.925c-6.225,0 -10.838,2.288 -13.838,6.863c-3,4.5 -4.5,11.587 -4.5,21.262c0,9.6 1.5,16.688 4.5,21.263c3,4.575 7.613,6.862 13.838,6.862c6.225,0 10.837,-2.287 13.837,-6.862c3,-4.575 4.5,-11.663 4.5,-21.263c0,-9.675 -1.5,-16.762 -4.5,-21.262c-3,-4.575 -7.612,-6.863 -13.837,-6.863Z" style="fill:#fff;fill-opacity:0.498039;fill-rule:nonzero;"/></g></g><g id="Dark2" serif:id="Dark"><path id="path40_fill" d="M2154.17,954.167c0,-4.603 3.731,-8.334 8.333,-8.334l133.333,0c4.603,0 8.334,3.731 8.334,8.334l0,183.333c0,4.602 -3.731,8.333 -8.334,8.333l-133.333,0c-4.602,0 -8.333,-3.731 -8.333,-8.333l0,-183.333Z" style="fill:#fff;fill-rule:nonzero;"/><path id="path41_fill" d="M2190.06,970.167c-1.2,-0.734 -2.433,-1.3 -3.7,-1.7c-1.244,-0.4 -2.344,-0.6 -3.3,-0.6c-1.066,0 -1.911,0.2 -2.533,0.6c-0.622,0.4 -0.933,0.955 -0.933,1.666c0,0.645 0.211,1.189 0.633,1.634c0.445,0.422 0.989,0.777 1.633,1.066c0.667,0.267 1.567,0.567 2.7,0.9c1.578,0.467 2.867,0.934 3.867,1.4c1.022,0.467 1.889,1.156 2.6,2.067c0.711,0.911 1.067,2.111 1.067,3.6c0,1.422 -0.389,2.667 -1.167,3.733c-0.755,1.045 -1.811,1.845 -3.167,2.4c-1.333,0.556 -2.866,0.834 -4.6,0.834c-1.822,0 -3.6,-0.334 -5.333,-1c-1.733,-0.689 -3.244,-1.6 -4.533,-2.734l1.866,-3.8c1.178,1.089 2.5,1.945 3.967,2.567c1.467,0.622 2.833,0.933 4.1,0.933c1.245,0 2.222,-0.233 2.933,-0.7c0.712,-0.489 1.067,-1.144 1.067,-1.966c0,-0.667 -0.222,-1.211 -0.667,-1.634c-0.422,-0.444 -0.966,-0.8 -1.633,-1.066c-0.667,-0.267 -1.578,-0.567 -2.733,-0.9c-1.578,-0.467 -2.867,-0.923 -3.867,-1.367c-1,-0.444 -1.855,-1.111 -2.567,-2c-0.711,-0.911 -1.066,-2.1 -1.066,-3.567c0,-1.355 0.355,-2.533 1.066,-3.533c0.734,-1.022 1.756,-1.811 3.067,-2.367c1.333,-0.555 2.867,-0.833 4.6,-0.833c1.511,0 3,0.222 4.467,0.667c1.489,0.444 2.811,1.044 3.966,1.8l-1.8,3.9Zm15.831,-6c2.934,0 5.2,0.7 6.8,2.1c1.623,1.4 2.434,3.377 2.434,5.933c0,2.667 -0.811,4.744 -2.434,6.233c-1.6,1.467 -3.866,2.2 -6.8,2.2l-5.1,0l0,6.867l-4.466,0l0,-23.333l9.566,0Zm-0.233,12.533c1.689,0 2.978,-0.367 3.867,-1.1c0.911,-0.733 1.366,-1.822 1.366,-3.267c0,-1.422 -0.455,-2.489 -1.366,-3.2c-0.889,-0.711 -2.178,-1.066 -3.867,-1.066l-4.867,0l0,8.633l4.867,0Zm13.16,-12.533l17.1,0l0,3.9l-12.633,0l0,5.766l11.333,0l0,3.9l-11.333,0l0,5.867l13.033,0l0,3.9l-17.5,0l0,-23.333Zm22.038,0l17.1,0l0,3.9l-12.633,0l0,5.766l11.333,0l0,3.9l-11.333,0l0,5.867l13.033,0l0,3.9l-17.5,0l0,-23.333Zm31.738,0c2.333,0 4.422,0.5 6.266,1.5c1.845,0.977 3.289,2.355 4.334,4.133c1.044,1.778 1.566,3.789 1.566,6.033c0,2.245 -0.533,4.256 -1.599,6.034c-1.045,1.755 -2.5,3.133 -4.367,4.133c-1.867,1 -3.989,1.5 -6.367,1.5l-9.533,0l0,-23.333l9.7,0Zm0.1,19.4c1.422,0 2.7,-0.323 3.833,-0.967c1.156,-0.667 2.056,-1.578 2.7,-2.733c0.644,-1.178 0.967,-2.511 0.967,-4c0,-1.489 -0.333,-2.823 -1,-4c-0.667,-1.2 -1.589,-2.123 -2.767,-2.767c-1.156,-0.667 -2.456,-1 -3.9,-1l-5.167,0l0,15.467l5.334,0Zm-85.337,13.933l4.466,0l0,19.3l10.067,0l0,4.033l-14.533,0l0,-23.333Zm18.034,0l4.466,0l0,23.333l-4.466,0l0,-23.333Zm10.188,0l5.1,0l7.734,15.033l7.666,-15.033l5.1,0l0,23.333l-4.1,0l0,-16.733l-7.266,14.333l-2.867,0l-7.3,-14.333l0,16.733l-4.067,0l0,-23.333Zm31.348,0l4.467,0l0,23.333l-4.467,0l0,-23.333Zm7.589,0l19.033,0l0,3.967l-7.267,0l0,19.366l-4.5,0l0,-19.366l-7.266,0l0,-3.967Z" style="fill-rule:nonzero;"/><path id="path42_fill" d="M2199.59,1057.83c6.111,0 10.917,1.389 14.417,4.167c3.555,2.722 5.333,6.444 5.333,11.167c0,2.666 -0.722,5.083 -2.167,7.25c-1.444,2.166 -3.444,3.861 -6,5.083c3.445,1.278 6.139,3.222 8.084,5.833c2,2.612 3,5.612 3,9c0,3.389 -0.917,6.362 -2.75,8.917c-1.834,2.555 -4.472,4.528 -7.917,5.917c-3.389,1.333 -7.361,2 -11.917,2c-4.555,0 -8.555,-0.667 -12,-2c-3.389,-1.389 -6,-3.334 -7.833,-5.834c-1.833,-2.5 -2.75,-5.444 -2.75,-8.833c0,-3.445 1.028,-6.472 3.083,-9.083c2.056,-2.667 4.889,-4.639 8.5,-5.917c-2.722,-1.333 -4.861,-3.111 -6.416,-5.333c-1.5,-2.222 -2.25,-4.695 -2.25,-7.417c0,-4.556 1.75,-8.167 5.25,-10.833c3.555,-2.723 8.333,-4.084 14.333,-4.084Zm0.083,8c-3.222,0 -5.75,0.695 -7.583,2.084c-1.778,1.389 -2.667,3.333 -2.667,5.833c0,2.5 0.889,4.445 2.667,5.833c1.833,1.389 4.361,2.084 7.583,2.084c3.222,0 5.722,-0.695 7.5,-2.084c1.778,-1.388 2.667,-3.333 2.667,-5.833c0,-2.5 -0.889,-4.444 -2.667,-5.833c-1.778,-1.389 -4.278,-2.084 -7.5,-2.084Zm-0.083,24.5c-3.778,0 -6.722,0.778 -8.833,2.334c-2.112,1.555 -3.167,3.75 -3.167,6.583c0,2.889 1.055,5.139 3.167,6.75c2.111,1.611 5.083,2.417 8.916,2.417c3.778,0 6.722,-0.778 8.834,-2.334c2.166,-1.611 3.25,-3.861 3.25,-6.75c0,-2.833 -1.084,-5.028 -3.25,-6.583c-2.112,-1.611 -5.084,-2.417 -8.917,-2.417Zm55.986,-32.5c8.056,0 14.25,2.556 18.584,7.667c4.333,5.111 6.5,12.445 6.5,22c0,9.5 -2.167,16.805 -6.5,21.917c-4.334,5.111 -10.528,7.666 -18.584,7.666c-8.055,0 -14.25,-2.555 -18.583,-7.666c-4.333,-5.112 -6.5,-12.417 -6.5,-21.917c0,-9.555 2.167,-16.889 6.5,-22c4.333,-5.111 10.528,-7.667 18.583,-7.667Zm0,8.834c-4.611,0 -8.028,1.694 -10.25,5.083c-2.222,3.333 -3.333,8.583 -3.333,15.75c0,7.111 1.111,12.361 3.333,15.75c2.222,3.389 5.639,5.083 10.25,5.083c4.611,0 8.028,-1.694 10.25,-5.083c2.222,-3.389 3.334,-8.639 3.334,-15.75c0,-7.167 -1.112,-12.417 -3.334,-15.75c-2.222,-3.389 -5.639,-5.083 -10.25,-5.083Z" style="fill-rule:nonzero;"/></g><path id="path43_fill" d="M275,1045.83c0,50.627 -41.04,91.667 -91.667,91.667c-50.626,0 -91.666,-41.04 -91.666,-91.667c0,-50.626 41.04,-91.666 91.666,-91.666c50.627,0 91.667,41.04 91.667,91.666Zm-165.629,12.507c40.452,0.554 59.182,33.44 61.265,61.423c-31.311,-5.339 -56.004,-30.085 -61.265,-61.423Zm86.66,61.423c31.311,-5.339 56.004,-30.085 61.265,-61.423c-40.452,0.554 -59.182,33.44 -61.265,61.423Zm61.844,-82.263c-4.146,-37.5 -35.937,-66.667 -74.542,-66.667c-38.604,0 -70.396,29.167 -74.542,66.667l18.292,0c7.176,0 13.192,-2.317 20.044,-4.955c9.066,-3.491 19.597,-7.545 36.206,-7.545c16.61,0 27.141,4.054 36.207,7.545c6.852,2.638 12.868,4.955 20.043,4.955l18.292,0Z" style="fill:#007be4;"/><path id="path44_fill" d="M1568.75,1004.17c-2.301,0 -4.167,1.865 -4.167,4.166l0,31.25l-31.25,0c-2.301,0 -4.166,1.866 -4.166,4.167l0,4.167c0,2.301 1.865,4.166 4.166,4.166l31.25,0l0,31.25c0,2.301 1.866,4.167 4.167,4.167l4.167,0c2.301,0 4.166,-1.866 4.166,-4.167l0,-31.25l31.25,0c2.301,0 4.167,-1.865 4.167,-4.166l0,-4.167c0,-2.301 -1.866,-4.167 -4.167,-4.167l-31.25,0l0,-31.25c0,-2.301 -1.865,-4.166 -4.166,-4.166l-4.167,0Z" style="fill:#fff;fill-opacity:0.6;"/><path id="path45_fill" d="M800,1052.08c-2.301,0 -4.167,-1.865 -4.167,-4.166l0,-4.167c0,-2.301 1.866,-4.167 4.167,-4.167l75,0c2.301,0 4.167,1.866 4.167,4.167l0,4.167c0,2.301 -1.866,4.166 -4.167,4.166l-75,0Z" style="fill:#fff;fill-opacity:0.6;fill-rule:nonzero;"/></g></g><g id="Battery-Level" serif:id="Battery Level"><path id="path46_fill" d="M1829.53,766.833c1.722,1.167 3.694,2.084 5.916,2.75c2.223,0.612 4.445,0.917 6.667,0.917c5.223,0 9.139,-1.722 11.75,-5.167c2.611,-3.5 3.861,-8.278 3.75,-14.333c-1.5,2.5 -3.555,4.417 -6.167,5.75c-2.61,1.333 -5.666,2 -9.166,2c-5.722,0 -10.25,-1.695 -13.584,-5.083c-3.333,-3.389 -5,-7.945 -5,-13.667c0,-4 0.834,-7.472 2.5,-10.417c1.723,-2.944 4.14,-5.222 7.25,-6.833c3.112,-1.611 6.75,-2.417 10.917,-2.417c4.945,0 9.195,1.139 12.75,3.417c3.611,2.278 6.361,5.556 8.25,9.833c1.945,4.278 2.917,9.362 2.917,15.25c0,6.167 -1.056,11.584 -3.167,16.25c-2.055,4.667 -5,8.278 -8.833,10.834c-3.834,2.5 -8.306,3.75 -13.417,3.75c-2.944,0 -6.027,-0.417 -9.25,-1.25c-3.167,-0.834 -5.972,-1.945 -8.417,-3.334l4.334,-8.25Zm15.333,-37.083c-3.277,0 -5.917,0.917 -7.917,2.75c-2,1.833 -3,4.361 -3,7.583c0,3.112 0.945,5.556 2.834,7.334c1.889,1.778 4.472,2.666 7.75,2.666c3.556,0 6.361,-0.972 8.416,-2.916c2.056,-2 3.056,-4.472 3,-7.417c0.056,-2.667 -0.888,-5 -2.833,-7c-1.889,-2 -4.639,-3 -8.25,-3Zm57.322,-9.417c8.055,0 14.25,2.556 18.583,7.667c4.333,5.111 6.5,12.445 6.5,22c0,9.5 -2.167,16.805 -6.5,21.917c-4.333,5.111 -10.528,7.666 -18.583,7.666c-8.056,0 -14.25,-2.555 -18.584,-7.666c-4.333,-5.112 -6.5,-12.417 -6.5,-21.917c0,-9.555 2.167,-16.889 6.5,-22c4.334,-5.111 10.528,-7.667 18.584,-7.667Zm0,8.834c-4.612,0 -8.028,1.694 -10.25,5.083c-2.222,3.333 -3.334,8.583 -3.334,15.75c0,7.111 1.112,12.361 3.334,15.75c2.222,3.389 5.638,5.083 10.25,5.083c4.611,0 8.028,-1.694 10.25,-5.083c2.222,-3.389 3.333,-8.639 3.333,-15.75c0,-7.167 -1.111,-12.417 -3.333,-15.75c-2.222,-3.389 -5.639,-5.083 -10.25,-5.083Zm47.671,-8.5c4.889,0 8.722,1.555 11.5,4.666c2.778,3.056 4.167,7.306 4.167,12.75c0,5.445 -1.389,9.75 -4.167,12.917c-2.778,3.111 -6.611,4.667 -11.5,4.667c-4.833,0 -8.639,-1.556 -11.417,-4.667c-2.778,-3.167 -4.166,-7.472 -4.166,-12.917c0,-5.389 1.388,-9.639 4.166,-12.75c2.778,-3.111 6.584,-4.666 11.417,-4.666Zm0,6.333c-2.667,0 -4.75,0.972 -6.25,2.917c-1.445,1.944 -2.167,4.666 -2.167,8.166c0,3.556 0.722,6.334 2.167,8.334c1.5,1.944 3.583,2.916 6.25,2.916c2.722,0 4.833,-0.972 6.333,-2.916c1.5,-2 2.25,-4.778 2.25,-8.334c0,-3.5 -0.75,-6.222 -2.25,-8.166c-1.5,-1.945 -3.611,-2.917 -6.333,-2.917Zm39,-6.167l8.25,0l-42.5,58.334l-8.333,0l42.583,-58.334Zm5.25,23.584c4.889,0 8.722,1.555 11.5,4.666c2.778,3.056 4.167,7.306 4.167,12.75c0,5.445 -1.389,9.75 -4.167,12.917c-2.778,3.111 -6.611,4.667 -11.5,4.667c-4.833,0 -8.639,-1.556 -11.417,-4.667c-2.778,-3.167 -4.166,-7.472 -4.166,-12.917c0,-5.388 1.388,-9.638 4.166,-12.75c2.778,-3.111 6.584,-4.666 11.417,-4.666Zm0,6.333c-2.667,0 -4.75,0.972 -6.25,2.917c-1.445,1.944 -2.167,4.666 -2.167,8.166c0,3.556 0.722,6.334 2.167,8.334c1.5,1.944 3.583,2.916 6.25,2.916c2.722,0 4.833,-0.972 6.333,-2.916c1.5,-2 2.25,-4.778 2.25,-8.334c0,-3.5 -0.75,-6.222 -2.25,-8.166c-1.5,-1.945 -3.611,-2.917 -6.333,-2.917Z" style="fill:#fff;fill-opacity:0.4;fill-rule:nonzero;"/><g id="battery"><path id="path48_stroke_2x" d="M2320.83,770.833l-8.333,0l0,8.334l8.333,0l0,-8.334Zm0,-33.333l0,-8.333l-8.333,0l0,8.333l8.333,0Zm-237.5,-20.833l0,-16.667c-9.204,0 -16.666,7.462 -16.666,16.667l16.666,0Zm0,66.666l0,-66.666l-16.666,0l0,66.666l16.666,0Zm0,0l-16.666,0c0,9.205 7.462,16.667 16.666,16.667l0,-16.667Zm225,0l-225,0l0,16.667l225,0l0,-16.667Zm0,0l0,16.667c9.205,0 16.667,-7.462 16.667,-16.667l-16.667,0Zm0,-66.666l0,66.666l16.667,0l0,-66.666l-16.667,0Zm0,0l16.667,0c0,-9.205 -7.462,-16.667 -16.667,-16.667l0,16.667Zm-225,0l225,0l0,-16.667l-225,0l0,16.667Zm237.5,62.5l4.167,0l0,-16.667l-4.167,0l0,16.667Zm-8.333,-41.667l0,33.333l16.667,0l0,-33.333l-16.667,0Zm12.5,-8.333l-4.167,0l0,16.666l4.167,0l0,-16.666Zm16.667,16.666c0,-9.204 -7.462,-16.666 -16.667,-16.666l0,16.666l16.667,0Zm0,16.667l0,-16.667l-16.667,0l0,16.667l16.667,0Zm-16.667,16.667c9.205,0 16.667,-7.462 16.667,-16.667l-16.667,0l0,16.667Z" style="fill:#fff;fill-opacity:0.4;fill-rule:nonzero;"/><rect id="path49_fill" x="2083.33" y="716.667" width="225" height="66.667" style="fill:#25cb55;fill-rule:nonzero;"/></g></g><g id="gear"><path id="path50_fill" d="M114.417,720.833c7.333,0 13,1.75 17,5.25c4.055,3.5 6.083,8.445 6.083,14.834c0,6.666 -2.028,11.861 -6.083,15.583c-4,3.667 -9.667,5.5 -17,5.5l-12.75,0l0,17.167l-11.167,0l0,-58.334l23.917,0Zm-0.584,31.334c4.223,0 7.445,-0.917 9.667,-2.75c2.278,-1.834 3.417,-4.556 3.417,-8.167c0,-3.556 -1.139,-6.222 -3.417,-8c-2.222,-1.778 -5.444,-2.667 -9.667,-2.667l-12.166,0l0,21.584l12.166,0Z" style="fill:#fff;fill-opacity:0.4;fill-rule:nonzero;"/><path id="path51_fill" d="M239.5,779.167l-10.083,-17.25c-0.445,0.055 -1.139,0.083 -2.084,0.083l-13.166,0l0,17.167l-11.167,0l0,-58.334l24.333,0c7.556,0 13.389,1.75 17.5,5.25c4.112,3.5 6.167,8.445 6.167,14.834c0,4.555 -1,8.444 -3,11.666c-1.945,3.222 -4.805,5.639 -8.583,7.25l12.833,19.334l-12.75,0Zm-25.333,-27l13.166,0c4.223,0 7.445,-0.917 9.667,-2.75c2.222,-1.834 3.333,-4.556 3.333,-8.167c0,-3.556 -1.111,-6.222 -3.333,-8c-2.222,-1.778 -5.444,-2.667 -9.667,-2.667l-13.166,0l0,21.584Z" style="fill:#fff;fill-opacity:0.4;fill-rule:nonzero;"/><path id="path52_fill" d="M356.167,720.833l10.833,0l0,58.334l-10.583,0l-30,-40.167l0,40.167l-10.917,0l0,-58.334l10.583,0l30.084,40.25l0,-40.25Z" style="fill:#fff;fill-opacity:0.4;fill-rule:nonzero;"/><path id="path53_fill" d="M452.25,720.833c5.833,0 11.055,1.25 15.667,3.75c4.611,2.445 8.222,5.889 10.833,10.334c2.611,4.444 3.917,9.472 3.917,15.083c0,5.611 -1.334,10.639 -4,15.083c-2.612,4.389 -6.25,7.834 -10.917,10.334c-4.667,2.5 -9.972,3.75 -15.917,3.75l-23.833,0l0,-58.334l24.25,0Zm0.25,48.5c3.556,0 6.75,-0.805 9.583,-2.416c2.889,-1.667 5.139,-3.945 6.75,-6.834c1.612,-2.944 2.417,-6.278 2.417,-10c0,-3.722 -0.833,-7.055 -2.5,-10c-1.667,-3 -3.972,-5.305 -6.917,-6.916c-2.889,-1.667 -6.139,-2.5 -9.75,-2.5l-12.916,0l0,38.666l13.333,0Z" style="fill:#fff;fill-rule:nonzero;"/></g><g id="Speedometer"><path id="path54_fill" d="M1115.28,720.833l12.75,0l19.334,37.584l19.166,-37.584l12.75,0l0,58.334l-10.25,0l0,-41.834l-18.166,35.834l-7.167,0l-18.25,-35.834l0,41.834l-10.167,0l0,-58.334Zm102.286,0c7.334,0 13,1.75 17,5.25c4.056,3.5 6.084,8.445 6.084,14.834c0,6.666 -2.028,11.861 -6.084,15.583c-4,3.667 -9.666,5.5 -17,5.5l-12.75,0l0,17.167l-11.166,0l0,-58.334l23.916,0Zm-0.583,31.334c4.222,0 7.444,-0.917 9.667,-2.75c2.277,-1.834 3.416,-4.556 3.416,-8.167c0,-3.555 -1.139,-6.222 -3.416,-8c-2.223,-1.778 -5.445,-2.667 -9.667,-2.667l-12.167,0l0,21.584l12.167,0Zm32.9,-31.334l11.167,0l0,24.917l29.083,0l0,-24.917l11.167,0l0,58.334l-11.167,0l0,-23.667l-29.083,0l0,23.667l-11.167,0l0,-58.334Z" style="fill:#fff;fill-opacity:0.4;fill-rule:nonzero;"/><rect id="path55_fill" x="83.333" y="854.167" width="2250" height="8.333" style="fill:#fff;fill-opacity:0.4;fill-rule:nonzero;"/><path id="path56_fill" d="M1208.33,858.333c0,-6.903 5.597,-12.5 12.5,-12.5l145.834,0c6.903,0 12.5,5.597 12.5,12.5c0,6.904 -5.597,12.5 -12.5,12.5l-145.834,0c-6.903,0 -12.5,-5.596 -12.5,-12.5Z" style="fill:#25cb55;fill-rule:nonzero;"/><path id="path57_fill" d="M1163.51,367.833c-9.475,-6.722 -20.475,-11.763 -33,-15.125c-12.225,-3.666 -24.6,-5.5 -37.125,-5.5c-28.725,0 -50.417,9.625 -65.084,28.875c-14.362,19.25 -21.083,45.528 -20.166,78.834c8.25,-14.056 19.4,-24.597 33.458,-31.625c14.358,-7.334 31.317,-11 50.875,-11c31.775,0 56.983,9.319 75.625,27.958c18.637,18.639 27.958,43.542 27.958,74.708c0,22 -4.737,41.25 -14.208,57.75c-9.475,16.195 -22.917,28.722 -40.333,37.584c-17.113,8.861 -37.125,13.291 -60.042,13.291c-27.196,0 -50.725,-6.263 -70.583,-18.791c-19.863,-12.528 -35.142,-30.556 -45.834,-54.084c-10.391,-23.528 -15.583,-51.638 -15.583,-84.333c0,-33.917 5.65,-63.555 16.958,-88.917c11.609,-25.666 27.959,-45.375 49.042,-59.125c21.083,-14.055 45.833,-21.083 74.25,-21.083c16.5,0 33.458,2.292 50.875,6.875c17.721,4.278 33.15,10.236 46.292,17.875l-23.375,45.833Zm-82.959,91.667c-19.558,0 -35.141,5.5 -46.75,16.5c-11.612,11 -17.266,24.597 -16.958,40.792c-0.308,9.166 1.833,18.028 6.417,26.583c4.583,8.25 11.458,15.125 20.625,20.625c9.47,5.195 21.083,7.792 34.833,7.792c18.333,0 33,-5.042 44,-15.125c11,-10.084 16.5,-24.139 16.5,-42.167c0,-16.805 -5.35,-30.097 -16.042,-39.875c-10.391,-10.083 -24.6,-15.125 -42.625,-15.125Zm290.954,-25.667c29.638,2.75 53.167,11.764 70.584,27.042c17.721,15.278 26.583,35.292 26.583,60.042c0,20.166 -5.196,38.041 -15.583,53.625c-10.388,15.278 -25.209,27.347 -44.459,36.208c-19.25,8.555 -41.708,12.833 -67.375,12.833c-21.695,0 -43.237,-3.208 -64.625,-9.625c-21.083,-6.722 -39.112,-15.583 -54.083,-26.583l24.292,-47.667c12.833,10.695 27.041,18.945 42.625,24.75c15.583,5.5 31.471,8.25 47.666,8.25c22.305,0 39.721,-4.583 52.25,-13.75c12.834,-9.166 19.25,-21.541 19.25,-37.125c0,-15.888 -6.262,-27.958 -18.791,-36.208c-12.529,-8.555 -30.404,-12.833 -53.625,-12.833l-48.584,0l0,-37.125l86.167,-83.417l-135.208,0l-0.459,-52.25l214.5,0l0,38.042l-98.083,93.958l16.958,1.833Z" style="fill:#fff;fill-rule:nonzero;"/></g><g id="top-info-icons" serif:id="top info icons"><path id="path58_stroke" d="M2241.67,79.167l0.593,-8.313l-0.296,-0.021l-0.297,0l0,8.334Zm0,116.666l0,8.334l0.297,0l0.296,-0.022l-0.593,-8.312Zm-43.294,-88.899c3.829,-2.553 4.864,-7.727 2.311,-11.557c-2.553,-3.829 -7.727,-4.864 -11.557,-2.311l9.245,13.868Zm-52.995,15.299c-3.829,2.553 -4.864,7.727 -2.311,11.556c2.553,3.83 7.727,4.864 11.556,2.311l-9.245,-13.867Zm52.995,9.701c3.83,-2.553 4.865,-7.727 2.312,-11.557c-2.553,-3.829 -7.727,-4.864 -11.557,-2.311l9.245,13.868Zm-52.995,15.299c-3.829,2.553 -4.864,7.727 -2.311,11.556c2.553,3.83 7.727,4.864 11.556,2.311l-9.245,-13.867Zm52.995,9.701c3.83,-2.553 4.865,-7.727 2.312,-11.557c-2.553,-3.829 -7.727,-4.864 -11.557,-2.311l9.245,13.868Zm-52.995,15.299c-3.829,2.553 -4.864,7.727 -2.311,11.556c2.553,3.83 7.727,4.864 11.556,2.311l-9.245,-13.867Zm52.995,9.701c3.83,-2.553 4.865,-7.727 2.312,-11.557c-2.553,-3.829 -7.727,-4.864 -11.557,-2.311l9.245,13.868Zm-52.995,15.299c-3.829,2.553 -4.864,7.727 -2.311,11.556c2.553,3.83 7.727,4.864 11.556,2.311l-9.245,-13.867Zm95.696,-109.754c8.086,0.577 21.092,4.666 31.932,13.107c10.597,8.25 18.662,20.237 18.662,36.914l16.666,0c0,-22.906 -11.38,-39.392 -25.088,-50.065c-13.465,-10.483 -29.626,-15.769 -40.985,-16.581l-1.187,16.625Zm0.594,-16.646c-8.695,0 -17.356,2.218 -22.913,10.939c-4.794,7.521 -6.254,18.574 -6.254,32.811l16.667,0c0,-14.096 1.665,-20.752 3.642,-23.855c1.214,-1.904 2.969,-3.228 8.858,-3.228l0,-16.667Zm0.593,133.312c11.359,-0.811 27.52,-6.097 40.985,-16.58c13.708,-10.673 25.088,-27.159 25.088,-50.065l-16.666,0c0,16.677 -8.065,28.664 -18.662,36.914c-10.84,8.441 -23.846,12.53 -31.932,13.107l1.187,16.624Zm-0.593,-16.645c-5.89,0 -7.645,-1.324 -8.858,-3.228c-1.977,-3.104 -3.642,-9.759 -3.642,-23.855l-16.667,0c0,14.237 1.46,25.29 6.254,32.811c5.557,8.721 14.218,10.939 22.913,10.939l0,-16.667Zm-12.5,-27.083l0,-45.834l-16.667,0l0,45.834l16.667,0Zm-40.04,-67.351l-43.75,29.167l9.245,13.867l43.75,-29.166l-9.245,-13.868Zm0,25l-43.75,29.167l9.245,13.867l43.75,-29.166l-9.245,-13.868Zm0,25l-43.75,29.167l9.245,13.867l43.75,-29.166l-9.245,-13.868Zm0,25l-43.75,29.167l9.245,13.867l43.75,-29.166l-9.245,-13.868Z" style="fill:#25cb55;fill-rule:nonzero;"/><g id="Group7" serif:id="Group"><path id="path59_stroke" d="M431.25,83.333c0,-4.602 -3.731,-8.333 -8.333,-8.333c-4.603,0 -8.334,3.731 -8.334,8.333l16.667,0Zm-4.167,112.5l-5.605,6.167c1.534,1.394 3.532,2.167 5.605,2.167l0,-8.334Zm108.334,-112.5c0,-4.602 -3.731,-8.333 -8.334,-8.333c-4.602,0 -8.333,3.731 -8.333,8.333l16.667,0Zm-12.5,112.5l0,8.334c2.073,0 4.071,-0.773 5.605,-2.167l-5.605,-6.167Zm-108.334,-112.5c0,2.084 0,11.25 0,14.584l16.667,0c0,-3.334 0,-12.5 0,-14.584l-16.667,0Zm0,14.584c0,-2.01 0.905,-3.1 0.382,-2.229c-0.336,0.573 -0.856,1.289 -1.71,2.46c-1.725,2.365 -4.285,5.796 -6.859,10.065c-4.962,8.306 -10.393,21.362 -10.563,37.62l16.667,0c-0.17,-12.908 3.774,-21.727 8.187,-29.046c2.114,-3.543 4.241,-6.362 6.032,-8.815c0.903,-1.239 1.848,-2.573 2.538,-3.709c0.502,-0.837 1.993,-3.295 1.993,-6.346l-16.667,0Zm-18.75,47.916c0,26.611 17.102,48.4 25.645,56.167l11.211,-12.333c-6.735,-6.122 -20.189,-23.777 -20.189,-43.834l-16.667,0Zm122.917,-62.5l0,14.584l16.667,0l0,-14.584l-16.667,0Zm0,14.584c0,3.051 1.491,5.509 1.993,6.346c0.689,1.136 1.634,2.47 2.538,3.709c1.791,2.453 3.918,5.272 6.031,8.815c4.414,7.319 8.358,16.138 8.188,29.046l16.667,0c-0.17,-16.258 -5.602,-29.314 -10.563,-37.62c-2.574,-4.269 -5.134,-7.7 -6.859,-10.065c-0.855,-1.171 -1.374,-1.887 -1.71,-2.46c-0.523,-0.871 0.382,0.219 0.382,2.229l-16.667,0Zm18.75,47.916c0,20.057 -13.454,37.712 -20.189,43.834l11.211,12.333c8.543,-7.767 25.645,-29.556 25.645,-56.167l-16.667,0Zm-14.583,41.667l-95.834,0l0,16.667l95.834,0l0,-16.667Z" style="fill:#ffbd0a;fill-rule:nonzero;"/><path id="path60_stroke" d="M483.333,212.5l0,-16.667l-16.666,0l0,16.667l16.666,0Zm-25,0l0,-16.667l-16.666,0l0,16.667l16.666,0Zm50,0l0,-16.667l-16.666,0l0,16.667l16.666,0Zm22.917,0l0,-16.667l-16.667,0l0,16.667l16.667,0Zm-95.833,0l0,-16.667l-16.667,0l0,16.667l16.667,0Z" style="fill:#ffbd0a;fill-rule:nonzero;"/><path id="path61_stroke" d="M483.333,89.583c0,-4.602 -3.731,-8.333 -8.333,-8.333c-4.602,0 -8.333,3.731 -8.333,8.333l16.666,0Zm-16.666,50c0,4.603 3.731,8.334 8.333,8.334c4.602,0 8.333,-3.731 8.333,-8.334l-16.666,0Zm0,27.084c0,4.602 3.731,8.333 8.333,8.333c4.602,0 8.333,-3.731 8.333,-8.333l-16.666,0Zm16.666,-2.084c0,-4.602 -3.731,-8.333 -8.333,-8.333c-4.602,0 -8.333,3.731 -8.333,8.333l16.666,0Zm-16.666,-75l0,50l16.666,0l0,-50l-16.666,0Zm16.666,77.084l0,-2.084l-16.666,0l0,2.084l16.666,0Z" style="fill:#ffbd0a;fill-rule:nonzero;"/></g></g></g></g><defs><linearGradient id="_Linear1" x1="0" y1="0" x2="1" y2="0" gradientUnits="userSpaceOnUse" gradientTransform="matrix(-6.93967e-14,1133.33,1133.33,6.93967e-14,562.5,1716.67)"><stop offset="0" style="stop-color:#fff;stop-opacity:0.0745098"/><stop offset="0.99" style="stop-color:#fff;stop-opacity:0.14902"/><stop offset="1" style="stop-color:#fff;stop-opacity:0.14902"/></linearGradient><linearGradient id="_Linear2" x1="0" y1="0" x2="1" y2="0" gradientUnits="userSpaceOnUse" gradientTransform="matrix(-7.44993e-14,1216.67,1216.67,7.44993e-14,266.667,1633.33)"><stop offset="0" style="stop-color:#fff;stop-opacity:0.0470588"/><stop offset="0.99" style="stop-color:#fff;stop-opacity:0.0980392"/><stop offset="1" style="stop-color:#fff;stop-opacity:0.0980392"/></linearGradient><linearGradient id="_Linear3" x1="0" y1="0" x2="1" y2="0" gradientUnits="userSpaceOnUse" gradientTransform="matrix(2.98508e-14,487.5,-487.5,2.98508e-14,2416.67,1516.67)"><stop offset="0" style="stop-color:#0e0e0e;stop-opacity:1"/><stop offset="0.43" style="stop-color:#0e0e0e;stop-opacity:1"/><stop offset="0.99" style="stop-color:#0e0e0e;stop-opacity:0"/><stop offset="1" style="stop-color:#0e0e0e;stop-opacity:0"/></linearGradient><linearGradient id="_Linear4" x1="0" y1="0" x2="1" y2="0" gradientUnits="userSpaceOnUse" gradientTransform="matrix(3.5974e-14,587.5,-587.5,3.5974e-14,2416.67,2400)"><stop offset="0" style="stop-color:#0e0e0e;stop-opacity:0"/><stop offset="0.86" style="stop-color:#0e0e0e;stop-opacity:1"/><stop offset="1" style="stop-color:#0e0e0e;stop-opacity:1"/></linearGradient><linearGradient id="_Linear5" x1="0" y1="0" x2="1" y2="0" gradientUnits="userSpaceOnUse" gradientTransform="matrix(2.26515,306.49,-306.49,2.26515,1743.05,2089.51)"><stop offset="0" style="stop-color:#fff;stop-opacity:0.0784314"/><stop offset="0.01" style="stop-color:#fff;stop-opacity:0.0784314"/><stop offset="1" style="stop-color:#fff;stop-opacity:0.4"/></linearGradient><radialGradient id="_Radial6" cx="0" cy="0" r="1" gradientUnits="userSpaceOnUse" gradientTransform="matrix(8.77004e-13,202.083,-580.058,-1.66821e-13,1197.92,2445.83)"><stop offset="0" style="stop-color:#000;stop-opacity:0"/><stop offset="1" style="stop-color:#000;stop-opacity:1"/></radialGradient><radialGradient id="_Radial7" cx="0" cy="0" r="1" gradientUnits="userSpaceOnUse" gradientTransform="matrix(5.44713e-14,24.8265,-144.713,1.60875e-12,1200,2358.51)"><stop offset="0" style="stop-color:#fff;stop-opacity:0.298039"/><stop offset="0.99" style="stop-color:#fff;stop-opacity:0"/><stop offset="1" style="stop-color:#fff;stop-opacity:0"/></radialGradient></defs></svg>