<svg width="48" height="48" viewBox="0 0 48 48" version="1.1" xmlns="http://www.w3.org/2000/svg" xmlns:xlink="http://www.w3.org/1999/xlink">
<title>volume</title>
<desc>Created using Figma</desc>
<g id="Canvas" transform="translate(7886 -541)">
<clipPath id="clip-0" clip-rule="evenodd">
<path d="M -7886 541L -7838 541L -7838 589L -7886 589L -7886 541Z" fill="#FFFFFF"/>
</clipPath>
<g id="volume" clip-path="url(#clip-0)">
<g id="Union">
<use xlink:href="#path0_fill" transform="translate(-7886 553)" fill="#FFFFFF"/>
</g>
<g id="Ellipse 9 (Stroke)">
<use xlink:href="#path1_fill" transform="translate(-7863 554)" fill="#FFFFFF"/>
</g>
<g id="Ellipse 9 (Stroke)">
<use xlink:href="#path2_fill" transform="translate(-7856 550)" fill="#FFFFFF"/>
</g>
<g id="Ellipse 9 (Stroke)">
<use xlink:href="#path3_fill" transform="translate(-7847.75 544)" fill="#FFFFFF" fill-opacity="0.4"/>
</g>
</g>
</g>
<defs>
<path id="path0_fill" fill-rule="evenodd" d="M 14.6826 0.498927L 7 7.22378L 2 7.22354C 0.895508 7.22354 0 8.11904 0 9.22354L 0 16.7775C 0 17.8822 0.895508 18.7775 2 18.7775L 7 18.7777L 14.6826 25.5026C 15.9756 26.6344 18 25.716 18 23.9975L 18 2.00381C 18 0.285548 15.9756 -0.632909 14.6826 0.498927Z"/>
<path id="path1_fill" fill-rule="evenodd" d="M 0.212219 0.384145C 0.552371 -0.0509585 1.18084 -0.127933 1.61594 0.212219C 4.89147 2.77293 7.00004 6.76435 7.00004 11.2477C 7.00004 15.4802 5.12061 19.2749 2.15421 21.8405C 1.73649 22.2018 1.10498 22.1561 0.743694 21.7383C 0.382408 21.3206 0.428157 20.6891 0.845878 20.3278C 3.39174 18.1259 5.00004 14.8752 5.00004 11.2477C 5.00004 7.40581 3.19569 3.98586 0.384145 1.78787C -0.0509585 1.44772 -0.127933 0.819249 0.212219 0.384145Z"/>
<path id="path2_fill" fill-rule="evenodd" d="M 0.3001 0.285759C 0.694565 -0.100785 1.3277 -0.094364 1.71424 0.3001C 5.60154 4.26705 8 9.7029 8 15.6969C 7.98038 21.3544 5.75855 26.6695 2.2379 30.5407C 1.86516 30.9482 1.23263 30.9764 0.825095 30.6037C 0.417562 30.2309 0.389356 29.5984 0.762096 29.1909C 4.07346 25.5923 6.01962 20.9602 6 15.6969C 6 10.2472 3.82158 5.30817 0.285759 1.6999C -0.100785 1.30544 -0.094364 0.672303 0.3001 0.285759Z"/>
<path id="path3_fill" fill-rule="evenodd" d="M 0.338443 0.250128C 0.752593 -0.115247 1.38452 -0.0757064 1.7499 0.338443C 6.67055 5.93725 9.72681 13.4482 9.74548 21.5C 9.72871 29.1281 6.98512 36.2808 2.51928 41.7563C 2.16945 42.1837 1.53941 42.2465 1.11205 41.8967C 0.68469 41.5469 0.621842 40.9168 0.971675 40.4895C 5.25586 35.2759 7.76225 28.7634 7.74548 21.5C 7.76414 13.8328 4.97071 6.99107 0.250128 1.66158C -0.115247 1.24743 -0.0757064 0.615502 0.338443 0.250128Z"/>
</defs>
</svg>
