<?xml version="1.0" encoding="UTF-8"?>
<svg width="46px" height="34px" viewBox="0 0 46 34" version="1.1" xmlns="http://www.w3.org/2000/svg" xmlns:xlink="http://www.w3.org/1999/xlink">
    <!-- Generator: Sketch 47.1 (45422) - http://www.bohemiancoding.com/sketch -->
    <title>model3-icon</title>
    <desc>Created with Sketch.</desc>
    <defs>
        <polygon id="path-1" points="0 0 48 0 48 48 0 48"></polygon>
    </defs>
    <g id="Page-1" stroke="none" stroke-width="1" fill="none" fill-rule="evenodd">
        <g id="tsl-main-control-bar" transform="translate(-161.000000, -51.000000)">
            <g id="model3-icon" transform="translate(160.000000, 44.000000)">
                <mask id="mask-2" fill="white">
                    <use xlink:href="#path-1"></use>
                </mask>
                <g id="Shape"></g>
                <g mask="url(#mask-2)" id="tesla">
                    <g transform="translate(1.000000, 7.000000)">
                        <g>
                            <g id="path18_fill-link" fill-rule="nonzero" fill="#FFFFFF">
                                <path d="M42,34 L41,34 C39.3431,34 38,32.6569 38,31 L11,31 C9.82821,31 8.82058,31.8143 7.83813,32.6083 C7.43146,32.937 7.02909,33.2622 6.62119,33.5247 C6.15369,33.8254 5.59723,34 5,34 L4,34 C2.34315,34 1,32.6569 1,31 L1,17.4852 C1,15.894 1.63214,14.3679 2.75736,13.2427 L4,12 L1.97301,12 C0.883347,12 0,11.1167 0,10.027 C0,9.42346 0.410774,8.89734 0.996323,8.75098 L2.75746,8.31067 C3.38861,8.15283 4,8.63025 4,9.28076 L4,11 L5,11 L6.79419,4.42126 C7.50611,1.81091 9.87707,0 12.5828,0 L33.4172,0 C36.1229,0 38.4939,1.81091 39.2058,4.42126 L41,11 L42,11 L42,9.28076 C42,8.63025 42.6114,8.15283 43.2425,8.31067 L45.0037,8.75098 C45.5892,8.89734 46,9.42346 46,10.027 C46,11.1167 45.1167,12 44.027,12 L42,12 L43.2426,13.2427 C44.3679,14.3679 45,15.894 45,17.4852 L45,31 C45,32.6569 43.6569,34 42,34 Z M7.71738,5.27588 L6.1158,10.6145 C6.05138,10.8292 6.16923,11.0563 6.38197,11.1273 C8.1161,11.7053 9.93208,12 11.76,12 L34.3382,12 C36.1662,12 37.9822,11.7053 39.7164,11.1272 C39.929,11.0563 40.0469,10.8292 39.9825,10.6145 L38.3809,5.27588 C37.6195,2.73804 35.2836,1 32.6339,1 L13.4643,1 C10.8147,1 8.47876,2.73804 7.71738,5.27588 Z M39.9966,13.3215 C38.3272,14.9598 36.925,16.2239 34.3301,17.3004 C34.0759,17.4059 33.9756,17.7174 34.1282,17.9463 C34.5615,18.5962 35.3136,18.9594 36.092,18.8945 L38.8409,18.6654 C40.1255,18.5583 41.3306,17.9994 42.2422,17.0879 C42.8702,16.46 42.9521,15.47 42.4359,14.7473 L41.5108,13.4521 C41.1536,12.952 40.4352,12.8911 39.9966,13.3215 Z M5.834,13.3217 C5.39538,12.8912 4.67695,12.9521 4.31974,13.4523 L3.39464,14.7474 C2.87844,15.4701 2.96037,16.4601 3.58836,17.088 C4.4999,17.9995 5.70503,18.5585 6.98969,18.6655 L9.73853,18.8947 C10.5169,18.9595 11.2691,18.5963 11.7023,17.9464 C11.8549,17.7175 11.7546,17.406 11.5005,17.3005 C8.9055,16.224 7.50339,14.96 5.834,13.3217 Z M9.00005,25 C6.39957,24.525 5.05862,24.1195 3.00005,23 L2.81068,23.7574 C2.6529,24.3887 3.13026,25 3.78083,25 L9.00005,25 Z M36.7803,25 L41.9996,25 C42.6501,25 43.1275,24.3887 42.9697,23.7574 L42.7803,23 C40.7218,24.1195 39.3808,24.525 36.7803,25 Z M11.7071,27.2928 L10.8536,28.1465 C10.5386,28.4614 10.7617,29 11.2071,29 L34.7929,29 C35.2383,29 35.4614,28.4614 35.1465,28.1465 L34.2929,27.2928 C34.1054,27.1053 33.851,27 33.5858,27 L12.4142,27 C12.149,27 11.8947,27.1053 11.7071,27.2928 Z" id="path18_fill"></path>
                            </g>
                        </g>
                    </g>
                </g>
            </g>
        </g>
    </g>
</svg>