<?xml version="1.0" encoding="UTF-8"?>
<svg width="67px" height="66px" viewBox="0 0 67 66" version="1.1" xmlns="http://www.w3.org/2000/svg" xmlns:xlink="http://www.w3.org/1999/xlink">
    <!-- Generator: Sketch 47.1 (45422) - http://www.bohemiancoding.com/sketch -->
    <title>fan-level-icon</title>
    <desc>Created with Sketch.</desc>
    <defs>
        <polygon id="path-1" points="0 0 48 0 48 48 0 48"></polygon>
    </defs>
    <g id="Page-1" stroke="none" stroke-width="1" fill="none" fill-rule="evenodd">
        <g id="tsl-main-control-bar" transform="translate(-927.000000, -34.000000)">
            <g id="fan-level-icon" transform="translate(927.000000, 31.000000)">
                <g id="fan-Clipped" transform="translate(8.000000, 0.000000)">
                    <mask id="mask-2" fill="white">
                        <use xlink:href="#path-1"></use>
                    </mask>
                    <g id="Shape"></g>
                    <g id="fan" mask="url(#mask-2)">
                        <g transform="translate(3.000000, 3.000000)" id="Vector-38">
                            <g>
                                <g id="path12_fill-link" fill-rule="nonzero" fill="#FFFBFB">
                                    <path d="M3.54217,10 C3.54217,17.5 16.6988,21.5 16.6988,21.5 C16.6988,21.5 14.6747,24 12.1446,24 C9.61446,24 8.60241,22 5.56627,22 C2.53012,22 0,23.5 0,27 C0,30.5 2.53012,38 10.1205,38 C17.7108,38 21.759,26 21.759,26 C21.759,26 24.2892,27.5 24.2892,30 C24.2892,32.5 22.2651,33.5 22.2651,36.5 C22.2651,39.5 23.7831,42 27.3253,42 C30.8675,42 38.4578,39.5 38.4578,32 C38.4578,24.5 25.8072,20.5 25.8072,20.5 C25.8072,20.5 27.3253,18 29.8554,18 C32.3855,18 33.3976,20 36.4337,20 C39.4699,20 42,18.5 42,15 C42,11.5 39.4699,4 31.8795,4 C24.2892,4 20.241,16 20.241,16 C20.241,16 17.7108,14.5 17.7108,12 C17.7108,9.5 19.7349,8.5 19.7349,5.5 C19.7349,2.5 18.2169,0 14.6747,0 C11.1325,0 3.54217,2.5 3.54217,10 Z" id="path12_fill"></path>
                                </g>
                            </g>
                        </g>
                    </g>
                </g>
                <g id="Remaining-distance" transform="translate(0.000000, 57.000000)" fill-rule="nonzero" fill="#FFFFFF">
                    <g id="path13_fill-link">
                        <path d="M0.5254,0.5 L2.8204,0.5 L6.3004,7.265 L9.7504,0.5 L12.0454,0.5 L12.0454,11 L10.2004,11 L10.2004,3.47 L6.9304,9.92 L5.6404,9.92 L2.3554,3.47 L2.3554,11 L0.5254,11 L0.5254,0.5 Z M22.4018,11 L21.4718,8.78 L16.3418,8.78 L15.4118,11 L13.3268,11 L17.9318,0.5 L20.0168,0.5 L24.5618,11 L22.4018,11 Z M17.0618,7.055 L20.7518,7.055 L18.9218,2.645 L17.0618,7.055 Z M33.1579,0.5 L35.1079,0.5 L35.1079,11 L33.2029,11 L27.8029,3.77 L27.8029,11 L25.8379,11 L25.8379,0.5 L27.7429,0.5 L33.1579,7.745 L33.1579,0.5 Z M39.5034,6.68 C39.5034,7.51 39.7384,8.16 40.2084,8.63 C40.6784,9.1 41.3084,9.335 42.0984,9.335 C42.8884,9.335 43.5084,9.1 43.9584,8.63 C44.4184,8.16 44.6484,7.51 44.6484,6.68 L44.6484,0.5 L46.6584,0.5 L46.6584,6.68 C46.6584,7.59 46.4734,8.385 46.1034,9.065 C45.7334,9.735 45.2034,10.25 44.5134,10.61 C43.8334,10.97 43.0284,11.15 42.0984,11.15 C41.1584,11.15 40.3384,10.97 39.6384,10.61 C38.9484,10.25 38.4184,9.735 38.0484,9.065 C37.6784,8.385 37.4934,7.59 37.4934,6.68 L37.4934,0.5 L39.5034,0.5 L39.5034,6.68 Z M56.5034,11 L55.5734,8.78 L50.4434,8.78 L49.5134,11 L47.4284,11 L52.0334,0.5 L54.1184,0.5 L58.6634,11 L56.5034,11 Z M51.1634,7.055 L54.8534,7.055 L53.0234,2.645 L51.1634,7.055 Z M59.9394,0.5 L61.9494,0.5 L61.9494,9.185 L66.4794,9.185 L66.4794,11 L59.9394,11 L59.9394,0.5 Z" id="path13_fill"></path>
                    </g>
                </g>
            </g>
        </g>
    </g>
</svg>