<?xml version="1.0" encoding="UTF-8"?>
<svg width="36px" height="32px" viewBox="0 0 36 32" version="1.1" xmlns="http://www.w3.org/2000/svg" xmlns:xlink="http://www.w3.org/1999/xlink">
    <!-- Generator: Sketch 47.1 (45422) - http://www.bohemiancoding.com/sketch -->
    <title>heater-icon</title>
    <desc>Created with Sketch.</desc>
    <defs>
        <polygon id="path-1" points="0 0 48 0 48 48 0 48"></polygon>
    </defs>
    <g id="Page-1" stroke="none" stroke-width="1" fill="none" fill-rule="evenodd">
        <g id="tsl-main-control-bar" transform="translate(-466.000000, -51.000000)">
            <g id="heater-icon" transform="translate(460.000000, 43.000000)">
                <mask id="mask-2" fill="white">
                    <use xlink:href="#path-1"></use>
                </mask>
                <g id="Shape"></g>
                <g id="heater" mask="url(#mask-2)">
                    <g transform="translate(6.000000, 8.000000)" id="Union">
                        <g>
                            <g id="path16_fill-link" fill-rule="nonzero" fill="#D0021B">
                                <path d="M0,2 C0,0.895386 0.895416,0 2,0 L34,0 C35.1046,0 36,0.895386 36,2 L36,20.0706 C36,21.1752 35.1046,22.0706 34,22.0706 L28.8423,22.0706 C29.1009,22.799 29.31,23.7026 29.31,24.6766 C29.3087,25.7297 29.1645,27.1359 28.7635,28.4272 C28.3517,29.7357 27.6349,31.0784 26.41,32 L25.21,30.3949 C25.9851,29.8116 26.5183,28.8971 26.8564,27.823 C27.2054,26.7318 27.3112,25.6299 27.31,24.6766 C27.31,23.6044 26.9503,22.6239 26.6745,22.0706 L20.8423,22.0706 C21.1009,22.799 21.31,23.7026 21.31,24.6766 C21.3087,25.7297 21.1645,27.1359 20.7635,28.4272 C20.3517,29.7357 19.6349,31.0784 18.41,32 L17.21,30.3949 C17.9851,29.8116 18.5183,28.8971 18.8564,27.823 C19.2054,26.7318 19.3112,25.6299 19.31,24.6766 C19.31,23.6044 18.9503,22.6239 18.6745,22.0706 L12.3423,22.0706 C12.6009,22.799 12.81,23.7026 12.81,24.6766 C12.8087,25.7297 12.6645,27.1359 12.2635,28.4272 C11.8517,29.7357 11.1349,31.0784 9.90997,32 L8.70996,30.3949 C9.48508,29.8116 10.0183,28.8971 10.3564,27.823 C10.7054,26.7318 10.8112,25.6299 10.81,24.6766 C10.81,23.6044 10.4503,22.6239 10.1745,22.0706 L2,22.0706 C0.895416,22.0706 0,21.1752 0,20.0706 L0,2 Z M2,2 L2,20.0706 L8.31,20.0706 L8.31,17.7806 C8.31985,17.1194 8.50397,16.449 8.70258,15.92 C8.77945,15.7166 8.86304,15.5142 8.94492,15.316 C9.04047,15.0848 9.13364,14.8594 9.21094,14.6444 L7.50098,14.6444 L10.31,9.0083 L13.119,14.6444 L11.2781,14.6444 C11.1911,15.1377 10.9974,15.5992 10.8041,16.0599 L10.8036,16.061 C10.7243,16.2499 10.6451,16.4386 10.5734,16.6293 C10.4012,17.0841 10.3001,17.4016 10.31,17.7793 L10.31,20.0706 L16.309,20.0706 L16.309,17.7806 C16.3189,17.1194 16.503,16.449 16.7016,15.92 C16.7785,15.7166 16.8621,15.5142 16.9439,15.316 C17.0395,15.0848 17.1327,14.8594 17.21,14.6444 L15.5,14.6444 L18.309,9.0083 L21.118,14.6444 L19.2771,14.6444 C19.1902,15.1377 18.9965,15.5992 18.8032,16.0599 L18.8027,16.061 C18.7234,16.2499 18.6441,16.4386 18.5724,16.6293 C18.4003,17.0841 18.2992,17.4016 18.309,17.7793 L18.309,20.0706 L24.309,20.0706 L24.309,17.7806 C24.3189,17.1194 24.503,16.449 24.7016,15.92 C24.7785,15.7166 24.8621,15.5142 24.9439,15.316 C25.0395,15.0848 25.1327,14.8594 25.21,14.6444 L23.5,14.6444 L26.309,9.0083 L29.118,14.6444 L27.2771,14.6444 C27.1902,15.1377 26.9965,15.5992 26.8032,16.0599 L26.8027,16.061 C26.7234,16.2499 26.6441,16.4386 26.5724,16.6293 C26.4003,17.0841 26.2992,17.4016 26.309,17.7793 L26.309,20.0706 L34,20.0706 L34,2 L2,2 Z" id="path16_fill"></path>
                            </g>
                        </g>
                    </g>
                </g>
            </g>
        </g>
    </g>
</svg>