<?xml version="1.0" encoding="UTF-8"?>
<svg width="82px" height="96px" viewBox="0 0 82 96" version="1.1" xmlns="http://www.w3.org/2000/svg" xmlns:xlink="http://www.w3.org/1999/xlink">
    <!-- Generator: Sketch 47.1 (45422) - http://www.bohemiancoding.com/sketch -->
    <title>Passenger Temp</title>
    <desc>Created with Sketch.</desc>
    <defs>
        <polygon id="path-1" points="50 30 0 30 0 0 50 0"></polygon>
        <polygon id="path-3" points="0 0 50 0 50 30 0 30"></polygon>
    </defs>
    <g id="Page-1" stroke="none" stroke-width="1" fill="none" fill-rule="evenodd">
        <g id="tsl-main-control-bar" transform="translate(-1069.000000, -18.000000)">
            <g id="Passenger-Temp" transform="translate(1069.000000, 8.000000)">
                <g id="arrow-Clipped" transform="translate(16.000000, 0.000000)">
                    <mask id="mask-2" fill="white">
                        <use xlink:href="#path-1"></use>
                    </mask>
                    <g id="Shape"></g>
                    <g id="arrow" mask="url(#mask-2)">
                        <g transform="translate(16.000000, 9.000000)" id="Vector-37">
                            <g>
                                <g id="path1_stroke-link" transform="translate(9.000000, 6.000000) rotate(-180.000000) translate(-9.000000, -6.000000) translate(0.000000, 0.500000)" fill-rule="nonzero" fill="#FFFFFF">
                                    <path d="M3.06066,0.93934 C2.474874,0.35355 1.525126,0.35355 0.93934,0.93934 C0.35355,1.525126 0.35355,2.474874 0.93934,3.06066 L3.06066,0.93934 Z M9,9 L7.93934,10.06066 C8.52513,10.64645 9.47487,10.64645 10.06066,10.06066 L9,9 Z M17.0607,3.06066 C17.6464,2.474874 17.6464,1.525126 17.0607,0.93934 C16.4749,0.35355 15.5251,0.35355 14.9393,0.93934 L17.0607,3.06066 Z M0.93934,3.06066 L7.93934,10.06066 L10.06066,7.93934 L3.06066,0.93934 L0.93934,3.06066 Z M10.06066,10.06066 L17.0607,3.06066 L14.9393,0.93934 L7.93934,7.93934 L10.06066,10.06066 Z" id="path1_stroke"></path>
                                </g>
                            </g>
                        </g>
                    </g>
                </g>
                <g id="arrow-Clipped" transform="translate(16.000000, 86.000000)">
                    <mask id="mask-4" fill="white">
                        <use xlink:href="#path-3"></use>
                    </mask>
                    <g id="Shape"></g>
                    <g id="arrow" mask="url(#mask-4)">
                        <g transform="translate(16.000000, 9.000000)" id="Vector-37">
                            <g>
                                <g id="path1_stroke-link" transform="translate(0.000000, 0.500000)" fill-rule="nonzero" fill="#FFFFFF">
                                    <path d="M3.06066,0.93934 C2.474874,0.35355 1.525126,0.35355 0.93934,0.93934 C0.35355,1.525126 0.35355,2.474874 0.93934,3.06066 L3.06066,0.93934 Z M9,9 L7.93934,10.06066 C8.52513,10.64645 9.47487,10.64645 10.06066,10.06066 L9,9 Z M17.0607,3.06066 C17.6464,2.474874 17.6464,1.525126 17.0607,0.93934 C16.4749,0.35355 15.5251,0.35355 14.9393,0.93934 L17.0607,3.06066 Z M0.93934,3.06066 L7.93934,10.06066 L10.06066,7.93934 L3.06066,0.93934 L0.93934,3.06066 Z M10.06066,10.06066 L17.0607,3.06066 L14.9393,0.93934 L7.93934,7.93934 L10.06066,10.06066 Z" id="path1_stroke"></path>
                                </g>
                            </g>
                        </g>
                    </g>
                </g>
                <g id="20รยบ" transform="translate(0.000000, 37.000000)" fill-rule="nonzero" fill="#FFFFFF">
                    <g id="path10_fill-link" transform="translate(0.000000, 3.000000)">
                        <path d="M25.5625,32.9 L25.5625,36 L0.7625,36 L0.7625,33.15 L14.5625,18.75 C16.1625,17.0833 17.4292,15.4667 18.3625,13.9 C19.2958,12.3 19.7625,10.9167 19.7625,9.75 C19.7625,7.9167 19.0792,6.4833 17.7125,5.45 C16.3458,4.4167 14.4458,3.9 12.0125,3.9 C10.3458,3.9 8.6292,4.2833 6.8625,5.05 C5.0958,5.7833 3.4958,6.8167 2.0625,8.15 L0.5125,5.6 C2.2125,4.1 4.0958,2.9333 6.1625,2.1 C8.2625,1.2667 10.3458,0.85 12.4125,0.85 C15.7458,0.85 18.3958,1.6167 20.3625,3.15 C22.3625,4.6833 23.3625,6.7333 23.3625,9.3 C23.3625,10.8667 22.7792,12.6333 21.6125,14.6 C20.4792,16.5333 18.9125,18.55 16.9125,20.65 L5.1125,32.9 L25.5625,32.9 Z M45.8781,0.85 C50.5115,0.85 54.0615,2.3833 56.5281,5.45 C58.9948,8.4833 60.2281,12.8333 60.2281,18.5 C60.2281,24.1667 58.9948,28.5333 56.5281,31.6 C54.0615,34.6667 50.5115,36.2 45.8781,36.2 C41.2781,36.2 37.7281,34.6667 35.2281,31.6 C32.7615,28.5333 31.5281,24.1667 31.5281,18.5 C31.5281,12.8333 32.7615,8.4833 35.2281,5.45 C37.7281,2.3833 41.2781,0.85 45.8781,0.85 Z M45.8781,3.6 C42.3448,3.6 39.6615,4.8667 37.8281,7.4 C35.9948,9.9 35.0781,13.6 35.0781,18.5 C35.0781,23.4 35.9948,27.1167 37.8281,29.65 C39.6615,32.15 42.3448,33.4 45.8781,33.4 C49.4115,33.4 52.0948,32.15 53.9281,29.65 C55.7948,27.1167 56.7281,23.4 56.7281,18.5 C56.7281,13.6 55.7948,9.9 53.9281,7.4 C52.0948,4.8667 49.4115,3.6 45.8781,3.6 Z" id="path10_fill"></path>
                    </g>
                    <g id="path11_fill-link" transform="translate(64.000000, 0.000000)" fill-opacity="0.4">
                        <path d="M9.12,0.6 C11.487,0.6 13.437,1.33333 14.97,2.8 C16.504,4.2333 17.27,6.1 17.27,8.4 C17.27,10.7 16.504,12.5667 14.97,14 C13.47,15.4333 11.52,16.15 9.12,16.15 C6.687,16.15 4.704,15.4333 3.17,14 C1.6703,12.5667 0.9203,10.7 0.9203,8.4 C0.9203,6.1 1.6703,4.2333 3.17,2.8 C4.704,1.33333 6.687,0.6 9.12,0.6 Z M9.12,2.7 C7.454,2.7 6.087,3.2333 5.02,4.3 C3.987,5.3333 3.47,6.7 3.47,8.4 C3.47,10.1 3.987,11.4833 5.02,12.55 C6.087,13.6167 7.454,14.15 9.12,14.15 C10.754,14.15 12.087,13.6167 13.12,12.55 C14.154,11.4833 14.67,10.1 14.67,8.4 C14.67,6.7 14.154,5.3333 13.12,4.3 C12.087,3.2333 10.754,2.7 9.12,2.7 Z" id="path11_fill"></path>
                    </g>
                </g>
            </g>
        </g>
    </g>
</svg>