<?xml version="1.0" encoding="UTF-8"?>
<svg width="48px" height="92px" viewBox="0 0 48 92" version="1.1" xmlns="http://www.w3.org/2000/svg" xmlns:xlink="http://www.w3.org/1999/xlink">
    <!-- Generator: Sketch 47.1 (45422) - http://www.bohemiancoding.com/sketch -->
    <title>volume-icon</title>
    <desc>Created with Sketch.</desc>
    <defs>
        <polygon id="path-1" points="50 30 0 30 0 0 50 0"></polygon>
        <polygon id="path-3" points="0 0 50 0 50 30 0 30"></polygon>
        <polygon id="path-5" points="0 0 48 0 48 48 0 48"></polygon>
    </defs>
    <g id="Page-1" stroke="none" stroke-width="1" fill="none" fill-rule="evenodd">
        <g id="tsl-main-control-bar" transform="translate(-1710.000000, -22.000000)">
            <g id="volume-icon" transform="translate(1710.000000, 12.000000)">
                <g id="arrow-Clipped">
                    <mask id="mask-2" fill="white">
                        <use xlink:href="#path-1"></use>
                    </mask>
                    <g id="Shape"></g>
                    <g id="arrow" mask="url(#mask-2)">
                        <g transform="translate(16.000000, 9.000000)" id="Vector-37">
                            <g>
                                <g id="path1_stroke-link" transform="translate(9.000000, 6.000000) rotate(-180.000000) translate(-9.000000, -6.000000) translate(0.000000, 0.500000)" fill-rule="nonzero" fill="#FFFFFF">
                                    <path d="M3.06066,0.93934 C2.474874,0.35355 1.525126,0.35355 0.93934,0.93934 C0.35355,1.525126 0.35355,2.474874 0.93934,3.06066 L3.06066,0.93934 Z M9,9 L7.93934,10.06066 C8.52513,10.64645 9.47487,10.64645 10.06066,10.06066 L9,9 Z M17.0607,3.06066 C17.6464,2.474874 17.6464,1.525126 17.0607,0.93934 C16.4749,0.35355 15.5251,0.35355 14.9393,0.93934 L17.0607,3.06066 Z M0.93934,3.06066 L7.93934,10.06066 L10.06066,7.93934 L3.06066,0.93934 L0.93934,3.06066 Z M10.06066,10.06066 L17.0607,3.06066 L14.9393,0.93934 L7.93934,7.93934 L10.06066,10.06066 Z" id="path1_stroke"></path>
                                </g>
                            </g>
                        </g>
                    </g>
                </g>
                <g id="arrow-Clipped" transform="translate(0.000000, 82.000000)">
                    <mask id="mask-4" fill="white">
                        <use xlink:href="#path-3"></use>
                    </mask>
                    <g id="Shape"></g>
                    <g id="arrow" mask="url(#mask-4)">
                        <g transform="translate(16.000000, 9.000000)" id="Vector-37">
                            <g>
                                <g id="path1_stroke-link" transform="translate(0.000000, 0.500000)" fill-rule="nonzero" fill="#FFFFFF">
                                    <path d="M3.06066,0.93934 C2.474874,0.35355 1.525126,0.35355 0.93934,0.93934 C0.35355,1.525126 0.35355,2.474874 0.93934,3.06066 L3.06066,0.93934 Z M9,9 L7.93934,10.06066 C8.52513,10.64645 9.47487,10.64645 10.06066,10.06066 L9,9 Z M17.0607,3.06066 C17.6464,2.474874 17.6464,1.525126 17.0607,0.93934 C16.4749,0.35355 15.5251,0.35355 14.9393,0.93934 L17.0607,3.06066 Z M0.93934,3.06066 L7.93934,10.06066 L10.06066,7.93934 L3.06066,0.93934 L0.93934,3.06066 Z M10.06066,10.06066 L17.0607,3.06066 L14.9393,0.93934 L7.93934,7.93934 L10.06066,10.06066 Z" id="path1_stroke"></path>
                                </g>
                            </g>
                        </g>
                    </g>
                </g>
                <g id="volume-Clipped" transform="translate(0.000000, 31.000000)">
                    <mask id="mask-6" fill="white">
                        <use xlink:href="#path-5"></use>
                    </mask>
                    <g id="Shape"></g>
                    <g id="volume" mask="url(#mask-6)">
                        <g transform="translate(0.000000, 3.000000)">
                            <g id="Union" transform="translate(0.000000, 9.000000)">
                                <g id="path2_fill-link" fill-rule="nonzero" fill="#FFFFFF">
                                    <path d="M14.6827,0.498947 L7,7.22368 L2,7.22368 C0.895386,7.22368 0,8.11906 0,9.22368 L0,16.7778 C0,17.8822 0.895386,18.7778 2,18.7778 L7,18.7778 L14.6827,25.5025 C15.9758,26.6343 18,25.7161 18,23.9976 L18,2.00395 C18,0.285446 15.9758,-0.632889 14.6827,0.498947 Z" id="path2_fill"></path>
                                </g>
                            </g>
                            <g id="Ellipse-9-(Stroke)" transform="translate(23.000000, 10.000000)">
                                <g id="path3_fill-link" fill-rule="nonzero" fill="#FFFFFF">
                                    <path d="M0.212219,0.384145 C0.552371,-0.0509585 1.18084,-0.127933 1.61594,0.212219 C4.89147,2.77293 7.00004,6.76435 7.00004,11.2477 C7.00004,15.4802 5.12061,19.2749 2.15421,21.8405 C1.73649,22.2018 1.10498,22.1561 0.743694,21.7383 C0.382408,21.3206 0.428157,20.6891 0.845878,20.3278 C3.39174,18.1259 5.00004,14.8752 5.00004,11.2477 C5.00004,7.40581 3.19569,3.98586 0.384145,1.78787 C-0.0509585,1.44772 -0.127933,0.819249 0.212219,0.384145 Z" id="path3_fill"></path>
                                </g>
                            </g>
                            <g id="Ellipse-9-(Stroke)" transform="translate(30.000000, 6.000000)">
                                <g id="path4_fill-link" fill-rule="nonzero" fill="#FFFFFF">
                                    <path d="M0.3001,0.285759 C0.694565,-0.100785 1.3277,-0.094364 1.71424,0.3001 C5.60154,4.26705 8,9.7029 8,15.6969 C7.98038,21.3544 5.75855,26.6695 2.2379,30.5407 C1.86516,30.9482 1.23263,30.9764 0.825095,30.6037 C0.417562,30.2309 0.389356,29.5984 0.762096,29.1909 C4.07346,25.5923 6.01962,20.9602 6,15.6969 C6,10.2472 3.82158,5.30817 0.285759,1.6999 C-0.100785,1.30544 -0.094364,0.672303 0.3001,0.285759 Z" id="path4_fill"></path>
                                </g>
                            </g>
                            <g id="Ellipse-9-(Stroke)" transform="translate(38.000000, 0.000000)" fill-opacity="0.4">
                                <g id="path5_fill-link" transform="translate(0.250000, 0.000000)" fill-rule="nonzero" fill="#FFFFFF">
                                    <path d="M0.338443,0.250128 C0.752593,-0.115247 1.38452,-0.0757064 1.7499,0.338443 C6.67055,5.93725 9.72681,13.4482 9.74548,21.5 C9.72871,29.1281 6.98512,36.2808 2.51928,41.7563 C2.16945,42.1837 1.53941,42.2465 1.11205,41.8967 C0.68469,41.5469 0.621842,40.9168 0.971675,40.4895 C5.25586,35.2759 7.76225,28.7634 7.74548,21.5 C7.76414,13.8328 4.97071,6.99107 0.250128,1.66158 C-0.115247,1.24743 -0.0757064,0.615502 0.338443,0.250128 Z" id="path5_fill"></path>
                                </g>
                            </g>
                        </g>
                    </g>
                </g>
            </g>
        </g>
    </g>
</svg>