<svg width="150" height="60" viewBox="0 0 150 60" version="1.1" xmlns="http://www.w3.org/2000/svg" xmlns:xlink="http://www.w3.org/1999/xlink">
<title>button</title>
<desc>Created using Figma</desc>
<g id="Canvas" transform="translate(8175 -1116)">
<g id="button">
<g id="Rectangle 12">
<use xlink:href="#path0_fill" transform="translate(-8175 1116)" fill="#0E0E0E"/>
<use xlink:href="#path0_fill" transform="translate(-8175 1116)" fill="#FFFFFF" fill-opacity="0.2"/>
</g>
<g id="OPEN">
<use xlink:href="#path1_fill" transform="translate(-8155 1134)" fill="#FFFFFF"/>
</g>
</g>
</g>
<defs>
<path id="path0_fill" d="M 0 30C 0 13.4315 13.4315 0 30 0L 120 0C 136.569 0 150 13.4315 150 30C 150 46.5685 136.569 60 120 60L 30 60C 13.4315 60 0 46.5685 0 30Z"/>
<path id="path1_fill" d="M 33.7343 4.82C 35.121 4.82 36.381 5.13333 37.5143 5.76C 38.661 6.38667 39.561 7.24667 40.2143 8.34C 40.8676 9.43333 41.1943 10.6467 41.1943 11.98C 41.1943 13.3133 40.8676 14.5333 40.2143 15.64C 39.561 16.7333 38.661 17.6 37.5143 18.24C 36.381 18.88 35.121 19.2 33.7343 19.2C 32.3476 19.2 31.081 18.88 29.9343 18.24C 28.801 17.6 27.9076 16.7333 27.2543 15.64C 26.601 14.5333 26.2743 13.3133 26.2743 11.98C 26.2743 10.6467 26.601 9.43333 27.2543 8.34C 27.9076 7.24667 28.801 6.38667 29.9343 5.76C 31.081 5.13333 32.3476 4.82 33.7343 4.82ZM 33.7743 7.22C 32.921 7.22 32.1276 7.43333 31.3943 7.86C 30.661 8.27333 30.081 8.84667 29.6543 9.58C 29.2276 10.3 29.0143 11.1 29.0143 11.98C 29.0143 12.86 29.2276 13.6667 29.6543 14.4C 30.0943 15.1333 30.6743 15.7133 31.3943 16.14C 32.1276 16.5667 32.921 16.78 33.7743 16.78C 34.6143 16.78 35.3943 16.5667 36.1143 16.14C 36.8343 15.7133 37.401 15.1333 37.8143 14.4C 38.241 13.6667 38.4543 12.86 38.4543 11.98C 38.4543 11.1 38.241 10.3 37.8143 9.58C 37.401 8.84667 36.8343 8.27333 36.1143 7.86C 35.3943 7.43333 34.6143 7.22 33.7743 7.22ZM 49.2862 5C 51.0462 5 52.4062 5.42 53.3662 6.26C 54.3395 7.1 54.8262 8.28667 54.8262 9.82C 54.8262 11.42 54.3395 12.6667 53.3662 13.56C 52.4062 14.44 51.0462 14.88 49.2862 14.88L 46.2262 14.88L 46.2262 19L 43.5462 19L 43.5462 5L 49.2862 5ZM 49.1462 12.52C 50.1595 12.52 50.9328 12.3 51.4662 11.86C 52.0128 11.42 52.2862 10.7667 52.2862 9.9C 52.2862 9.04667 52.0128 8.40667 51.4662 7.98C 50.9328 7.55333 50.1595 7.34 49.1462 7.34L 46.2262 7.34L 46.2262 12.52L 49.1462 12.52ZM 57.0423 5L 67.3023 5L 67.3023 7.34L 59.7223 7.34L 59.7223 10.8L 66.5223 10.8L 66.5223 13.14L 59.7223 13.14L 59.7223 16.66L 67.5423 16.66L 67.5423 19L 57.0423 19L 57.0423 5ZM 80.0249 5L 82.6249 5L 82.6249 19L 80.0849 19L 72.8849 9.36L 72.8849 19L 70.2649 19L 70.2649 5L 72.8049 5L 80.0249 14.66L 80.0249 5Z"/>
</defs>
</svg>
