<svg width="48" height="48" viewBox="0 0 48 48" version="1.1" xmlns="http://www.w3.org/2000/svg" xmlns:xlink="http://www.w3.org/1999/xlink">
<title>cell signal</title>
<desc>Created using Figma</desc>
<g id="Canvas" transform="translate(8174 -397)">
<clipPath id="clip-0" clip-rule="evenodd">
<path d="M -8174 397L -8126 397L -8126 445L -8174 445L -8174 397Z" fill="#FFFFFF"/>
</clipPath>
<g id="cell signal" clip-path="url(#clip-0)">
<g id="Union">
<use xlink:href="#path0_fill" transform="translate(-8171 407.5)" fill="#FFFFFF"/>
</g>
</g>
</g>
<defs>
<path id="path0_fill" fill-rule="evenodd" d="M 5.5 0L 8 0L 8 6L 9 6L 9 8L 8 8L 8 11L 6 11L 6 8L 0 8L 0 6L 5.5 0ZM 6 6L 6 3L 3 6L 6 6ZM 37 6C 37 5.44775 37.4478 5 38 5L 40 5C 40.5522 5 41 5.44775 41 6L 41 26C 41 26.5522 40.5522 27 40 27L 38 27C 37.4478 27 37 26.5522 37 26L 37 6ZM 31 9C 31 8.44775 31.4478 8 32 8L 34 8C 34.5522 8 35 8.44775 35 9L 35 26C 35 26.5522 34.5522 27 34 27L 32 27C 31.4478 27 31 26.5522 31 26L 31 9ZM 26 11C 25.4478 11 25 11.4478 25 12L 25 26C 25 26.5522 25.4478 27 26 27L 28 27C 28.5522 27 29 26.5522 29 26L 29 12C 29 11.4478 28.5522 11 28 11L 26 11ZM 19 15C 19 14.4478 19.4478 14 20 14L 22 14C 22.5522 14 23 14.4478 23 15L 23 26C 23 26.5522 22.5522 27 22 27L 20 27C 19.4478 27 19 26.5522 19 26L 19 15ZM 14 17C 13.4478 17 13 17.4478 13 18L 13 26C 13 26.5522 13.4478 27 14 27L 16 27C 16.5522 27 17 26.5522 17 26L 17 18C 17 17.4478 16.5522 17 16 17L 14 17ZM 19.5 3L 20.5 1.5C 20.5 1.5 19 0 16.5 0C 13 0 11 2.5 11 5.5C 11 8.5 13 11 16.5 11C 19.5 11 21 9 21 9L 21 5L 17 5L 17 7L 19 7L 19 8C 19 8 18.5 9 16.5 9C 14.5 9 13 7.5 13 5.5C 13 3.5 14.5 2 16.5 2C 18.4204 2 19.5 3 19.5 3Z"/>
</defs>
</svg>
