<svg width="80" height="80" viewBox="0 0 80 80" version="1.1" xmlns="http://www.w3.org/2000/svg" xmlns:xlink="http://www.w3.org/1999/xlink">
<title>compass</title>
<desc>Created using Figma</desc>
<g id="Canvas" transform="translate(7967 -1284)">
<g id="compass">
<g id="Ellipse 11">
<use xlink:href="#path0_fill" transform="translate(-7967 1284)" fill="#000000" fill-opacity="0.9"/>
</g>
<g id="direction">
<g id="Ellipse 11">
<use xlink:href="#path1_fill" transform="translate(-7952 1299)" fill="#FFFFFF" fill-opacity="0.4"/>
</g>
<g id="arrow">
<use xlink:href="#path2_fill" transform="translate(-7932.56 1301.78)" fill="#FFFFFF"/>
</g>
</g>
<g id="direction">
<use xlink:href="#path3_fill" transform="translate(-7945 1316)" fill="#FFFFFF"/>
</g>
</g>
</g>
<defs>
<path id="path0_fill" d="M 80 40C 80 62.0914 62.0914 80 40 80C 17.9086 80 0 62.0914 0 40C 0 17.9086 17.9086 0 40 0C 62.0914 0 80 17.9086 80 40Z"/>
<path id="path1_fill" d="M 50 25C 50 38.8071 38.8071 50 25 50C 11.1929 50 0 38.8071 0 25C 0 11.1929 11.1929 0 25 0C 38.8071 0 50 11.1929 50 25Z"/>
<path id="path2_fill" d="M 5.55556 0L 11.1111 8.33333L 0 8.33333L 5.55556 0Z"/>
<path id="path3_fill" d="M 20.6847 2.5L 22.6347 2.5L 22.6347 13L 20.7297 13L 15.3297 5.77L 15.3297 13L 13.3647 13L 13.3647 2.5L 15.2697 2.5L 20.6847 9.745L 20.6847 2.5Z"/>
</defs>
</svg>
