<svg width="48" height="48" viewBox="0 0 48 48" version="1.1" xmlns="http://www.w3.org/2000/svg" xmlns:xlink="http://www.w3.org/1999/xlink">
<title>cruise control</title>
<desc>Created using Figma</desc>
<g id="Canvas" transform="translate(8102 -829)">
<clipPath id="clip-0" clip-rule="evenodd">
<path d="M -8102 829L -8054 829L -8054 877L -8102 877L -8102 829Z" fill="#FFFFFF"/>
</clipPath>
<g id="cruise control" clip-path="url(#clip-0)">
<g id="Ellipse 3">
<use xlink:href="#path0_stroke" transform="translate(-8094 840)" fill="#007BE4"/>
</g>
<g id="Union">
<use xlink:href="#path1_fill" transform="translate(-8101 833)" fill="#007BE4"/>
</g>
</g>
</g>
<defs>
<path id="path0_stroke" d="M 4.5 30.5938L 3.36531 31.5749C 3.63217 31.8836 4.01323 32.0702 4.42066 32.0918C 4.82809 32.1133 5.22674 31.968 5.5247 31.6893L 4.5 30.5938ZM 32.1383 31L 31.0976 32.0803C 31.3888 32.3607 31.7807 32.5118 32.1848 32.4993C 32.5888 32.4868 32.9707 32.3117 33.2439 32.0138L 32.1383 31ZM 5.5 5.33755L 6.5541 6.40473L 5.5 5.33755ZM 17 4C 17 4.82843 17.6716 5.5 18.5 5.5C 19.3284 5.5 20 4.82843 20 4L 17 4ZM 27.2911 7.22068C 26.6861 7.78661 26.6544 8.73583 27.2203 9.34082C 27.7863 9.94582 28.7355 9.97749 29.3405 9.41157L 27.2911 7.22068ZM 32 17C 31.1716 17 30.5 17.6716 30.5 18.5C 30.5 19.3284 31.1716 20 32 20L 32 17ZM 29.0407 25.933C 28.4441 25.3583 27.4945 25.376 26.9197 25.9726C 26.345 26.5692 26.3627 27.5188 26.9593 28.0935L 29.0407 25.933ZM 9.5247 27.9476C 10.1297 27.3817 10.1614 26.4325 9.59544 25.8275C 9.02952 25.2225 8.0803 25.1908 7.4753 25.7567L 9.5247 27.9476ZM 5 20C 5.82843 20 6.5 19.3284 6.5 18.5C 6.5 17.6716 5.82843 17 5 17L 5 20ZM 17.4393 19.0607C 18.0251 19.6464 18.9749 19.6464 19.5607 19.0607C 20.1464 18.4749 20.1464 17.5251 19.5607 16.9393L 17.4393 19.0607ZM 11.0607 8.43934C 10.4749 7.85355 9.52513 7.85355 8.93934 8.43934C 8.35355 9.02513 8.35355 9.97487 8.93934 10.5607L 11.0607 8.43934ZM 5.63469 29.6128C 2.97703 26.5704 1.47279 22.8391 1.5 18.5L -1.5 18.5C -1.47279 23.4079 0.415133 28.1314 3.36531 31.5749L 5.63469 29.6128ZM 35.5 18.5C 35.5295 23.0229 33.8944 26.8985 31.0328 29.9862L 33.2439 32.0138C 36.4204 28.517 38.4705 23.6152 38.5 18.5L 35.5 18.5ZM 18.5 1.5C 23.1569 1.5 27.374 3.37054 30.4459 6.40473L 32.5541 4.27037C 28.9436 0.704112 23.9777 -1.5 18.5 -1.5L 18.5 1.5ZM 30.4459 6.40473C 33.568 9.48853 35.5 13.7673 35.5 18.5L 38.5 18.5C 38.5 12.9328 36.2234 7.89465 32.5541 4.27037L 30.4459 6.40473ZM 1.5 18.5C 1.5 13.7673 3.432 9.48853 6.5541 6.40473L 4.4459 4.27037C 0.776617 7.89465 -1.5 12.9328 -1.5 18.5L 1.5 18.5ZM 6.5541 6.40473C 9.62597 3.37054 13.8431 1.5 18.5 1.5L 18.5 -1.5C 13.0223 -1.5 8.05644 0.704112 4.4459 4.27037L 6.5541 6.40473ZM 17 0L 17 4L 20 4L 20 0L 17 0ZM 29.3405 9.41157L 32.5247 6.43299L 30.4753 4.24211L 27.2911 7.22068L 29.3405 9.41157ZM 32 20L 37 20L 37 17L 32 17L 32 20ZM 33.179 29.9197L 29.0407 25.933L 26.9593 28.0935L 31.0976 32.0803L 33.179 29.9197ZM 5.5247 31.6893L 9.5247 27.9476L 7.4753 25.7567L 3.4753 29.4984L 5.5247 31.6893ZM 0 20L 5 20L 5 17L 0 17L 0 20ZM 19.5607 16.9393L 11.0607 8.43934L 8.93934 10.5607L 17.4393 19.0607L 19.5607 16.9393Z"/>
<path id="path1_fill" fill-rule="evenodd" d="M 0 2.12134L 3.5 5.62134L 2.06055 7.06055L 9.56055 9.56055L 7.06055 2.06055L 5.62134 3.5L 2.12134 0L 0 2.12134Z"/>
</defs>
</svg>
