<svg width="48" height="48" viewBox="0 0 48 48" version="1.1" xmlns="http://www.w3.org/2000/svg" xmlns:xlink="http://www.w3.org/1999/xlink">
<title>heater</title>
<desc>Created using Figma</desc>
<g id="Canvas" transform="translate(7958 -757)">
<clipPath id="clip-0" clip-rule="evenodd">
<path d="M -7958 757L -7910 757L -7910 805L -7958 805L -7958 757Z" fill="#FFFFFF"/>
</clipPath>
<g id="heater" clip-path="url(#clip-0)" filter="url(#filter0_d)">
<g id="Union" filter="url(#filter1_d)">
<use xlink:href="#path0_fill" transform="translate(-7952 765)" fill="#D0021B"/>
</g>
</g>
</g>
<defs>
<filter id="filter0_d" filterUnits="userSpaceOnUse" x="-7964" y="751" width="60" height="60" color-interpolation-filters="sRGB">
<feFlood flood-opacity="0" result="BackgroundImageFix"/>
<feColorMatrix in="SourceAlpha" type="matrix" values="0 0 0 0 0 0 0 0 0 0 0 0 0 0 0 0 0 0 255 0"/>
<feOffset dx="0" dy="0"/>
<feGaussianBlur stdDeviation="3"/>
<feColorMatrix type="matrix" values="0 0 0 0 0.815686 0 0 0 0 0.00784314 0 0 0 0 0.105882 0 0 0 0.5 0"/>
<feBlend mode="normal" in2="BackgroundImageFix" result="effect1_dropShadow"/>
<feBlend mode="normal" in="SourceGraphic" in2="effect1_dropShadow" result="shape"/>
</filter>
<filter id="filter1_d" filterUnits="userSpaceOnUse" x="-7958" y="759" width="48" height="44" color-interpolation-filters="sRGB">
<feFlood flood-opacity="0" result="BackgroundImageFix"/>
<feColorMatrix in="SourceAlpha" type="matrix" values="0 0 0 0 0 0 0 0 0 0 0 0 0 0 0 0 0 0 255 0"/>
<feOffset dx="0" dy="0"/>
<feGaussianBlur stdDeviation="3"/>
<feColorMatrix type="matrix" values="0 0 0 0 0.815686 0 0 0 0 0.00784314 0 0 0 0 0.105882 0 0 0 1 0"/>
<feBlend mode="normal" in2="BackgroundImageFix" result="effect1_dropShadow"/>
<feBlend mode="normal" in="SourceGraphic" in2="effect1_dropShadow" result="shape"/>
</filter>
<path id="path0_fill" fill-rule="evenodd" d="M 2 2L 34 2L 34 20.0706L 26.3091 20.0706L 26.3091 17.7793C 26.2993 17.4016 26.4004 17.084 26.5723 16.6292C 26.644 16.4392 26.7227 16.251 26.8018 16.0627C 26.9956 15.6013 27.1899 15.1387 27.2769 14.6443L 29.1182 14.6443L 26.3091 9.0083L 23.5 14.6443L 25.21 14.6443C 25.1328 14.8594 25.0396 15.085 24.9438 15.3162C 24.8618 15.5144 24.7783 15.7166 24.7017 15.9199C 24.5029 16.449 24.3188 17.1194 24.3091 17.7805L 24.3091 20.0706L 18.3091 20.0706L 18.3091 17.7793C 18.2993 17.4016 18.4004 17.084 18.5723 16.6292C 18.644 16.4392 18.7227 16.251 18.8018 16.0627C 18.9956 15.6013 19.1899 15.1387 19.2769 14.6443L 21.1182 14.6443L 18.3091 9.0083L 15.5 14.6443L 17.21 14.6443C 17.1328 14.8594 17.0396 15.085 16.9438 15.3162C 16.8618 15.5144 16.7783 15.7166 16.7017 15.9199C 16.5029 16.449 16.3188 17.1194 16.3091 17.7805L 16.3091 20.0706L 10.3101 20.0706L 10.3101 17.7793C 10.3003 17.4016 10.4014 17.084 10.5732 16.6292C 10.645 16.4392 10.7236 16.251 10.8027 16.0627C 10.9966 15.6013 11.1909 15.1387 11.2778 14.6443L 13.1191 14.6443L 10.3101 9.0083L 7.50098 14.6443L 9.21094 14.6443C 9.13379 14.8594 9.04053 15.085 8.94482 15.3162C 8.86279 15.5144 8.7793 15.7166 8.70264 15.9199C 8.50391 16.449 8.31982 17.1194 8.31006 17.7805L 8.31006 20.0706L 2 20.0706L 2 2ZM 0 2C 0 0.895508 0.895508 0 2 0L 34 0C 35.1045 0 36 0.895508 36 2L 36 20.0706C 36 21.175 35.1045 22.0706 34 22.0706L 28.8423 22.0706C 29.1011 22.7988 29.3101 23.7026 29.3101 24.6765C 29.3086 25.7297 29.1646 27.1357 28.7637 28.4272C 28.3516 29.7358 27.6348 31.0784 26.4102 32L 25.21 30.3948C 25.9849 29.8118 26.5181 28.8972 26.8564 27.823C 27.2056 26.7317 27.311 25.6299 27.3101 24.6765C 27.3101 23.6042 26.9507 22.6238 26.6748 22.0706L 20.8423 22.0706C 21.1011 22.7988 21.3101 23.7026 21.3101 24.6765C 21.3086 25.7297 21.1646 27.1357 20.7637 28.4272C 20.3516 29.7358 19.6348 31.0784 18.4102 32L 17.21 30.3948C 17.9849 29.8118 18.5181 28.8972 18.8564 27.823C 19.2056 26.7317 19.311 25.6299 19.3101 24.6765C 19.3101 23.6042 18.9507 22.6238 18.6748 22.0706L 12.3423 22.0706C 12.6011 22.7988 12.8101 23.7026 12.8101 24.6765C 12.8086 25.7297 12.6646 27.1357 12.2637 28.4272C 11.8516 29.7358 11.1348 31.0784 9.91016 32L 8.70996 30.3948C 9.48486 29.8118 10.0181 28.8972 10.3564 27.823C 10.7056 26.7317 10.811 25.6299 10.8101 24.6765C 10.8101 23.6042 10.4507 22.6238 10.1748 22.0706L 2 22.0706C 0.895508 22.0706 0 21.175 0 20.0706L 0 2Z"/>
</defs>
</svg>
