<svg width="120" height="100" viewBox="0 0 120 100" version="1.1" xmlns="http://www.w3.org/2000/svg" xmlns:xlink="http://www.w3.org/1999/xlink">
<title>key</title>
<desc>Created using Figma</desc>
<g id="Canvas" transform="translate(4240 -5177)">
<g id="key">
<g id="letter">
<use xlink:href="#path0_fill" transform="translate(-4240 5177)"/>
</g>
</g>
</g>
<defs>
<path id="path0_fill" d="M 74.7167 65.88C 73.7567 66.744 72.6527 67.416 71.4047 67.896C 70.1567 68.4 68.9327 68.652 67.7327 68.652C 66.1487 68.652 64.6727 68.184 63.3047 67.248C 61.9367 66.336 60.7727 65.04 59.8127 63.36C 57.3167 63.36 55.0487 62.784 53.0087 61.632C 50.9687 60.48 49.3607 58.92 48.1847 56.952C 47.0087 54.96 46.4207 52.764 46.4207 50.364C 46.4207 47.964 47.0087 45.78 48.1847 43.812C 49.3607 41.844 50.9687 40.296 53.0087 39.168C 55.0727 38.04 57.3527 37.476 59.8487 37.476C 62.3447 37.476 64.6127 38.04 66.6527 39.168C 68.7167 40.296 70.3367 41.844 71.5127 43.812C 72.6887 45.78 73.2767 47.964 73.2767 50.364C 73.2767 52.236 72.9047 54 72.1607 55.656C 71.4407 57.288 70.4207 58.704 69.1007 59.904C 67.7807 61.104 66.2567 62.004 64.5287 62.604C 65.8007 63.948 67.0607 64.62 68.3087 64.62C 69.6047 64.62 71.1167 63.948 72.8447 62.604L 74.7167 65.88ZM 51.3527 50.364C 51.3527 51.948 51.7367 53.4 52.5047 54.72C 53.2967 56.04 54.3407 57.084 55.6367 57.852C 56.9567 58.62 58.3847 59.004 59.9207 59.004C 61.4327 59.004 62.8367 58.62 64.1327 57.852C 65.4287 57.084 66.4487 56.04 67.1927 54.72C 67.9607 53.4 68.3447 51.948 68.3447 50.364C 68.3447 48.78 67.9607 47.34 67.1927 46.044C 66.4487 44.724 65.4287 43.692 64.1327 42.948C 62.8367 42.18 61.4327 41.796 59.9207 41.796C 58.3847 41.796 56.9567 42.18 55.6367 42.948C 54.3167 43.692 53.2727 44.724 52.5047 46.044C 51.7367 47.34 51.3527 48.78 51.3527 50.364Z"/>
</defs>
</svg>
