<svg width="679" height="245" viewBox="0 0 679 245" version="1.1" xmlns="http://www.w3.org/2000/svg" xmlns:xlink="http://www.w3.org/1999/xlink">
<title>MAP COLORS</title>
<desc>Created using Figma</desc>
<g id="Canvas" transform="translate(6525 -10532)">
<g id="MAP COLORS">
<g id="Rectangle 26">
<use xlink:href="#path0_fill" transform="matrix(6.12323e-17 -1 1 6.12323e-17 -6437 10777)" fill="#141C2A"/>
</g>
<g id="Rectangle 26">
<use xlink:href="#path0_fill" transform="matrix(6.12323e-17 -1 1 6.12323e-17 -6525 10777)" fill="#6F6FC8"/>
</g>
<g id="Rectangle 26">
<use xlink:href="#path0_fill" transform="matrix(6.12323e-17 -1 1 6.12323e-17 -6355 10777)" fill="#10141C"/>
</g>
<g id="Rectangle 26">
<use xlink:href="#path0_fill" transform="matrix(6.12323e-17 -1 1 6.12323e-17 -6267 10777)" fill="#132622"/>
</g>
<g id="Rectangle 26">
<use xlink:href="#path0_fill" transform="matrix(6.12323e-17 -1 1 6.12323e-17 -6179 10777)" fill="#1C4E60"/>
</g>
<g id="Rectangle 26">
<use xlink:href="#path0_fill" transform="matrix(6.12323e-17 -1 1 6.12323e-17 -6091 10777)" fill="#49586D"/>
</g>
<g id="Rectangle 26">
<use xlink:href="#path0_fill" transform="matrix(6.12323e-17 -1 1 6.12323e-17 -6003 10777)" fill="#2B3849"/>
</g>
<g id="Rectangle 26">
<use xlink:href="#path0_fill" transform="matrix(6.12323e-17 -1 1 6.12323e-17 -5921 10777)" fill="#9CA8B4"/>
</g>
<g id="Street name">
<use xlink:href="#path1_fill" transform="matrix(6.12323e-17 -1 1 6.12323e-17 -5899 10692)" fill="#FFFFFF"/>
</g>
<g id="road">
<use xlink:href="#path2_fill" transform="matrix(6.12323e-17 -1 1 6.12323e-17 -5981 10692)" fill="#FFFFFF"/>
</g>
<g id="Highway">
<use xlink:href="#path3_fill" transform="matrix(6.12323e-17 -1 1 6.12323e-17 -6069 10692)" fill="#FFFFFF"/>
</g>
<g id="water">
<use xlink:href="#path4_fill" transform="matrix(6.12323e-17 -1 1 6.12323e-17 -6157 10692)" fill="#FFFFFF"/>
</g>
<g id="park">
<use xlink:href="#path5_fill" transform="matrix(6.12323e-17 -1 1 6.12323e-17 -6245 10692)" fill="#FFFFFF"/>
</g>
<g id="background">
<use xlink:href="#path6_fill" transform="matrix(6.12323e-17 -1 1 6.12323e-17 -6333 10692)" fill="#FFFFFF"/>
</g>
<g id="building">
<use xlink:href="#path7_fill" transform="matrix(6.12323e-17 -1 1 6.12323e-17 -6415 10692)" fill="#FFFFFF"/>
</g>
<g id="hwy label">
<use xlink:href="#path8_fill" transform="matrix(6.12323e-17 -1 1 6.12323e-17 -6503 10692)" fill="#FFFFFF"/>
</g>
</g>
</g>
<defs>
<path id="path0_fill" d="M 0 0L 75 0L 75 75L 0 75L 0 0Z"/>
<path id="path1_fill" d="M 13.676 11.48C 12.74 10.908 11.778 10.466 10.79 10.154C 9.81933 9.842 8.96133 9.686 8.216 9.686C 7.384 9.686 6.72533 9.842 6.24 10.154C 5.75467 10.466 5.512 10.8993 5.512 11.454C 5.512 11.9567 5.67667 12.3813 6.006 12.728C 6.35267 13.0573 6.77733 13.3347 7.28 13.56C 7.8 13.768 8.502 14.002 9.386 14.262C 10.6167 14.626 11.622 14.99 12.402 15.354C 13.1993 15.718 13.8753 16.2553 14.43 16.966C 14.9847 17.6767 15.262 18.6127 15.262 19.774C 15.262 20.8833 14.9587 21.854 14.352 22.686C 13.7627 23.5007 12.9393 24.1247 11.882 24.558C 10.842 24.9913 9.646 25.208 8.294 25.208C 6.87267 25.208 5.486 24.948 4.134 24.428C 2.782 23.8907 1.60333 23.18 0.598 22.296L 2.054 19.332C 2.97267 20.1813 4.004 20.8487 5.148 21.334C 6.292 21.8193 7.358 22.062 8.346 22.062C 9.31667 22.062 10.0793 21.88 10.634 21.516C 11.1887 21.1347 11.466 20.6233 11.466 19.982C 11.466 19.462 11.2927 19.0373 10.946 18.708C 10.6167 18.3613 10.192 18.084 9.672 17.876C 9.152 17.668 8.44133 17.434 7.54 17.174C 6.30933 16.81 5.304 16.4547 4.524 16.108C 3.744 15.7613 3.07667 15.2413 2.522 14.548C 1.96733 13.8373 1.69 12.91 1.69 11.766C 1.69 10.7087 1.96733 9.79 2.522 9.01C 3.094 8.21267 3.89133 7.59733 4.914 7.164C 5.954 6.73067 7.15 6.514 8.502 6.514C 9.68067 6.514 10.842 6.68733 11.986 7.034C 13.1473 7.38067 14.1787 7.84867 15.08 8.438L 13.676 11.48ZM 26.5702 24.142C 25.4608 24.818 24.2995 25.156 23.0862 25.156C 21.8902 25.156 20.9108 24.8093 20.1482 24.116C 19.3855 23.4053 19.0042 22.3653 19.0042 20.996L 19.0042 14.132L 17.0542 14.132L 17.0282 11.662L 19.0042 11.662L 19.0042 7.84L 22.3582 7.84L 22.3582 11.662L 26.3362 11.662L 26.3362 14.132L 22.3582 14.132L 22.3582 20.398C 22.3582 21.0393 22.4795 21.4987 22.7222 21.776C 22.9648 22.036 23.3288 22.166 23.8142 22.166C 24.3342 22.166 24.9928 21.9753 25.7902 21.594L 26.5702 24.142ZM 32.6032 13.768C 33.0712 12.8667 33.7039 12.182 34.5012 11.714C 35.3159 11.2287 36.2605 10.9773 37.3352 10.96L 37.3352 14.236C 35.8965 14.1493 34.7439 14.4873 33.8772 15.25C 33.0279 15.9953 32.6032 17.0093 32.6032 18.292L 32.6032 25L 29.2232 25L 29.2232 11.09L 32.6032 11.09L 32.6032 13.768ZM 45.5075 10.986C 47.7262 10.986 49.3902 11.6187 50.4995 12.884C 51.6262 14.1493 52.1895 15.926 52.1895 18.214C 52.1895 18.6647 52.1808 19.0027 52.1635 19.228L 41.8935 19.228C 42.1188 20.216 42.5782 20.996 43.2715 21.568C 43.9822 22.1227 44.8488 22.4 45.8715 22.4C 46.5822 22.4 47.2582 22.27 47.8995 22.01C 48.5582 21.7327 49.1302 21.3427 49.6155 20.84L 51.4355 22.738C 50.7422 23.5007 49.8928 24.09 48.8875 24.506C 47.8995 24.922 46.7988 25.13 45.5855 25.13C 44.1642 25.13 42.9075 24.8353 41.8155 24.246C 40.7408 23.6567 39.9088 22.8333 39.3195 21.776C 38.7302 20.7013 38.4355 19.4707 38.4355 18.084C 38.4355 16.6973 38.7302 15.4667 39.3195 14.392C 39.9262 13.3173 40.7668 12.4853 41.8415 11.896C 42.9162 11.2893 44.1382 10.986 45.5075 10.986ZM 49.0955 16.966C 49.0608 15.9433 48.7228 15.1287 48.0815 14.522C 47.4402 13.9153 46.5908 13.612 45.5335 13.612C 44.5455 13.612 43.7135 13.9153 43.0375 14.522C 42.3788 15.1113 41.9715 15.926 41.8155 16.966L 49.0955 16.966ZM 60.8942 10.986C 63.1129 10.986 64.7769 11.6187 65.8862 12.884C 67.0129 14.1493 67.5762 15.926 67.5762 18.214C 67.5762 18.6647 67.5676 19.0027 67.5502 19.228L 57.2802 19.228C 57.5056 20.216 57.9649 20.996 58.6582 21.568C 59.3689 22.1227 60.2356 22.4 61.2582 22.4C 61.9689 22.4 62.6449 22.27 63.2862 22.01C 63.9449 21.7327 64.5169 21.3427 65.0022 20.84L 66.8222 22.738C 66.1289 23.5007 65.2796 24.09 64.2742 24.506C 63.2862 24.922 62.1856 25.13 60.9722 25.13C 59.5509 25.13 58.2942 24.8353 57.2022 24.246C 56.1276 23.6567 55.2956 22.8333 54.7062 21.776C 54.1169 20.7013 53.8222 19.4707 53.8222 18.084C 53.8222 16.6973 54.1169 15.4667 54.7062 14.392C 55.3129 13.3173 56.1536 12.4853 57.2282 11.896C 58.3029 11.2893 59.5249 10.986 60.8942 10.986ZM 64.4822 16.966C 64.4476 15.9433 64.1096 15.1287 63.4682 14.522C 62.8269 13.9153 61.9776 13.612 60.9202 13.612C 59.9322 13.612 59.1002 13.9153 58.4242 14.522C 57.7656 15.1113 57.3582 15.926 57.2022 16.966L 64.4822 16.966ZM 78.621 24.142C 77.5116 24.818 76.3503 25.156 75.137 25.156C 73.941 25.156 72.9616 24.8093 72.199 24.116C 71.4363 23.4053 71.055 22.3653 71.055 20.996L 71.055 14.132L 69.105 14.132L 69.079 11.662L 71.055 11.662L 71.055 7.84L 74.409 7.84L 74.409 11.662L 78.387 11.662L 78.387 14.132L 74.409 14.132L 74.409 20.398C 74.409 21.0393 74.5303 21.4987 74.773 21.776C 75.0156 22.036 75.3796 22.166 75.865 22.166C 76.385 22.166 77.0436 21.9753 77.841 21.594L 78.621 24.142ZM 96.019 10.96C 97.6137 10.96 98.8703 11.4453 99.789 12.416C 100.708 13.3693 101.167 14.6693 101.167 16.316L 101.167 25L 97.761 25L 97.761 17.304C 97.761 16.3333 97.4837 15.5707 96.929 15.016C 96.3743 14.444 95.6203 14.158 94.667 14.158C 93.5403 14.1753 92.6477 14.5567 91.989 15.302C 91.3477 16.0473 91.027 17.0007 91.027 18.162L 91.027 25L 87.647 25L 87.647 11.09L 91.027 11.09L 91.027 13.69C 91.9803 11.9047 93.6443 10.9947 96.019 10.96ZM 113.179 25L 113.179 23.31C 112.694 23.9167 112.07 24.376 111.307 24.688C 110.545 25 109.669 25.156 108.681 25.156C 107.711 25.156 106.853 24.974 106.107 24.61C 105.379 24.2287 104.816 23.7087 104.417 23.05C 104.019 22.3913 103.819 21.6547 103.819 20.84C 103.819 19.54 104.279 18.526 105.197 17.798C 106.116 17.0527 107.416 16.6713 109.097 16.654L 113.153 16.654L 113.153 16.29C 113.153 15.4753 112.885 14.8427 112.347 14.392C 111.81 13.9413 111.03 13.716 110.007 13.716C 108.69 13.716 107.312 14.1493 105.873 15.016L 104.651 12.676C 105.743 12.0693 106.731 11.636 107.615 11.376C 108.517 11.0987 109.565 10.96 110.761 10.96C 112.564 10.96 113.959 11.3933 114.947 12.26C 115.953 13.1267 116.464 14.34 116.481 15.9L 116.507 25L 113.179 25ZM 109.487 22.556C 110.458 22.556 111.29 22.3307 111.983 21.88C 112.677 21.412 113.067 20.84 113.153 20.164L 113.153 18.916L 109.643 18.916C 108.742 18.916 108.075 19.0547 107.641 19.332C 107.225 19.592 107.017 20.0253 107.017 20.632C 107.017 21.2213 107.234 21.6893 107.667 22.036C 108.118 22.3827 108.725 22.556 109.487 22.556ZM 138.525 10.96C 140.103 10.96 141.342 11.4453 142.243 12.416C 143.145 13.3693 143.595 14.6693 143.595 16.316L 143.595 25L 140.189 25L 140.189 17.304C 140.189 16.316 139.912 15.5447 139.357 14.99C 138.82 14.418 138.083 14.132 137.147 14.132C 136.073 14.1667 135.215 14.5567 134.573 15.302C 133.949 16.0473 133.637 16.992 133.637 18.136L 133.637 25L 130.231 25L 130.231 17.304C 130.231 16.316 129.963 15.5447 129.425 14.99C 128.888 14.418 128.151 14.132 127.215 14.132C 126.123 14.1667 125.257 14.5567 124.615 15.302C 123.991 16.0473 123.679 16.992 123.679 18.136L 123.679 25L 120.299 25L 120.299 11.09L 123.679 11.09L 123.679 13.664C 124.598 11.896 126.227 10.9947 128.567 10.96C 129.781 10.96 130.795 11.2547 131.609 11.844C 132.441 12.416 133.022 13.2307 133.351 14.288C 134.235 12.104 135.96 10.9947 138.525 10.96ZM 153.164 10.986C 155.382 10.986 157.046 11.6187 158.156 12.884C 159.282 14.1493 159.846 15.926 159.846 18.214C 159.846 18.6647 159.837 19.0027 159.82 19.228L 149.55 19.228C 149.775 20.216 150.234 20.996 150.928 21.568C 151.638 22.1227 152.505 22.4 153.528 22.4C 154.238 22.4 154.914 22.27 155.556 22.01C 156.214 21.7327 156.786 21.3427 157.272 20.84L 159.092 22.738C 158.398 23.5007 157.549 24.09 156.544 24.506C 155.556 24.922 154.455 25.13 153.242 25.13C 151.82 25.13 150.564 24.8353 149.472 24.246C 148.397 23.6567 147.565 22.8333 146.976 21.776C 146.386 20.7013 146.092 19.4707 146.092 18.084C 146.092 16.6973 146.386 15.4667 146.976 14.392C 147.582 13.3173 148.423 12.4853 149.498 11.896C 150.572 11.2893 151.794 10.986 153.164 10.986ZM 156.752 16.966C 156.717 15.9433 156.379 15.1287 155.738 14.522C 155.096 13.9153 154.247 13.612 153.19 13.612C 152.202 13.612 151.37 13.9153 150.694 14.522C 150.035 15.1113 149.628 15.926 149.472 16.966L 156.752 16.966Z"/>
<path id="path2_fill" d="M 5.486 13.768C 5.954 12.8667 6.58667 12.182 7.384 11.714C 8.19867 11.2287 9.14333 10.9773 10.218 10.96L 10.218 14.236C 8.77933 14.1493 7.62667 14.4873 6.76 15.25C 5.91067 15.9953 5.486 17.0093 5.486 18.292L 5.486 25L 2.106 25L 2.106 11.09L 5.486 11.09L 5.486 13.768ZM 18.6763 10.986C 20.115 10.986 21.3803 11.2807 22.4723 11.87C 23.5817 12.4593 24.4397 13.2913 25.0463 14.366C 25.6703 15.4233 25.9823 16.6453 25.9823 18.032C 25.9823 19.436 25.6703 20.6753 25.0463 21.75C 24.4397 22.8247 23.5817 23.6567 22.4723 24.246C 21.3803 24.8353 20.115 25.13 18.6763 25.13C 17.2203 25.13 15.9377 24.8353 14.8283 24.246C 13.719 23.6567 12.8523 22.8247 12.2283 21.75C 11.6217 20.6753 11.3183 19.436 11.3183 18.032C 11.3183 16.6453 11.6217 15.4233 12.2283 14.366C 12.8523 13.2913 13.719 12.4593 14.8283 11.87C 15.9377 11.2807 17.2203 10.986 18.6763 10.986ZM 18.6763 13.872C 17.4977 13.872 16.5443 14.262 15.8163 15.042C 15.0883 15.822 14.7243 16.836 14.7243 18.084C 14.7243 19.332 15.0883 20.346 15.8163 21.126C 16.5443 21.906 17.4977 22.296 18.6763 22.296C 19.8203 22.296 20.7563 21.906 21.4843 21.126C 22.2123 20.346 22.5763 19.332 22.5763 18.084C 22.5763 16.836 22.2123 15.822 21.4843 15.042C 20.7563 14.262 19.8203 13.872 18.6763 13.872ZM 37.1345 25L 37.1345 23.31C 36.6492 23.9167 36.0252 24.376 35.2625 24.688C 34.4998 25 33.6245 25.156 32.6365 25.156C 31.6658 25.156 30.8078 24.974 30.0625 24.61C 29.3345 24.2287 28.7712 23.7087 28.3725 23.05C 27.9738 22.3913 27.7745 21.6547 27.7745 20.84C 27.7745 19.54 28.2338 18.526 29.1525 17.798C 30.0712 17.0527 31.3712 16.6713 33.0525 16.654L 37.1085 16.654L 37.1085 16.29C 37.1085 15.4753 36.8398 14.8427 36.3025 14.392C 35.7652 13.9413 34.9852 13.716 33.9625 13.716C 32.6452 13.716 31.2672 14.1493 29.8285 15.016L 28.6065 12.676C 29.6985 12.0693 30.6865 11.636 31.5705 11.376C 32.4718 11.0987 33.5205 10.96 34.7165 10.96C 36.5192 10.96 37.9145 11.3933 38.9025 12.26C 39.9078 13.1267 40.4192 14.34 40.4365 15.9L 40.4625 25L 37.1345 25ZM 33.4425 22.556C 34.4132 22.556 35.2452 22.3307 35.9385 21.88C 36.6318 21.412 37.0218 20.84 37.1085 20.164L 37.1085 18.916L 33.5985 18.916C 32.6972 18.916 32.0298 19.0547 31.5965 19.332C 31.1805 19.592 30.9725 20.0253 30.9725 20.632C 30.9725 21.2213 31.1892 21.6893 31.6225 22.036C 32.0732 22.3827 32.6798 22.556 33.4425 22.556ZM 57.6704 5.708L 57.6704 25L 54.2904 25L 54.2904 22.764C 53.7878 23.544 53.1378 24.142 52.3404 24.558C 51.5604 24.9567 50.6504 25.156 49.6104 25.156C 48.2931 25.156 47.1318 24.8613 46.1264 24.272C 45.1384 23.6653 44.3671 22.8247 43.8124 21.75C 43.2578 20.658 42.9804 19.41 42.9804 18.006C 42.9804 16.6193 43.2491 15.3973 43.7864 14.34C 44.3411 13.2653 45.1124 12.4333 46.1004 11.844C 47.1058 11.2547 48.2498 10.96 49.5324 10.96C 50.5898 10.96 51.5171 11.168 52.3144 11.584C 53.1118 12 53.7704 12.598 54.2904 13.378L 54.2904 5.708L 57.6704 5.708ZM 50.3384 22.322C 51.4998 22.322 52.4444 21.932 53.1724 21.152C 53.9178 20.3547 54.2904 19.332 54.2904 18.084C 54.2904 16.836 53.9178 15.822 53.1724 15.042C 52.4444 14.2447 51.4998 13.846 50.3384 13.846C 49.1771 13.846 48.2324 14.2447 47.5044 15.042C 46.7764 15.822 46.4038 16.836 46.3864 18.084C 46.4038 19.332 46.7764 20.3547 47.5044 21.152C 48.2324 21.932 49.1771 22.322 50.3384 22.322Z"/>
<path id="path3_fill" d="M 2.236 6.8L 5.72 6.8L 5.72 14.574L 14.794 14.574L 14.794 6.8L 18.278 6.8L 18.278 25L 14.794 25L 14.794 17.616L 5.72 17.616L 5.72 25L 2.236 25L 2.236 6.8ZM 22.647 11.09L 26.027 11.09L 26.027 25L 22.647 25L 22.647 11.09ZM 24.311 5.11C 24.8657 5.11 25.325 5.30067 25.689 5.682C 26.053 6.06333 26.235 6.54867 26.235 7.138C 26.235 7.71 26.053 8.18667 25.689 8.568C 25.325 8.94933 24.8657 9.14 24.311 9.14C 23.7563 9.14 23.297 8.94933 22.933 8.568C 22.569 8.18667 22.387 7.71 22.387 7.138C 22.387 6.54867 22.569 6.06333 22.933 5.682C 23.297 5.30067 23.7563 5.11 24.311 5.11ZM 42.9274 11.09L 42.9274 23.674C 42.9274 24.9913 42.6241 26.1353 42.0174 27.106C 41.4281 28.094 40.5788 28.848 39.4694 29.368C 38.3774 29.9053 37.1034 30.174 35.6474 30.174C 33.5328 30.174 31.5741 29.5587 29.7714 28.328L 31.1234 25.884C 32.4408 26.8547 33.8881 27.34 35.4654 27.34C 36.7134 27.34 37.7014 27.0193 38.4294 26.378C 39.1748 25.7367 39.5474 24.8613 39.5474 23.752L 39.5474 22.114C 39.0794 22.8247 38.4728 23.3707 37.7274 23.752C 36.9821 24.116 36.1154 24.298 35.1274 24.298C 33.9141 24.298 32.8394 24.0207 31.9034 23.466C 30.9674 22.894 30.2394 22.1053 29.7194 21.1C 29.1994 20.0773 28.9394 18.9073 28.9394 17.59C 28.9394 16.29 29.1994 15.146 29.7194 14.158C 30.2394 13.1527 30.9674 12.3727 31.9034 11.818C 32.8394 11.2633 33.9141 10.986 35.1274 10.986C 36.0981 10.986 36.9561 11.1767 37.7014 11.558C 38.4641 11.9393 39.0794 12.4767 39.5474 13.17L 39.5474 11.09L 42.9274 11.09ZM 35.8554 21.646C 36.9474 21.646 37.8314 21.282 38.5074 20.554C 39.2008 19.8087 39.5474 18.8467 39.5474 17.668C 39.5474 16.4893 39.2008 15.536 38.5074 14.808C 37.8314 14.0627 36.9474 13.69 35.8554 13.69C 34.7634 13.69 33.8708 14.0627 33.1774 14.808C 32.5014 15.5533 32.1548 16.5067 32.1374 17.668C 32.1548 18.8467 32.5014 19.8087 33.1774 20.554C 33.8708 21.282 34.7634 21.646 35.8554 21.646ZM 55.4231 10.96C 57.0177 10.96 58.2744 11.4453 59.1931 12.416C 60.1117 13.3693 60.5711 14.6693 60.5711 16.316L 60.5711 25L 57.1651 25L 57.1651 17.304C 57.1651 16.3333 56.8877 15.5707 56.3331 15.016C 55.7784 14.444 55.0244 14.158 54.0711 14.158C 52.9444 14.1753 52.0517 14.5567 51.3931 15.302C 50.7344 16.0473 50.4051 17.0007 50.4051 18.162L 50.4051 25L 47.0251 25L 47.0251 5.708L 50.4051 5.708L 50.4051 13.742C 51.3584 11.922 53.0311 10.9947 55.4231 10.96ZM 61.8763 11.116L 65.3603 11.09L 68.7663 21.594L 72.0683 11.09L 75.4743 11.09L 78.8283 21.594L 82.1563 11.09L 85.5623 11.09L 80.5183 25L 77.0603 25L 73.7323 15.198L 70.4303 25L 66.9723 25L 61.8763 11.116ZM 95.3806 25L 95.3806 23.31C 94.8953 23.9167 94.2713 24.376 93.5086 24.688C 92.7459 25 91.8706 25.156 90.8826 25.156C 89.9119 25.156 89.0539 24.974 88.3086 24.61C 87.5806 24.2287 87.0173 23.7087 86.6186 23.05C 86.2199 22.3913 86.0206 21.6547 86.0206 20.84C 86.0206 19.54 86.4799 18.526 87.3986 17.798C 88.3173 17.0527 89.6173 16.6713 91.2986 16.654L 95.3546 16.654L 95.3546 16.29C 95.3546 15.4753 95.0859 14.8427 94.5486 14.392C 94.0113 13.9413 93.2313 13.716 92.2086 13.716C 90.8913 13.716 89.5133 14.1493 88.0746 15.016L 86.8526 12.676C 87.9446 12.0693 88.9326 11.636 89.8166 11.376C 90.7179 11.0987 91.7666 10.96 92.9626 10.96C 94.7653 10.96 96.1606 11.3933 97.1486 12.26C 98.1539 13.1267 98.6653 14.34 98.6826 15.9L 98.7086 25L 95.3806 25ZM 91.6886 22.556C 92.6593 22.556 93.4913 22.3307 94.1846 21.88C 94.8779 21.412 95.2679 20.84 95.3546 20.164L 95.3546 18.916L 91.8446 18.916C 90.9433 18.916 90.2759 19.0547 89.8426 19.332C 89.4266 19.592 89.2186 20.0253 89.2186 20.632C 89.2186 21.2213 89.4353 21.6893 89.8686 22.036C 90.3193 22.3827 90.9259 22.556 91.6886 22.556ZM 108.099 26.742C 107.666 27.886 107.042 28.744 106.227 29.316C 105.43 29.9053 104.476 30.2 103.367 30.2C 102.691 30.2 102.076 30.096 101.521 29.888C 100.984 29.6973 100.446 29.3853 99.9091 28.952L 101.365 26.378C 101.694 26.6207 101.998 26.794 102.275 26.898C 102.552 27.0193 102.847 27.08 103.159 27.08C 104.078 27.08 104.754 26.612 105.187 25.676L 105.603 24.766L 99.8571 11.09L 103.367 11.09L 107.319 21.204L 110.933 11.09L 114.339 11.09L 108.099 26.742Z"/>
<path id="path4_fill" d="M -0.026 11.116L 3.458 11.09L 6.864 21.594L 10.166 11.09L 13.572 11.09L 16.926 21.594L 20.254 11.09L 23.66 11.09L 18.616 25L 15.158 25L 11.83 15.198L 8.528 25L 5.07 25L -0.026 11.116ZM 33.4783 25L 33.4783 23.31C 32.9929 23.9167 32.3689 24.376 31.6062 24.688C 30.8436 25 29.9682 25.156 28.9803 25.156C 28.0096 25.156 27.1516 24.974 26.4062 24.61C 25.6783 24.2287 25.1149 23.7087 24.7162 23.05C 24.3176 22.3913 24.1183 21.6547 24.1183 20.84C 24.1183 19.54 24.5776 18.526 25.4963 17.798C 26.4149 17.0527 27.7149 16.6713 29.3962 16.654L 33.4522 16.654L 33.4522 16.29C 33.4522 15.4753 33.1836 14.8427 32.6463 14.392C 32.1089 13.9413 31.3289 13.716 30.3063 13.716C 28.9889 13.716 27.6109 14.1493 26.1722 15.016L 24.9502 12.676C 26.0423 12.0693 27.0303 11.636 27.9142 11.376C 28.8156 11.0987 29.8642 10.96 31.0602 10.96C 32.8629 10.96 34.2582 11.3933 35.2463 12.26C 36.2516 13.1267 36.7629 14.34 36.7802 15.9L 36.8062 25L 33.4783 25ZM 29.7862 22.556C 30.7569 22.556 31.5889 22.3307 32.2823 21.88C 32.9756 21.412 33.3656 20.84 33.4522 20.164L 33.4522 18.916L 29.9423 18.916C 29.0409 18.916 28.3736 19.0547 27.9403 19.332C 27.5242 19.592 27.3162 20.0253 27.3162 20.632C 27.3162 21.2213 27.5329 21.6893 27.9663 22.036C 28.4169 22.3827 29.0236 22.556 29.7862 22.556ZM 48.7362 24.142C 47.6269 24.818 46.4655 25.156 45.2522 25.156C 44.0562 25.156 43.0769 24.8093 42.3142 24.116C 41.5515 23.4053 41.1702 22.3653 41.1702 20.996L 41.1702 14.132L 39.2202 14.132L 39.1942 11.662L 41.1702 11.662L 41.1702 7.84L 44.5242 7.84L 44.5242 11.662L 48.5022 11.662L 48.5022 14.132L 44.5242 14.132L 44.5242 20.398C 44.5242 21.0393 44.6455 21.4987 44.8882 21.776C 45.1309 22.036 45.4949 22.166 45.9802 22.166C 46.5002 22.166 47.1589 21.9753 47.9562 21.594L 48.7362 24.142ZM 57.0602 10.986C 59.2789 10.986 60.9429 11.6187 62.0522 12.884C 63.1789 14.1493 63.7422 15.926 63.7422 18.214C 63.7422 18.6647 63.7336 19.0027 63.7163 19.228L 53.4463 19.228C 53.6716 20.216 54.1309 20.996 54.8242 21.568C 55.5349 22.1227 56.4016 22.4 57.4242 22.4C 58.1349 22.4 58.8109 22.27 59.4522 22.01C 60.1109 21.7327 60.6829 21.3427 61.1683 20.84L 62.9883 22.738C 62.2949 23.5007 61.4456 24.09 60.4402 24.506C 59.4522 24.922 58.3516 25.13 57.1383 25.13C 55.7169 25.13 54.4602 24.8353 53.3683 24.246C 52.2936 23.6567 51.4616 22.8333 50.8722 21.776C 50.2829 20.7013 49.9883 19.4707 49.9883 18.084C 49.9883 16.6973 50.2829 15.4667 50.8722 14.392C 51.4789 13.3173 52.3196 12.4853 53.3943 11.896C 54.4689 11.2893 55.6909 10.986 57.0602 10.986ZM 60.6483 16.966C 60.6136 15.9433 60.2756 15.1287 59.6342 14.522C 58.9929 13.9153 58.1436 13.612 57.0863 13.612C 56.0982 13.612 55.2662 13.9153 54.5903 14.522C 53.9316 15.1113 53.5242 15.926 53.3683 16.966L 60.6483 16.966ZM 70.029 13.768C 70.497 12.8667 71.1296 12.182 71.927 11.714C 72.7416 11.2287 73.6863 10.9773 74.761 10.96L 74.761 14.236C 73.3223 14.1493 72.1696 14.4873 71.303 15.25C 70.4536 15.9953 70.029 17.0093 70.029 18.292L 70.029 25L 66.649 25L 66.649 11.09L 70.029 11.09L 70.029 13.768Z"/>
<path id="path5_fill" d="M 10.296 10.986C 11.596 10.986 12.74 11.2893 13.728 11.896C 14.7333 12.4853 15.5047 13.3173 16.042 14.392C 16.5967 15.4667 16.874 16.706 16.874 18.11C 16.874 19.4967 16.6053 20.7187 16.068 21.776C 15.5307 22.8333 14.768 23.6567 13.78 24.246C 12.792 24.8353 11.648 25.13 10.348 25.13C 9.308 25.13 8.38933 24.9307 7.592 24.532C 6.79467 24.116 6.136 23.518 5.616 22.738L 5.616 30.044L 2.236 30.044L 2.236 11.09L 5.616 11.09L 5.616 13.378C 6.11867 12.598 6.76 12.0087 7.54 11.61C 8.33733 11.194 9.256 10.986 10.296 10.986ZM 9.542 22.218C 10.686 22.218 11.622 21.828 12.35 21.048C 13.078 20.2507 13.442 19.2367 13.442 18.006C 13.442 16.7753 13.078 15.77 12.35 14.99C 11.622 14.21 10.686 13.82 9.542 13.82C 8.38067 13.82 7.436 14.21 6.708 14.99C 5.98 15.77 5.616 16.7753 5.616 18.006C 5.616 19.254 5.98 20.268 6.708 21.048C 7.436 21.828 8.38067 22.218 9.542 22.218ZM 28.0193 25L 28.0193 23.31C 27.5339 23.9167 26.9099 24.376 26.1473 24.688C 25.3846 25 24.5093 25.156 23.5213 25.156C 22.5506 25.156 21.6926 24.974 20.9473 24.61C 20.2193 24.2287 19.6559 23.7087 19.2573 23.05C 18.8586 22.3913 18.6593 21.6547 18.6593 20.84C 18.6593 19.54 19.1186 18.526 20.0373 17.798C 20.9559 17.0527 22.2559 16.6713 23.9373 16.654L 27.9933 16.654L 27.9933 16.29C 27.9933 15.4753 27.7246 14.8427 27.1873 14.392C 26.6499 13.9413 25.8699 13.716 24.8473 13.716C 23.5299 13.716 22.1519 14.1493 20.7133 15.016L 19.4913 12.676C 20.5833 12.0693 21.5713 11.636 22.4553 11.376C 23.3566 11.0987 24.4053 10.96 25.6013 10.96C 27.4039 10.96 28.7993 11.3933 29.7873 12.26C 30.7926 13.1267 31.3039 14.34 31.3213 15.9L 31.3473 25L 28.0193 25ZM 24.3273 22.556C 25.2979 22.556 26.1299 22.3307 26.8233 21.88C 27.5166 21.412 27.9066 20.84 27.9933 20.164L 27.9933 18.916L 24.4833 18.916C 23.5819 18.916 22.9146 19.0547 22.4813 19.332C 22.0653 19.592 21.8573 20.0253 21.8573 20.632C 21.8573 21.2213 22.0739 21.6893 22.5073 22.036C 22.9579 22.3827 23.5646 22.556 24.3273 22.556ZM 38.5192 13.768C 38.9872 12.8667 39.6199 12.182 40.4172 11.714C 41.2319 11.2287 42.1765 10.9773 43.2512 10.96L 43.2512 14.236C 41.8125 14.1493 40.6599 14.4873 39.7932 15.25C 38.9439 15.9953 38.5192 17.0093 38.5192 18.292L 38.5192 25L 35.1392 25L 35.1392 11.09L 38.5192 11.09L 38.5192 13.768ZM 55.0375 25L 51.2675 18.916L 49.1355 21.152L 49.1355 25L 45.7555 25L 45.7555 5.708L 49.1355 5.708L 49.1355 16.888L 54.8555 11.116L 58.7555 11.116L 53.6075 16.472L 59.0675 25L 55.0375 25Z"/>
<path id="path6_fill" d="M 10.296 10.986C 11.596 10.986 12.74 11.2893 13.728 11.896C 14.7333 12.4853 15.5047 13.3173 16.042 14.392C 16.5967 15.4667 16.874 16.706 16.874 18.11C 16.874 19.4967 16.6053 20.7187 16.068 21.776C 15.5307 22.8333 14.768 23.6567 13.78 24.246C 12.792 24.8353 11.648 25.13 10.348 25.13C 9.308 25.13 8.38933 24.9307 7.592 24.532C 6.79467 24.116 6.136 23.518 5.616 22.738L 5.616 25L 2.236 25L 2.236 5.708L 5.616 5.708L 5.616 13.378C 6.11867 12.598 6.76 12.0087 7.54 11.61C 8.33733 11.194 9.256 10.986 10.296 10.986ZM 9.542 22.218C 10.686 22.218 11.622 21.828 12.35 21.048C 13.078 20.2507 13.442 19.2367 13.442 18.006C 13.442 16.7753 13.078 15.77 12.35 14.99C 11.622 14.21 10.686 13.82 9.542 13.82C 8.38067 13.82 7.436 14.21 6.708 14.99C 5.98 15.77 5.616 16.7753 5.616 18.006C 5.616 19.254 5.98 20.268 6.708 21.048C 7.436 21.828 8.38067 22.218 9.542 22.218ZM 28.0193 25L 28.0193 23.31C 27.5339 23.9167 26.9099 24.376 26.1473 24.688C 25.3846 25 24.5093 25.156 23.5213 25.156C 22.5506 25.156 21.6926 24.974 20.9473 24.61C 20.2193 24.2287 19.6559 23.7087 19.2573 23.05C 18.8586 22.3913 18.6593 21.6547 18.6593 20.84C 18.6593 19.54 19.1186 18.526 20.0373 17.798C 20.9559 17.0527 22.2559 16.6713 23.9373 16.654L 27.9933 16.654L 27.9933 16.29C 27.9933 15.4753 27.7246 14.8427 27.1873 14.392C 26.6499 13.9413 25.8699 13.716 24.8473 13.716C 23.5299 13.716 22.1519 14.1493 20.7133 15.016L 19.4913 12.676C 20.5833 12.0693 21.5713 11.636 22.4553 11.376C 23.3566 11.0987 24.4053 10.96 25.6013 10.96C 27.4039 10.96 28.7993 11.3933 29.7873 12.26C 30.7926 13.1267 31.3039 14.34 31.3213 15.9L 31.3473 25L 28.0193 25ZM 24.3273 22.556C 25.2979 22.556 26.1299 22.3307 26.8233 21.88C 27.5166 21.412 27.9066 20.84 27.9933 20.164L 27.9933 18.916L 24.4833 18.916C 23.5819 18.916 22.9146 19.0547 22.4813 19.332C 22.0653 19.592 21.8573 20.0253 21.8573 20.632C 21.8573 21.2213 22.0739 21.6893 22.5073 22.036C 22.9579 22.3827 23.5646 22.556 24.3273 22.556ZM 44.7072 15.484C 43.7712 14.4613 42.5579 13.95 41.0672 13.95C 39.9405 13.95 39.0219 14.3313 38.3112 15.094C 37.6179 15.8567 37.2712 16.8447 37.2712 18.058C 37.2712 19.306 37.6179 20.3113 38.3112 21.074C 39.0219 21.8367 39.9405 22.218 41.0672 22.218C 42.7312 22.218 43.9792 21.672 44.8112 20.58L 46.9172 22.322C 46.2932 23.2233 45.4699 23.9167 44.4472 24.402C 43.4245 24.8873 42.2372 25.13 40.8852 25.13C 39.5159 25.13 38.2939 24.8353 37.2192 24.246C 36.1619 23.6567 35.3385 22.8333 34.7492 21.776C 34.1599 20.7013 33.8652 19.4707 33.8652 18.084C 33.8652 16.68 34.1599 15.4407 34.7492 14.366C 35.3559 13.2913 36.1879 12.4593 37.2452 11.87C 38.3199 11.2807 39.5505 10.986 40.9372 10.986C 42.2025 10.986 43.3292 11.2113 44.3172 11.662C 45.3225 12.0953 46.1372 12.7193 46.7612 13.534L 44.7072 15.484ZM 59.227 25L 55.457 18.916L 53.325 21.152L 53.325 25L 49.945 25L 49.945 5.708L 53.325 5.708L 53.325 16.888L 59.045 11.116L 62.945 11.116L 57.797 16.472L 63.257 25L 59.227 25ZM 77.5856 11.09L 77.5856 23.674C 77.5856 24.9913 77.2823 26.1353 76.6756 27.106C 76.0863 28.094 75.237 28.848 74.1276 29.368C 73.0356 29.9053 71.7616 30.174 70.3056 30.174C 68.191 30.174 66.2323 29.5587 64.4296 28.328L 65.7816 25.884C 67.099 26.8547 68.5463 27.34 70.1236 27.34C 71.3716 27.34 72.3596 27.0193 73.0876 26.378C 73.833 25.7367 74.2056 24.8613 74.2056 23.752L 74.2056 22.114C 73.7376 22.8247 73.131 23.3707 72.3856 23.752C 71.6403 24.116 70.7736 24.298 69.7856 24.298C 68.5723 24.298 67.4976 24.0207 66.5616 23.466C 65.6256 22.894 64.8976 22.1053 64.3776 21.1C 63.8576 20.0773 63.5976 18.9073 63.5976 17.59C 63.5976 16.29 63.8576 15.146 64.3776 14.158C 64.8976 13.1527 65.6256 12.3727 66.5616 11.818C 67.4976 11.2633 68.5723 10.986 69.7856 10.986C 70.7563 10.986 71.6143 11.1767 72.3596 11.558C 73.1223 11.9393 73.7376 12.4767 74.2056 13.17L 74.2056 11.09L 77.5856 11.09ZM 70.5136 21.646C 71.6056 21.646 72.4896 21.282 73.1656 20.554C 73.859 19.8087 74.2056 18.8467 74.2056 17.668C 74.2056 16.4893 73.859 15.536 73.1656 14.808C 72.4896 14.0627 71.6056 13.69 70.5136 13.69C 69.4216 13.69 68.529 14.0627 67.8356 14.808C 67.1596 15.5533 66.813 16.5067 66.7956 17.668C 66.813 18.8467 67.1596 19.8087 67.8356 20.554C 68.529 21.282 69.4216 21.646 70.5136 21.646ZM 84.9333 13.768C 85.4013 12.8667 86.0339 12.182 86.8313 11.714C 87.6459 11.2287 88.5906 10.9773 89.6653 10.96L 89.6653 14.236C 88.2266 14.1493 87.0739 14.4873 86.2073 15.25C 85.3579 15.9953 84.9333 17.0093 84.9333 18.292L 84.9333 25L 81.5533 25L 81.5533 11.09L 84.9333 11.09L 84.9333 13.768ZM 98.1236 10.986C 99.5623 10.986 100.828 11.2807 101.92 11.87C 103.029 12.4593 103.887 13.2913 104.494 14.366C 105.118 15.4233 105.43 16.6453 105.43 18.032C 105.43 19.436 105.118 20.6753 104.494 21.75C 103.887 22.8247 103.029 23.6567 101.92 24.246C 100.828 24.8353 99.5623 25.13 98.1236 25.13C 96.6676 25.13 95.3849 24.8353 94.2756 24.246C 93.1663 23.6567 92.2996 22.8247 91.6756 21.75C 91.0689 20.6753 90.7656 19.436 90.7656 18.032C 90.7656 16.6453 91.0689 15.4233 91.6756 14.366C 92.2996 13.2913 93.1663 12.4593 94.2756 11.87C 95.3849 11.2807 96.6676 10.986 98.1236 10.986ZM 98.1236 13.872C 96.9449 13.872 95.9916 14.262 95.2636 15.042C 94.5356 15.822 94.1716 16.836 94.1716 18.084C 94.1716 19.332 94.5356 20.346 95.2636 21.126C 95.9916 21.906 96.9449 22.296 98.1236 22.296C 99.2676 22.296 100.204 21.906 100.932 21.126C 101.66 20.346 102.024 19.332 102.024 18.084C 102.024 16.836 101.66 15.822 100.932 15.042C 100.204 14.262 99.2676 13.872 98.1236 13.872ZM 121.21 11.09L 121.21 25L 117.804 25L 117.804 22.426C 116.868 24.2287 115.256 25.13 112.968 25.13C 111.408 25.13 110.177 24.6533 109.276 23.7C 108.374 22.7467 107.924 21.4467 107.924 19.8L 107.924 11.09L 111.33 11.09L 111.33 18.812C 111.33 19.7827 111.59 20.5453 112.11 21.1C 112.647 21.6547 113.384 21.932 114.32 21.932C 115.394 21.9147 116.244 21.5333 116.868 20.788C 117.492 20.0427 117.804 19.098 117.804 17.954L 117.804 11.09L 121.21 11.09ZM 133.8 10.96C 135.395 10.96 136.652 11.4453 137.57 12.416C 138.489 13.3693 138.948 14.6693 138.948 16.316L 138.948 25L 135.542 25L 135.542 17.304C 135.542 16.3333 135.265 15.5707 134.71 15.016C 134.156 14.444 133.402 14.158 132.448 14.158C 131.322 14.1753 130.429 14.5567 129.77 15.302C 129.129 16.0473 128.808 17.0007 128.808 18.162L 128.808 25L 125.428 25L 125.428 11.09L 128.808 11.09L 128.808 13.69C 129.762 11.9047 131.426 10.9947 133.8 10.96ZM 156.161 5.708L 156.161 25L 152.781 25L 152.781 22.764C 152.278 23.544 151.628 24.142 150.831 24.558C 150.051 24.9567 149.141 25.156 148.101 25.156C 146.783 25.156 145.622 24.8613 144.617 24.272C 143.629 23.6653 142.857 22.8247 142.303 21.75C 141.748 20.658 141.471 19.41 141.471 18.006C 141.471 16.6193 141.739 15.3973 142.277 14.34C 142.831 13.2653 143.603 12.4333 144.591 11.844C 145.596 11.2547 146.74 10.96 148.023 10.96C 149.08 10.96 150.007 11.168 150.805 11.584C 151.602 12 152.261 12.598 152.781 13.378L 152.781 5.708L 156.161 5.708ZM 148.829 22.322C 149.99 22.322 150.935 21.932 151.663 21.152C 152.408 20.3547 152.781 19.332 152.781 18.084C 152.781 16.836 152.408 15.822 151.663 15.042C 150.935 14.2447 149.99 13.846 148.829 13.846C 147.667 13.846 146.723 14.2447 145.995 15.042C 145.267 15.822 144.894 16.836 144.877 18.084C 144.894 19.332 145.267 20.3547 145.995 21.152C 146.723 21.932 147.667 22.322 148.829 22.322Z"/>
<path id="path7_fill" d="M 10.296 10.986C 11.596 10.986 12.74 11.2893 13.728 11.896C 14.7333 12.4853 15.5047 13.3173 16.042 14.392C 16.5967 15.4667 16.874 16.706 16.874 18.11C 16.874 19.4967 16.6053 20.7187 16.068 21.776C 15.5307 22.8333 14.768 23.6567 13.78 24.246C 12.792 24.8353 11.648 25.13 10.348 25.13C 9.308 25.13 8.38933 24.9307 7.592 24.532C 6.79467 24.116 6.136 23.518 5.616 22.738L 5.616 25L 2.236 25L 2.236 5.708L 5.616 5.708L 5.616 13.378C 6.11867 12.598 6.76 12.0087 7.54 11.61C 8.33733 11.194 9.256 10.986 10.296 10.986ZM 9.542 22.218C 10.686 22.218 11.622 21.828 12.35 21.048C 13.078 20.2507 13.442 19.2367 13.442 18.006C 13.442 16.7753 13.078 15.77 12.35 14.99C 11.622 14.21 10.686 13.82 9.542 13.82C 8.38067 13.82 7.436 14.21 6.708 14.99C 5.98 15.77 5.616 16.7753 5.616 18.006C 5.616 19.254 5.98 20.268 6.708 21.048C 7.436 21.828 8.38067 22.218 9.542 22.218ZM 32.6473 11.09L 32.6473 25L 29.2413 25L 29.2413 22.426C 28.3053 24.2287 26.6933 25.13 24.4053 25.13C 22.8453 25.13 21.6146 24.6533 20.7133 23.7C 19.8119 22.7467 19.3613 21.4467 19.3613 19.8L 19.3613 11.09L 22.7673 11.09L 22.7673 18.812C 22.7673 19.7827 23.0273 20.5453 23.5473 21.1C 24.0846 21.6547 24.8213 21.932 25.7573 21.932C 26.8319 21.9147 27.6813 21.5333 28.3053 20.788C 28.9293 20.0427 29.2413 19.098 29.2413 17.954L 29.2413 11.09L 32.6473 11.09ZM 36.8658 11.09L 40.2458 11.09L 40.2458 25L 36.8658 25L 36.8658 11.09ZM 38.5298 5.11C 39.0844 5.11 39.5438 5.30067 39.9078 5.682C 40.2718 6.06333 40.4538 6.54867 40.4538 7.138C 40.4538 7.71 40.2718 8.18667 39.9078 8.568C 39.5438 8.94933 39.0844 9.14 38.5298 9.14C 37.9751 9.14 37.5158 8.94933 37.1518 8.568C 36.7878 8.18667 36.6058 7.71 36.6058 7.138C 36.6058 6.54867 36.7878 6.06333 37.1518 5.682C 37.5158 5.30067 37.9751 5.11 38.5298 5.11ZM 44.5622 5.708L 47.9422 5.708L 47.9422 25L 44.5622 25L 44.5622 5.708ZM 65.6939 5.708L 65.6939 25L 62.3139 25L 62.3139 22.764C 61.8112 23.544 61.1612 24.142 60.3639 24.558C 59.5839 24.9567 58.6739 25.156 57.6339 25.156C 56.3165 25.156 55.1552 24.8613 54.1499 24.272C 53.1619 23.6653 52.3905 22.8247 51.8359 21.75C 51.2812 20.658 51.0039 19.41 51.0039 18.006C 51.0039 16.6193 51.2725 15.3973 51.8099 14.34C 52.3645 13.2653 53.1359 12.4333 54.1239 11.844C 55.1292 11.2547 56.2732 10.96 57.5559 10.96C 58.6132 10.96 59.5405 11.168 60.3379 11.584C 61.1352 12 61.7939 12.598 62.3139 13.378L 62.3139 5.708L 65.6939 5.708ZM 58.3619 22.322C 59.5232 22.322 60.4679 21.932 61.1959 21.152C 61.9412 20.3547 62.3139 19.332 62.3139 18.084C 62.3139 16.836 61.9412 15.822 61.1959 15.042C 60.4679 14.2447 59.5232 13.846 58.3619 13.846C 57.2005 13.846 56.2559 14.2447 55.5279 15.042C 54.7999 15.822 54.4272 16.836 54.4099 18.084C 54.4272 19.332 54.7999 20.3547 55.5279 21.152C 56.2559 21.932 57.2005 22.322 58.3619 22.322ZM 70.0259 11.09L 73.4059 11.09L 73.4059 25L 70.0259 25L 70.0259 11.09ZM 71.6899 5.11C 72.2446 5.11 72.7039 5.30067 73.0679 5.682C 73.4319 6.06333 73.6139 6.54867 73.6139 7.138C 73.6139 7.71 73.4319 8.18667 73.0679 8.568C 72.7039 8.94933 72.2446 9.14 71.6899 9.14C 71.1353 9.14 70.6759 8.94933 70.3119 8.568C 69.9479 8.18667 69.7659 7.71 69.7659 7.138C 69.7659 6.54867 69.9479 6.06333 70.3119 5.682C 70.6759 5.30067 71.1353 5.11 71.6899 5.11ZM 85.9643 10.96C 87.559 10.96 88.8157 11.4453 89.7343 12.416C 90.653 13.3693 91.1123 14.6693 91.1123 16.316L 91.1123 25L 87.7063 25L 87.7063 17.304C 87.7063 16.3333 87.429 15.5707 86.8743 15.016C 86.3197 14.444 85.5657 14.158 84.6123 14.158C 83.4857 14.1753 82.593 14.5567 81.9343 15.302C 81.293 16.0473 80.9723 17.0007 80.9723 18.162L 80.9723 25L 77.5923 25L 77.5923 11.09L 80.9723 11.09L 80.9723 13.69C 81.9257 11.9047 83.5897 10.9947 85.9643 10.96ZM 107.623 11.09L 107.623 23.674C 107.623 24.9913 107.319 26.1353 106.713 27.106C 106.123 28.094 105.274 28.848 104.165 29.368C 103.073 29.9053 101.799 30.174 100.343 30.174C 98.2281 30.174 96.2694 29.5587 94.4667 28.328L 95.8187 25.884C 97.1361 26.8547 98.5834 27.34 100.161 27.34C 101.409 27.34 102.397 27.0193 103.125 26.378C 103.87 25.7367 104.243 24.8613 104.243 23.752L 104.243 22.114C 103.775 22.8247 103.168 23.3707 102.423 23.752C 101.677 24.116 100.811 24.298 99.8227 24.298C 98.6094 24.298 97.5347 24.0207 96.5987 23.466C 95.6627 22.894 94.9347 22.1053 94.4147 21.1C 93.8947 20.0773 93.6347 18.9073 93.6347 17.59C 93.6347 16.29 93.8947 15.146 94.4147 14.158C 94.9347 13.1527 95.6627 12.3727 96.5987 11.818C 97.5347 11.2633 98.6094 10.986 99.8227 10.986C 100.793 10.986 101.651 11.1767 102.397 11.558C 103.159 11.9393 103.775 12.4767 104.243 13.17L 104.243 11.09L 107.623 11.09ZM 100.551 21.646C 101.643 21.646 102.527 21.282 103.203 20.554C 103.896 19.8087 104.243 18.8467 104.243 17.668C 104.243 16.4893 103.896 15.536 103.203 14.808C 102.527 14.0627 101.643 13.69 100.551 13.69C 99.4587 13.69 98.5661 14.0627 97.8727 14.808C 97.1967 15.5533 96.8501 16.5067 96.8327 17.668C 96.8501 18.8467 97.1967 19.8087 97.8727 20.554C 98.5661 21.282 99.4587 21.646 100.551 21.646Z"/>
<path id="path8_fill" d="M 10.634 10.96C 12.2287 10.96 13.4853 11.4453 14.404 12.416C 15.3227 13.3693 15.782 14.6693 15.782 16.316L 15.782 25L 12.376 25L 12.376 17.304C 12.376 16.3333 12.0987 15.5707 11.544 15.016C 10.9893 14.444 10.2353 14.158 9.282 14.158C 8.15533 14.1753 7.26267 14.5567 6.604 15.302C 5.94533 16.0473 5.616 17.0007 5.616 18.162L 5.616 25L 2.236 25L 2.236 5.708L 5.616 5.708L 5.616 13.742C 6.56933 11.922 8.242 10.9947 10.634 10.96ZM 17.0873 11.116L 20.5713 11.09L 23.9773 21.594L 27.2793 11.09L 30.6853 11.09L 34.0393 21.594L 37.3673 11.09L 40.7733 11.09L 35.7293 25L 32.2713 25L 28.9433 15.198L 25.6413 25L 22.1833 25L 17.0873 11.116ZM 48.7104 26.742C 48.2771 27.886 47.6531 28.744 46.8384 29.316C 46.0411 29.9053 45.0877 30.2 43.9784 30.2C 43.3024 30.2 42.6871 30.096 42.1324 29.888C 41.5951 29.6973 41.0577 29.3853 40.5204 28.952L 41.9764 26.378C 42.3057 26.6207 42.6091 26.794 42.8864 26.898C 43.1637 27.0193 43.4584 27.08 43.7704 27.08C 44.6891 27.08 45.3651 26.612 45.7984 25.676L 46.2144 24.766L 40.4684 11.09L 43.9784 11.09L 47.9304 21.204L 51.5444 11.09L 54.9504 11.09L 48.7104 26.742ZM 63.402 5.708L 66.782 5.708L 66.782 25L 63.402 25L 63.402 5.708ZM 79.3337 25L 79.3337 23.31C 78.8484 23.9167 78.2244 24.376 77.4617 24.688C 76.6991 25 75.8237 25.156 74.8357 25.156C 73.8651 25.156 73.0071 24.974 72.2617 24.61C 71.5337 24.2287 70.9704 23.7087 70.5717 23.05C 70.1731 22.3913 69.9737 21.6547 69.9737 20.84C 69.9737 19.54 70.4331 18.526 71.3517 17.798C 72.2704 17.0527 73.5704 16.6713 75.2517 16.654L 79.3077 16.654L 79.3077 16.29C 79.3077 15.4753 79.0391 14.8427 78.5017 14.392C 77.9644 13.9413 77.1844 13.716 76.1617 13.716C 74.8444 13.716 73.4664 14.1493 72.0277 15.016L 70.8057 12.676C 71.8977 12.0693 72.8857 11.636 73.7697 11.376C 74.6711 11.0987 75.7197 10.96 76.9157 10.96C 78.7184 10.96 80.1137 11.3933 81.1017 12.26C 82.1071 13.1267 82.6184 14.34 82.6357 15.9L 82.6617 25L 79.3337 25ZM 75.6417 22.556C 76.6124 22.556 77.4444 22.3307 78.1377 21.88C 78.8311 21.412 79.2211 20.84 79.3077 20.164L 79.3077 18.916L 75.7977 18.916C 74.8964 18.916 74.2291 19.0547 73.7957 19.332C 73.3797 19.592 73.1717 20.0253 73.1717 20.632C 73.1717 21.2213 73.3884 21.6893 73.8217 22.036C 74.2724 22.3827 74.8791 22.556 75.6417 22.556ZM 94.6437 10.986C 95.9437 10.986 97.0877 11.2893 98.0757 11.896C 99.081 12.4853 99.8523 13.3173 100.39 14.392C 100.944 15.4667 101.222 16.706 101.222 18.11C 101.222 19.4967 100.953 20.7187 100.416 21.776C 99.8783 22.8333 99.1157 23.6567 98.1277 24.246C 97.1397 24.8353 95.9957 25.13 94.6957 25.13C 93.6557 25.13 92.737 24.9307 91.9397 24.532C 91.1423 24.116 90.4837 23.518 89.9637 22.738L 89.9637 25L 86.5837 25L 86.5837 5.708L 89.9637 5.708L 89.9637 13.378C 90.4663 12.598 91.1077 12.0087 91.8877 11.61C 92.685 11.194 93.6037 10.986 94.6437 10.986ZM 93.8897 22.218C 95.0337 22.218 95.9697 21.828 96.6977 21.048C 97.4257 20.2507 97.7897 19.2367 97.7897 18.006C 97.7897 16.7753 97.4257 15.77 96.6977 14.99C 95.9697 14.21 95.0337 13.82 93.8897 13.82C 92.7283 13.82 91.7837 14.21 91.0557 14.99C 90.3277 15.77 89.9637 16.7753 89.9637 18.006C 89.9637 19.254 90.3277 20.268 91.0557 21.048C 91.7837 21.828 92.7283 22.218 93.8897 22.218ZM 109.949 10.986C 112.168 10.986 113.832 11.6187 114.941 12.884C 116.068 14.1493 116.631 15.926 116.631 18.214C 116.631 18.6647 116.622 19.0027 116.605 19.228L 106.335 19.228C 106.56 20.216 107.02 20.996 107.713 21.568C 108.424 22.1227 109.29 22.4 110.313 22.4C 111.024 22.4 111.7 22.27 112.341 22.01C 113 21.7327 113.572 21.3427 114.057 20.84L 115.877 22.738C 115.184 23.5007 114.334 24.09 113.329 24.506C 112.341 24.922 111.24 25.13 110.027 25.13C 108.606 25.13 107.349 24.8353 106.257 24.246C 105.182 23.6567 104.35 22.8333 103.761 21.776C 103.172 20.7013 102.877 19.4707 102.877 18.084C 102.877 16.6973 103.172 15.4667 103.761 14.392C 104.368 13.3173 105.208 12.4853 106.283 11.896C 107.358 11.2893 108.58 10.986 109.949 10.986ZM 113.537 16.966C 113.502 15.9433 113.164 15.1287 112.523 14.522C 111.882 13.9153 111.032 13.612 109.975 13.612C 108.987 13.612 108.155 13.9153 107.479 14.522C 106.82 15.1113 106.413 15.926 106.257 16.966L 113.537 16.966ZM 119.668 5.708L 123.048 5.708L 123.048 25L 119.668 25L 119.668 5.708Z"/>
</defs>
</svg>
