<svg width="330" height="177" viewBox="0 0 330 177" version="1.1" xmlns="http://www.w3.org/2000/svg" xmlns:xlink="http://www.w3.org/1999/xlink">
<title>Parking Brake - Off</title>
<desc>Created using Figma</desc>
<g id="Canvas" transform="translate(8993 -1977)">
<clipPath id="clip-0" clip-rule="evenodd">
<path d="M -8993 1977L -8663 1977L -8663 2154L -8993 2154L -8993 1977Z" fill="#FFFFFF"/>
</clipPath>
<g id="Parking Brake - Off" clip-path="url(#clip-0)">
<g id="Rectangle 12">
<use xlink:href="#path0_fill" transform="translate(-8993 1977)" fill="#0E0E0E"/>
<mask id="mask0_outline_ins">
<use xlink:href="#path0_fill" fill="white" transform="translate(-8993 1977)"/>
</mask>
<g mask="url(#mask0_outline_ins)">
<use xlink:href="#path1_stroke_2x" transform="translate(-8993 1977)" fill="#FFFFFF" fill-opacity="0.4"/>
</g>
</g>
<g id="BRAKE IS OFF">
<use xlink:href="#path2_fill" transform="translate(-8973 2099)" fill="#FFFFFF"/>
</g>
<g id="Parking Brake">
<use xlink:href="#path3_fill" transform="translate(-8869 2030)" fill="#FFFFFF"/>
</g>
<g id="Parking Brake Icon">
<clipPath id="clip-1" clip-rule="evenodd">
<path d="M -8925 2017.96L -8877 2017.96L -8877 2065.96L -8925 2065.96L -8925 2017.96Z" fill="#FFFFFF"/>
</clipPath>
<g id="Cruise Setting" clip-path="url(#clip-1)">
<g id="Ellipse 2">
<mask id="mask1_outline_ins">
<use xlink:href="#path4_fill" fill="white" transform="translate(-8925 2017.96)"/>
</mask>
<g mask="url(#mask1_outline_ins)">
<use xlink:href="#path5_stroke_2x" transform="translate(-8925 2017.96)" fill="#FFFFFF"/>
</g>
</g>
<g id="P">
<use xlink:href="#path6_fill" transform="translate(-8925 2029.96)" fill="#FFFFFF"/>
</g>
</g>
<g id="Ellipse 18">
<use xlink:href="#path7_stroke" transform="translate(-8933 2017)" fill="#FFFFFF"/>
</g>
</g>
</g>
</g>
<defs>
<path id="path0_fill" d="M 0 50C 0 22.3858 22.3858 0 50 0L 280 0C 307.614 0 330 22.3858 330 50L 330 127C 330 154.614 307.614 177 280 177L 50 177C 22.3858 177 0 154.614 0 127L 0 50Z"/>
<path id="path1_stroke_2x" d="M 50 2L 280 2L 280 -2L 50 -2L 50 2ZM 328 50L 328 127L 332 127L 332 50L 328 50ZM 280 175L 50 175L 50 179L 280 179L 280 175ZM 2 127L 2 50L -2 50L -2 127L 2 127ZM 50 -2C 21.2812 -2 -2 21.2812 -2 50L 2 50C 2 23.4903 23.4903 2 50 2L 50 -2ZM 280 2C 306.51 2 328 23.4903 328 50L 332 50C 332 21.2812 308.719 -2 280 -2L 280 2ZM 328 127C 328 153.51 306.51 175 280 175L 280 179C 308.719 179 332 155.719 332 127L 328 127ZM 50 175C 23.4903 175 2 153.51 2 127L -2 127C -2 155.719 21.2812 179 50 179L 50 175Z"/>
<path id="path2_fill" d="M 83.3013 6C 84.7947 6 85.968 6.31333 86.8213 6.94C 87.688 7.56667 88.1213 8.42 88.1213 9.5C 88.1213 10.2733 87.9013 10.94 87.4613 11.5C 87.0347 12.0467 86.4413 12.4133 85.6813 12.6C 86.6147 12.7733 87.3413 13.1733 87.8613 13.8C 88.3947 14.4267 88.6613 15.2067 88.6613 16.14C 88.6613 17.34 88.1947 18.2867 87.2613 18.98C 86.3413 19.66 85.0813 20 83.4813 20L 77.0813 20L 77.0813 6L 83.3013 6ZM 83.1613 11.72C 83.8547 11.72 84.3947 11.5667 84.7813 11.26C 85.1813 10.9533 85.3813 10.5267 85.3813 9.98C 85.3813 9.44667 85.1813 9.03333 84.7813 8.74C 84.3947 8.44667 83.8547 8.30667 83.1613 8.32L 79.7613 8.32L 79.7613 11.72L 83.1613 11.72ZM 83.1613 17.68C 84.0147 17.6933 84.6813 17.5333 85.1613 17.2C 85.6413 16.8667 85.8813 16.4 85.8813 15.8C 85.8813 15.2267 85.6413 14.78 85.1613 14.46C 84.6813 14.1267 84.0147 13.9667 83.1613 13.98L 79.7613 13.98L 79.7613 17.68L 83.1613 17.68ZM 100.021 20L 97.601 15.86C 97.4943 15.8733 97.3277 15.88 97.101 15.88L 93.941 15.88L 93.941 20L 91.261 20L 91.261 6L 97.101 6C 98.9143 6 100.314 6.42 101.301 7.26C 102.288 8.1 102.781 9.28667 102.781 10.82C 102.781 11.9133 102.541 12.8467 102.061 13.62C 101.594 14.3933 100.908 14.9733 100.001 15.36L 103.081 20L 100.021 20ZM 93.941 13.52L 97.101 13.52C 98.1143 13.52 98.8877 13.3 99.421 12.86C 99.9543 12.42 100.221 11.7667 100.221 10.9C 100.221 10.0467 99.9543 9.40667 99.421 8.98C 98.8877 8.55333 98.1143 8.34 97.101 8.34L 93.941 8.34L 93.941 13.52ZM 116.074 20L 114.834 17.04L 107.994 17.04L 106.754 20L 103.974 20L 110.114 6L 112.894 6L 118.954 20L 116.074 20ZM 108.954 14.74L 113.874 14.74L 111.434 8.86L 108.954 14.74ZM 133.156 20L 129.936 20L 125.536 14L 123.336 16.42L 123.336 20L 120.656 20L 120.656 6L 123.336 6L 123.336 12.98L 129.656 6L 132.816 6L 127.436 11.92L 133.156 20ZM 135.167 6L 145.427 6L 145.427 8.34L 137.847 8.34L 137.847 11.8L 144.647 11.8L 144.647 14.14L 137.847 14.14L 137.847 17.66L 145.667 17.66L 145.667 20L 135.167 20L 135.167 6ZM 153.292 6L 155.972 6L 155.972 20L 153.292 20L 153.292 6ZM 168.206 9.6C 167.486 9.16 166.746 8.82 165.986 8.58C 165.239 8.34 164.579 8.22 164.006 8.22C 163.366 8.22 162.859 8.34 162.486 8.58C 162.112 8.82 161.926 9.15333 161.926 9.58C 161.926 9.96667 162.052 10.2933 162.306 10.56C 162.572 10.8133 162.899 11.0267 163.286 11.2C 163.686 11.36 164.226 11.54 164.906 11.74C 165.852 12.02 166.626 12.3 167.226 12.58C 167.839 12.86 168.359 13.2733 168.786 13.82C 169.212 14.3667 169.426 15.0867 169.426 15.98C 169.426 16.8333 169.192 17.58 168.726 18.22C 168.272 18.8467 167.639 19.3267 166.826 19.66C 166.026 19.9933 165.106 20.16 164.066 20.16C 162.972 20.16 161.906 19.96 160.866 19.56C 159.826 19.1467 158.919 18.6 158.146 17.92L 159.266 15.64C 159.972 16.2933 160.766 16.8067 161.646 17.18C 162.526 17.5533 163.346 17.74 164.106 17.74C 164.852 17.74 165.439 17.6 165.866 17.32C 166.292 17.0267 166.506 16.6333 166.506 16.14C 166.506 15.74 166.372 15.4133 166.106 15.16C 165.852 14.8933 165.526 14.68 165.126 14.52C 164.726 14.36 164.179 14.18 163.486 13.98C 162.539 13.7 161.766 13.4267 161.166 13.16C 160.566 12.8933 160.052 12.4933 159.626 11.96C 159.199 11.4133 158.986 10.7 158.986 9.82C 158.986 9.00667 159.199 8.3 159.626 7.7C 160.066 7.08667 160.679 6.61333 161.466 6.28C 162.266 5.94667 163.186 5.78 164.226 5.78C 165.132 5.78 166.026 5.91333 166.906 6.18C 167.799 6.44667 168.592 6.80667 169.286 7.26L 168.206 9.6ZM 183.226 5.82C 184.613 5.82 185.873 6.13333 187.006 6.76C 188.153 7.38667 189.053 8.24667 189.706 9.34C 190.36 10.4333 190.686 11.6467 190.686 12.98C 190.686 14.3133 190.36 15.5333 189.706 16.64C 189.053 17.7333 188.153 18.6 187.006 19.24C 185.873 19.88 184.613 20.2 183.226 20.2C 181.84 20.2 180.573 19.88 179.426 19.24C 178.293 18.6 177.4 17.7333 176.746 16.64C 176.093 15.5333 175.766 14.3133 175.766 12.98C 175.766 11.6467 176.093 10.4333 176.746 9.34C 177.4 8.24667 178.293 7.38667 179.426 6.76C 180.573 6.13333 181.84 5.82 183.226 5.82ZM 183.266 8.22C 182.413 8.22 181.62 8.43333 180.886 8.86C 180.153 9.27333 179.573 9.84667 179.146 10.58C 178.72 11.3 178.506 12.1 178.506 12.98C 178.506 13.86 178.72 14.6667 179.146 15.4C 179.586 16.1333 180.166 16.7133 180.886 17.14C 181.62 17.5667 182.413 17.78 183.266 17.78C 184.106 17.78 184.886 17.5667 185.606 17.14C 186.326 16.7133 186.893 16.1333 187.306 15.4C 187.733 14.6667 187.946 13.86 187.946 12.98C 187.946 12.1 187.733 11.3 187.306 10.58C 186.893 9.84667 186.326 9.27333 185.606 8.86C 184.886 8.43333 184.106 8.22 183.266 8.22ZM 193.038 6L 202.698 6L 202.678 8.34L 195.718 8.34L 195.718 12.12L 202.058 12.12L 202.058 14.46L 195.718 14.46L 195.718 20L 193.038 20L 193.038 6ZM 204.699 6L 214.359 6L 214.339 8.34L 207.379 8.34L 207.379 12.12L 213.719 12.12L 213.719 14.46L 207.379 14.46L 207.379 20L 204.699 20L 204.699 6Z"/>
<path id="path3_fill" d="M 53.7901 -7C 55.5501 -7 56.9101 -6.58 57.8701 -5.74C 58.8434 -4.9 59.3301 -3.71333 59.3301 -2.18C 59.3301 -0.58 58.8434 0.666667 57.8701 1.56C 56.9101 2.44 55.5501 2.88 53.7901 2.88L 50.7301 2.88L 50.7301 7L 48.0501 7L 48.0501 -7L 53.7901 -7ZM 53.6501 0.52C 54.6634 0.52 55.4367 0.3 55.9701 -0.14C 56.5167 -0.58 56.7901 -1.23333 56.7901 -2.1C 56.7901 -2.95333 56.5167 -3.59333 55.9701 -4.02C 55.4367 -4.44667 54.6634 -4.66 53.6501 -4.66L 50.7301 -4.66L 50.7301 0.52L 53.6501 0.52ZM 70.9882 7L 69.7482 4.04L 62.9082 4.04L 61.6682 7L 58.8882 7L 65.0282 -7L 67.8082 -7L 73.8682 7L 70.9882 7ZM 63.8682 1.74L 68.7882 1.74L 66.3482 -4.14L 63.8682 1.74ZM 84.3296 7L 81.9096 2.86C 81.8029 2.87333 81.6363 2.88 81.4096 2.88L 78.2496 2.88L 78.2496 7L 75.5696 7L 75.5696 -7L 81.4096 -7C 83.2229 -7 84.6229 -6.58 85.6096 -5.74C 86.5963 -4.9 87.0896 -3.71333 87.0896 -2.18C 87.0896 -1.08667 86.8496 -0.153333 86.3696 0.62C 85.9029 1.39333 85.2163 1.97333 84.3096 2.36L 87.3896 7L 84.3296 7ZM 78.2496 0.52L 81.4096 0.52C 82.4229 0.52 83.1963 0.3 83.7296 -0.14C 84.2629 -0.58 84.5296 -1.23333 84.5296 -2.1C 84.5296 -2.95333 84.2629 -3.59333 83.7296 -4.02C 83.1963 -4.44667 82.4229 -4.66 81.4096 -4.66L 78.2496 -4.66L 78.2496 0.52ZM 102.523 7L 99.3027 7L 94.9027 1L 92.7027 3.42L 92.7027 7L 90.0227 7L 90.0227 -7L 92.7027 -7L 92.7027 -0.0200002L 99.0227 -7L 102.183 -7L 96.8027 -1.08L 102.523 7ZM 104.534 -7L 107.214 -7L 107.214 7L 104.534 7L 104.534 -7ZM 120.408 -7L 123.008 -7L 123.008 7L 120.468 7L 113.268 -2.64L 113.268 7L 110.648 7L 110.648 -7L 113.188 -7L 120.408 2.66L 120.408 -7ZM 135.949 0.0400002L 138.289 0.0400002L 138.289 5.36C 137.555 5.90667 136.689 6.35333 135.689 6.7C 134.689 7.03333 133.709 7.2 132.749 7.2C 131.375 7.2 130.122 6.88 128.989 6.24C 127.869 5.6 126.982 4.73333 126.329 3.64C 125.675 2.53333 125.349 1.31333 125.349 -0.0200002C 125.349 -1.35333 125.682 -2.56 126.349 -3.64C 127.015 -4.73333 127.922 -5.59333 129.069 -6.22C 130.229 -6.86 131.509 -7.18 132.909 -7.18C 133.909 -7.18 134.895 -7 135.869 -6.64C 136.842 -6.28 137.682 -5.78667 138.389 -5.16L 136.869 -3.18C 136.335 -3.68667 135.715 -4.08 135.009 -4.36C 134.315 -4.64 133.615 -4.78 132.909 -4.78C 132.029 -4.78 131.215 -4.56667 130.469 -4.14C 129.735 -3.72667 129.155 -3.15333 128.729 -2.42C 128.302 -1.68667 128.089 -0.886667 128.089 -0.0200002C 128.089 0.86 128.302 1.66667 128.729 2.4C 129.169 3.13333 129.755 3.71333 130.489 4.14C 131.222 4.56667 132.035 4.78 132.929 4.78C 133.409 4.78 133.909 4.70667 134.429 4.56C 134.962 4.4 135.469 4.18 135.949 3.9L 135.949 0.0400002ZM 65.2857 18C 66.779 18 67.9524 18.3133 68.8057 18.94C 69.6724 19.5667 70.1057 20.42 70.1057 21.5C 70.1057 22.2733 69.8857 22.94 69.4457 23.5C 69.019 24.0467 68.4257 24.4133 67.6657 24.6C 68.599 24.7733 69.3257 25.1733 69.8457 25.8C 70.379 26.4267 70.6457 27.2067 70.6457 28.14C 70.6457 29.34 70.179 30.2867 69.2457 30.98C 68.3257 31.66 67.0657 32 65.4657 32L 59.0657 32L 59.0657 18L 65.2857 18ZM 65.1457 23.72C 65.839 23.72 66.379 23.5667 66.7657 23.26C 67.1657 22.9533 67.3657 22.5267 67.3657 21.98C 67.3657 21.4467 67.1657 21.0333 66.7657 20.74C 66.379 20.4467 65.839 20.3067 65.1457 20.32L 61.7457 20.32L 61.7457 23.72L 65.1457 23.72ZM 65.1457 29.68C 65.999 29.6933 66.6657 29.5333 67.1457 29.2C 67.6257 28.8667 67.8657 28.4 67.8657 27.8C 67.8657 27.2267 67.6257 26.78 67.1457 26.46C 66.6657 26.1267 65.999 25.9667 65.1457 25.98L 61.7457 25.98L 61.7457 29.68L 65.1457 29.68ZM 82.0054 32L 79.5854 27.86C 79.4787 27.8733 79.3121 27.88 79.0854 27.88L 75.9254 27.88L 75.9254 32L 73.2454 32L 73.2454 18L 79.0854 18C 80.8987 18 82.2987 18.42 83.2854 19.26C 84.2721 20.1 84.7654 21.2867 84.7654 22.82C 84.7654 23.9133 84.5254 24.8467 84.0454 25.62C 83.5787 26.3933 82.8921 26.9733 81.9854 27.36L 85.0654 32L 82.0054 32ZM 75.9254 25.52L 79.0854 25.52C 80.0987 25.52 80.8721 25.3 81.4054 24.86C 81.9387 24.42 82.2054 23.7667 82.2054 22.9C 82.2054 22.0467 81.9387 21.4067 81.4054 20.98C 80.8721 20.5533 80.0987 20.34 79.0854 20.34L 75.9254 20.34L 75.9254 25.52ZM 98.0585 32L 96.8185 29.04L 89.9785 29.04L 88.7385 32L 85.9585 32L 92.0985 18L 94.8785 18L 100.939 32L 98.0585 32ZM 90.9385 26.74L 95.8585 26.74L 93.4185 20.86L 90.9385 26.74ZM 115.14 32L 111.92 32L 107.52 26L 105.32 28.42L 105.32 32L 102.64 32L 102.64 18L 105.32 18L 105.32 24.98L 111.64 18L 114.8 18L 109.42 23.92L 115.14 32ZM 117.152 18L 127.412 18L 127.412 20.34L 119.832 20.34L 119.832 23.8L 126.632 23.8L 126.632 26.14L 119.832 26.14L 119.832 29.66L 127.652 29.66L 127.652 32L 117.152 32L 117.152 18Z"/>
<path id="path4_fill" d="M 48 24C 48 37.2548 37.2548 48 24 48C 10.7452 48 0 37.2548 0 24C 0 10.7452 10.7452 0 24 0C 37.2548 0 48 10.7452 48 24Z"/>
<path id="path5_stroke_2x" d="M 44 24C 44 35.0457 35.0457 44 24 44L 24 52C 39.464 52 52 39.464 52 24L 44 24ZM 24 44C 12.9543 44 4 35.0457 4 24L -4 24C -4 39.464 8.53603 52 24 52L 24 44ZM 4 24C 4 12.9543 12.9543 4 24 4L 24 -4C 8.53603 -4 -4 8.53603 -4 24L 4 24ZM 24 4C 35.0457 4 44 12.9543 44 24L 52 24C 52 8.53603 39.464 -4 24 -4L 24 4Z"/>
<path id="path6_fill" d="M 24.9611 3.1C 27.3371 3.1 29.1731 3.667 30.4691 4.801C 31.7831 5.935 32.4401 7.537 32.4401 9.607C 32.4401 11.767 31.7831 13.45 30.4691 14.656C 29.1731 15.844 27.3371 16.438 24.9611 16.438L 20.8301 16.438L 20.8301 22L 17.2121 22L 17.2121 3.1L 24.9611 3.1ZM 24.7721 13.252C 26.1401 13.252 27.1841 12.955 27.9041 12.361C 28.6421 11.767 29.0111 10.885 29.0111 9.715C 29.0111 8.563 28.6421 7.699 27.9041 7.123C 27.1841 6.547 26.1401 6.259 24.7721 6.259L 20.8301 6.259L 20.8301 13.252L 24.7721 13.252Z"/>
<path id="path7_stroke" d="M 54.6274 1.89424L 53.2006 3.2957L 54.6274 1.89424ZM 54.6274 47.9688L 56.0543 49.3702L 54.6274 47.9688ZM 9.37258 47.9688L 10.7994 46.5673L 9.37258 47.9688ZM 12.4073 1.77237C 13.2361 1.0422 13.3161 -0.221606 12.5859 -1.05042C 11.8557 -1.87923 10.5919 -1.95919 9.76313 -1.22902L 12.4073 1.77237ZM 53.9052 -1.51747C 53.0671 -2.23699 51.8044 -2.14087 51.0849 -1.30279C 50.3654 -0.464716 50.4615 0.797961 51.2996 1.51747L 53.9052 -1.51747ZM 50.5597 48.9606C 49.6992 49.6531 49.5629 50.9121 50.2554 51.7726C 50.9479 52.6332 52.2069 52.7694 53.0674 52.0769L 50.5597 48.9606ZM 10.592 51.7992C 11.4436 52.5027 12.7042 52.3827 13.4077 51.5311C 14.1112 50.6795 13.9911 49.4189 13.1396 48.7154L 10.592 51.7992ZM 53.2006 3.2957C 64.9331 15.2408 64.9331 34.6222 53.2006 46.5673L 56.0543 49.3702C 69.3152 35.869 69.3152 13.9939 56.0543 0.492771L 53.2006 3.2957ZM 10.7994 46.5673C -0.933144 34.6222 -0.933144 15.2408 10.7994 3.2957L 7.94573 0.492771C -5.31524 13.9939 -5.31524 35.869 7.94573 49.3702L 10.7994 46.5673ZM 10.7994 3.2957C 11.3297 2.75538 11.8486 2.26414 12.4073 1.77237L 9.76313 -1.22902C 9.15115 -0.689449 8.52742 -0.098982 7.94573 0.492771L 10.7994 3.2957ZM 51.2996 1.51747C 51.9628 2.08625 52.5765 2.65966 53.2006 3.2957L 56.0543 0.492771C 55.3694 -0.203802 54.6316 -0.89322 53.9052 -1.51747L 51.2996 1.51747ZM 53.2006 46.5673C 52.343 47.4417 51.4897 48.2133 50.5597 48.9606L 53.0674 52.0769C 54.0861 51.2561 55.1126 50.3277 56.0543 49.3702L 53.2006 46.5673ZM 13.1396 48.7154C 12.3185 48.038 11.5627 47.3453 10.7994 46.5673L 7.94573 49.3702C 8.78362 50.2223 9.69262 51.0554 10.592 51.7992L 13.1396 48.7154Z"/>
</defs>
</svg>
