<svg width="340" height="580" viewBox="0 0 340 580" version="1.1" xmlns="http://www.w3.org/2000/svg" xmlns:xlink="http://www.w3.org/1999/xlink">
<title> light</title>
<desc>Created using Figma</desc>
<g id="Canvas" transform="translate(7760 -3460)">
<g id="directions / light">
<clipPath id="clip-0" clip-rule="evenodd">
<path d="M -7760 3460L -7420 3460L -7420 4040L -7760 4040L -7760 3460Z" fill="#FFFFFF"/>
</clipPath>
<g id="directions / light" clip-path="url(#clip-0)">
<g id="background">
<use xlink:href="#path0_fill" transform="translate(-7760 3460)" fill="#F0F0F0"/>
</g>
<clipPath id="clip-1" clip-rule="evenodd">
<path d="M -7760 3560L -7420 3560L -7420 3660L -7760 3660L -7760 3560Z" fill="#FFFFFF"/>
</clipPath>
<g id="nav row" clip-path="url(#clip-1)">
<g id="waypoints">
<g id="road icons">
<clipPath id="clip-2" clip-rule="evenodd">
<path d="M -7735 3585L -7687 3585L -7687 3633L -7735 3633L -7735 3585Z" fill="#FFFFFF"/>
</clipPath>
<g id="left turn" opacity="0.4" clip-path="url(#clip-2)">
<g id="line">
<use xlink:href="#path1_stroke" transform="translate(-7705 3592)" fill="#000000" fill-opacity="0.6"/>
</g>
<g id="Union">
<use xlink:href="#path2_fill" transform="translate(-7735 3587.46)"/>
</g>
</g>
</g>
<g id="road name">
<use xlink:href="#path3_fill" transform="translate(-7660 3612)" fill="#000000" fill-opacity="0.4"/>
</g>
<g id="distance">
<use xlink:href="#path4_fill" transform="translate(-7660 3585)"/>
</g>
</g>
</g>
<clipPath id="clip-3" clip-rule="evenodd">
<path d="M -7760 3660L -7420 3660L -7420 3760L -7760 3760L -7760 3660Z" fill="#FFFFFF"/>
</clipPath>
<g id="nav row" clip-path="url(#clip-3)">
<g id="waypoints">
<g id="road icons">
<g id="right turn - 4 way" opacity="0.4">
<g id="Union">
<use xlink:href="#path5_fill" transform="translate(-7732.5 3688)" fill="#000000" fill-opacity="0.6"/>
</g>
<g id="Union">
<use xlink:href="#path6_fill" transform="translate(-7715 3700.07)"/>
</g>
</g>
</g>
<g id="road name">
<use xlink:href="#path7_fill" transform="translate(-7660 3712)" fill="#000000" fill-opacity="0.4"/>
</g>
<g id="distance">
<use xlink:href="#path8_fill" transform="translate(-7660 3685)"/>
</g>
</g>
</g>
<clipPath id="clip-4" clip-rule="evenodd">
<path d="M -7760 3760L -7420 3760L -7420 3880L -7760 3880L -7760 3760Z" fill="#FFFFFF"/>
</clipPath>
<g id="nav row" clip-path="url(#clip-4)">
<g id="waypoints">
<g id="road icons">
<clipPath id="clip-5" clip-rule="evenodd">
<path d="M -7735 3785L -7687 3785L -7687 3833L -7735 3833L -7735 3785Z" fill="#FFFFFF"/>
</clipPath>
<g id="destination" clip-path="url(#clip-5)">
<g id="Subtract">
<use xlink:href="#path9_fill" transform="translate(-7725 3790)" fill="#000000" fill-opacity="0.4"/>
</g>
</g>
</g>
<g id="road name">
<use xlink:href="#path10_fill" transform="translate(-7660 3812)" fill="#000000" fill-opacity="0.4"/>
</g>
<g id="distance">
<use xlink:href="#path11_fill" transform="translate(-7660 3785)"/>
</g>
<g id="battery">
<g id="charge">
<use xlink:href="#path12_fill" transform="translate(-7600 3838)" fill="#000000" fill-opacity="0.4"/>
</g>
<g id="battery level">
<g id="Union">
<use xlink:href="#path13_fill" transform="translate(-7660 3840)" fill="#000000" fill-opacity="0.4"/>
</g>
</g>
</g>
</g>
</g>
<clipPath id="clip-6" clip-rule="evenodd">
<path d="M -7760 3880L -7420 3880L -7420 3960L -7760 3960L -7760 3880Z" fill="#FFFFFF"/>
</clipPath>
<g id="nav row" clip-path="url(#clip-6)">
<g id="button">
<g id="button">
<use xlink:href="#path14_fill" transform="translate(-7760 3880)" fill="#000000" fill-opacity="0.2"/>
</g>
<g id="road name">
<use xlink:href="#path15_fill" transform="translate(-7760 3907)"/>
</g>
</g>
</g>
<clipPath id="clip-7" clip-rule="evenodd">
<path d="M -7760 3959L -7420 3959L -7420 4039L -7760 4039L -7760 3959Z" fill="#FFFFFF"/>
</clipPath>
<g id="nav row" clip-path="url(#clip-7)">
<g id="summary">
<g id="distance">
<use xlink:href="#path16_fill" transform="translate(-7760 3986)" fill="#000000" fill-opacity="0.4"/>
</g>
<g id="time remaining">
<use xlink:href="#path17_fill" transform="translate(-7647 3986)" fill="#000000" fill-opacity="0.4"/>
</g>
<g id="ETA">
<use xlink:href="#path18_fill" transform="translate(-7533 3986)" fill="#000000" fill-opacity="0.4"/>
</g>
</g>
</g>
<clipPath id="clip-8" clip-rule="evenodd">
<path d="M -7760 3460L -7420 3460L -7420 3560L -7760 3560L -7760 3460Z" fill="#FFFFFF"/>
</clipPath>
<g id="nav row" clip-path="url(#clip-8)">
<g id="waypoints">
<g id="road icons">
<clipPath id="clip-9" clip-rule="evenodd">
<path d="M -7735 3485L -7687 3485L -7687 3533L -7735 3533L -7735 3485Z" fill="#FFFFFF"/>
</clipPath>
<g id="right turn" clip-path="url(#clip-9)">
<g id="line">
<use xlink:href="#path19_stroke" transform="matrix(-1 0 0 1 -7717 3491)" fill="#000000" fill-opacity="0.4"/>
</g>
<g id="Union">
<use xlink:href="#path20_fill" transform="matrix(-1 0 0 1 -7687 3486.46)" fill="#007BE4"/>
</g>
</g>
</g>
<g id="road name">
<use xlink:href="#path21_fill" transform="translate(-7660 3512)" fill="#000000" fill-opacity="0.4"/>
</g>
<g id="distance">
<use xlink:href="#path22_fill" transform="translate(-7660 3485)"/>
</g>
</g>
</g>
<clipPath id="clip-10" clip-rule="evenodd">
<path d="M -7475 3475L -7427 3475L -7427 3523L -7475 3523L -7475 3475Z" fill="#FFFFFF"/>
</clipPath>
<g id="nav" clip-path="url(#clip-10)">
<g id="Union">
<mask id="mask0_outline_ins">
<use xlink:href="#path23_fill" fill="white" transform="translate(-7475 3487)"/>
</mask>
<g mask="url(#mask0_outline_ins)">
<use xlink:href="#path24_stroke_2x" transform="translate(-7475 3487)" fill="#000000" fill-opacity="0.4"/>
</g>
</g>
</g>
</g>
</g>
</g>
<defs>
<path id="path0_fill" d="M 0 10C 0 4.47715 4.47715 0 10 0L 330 0C 335.523 0 340 4.47715 340 10L 340 570C 340 575.523 335.523 580 330 580L 10 580C 4.47715 580 0 575.523 0 570L 0 10Z"/>
<path id="path1_stroke" d="M -3 38C -3 39.6569 -1.65685 41 0 41C 1.65685 41 3 39.6569 3 38L -3 38ZM 3 0C 3 -1.65685 1.65685 -3 0 -3C -1.65685 -3 -3 -1.65685 -3 0L 3 0ZM 3 38L 3 0L -3 0L -3 38L 3 38Z"/>
<path id="path2_fill" fill-rule="evenodd" d="M 0 9.53558L 17.1641 0C 15.3037 1.72437 13.9492 3.98615 13.3467 6.53857C 24.2324 6.72382 33 15.6058 33 26.5356L 33 42.5356C 33 44.1925 31.6572 45.5356 30 45.5356C 28.3428 45.5356 27 44.1925 27 42.5356L 27 26.5356C 27 18.9202 20.9199 12.725 13.3486 12.5399C 13.9521 15.0893 15.3057 17.3484 17.1641 19.0712L 0 9.53558Z"/>
<path id="path3_fill" d="M 1.72 5L 4.4 5L 4.4 10.98L 11.38 10.98L 11.38 5L 14.06 5L 14.06 19L 11.38 19L 11.38 13.32L 4.4 13.32L 4.4 19L 1.72 19L 1.72 5ZM 17.4208 8.3L 20.0208 8.3L 20.0208 19L 17.4208 19L 17.4208 8.3ZM 18.7008 3.7C 19.1274 3.7 19.4808 3.84667 19.7608 4.14C 20.0408 4.43333 20.1808 4.80667 20.1808 5.26C 20.1808 5.7 20.0408 6.06667 19.7608 6.36C 19.4808 6.65333 19.1274 6.8 18.7008 6.8C 18.2741 6.8 17.9208 6.65333 17.6408 6.36C 17.3608 6.06667 17.2208 5.7 17.2208 5.26C 17.2208 4.80667 17.3608 4.43333 17.6408 4.14C 17.9208 3.84667 18.2741 3.7 18.7008 3.7ZM 33.0211 8.3L 33.0211 17.98C 33.0211 18.9933 32.7878 19.8733 32.3211 20.62C 31.8678 21.38 31.2144 21.96 30.3611 22.36C 29.5211 22.7733 28.5411 22.98 27.4211 22.98C 25.7944 22.98 24.2878 22.5067 22.9011 21.56L 23.9411 19.68C 24.9544 20.4267 26.0678 20.8 27.2811 20.8C 28.2411 20.8 29.0011 20.5533 29.5611 20.06C 30.1344 19.5667 30.4211 18.8933 30.4211 18.04L 30.4211 16.78C 30.0611 17.3267 29.5944 17.7467 29.0211 18.04C 28.4478 18.32 27.7811 18.46 27.0211 18.46C 26.0878 18.46 25.2611 18.2467 24.5411 17.82C 23.8211 17.38 23.2611 16.7733 22.8611 16C 22.4611 15.2133 22.2611 14.3133 22.2611 13.3C 22.2611 12.3 22.4611 11.42 22.8611 10.66C 23.2611 9.88667 23.8211 9.28667 24.5411 8.86C 25.2611 8.43333 26.0878 8.22 27.0211 8.22C 27.7678 8.22 28.4278 8.36667 29.0011 8.66C 29.5878 8.95333 30.0611 9.36667 30.4211 9.9L 30.4211 8.3L 33.0211 8.3ZM 27.5811 16.42C 28.4211 16.42 29.1011 16.14 29.6211 15.58C 30.1544 15.0067 30.4211 14.2667 30.4211 13.36C 30.4211 12.4533 30.1544 11.72 29.6211 11.16C 29.1011 10.5867 28.4211 10.3 27.5811 10.3C 26.7411 10.3 26.0544 10.5867 25.5211 11.16C 25.0011 11.7333 24.7344 12.4667 24.7211 13.36C 24.7344 14.2667 25.0011 15.0067 25.5211 15.58C 26.0544 16.14 26.7411 16.42 27.5811 16.42ZM 42.6331 8.2C 43.8598 8.2 44.8265 8.57333 45.5331 9.32C 46.2398 10.0533 46.5931 11.0533 46.5931 12.32L 46.5931 19L 43.9731 19L 43.9731 13.08C 43.9731 12.3333 43.7598 11.7467 43.3331 11.32C 42.9065 10.88 42.3265 10.66 41.5931 10.66C 40.7265 10.6733 40.0398 10.9667 39.5331 11.54C 39.0265 12.1133 38.7731 12.8467 38.7731 13.74L 38.7731 19L 36.1731 19L 36.1731 4.16L 38.7731 4.16L 38.7731 10.34C 39.5065 8.94 40.7931 8.22667 42.6331 8.2ZM 47.5972 8.32L 50.2772 8.3L 52.8972 16.38L 55.4372 8.3L 58.0572 8.3L 60.6372 16.38L 63.1972 8.3L 65.8172 8.3L 61.9372 19L 59.2772 19L 56.7172 11.46L 54.1772 19L 51.5172 19L 47.5972 8.32ZM 73.3697 19L 73.3697 17.7C 72.9964 18.1667 72.5164 18.52 71.9297 18.76C 71.343 19 70.6697 19.12 69.9097 19.12C 69.163 19.12 68.503 18.98 67.9297 18.7C 67.3697 18.4067 66.9364 18.0067 66.6297 17.5C 66.323 16.9933 66.1697 16.4267 66.1697 15.8C 66.1697 14.8 66.523 14.02 67.2297 13.46C 67.9364 12.8867 68.9364 12.5933 70.2297 12.58L 73.3497 12.58L 73.3497 12.3C 73.3497 11.6733 73.143 11.1867 72.7297 10.84C 72.3164 10.4933 71.7164 10.32 70.9297 10.32C 69.9164 10.32 68.8564 10.6533 67.7497 11.32L 66.8097 9.52C 67.6497 9.05333 68.4097 8.72 69.0897 8.52C 69.783 8.30667 70.5897 8.2 71.5097 8.2C 72.8964 8.2 73.9697 8.53333 74.7297 9.2C 75.503 9.86667 75.8964 10.8 75.9097 12L 75.9297 19L 73.3697 19ZM 70.5297 17.12C 71.2764 17.12 71.9164 16.9467 72.4497 16.6C 72.983 16.24 73.283 15.8 73.3497 15.28L 73.3497 14.32L 70.6497 14.32C 69.9564 14.32 69.443 14.4267 69.1097 14.64C 68.7897 14.84 68.6297 15.1733 68.6297 15.64C 68.6297 16.0933 68.7964 16.4533 69.1297 16.72C 69.4764 16.9867 69.943 17.12 70.5297 17.12ZM 83.1531 20.34C 82.8198 21.22 82.3398 21.88 81.7131 22.32C 81.0998 22.7733 80.3665 23 79.5131 23C 78.9931 23 78.5198 22.92 78.0931 22.76C 77.6798 22.6133 77.2665 22.3733 76.8531 22.04L 77.9731 20.06C 78.2265 20.2467 78.4598 20.38 78.6731 20.46C 78.8865 20.5533 79.1131 20.6 79.3531 20.6C 80.0598 20.6 80.5798 20.24 80.9131 19.52L 81.2331 18.82L 76.8131 8.3L 79.5131 8.3L 82.5531 16.08L 85.3331 8.3L 87.9531 8.3L 83.1531 20.34ZM 104.094 13.4L 104.094 15.7L 102.074 15.7L 102.074 19L 99.5944 19L 99.5944 15.7L 92.8944 15.7L 92.8944 13.72L 97.4544 5L 100.034 5L 95.7544 13.4L 99.5944 13.4L 99.5944 10.16L 102.074 10.16L 102.074 13.4L 104.094 13.4ZM 111.807 4.88C 113.74 4.88 115.227 5.49333 116.267 6.72C 117.307 7.94667 117.827 9.70667 117.827 12C 117.827 14.28 117.307 16.0333 116.267 17.26C 115.227 18.4867 113.74 19.1 111.807 19.1C 109.873 19.1 108.387 18.4867 107.347 17.26C 106.307 16.0333 105.787 14.28 105.787 12C 105.787 9.70667 106.307 7.94667 107.347 6.72C 108.387 5.49333 109.873 4.88 111.807 4.88ZM 111.807 7C 110.7 7 109.88 7.40667 109.347 8.22C 108.813 9.02 108.547 10.28 108.547 12C 108.547 13.7067 108.813 14.9667 109.347 15.78C 109.88 16.5933 110.7 17 111.807 17C 112.913 17 113.733 16.5933 114.267 15.78C 114.8 14.9667 115.067 13.7067 115.067 12C 115.067 10.28 114.8 9.02 114.267 8.22C 113.733 7.40667 112.913 7 111.807 7ZM 125.928 4.88C 127.861 4.88 129.348 5.49333 130.388 6.72C 131.428 7.94667 131.948 9.70667 131.948 12C 131.948 14.28 131.428 16.0333 130.388 17.26C 129.348 18.4867 127.861 19.1 125.928 19.1C 123.994 19.1 122.508 18.4867 121.468 17.26C 120.428 16.0333 119.908 14.28 119.908 12C 119.908 9.70667 120.428 7.94667 121.468 6.72C 122.508 5.49333 123.994 4.88 125.928 4.88ZM 125.928 7C 124.821 7 124.001 7.40667 123.468 8.22C 122.934 9.02 122.668 10.28 122.668 12C 122.668 13.7067 122.934 14.9667 123.468 15.78C 124.001 16.5933 124.821 17 125.928 17C 127.034 17 127.854 16.5933 128.388 15.78C 128.921 14.9667 129.188 13.7067 129.188 12C 129.188 10.28 128.921 9.02 128.388 8.22C 127.854 7.40667 127.034 7 125.928 7Z"/>
<path id="path4_fill" d="M 2.08 16.88C 2.38667 16.88 2.64 16.9867 2.84 17.2C 3.05333 17.4133 3.16 17.6867 3.16 18.02C 3.16 18.3533 3.05333 18.6333 2.84 18.86C 2.64 19.0733 2.38667 19.18 2.08 19.18C 1.77333 19.18 1.51333 19.0733 1.3 18.86C 1.08667 18.6333 0.98 18.3533 0.98 18.02C 0.98 17.6867 1.08667 17.4133 1.3 17.2C 1.51333 16.9867 1.77333 16.88 2.08 16.88ZM 4.42063 5L 14.9006 5L 14.9006 6.5L 8.80062 19L 6.76062 19L 12.7406 6.74L 6.16063 6.74L 6.14063 8.76L 4.42063 8.76L 4.42063 5ZM 21.8283 10.22C 22.8549 10.22 23.7549 10.4 24.5283 10.76C 25.3149 11.12 25.9149 11.62 26.3283 12.26C 26.7549 12.9 26.9683 13.62 26.9683 14.42C 26.9683 15.3533 26.7483 16.1733 26.3083 16.88C 25.8816 17.5867 25.2683 18.1333 24.4683 18.52C 23.6683 18.9067 22.7416 19.1 21.6883 19.1C 20.8616 19.1 19.9883 18.96 19.0683 18.68C 18.1616 18.3867 17.3483 18 16.6283 17.52L 17.4083 15.98C 18.0083 16.4333 18.6683 16.78 19.3883 17.02C 20.1083 17.26 20.8149 17.38 21.5083 17.38C 22.5616 17.38 23.3949 17.1267 24.0083 16.62C 24.6216 16.1133 24.9283 15.4267 24.9283 14.56C 24.9283 13.7467 24.6216 13.1133 24.0083 12.66C 23.3949 12.1933 22.5216 11.96 21.3883 11.96C 20.9749 11.96 20.3749 11.9867 19.5883 12.04C 18.8016 12.0933 18.1683 12.16 17.6883 12.24L 17.6883 5L 26.3883 5L 26.3883 6.74L 19.4883 6.74L 19.4883 10.3C 20.1149 10.2467 20.8949 10.22 21.8283 10.22ZM 48.5073 8.36C 49.7207 8.36 50.674 8.72667 51.3673 9.46C 52.0607 10.1933 52.4073 11.1933 52.4073 12.46L 52.4073 19L 50.5273 19L 50.5273 12.96C 50.5273 12.0667 50.2807 11.3667 49.7873 10.86C 49.3073 10.3533 48.6407 10.1 47.7873 10.1C 46.7873 10.1267 46.0007 10.48 45.4273 11.16C 44.854 11.84 44.5673 12.7133 44.5673 13.78L 44.5673 19L 42.6873 19L 42.6873 12.96C 42.6873 12.0667 42.4473 11.3667 41.9673 10.86C 41.4873 10.3533 40.814 10.1 39.9473 10.1C 38.9473 10.1267 38.154 10.48 37.5673 11.16C 36.994 11.84 36.7073 12.7133 36.7073 13.78L 36.7073 19L 34.8473 19L 34.8473 8.42L 36.7073 8.42L 36.7073 10.64C 37.4007 9.14667 38.714 8.38667 40.6473 8.36C 41.6207 8.36 42.4273 8.59333 43.0673 9.06C 43.7207 9.52667 44.1607 10.18 44.3873 11.02C 45.0407 9.27333 46.414 8.38667 48.5073 8.36ZM 55.7262 8.42L 57.5863 8.42L 57.5863 19L 55.7262 19L 55.7262 8.42ZM 56.6462 4.2C 56.9796 4.2 57.2529 4.31333 57.4663 4.54C 57.6929 4.76667 57.8062 5.05333 57.8062 5.4C 57.8062 5.74667 57.6929 6.03333 57.4663 6.26C 57.2529 6.48667 56.9796 6.6 56.6462 6.6C 56.3129 6.6 56.0329 6.48667 55.8062 6.26C 55.5929 6.03333 55.4863 5.74667 55.4863 5.4C 55.4863 5.05333 55.5929 4.76667 55.8062 4.54C 56.0329 4.31333 56.3129 4.2 56.6462 4.2Z"/>
<path id="path5_fill" fill-rule="evenodd" d="M 23.5 3C 23.5 1.34314 22.1572 0 20.5 0C 18.8428 0 17.5 1.34314 17.5 3L 17.5 18L 3 18C 1.34277 18 0 19.3431 0 21C 0 22.6569 1.34277 24 3 24L 17.5 24L 17.5 39C 17.5 40.6569 18.8428 42 20.5 42C 22.1572 42 23.5 40.6569 23.5 39L 23.5 24L 38 24C 39.6572 24 41 22.6569 41 21C 41 19.3431 39.6572 18 38 18L 23.5 18L 23.5 3Z"/>
<path id="path6_fill" fill-rule="evenodd" d="M 10 18.9291L 10 18.6412C 12.1475 16.9623 13.7539 14.6232 14.5137 11.9291L 6 11.9291L 6 26.9291C 6 28.586 4.65723 29.9291 3 29.9291C 1.34277 29.9291 0 28.586 0 26.9291L 0 8.92914C 0 7.27228 1.34277 5.92914 3 5.92914L 14.7666 5.92914C 14.3389 3.69727 13.3398 1.66833 11.9277 0L 28 8.92914L 10 18.9291Z"/>
<path id="path7_fill" d="M 1.72 5L 4.78 5L 9.42 14.02L 14.02 5L 17.08 5L 17.08 19L 14.62 19L 14.62 8.96L 10.26 17.56L 8.54 17.56L 4.16 8.96L 4.16 19L 1.72 19L 1.72 5ZM 26.7486 19L 26.7486 17.7C 26.3753 18.1667 25.8953 18.52 25.3086 18.76C 24.7219 19 24.0486 19.12 23.2886 19.12C 22.5419 19.12 21.8819 18.98 21.3086 18.7C 20.7486 18.4067 20.3153 18.0067 20.0086 17.5C 19.7019 16.9933 19.5486 16.4267 19.5486 15.8C 19.5486 14.8 19.9019 14.02 20.6086 13.46C 21.3153 12.8867 22.3153 12.5933 23.6086 12.58L 26.7286 12.58L 26.7286 12.3C 26.7286 11.6733 26.5219 11.1867 26.1086 10.84C 25.6953 10.4933 25.0953 10.32 24.3086 10.32C 23.2953 10.32 22.2353 10.6533 21.1286 11.32L 20.1886 9.52C 21.0286 9.05333 21.7886 8.72 22.4686 8.52C 23.1619 8.30667 23.9686 8.2 24.8886 8.2C 26.2753 8.2 27.3486 8.53333 28.1086 9.2C 28.8819 9.86667 29.2753 10.8 29.2886 12L 29.3086 19L 26.7486 19ZM 23.9086 17.12C 24.6553 17.12 25.2953 16.9467 25.8286 16.6C 26.3619 16.24 26.6619 15.8 26.7286 15.28L 26.7286 14.32L 24.0286 14.32C 23.3353 14.32 22.8219 14.4267 22.4886 14.64C 22.1686 14.84 22.0086 15.1733 22.0086 15.64C 22.0086 16.0933 22.1753 16.4533 22.5086 16.72C 22.8553 16.9867 23.3219 17.12 23.9086 17.12ZM 38.6655 8.2C 39.8921 8.2 40.8588 8.57333 41.5655 9.32C 42.2721 10.0533 42.6255 11.0533 42.6255 12.32L 42.6255 19L 40.0055 19L 40.0055 13.08C 40.0055 12.3333 39.7921 11.7467 39.3655 11.32C 38.9388 10.88 38.3588 10.66 37.6255 10.66C 36.7588 10.6733 36.0721 10.9667 35.5655 11.54C 35.0721 12.1133 34.8255 12.8467 34.8255 13.74L 34.8255 19L 32.2255 19L 32.2255 8.3L 34.8255 8.3L 34.8255 10.3C 35.5588 8.92667 36.8388 8.22667 38.6655 8.2ZM 51.8858 11.2C 51.3658 10.8933 50.8258 10.6533 50.2658 10.48C 49.7191 10.3067 49.2124 10.22 48.7458 10.22C 48.3058 10.22 47.9524 10.3 47.6858 10.46C 47.4324 10.6067 47.3058 10.84 47.3058 11.16C 47.3058 11.4933 47.4658 11.7533 47.7858 11.94C 48.1191 12.1133 48.6391 12.3 49.3458 12.5C 50.0924 12.7267 50.7058 12.9533 51.1858 13.18C 51.6658 13.3933 52.0791 13.72 52.4258 14.16C 52.7858 14.5867 52.9658 15.1533 52.9658 15.86C 52.9658 16.9 52.5658 17.7 51.7658 18.26C 50.9658 18.82 49.9591 19.1 48.7458 19.1C 47.9191 19.1 47.1124 18.9733 46.3258 18.72C 45.5391 18.4533 44.8724 18.08 44.3258 17.6L 45.2258 15.78C 45.7058 16.1933 46.2791 16.52 46.9458 16.76C 47.6124 16.9867 48.2458 17.1 48.8458 17.1C 49.3258 17.1 49.7058 17.02 49.9858 16.86C 50.2791 16.6867 50.4258 16.4333 50.4258 16.1C 50.4258 15.7267 50.2591 15.4467 49.9258 15.26C 49.5924 15.0733 49.0524 14.8667 48.3058 14.64C 47.5858 14.4267 46.9991 14.22 46.5458 14.02C 46.0924 13.8067 45.6991 13.4933 45.3658 13.08C 45.0324 12.6533 44.8658 12.1 44.8658 11.42C 44.8658 10.3667 45.2458 9.56667 46.0058 9.02C 46.7791 8.46 47.7458 8.18 48.9058 8.18C 49.6124 8.18 50.3058 8.28 50.9858 8.48C 51.6791 8.68 52.2924 8.96 52.8258 9.32L 51.8858 11.2ZM 59.6542 8.22C 61.3609 8.22 62.6409 8.70667 63.4942 9.68C 64.3609 10.6533 64.7942 12.02 64.7942 13.78C 64.7942 14.1267 64.7876 14.3867 64.7742 14.56L 56.8742 14.56C 57.0476 15.32 57.4009 15.92 57.9342 16.36C 58.4809 16.7867 59.1476 17 59.9342 17C 60.4809 17 61.0009 16.9 61.4942 16.7C 62.0009 16.4867 62.4409 16.1867 62.8142 15.8L 64.2142 17.26C 63.6809 17.8467 63.0276 18.3 62.2542 18.62C 61.4942 18.94 60.6476 19.1 59.7142 19.1C 58.6209 19.1 57.6542 18.8733 56.8142 18.42C 55.9876 17.9667 55.3476 17.3333 54.8942 16.52C 54.4409 15.6933 54.2142 14.7467 54.2142 13.68C 54.2142 12.6133 54.4409 11.6667 54.8942 10.84C 55.3609 10.0133 56.0076 9.37333 56.8342 8.92C 57.6609 8.45333 58.6009 8.22 59.6542 8.22ZM 62.4142 12.82C 62.3876 12.0333 62.1276 11.4067 61.6342 10.94C 61.1409 10.4733 60.4876 10.24 59.6742 10.24C 58.9142 10.24 58.2742 10.4733 57.7542 10.94C 57.2476 11.3933 56.9342 12.02 56.8142 12.82L 62.4142 12.82ZM 67.1302 4.16L 69.7302 4.16L 69.7302 19L 67.1302 19L 67.1302 4.16ZM 73.1653 4.16L 75.7653 4.16L 75.7653 19L 73.1653 19L 73.1653 4.16ZM 92.8628 19L 90.4428 14.86C 90.3361 14.8733 90.1695 14.88 89.9428 14.88L 86.7828 14.88L 86.7828 19L 84.1028 19L 84.1028 5L 89.9428 5C 91.7561 5 93.1561 5.42 94.1428 6.26C 95.1295 7.1 95.6228 8.28667 95.6228 9.82C 95.6228 10.9133 95.3828 11.8467 94.9028 12.62C 94.4361 13.3933 93.7495 13.9733 92.8428 14.36L 95.9228 19L 92.8628 19ZM 86.7828 12.52L 89.9428 12.52C 90.9561 12.52 91.7295 12.3 92.2628 11.86C 92.7961 11.42 93.0628 10.7667 93.0628 9.9C 93.0628 9.04667 92.7961 8.40667 92.2628 7.98C 91.7295 7.55333 90.9561 7.34 89.9428 7.34L 86.7828 7.34L 86.7828 12.52ZM 108.776 4.16L 108.776 19L 106.176 19L 106.176 17.28C 105.789 17.88 105.289 18.34 104.676 18.66C 104.076 18.9667 103.376 19.12 102.576 19.12C 101.563 19.12 100.669 18.8933 99.8959 18.44C 99.1359 17.9733 98.5426 17.3267 98.1159 16.5C 97.6893 15.66 97.4759 14.7 97.4759 13.62C 97.4759 12.5533 97.6826 11.6133 98.0959 10.8C 98.5226 9.97333 99.1159 9.33333 99.8759 8.88C 100.649 8.42667 101.529 8.2 102.516 8.2C 103.329 8.2 104.043 8.36 104.656 8.68C 105.269 9 105.776 9.46 106.176 10.06L 106.176 4.16L 108.776 4.16ZM 103.136 16.94C 104.029 16.94 104.756 16.64 105.316 16.04C 105.889 15.4267 106.176 14.64 106.176 13.68C 106.176 12.72 105.889 11.94 105.316 11.34C 104.756 10.7267 104.029 10.42 103.136 10.42C 102.243 10.42 101.516 10.7267 100.956 11.34C 100.396 11.94 100.109 12.72 100.096 13.68C 100.109 14.64 100.396 15.4267 100.956 16.04C 101.516 16.64 102.243 16.94 103.136 16.94Z"/>
<path id="path8_fill" d="M 0.12 5L 5.22 5L 5.22 19L 3.3 19L 3.3 6.74L 0.12 6.74L 0.12 5ZM 13.7628 4.92C 15.1761 4.92 16.2895 5.24 17.1028 5.88C 17.9161 6.50667 18.3228 7.37333 18.3228 8.48C 18.3228 9.17333 18.1295 9.78667 17.7428 10.32C 17.3695 10.84 16.8428 11.24 16.1628 11.52C 17.0561 11.8 17.7561 12.2533 18.2628 12.88C 18.7695 13.4933 19.0228 14.2267 19.0228 15.08C 19.0228 16.32 18.5495 17.3 17.6028 18.02C 16.6695 18.74 15.3961 19.1 13.7828 19.1C 12.1695 19.1 10.8895 18.7467 9.94281 18.04C 9.00948 17.32 8.54281 16.3467 8.54281 15.12C 8.54281 14.2533 8.80281 13.5067 9.32281 12.88C 9.84281 12.2533 10.5628 11.8 11.4828 11.52C 10.7628 11.2133 10.2028 10.8 9.80281 10.28C 9.41615 9.74667 9.22281 9.12667 9.22281 8.42C 9.22281 7.34 9.62948 6.48667 10.4428 5.86C 11.2561 5.23333 12.3628 4.92 13.7628 4.92ZM 13.7828 6.32C 12.8628 6.32 12.1428 6.52 11.6228 6.92C 11.1161 7.32 10.8628 7.87333 10.8628 8.58C 10.8628 9.3 11.1161 9.86 11.6228 10.26C 12.1428 10.66 12.8628 10.86 13.7828 10.86C 14.7028 10.86 15.4161 10.66 15.9228 10.26C 16.4295 9.86 16.6828 9.3 16.6828 8.58C 16.6828 7.87333 16.4295 7.32 15.9228 6.92C 15.4161 6.52 14.7028 6.32 13.7828 6.32ZM 13.7628 12.38C 12.6961 12.38 11.8628 12.6067 11.2628 13.06C 10.6628 13.5 10.3628 14.1133 10.3628 14.9C 10.3628 15.74 10.6628 16.3933 11.2628 16.86C 11.8628 17.3267 12.7028 17.56 13.7828 17.56C 14.8495 17.56 15.6828 17.3267 16.2828 16.86C 16.8961 16.3933 17.2028 15.7467 17.2028 14.92C 17.2028 14.1333 16.8961 13.5133 16.2828 13.06C 15.6828 12.6067 14.8428 12.38 13.7628 12.38ZM 40.812 8.36C 42.0254 8.36 42.9787 8.72667 43.672 9.46C 44.3654 10.1933 44.712 11.1933 44.712 12.46L 44.712 19L 42.832 19L 42.832 12.96C 42.832 12.0667 42.5854 11.3667 42.092 10.86C 41.612 10.3533 40.9454 10.1 40.092 10.1C 39.092 10.1267 38.3054 10.48 37.732 11.16C 37.1587 11.84 36.872 12.7133 36.872 13.78L 36.872 19L 34.992 19L 34.992 12.96C 34.992 12.0667 34.752 11.3667 34.272 10.86C 33.792 10.3533 33.1187 10.1 32.252 10.1C 31.252 10.1267 30.4587 10.48 29.872 11.16C 29.2987 11.84 29.012 12.7133 29.012 13.78L 29.012 19L 27.152 19L 27.152 8.42L 29.012 8.42L 29.012 10.64C 29.7054 9.14667 31.0187 8.38667 32.952 8.36C 33.9254 8.36 34.732 8.59333 35.372 9.06C 36.0254 9.52667 36.4654 10.18 36.692 11.02C 37.3454 9.27333 38.7187 8.38667 40.812 8.36ZM 48.0309 8.42L 49.8909 8.42L 49.8909 19L 48.0309 19L 48.0309 8.42ZM 48.9509 4.2C 49.2843 4.2 49.5576 4.31333 49.7709 4.54C 49.9976 4.76667 50.1109 5.05333 50.1109 5.4C 50.1109 5.74667 49.9976 6.03333 49.7709 6.26C 49.5576 6.48667 49.2843 6.6 48.9509 6.6C 48.6176 6.6 48.3376 6.48667 48.1109 6.26C 47.8976 6.03333 47.7909 5.74667 47.7909 5.4C 47.7909 5.05333 47.8976 4.76667 48.1109 4.54C 48.3376 4.31333 48.6176 4.2 48.9509 4.2Z"/>
<path id="path9_fill" fill-rule="evenodd" d="M 14.751 37.077C 17.6553 33.458 28 20.1169 28 13.6411C 28 6.1073 21.7324 0 14 0C 6.26758 0 0 6.1073 0 13.6411C 0 20.1169 10.3447 33.458 13.249 37.077C 13.6406 37.5645 14.3594 37.5645 14.751 37.077ZM 14 20C 17.3135 20 20 17.3137 20 14C 20 10.6863 17.3135 8 14 8C 10.6865 8 8 10.6863 8 14C 8 17.3137 10.6865 20 14 20Z"/>
<path id="path10_fill" d="M 1.72 5L 11.98 5L 11.98 7.34L 4.4 7.34L 4.4 10.8L 11.2 10.8L 11.2 13.14L 4.4 13.14L 4.4 16.66L 12.22 16.66L 12.22 19L 1.72 19L 1.72 5ZM 14.9427 4.16L 17.5427 4.16L 17.5427 19L 14.9427 19L 14.9427 4.16ZM 25.3378 8.22C 27.0445 8.22 28.3245 8.70667 29.1778 9.68C 30.0445 10.6533 30.4778 12.02 30.4778 13.78C 30.4778 14.1267 30.4711 14.3867 30.4578 14.56L 22.5578 14.56C 22.7311 15.32 23.0845 15.92 23.6178 16.36C 24.1645 16.7867 24.8311 17 25.6178 17C 26.1645 17 26.6845 16.9 27.1778 16.7C 27.6845 16.4867 28.1245 16.1867 28.4978 15.8L 29.8978 17.26C 29.3645 17.8467 28.7111 18.3 27.9378 18.62C 27.1778 18.94 26.3311 19.1 25.3978 19.1C 24.3045 19.1 23.3378 18.8733 22.4978 18.42C 21.6711 17.9667 21.0311 17.3333 20.5778 16.52C 20.1245 15.6933 19.8978 14.7467 19.8978 13.68C 19.8978 12.6133 20.1245 11.6667 20.5778 10.84C 21.0445 10.0133 21.6911 9.37333 22.5178 8.92C 23.3445 8.45333 24.2845 8.22 25.3378 8.22ZM 28.0978 12.82C 28.0711 12.0333 27.8111 11.4067 27.3178 10.94C 26.8245 10.4733 26.1711 10.24 25.3578 10.24C 24.5978 10.24 23.9578 10.4733 23.4378 10.94C 22.9311 11.3933 22.6178 12.02 22.4978 12.82L 28.0978 12.82ZM 40.0738 11.68C 39.3537 10.8933 38.4204 10.5 37.2737 10.5C 36.4071 10.5 35.7004 10.7933 35.1537 11.38C 34.6204 11.9667 34.3538 12.7267 34.3538 13.66C 34.3538 14.62 34.6204 15.3933 35.1537 15.98C 35.7004 16.5667 36.4071 16.86 37.2737 16.86C 38.5537 16.86 39.5138 16.44 40.1538 15.6L 41.7737 16.94C 41.2937 17.6333 40.6604 18.1667 39.8738 18.54C 39.0871 18.9133 38.1738 19.1 37.1337 19.1C 36.0804 19.1 35.1404 18.8733 34.3137 18.42C 33.5004 17.9667 32.8671 17.3333 32.4137 16.52C 31.9604 15.6933 31.7338 14.7467 31.7338 13.68C 31.7338 12.6 31.9604 11.6467 32.4137 10.82C 32.8804 9.99333 33.5204 9.35333 34.3338 8.9C 35.1604 8.44667 36.1071 8.22 37.1737 8.22C 38.1471 8.22 39.0137 8.39333 39.7737 8.74C 40.5471 9.07333 41.1738 9.55333 41.6537 10.18L 40.0738 11.68ZM 50.2628 18.34C 49.4095 18.86 48.5161 19.12 47.5828 19.12C 46.6628 19.12 45.9095 18.8533 45.3228 18.32C 44.7361 17.7733 44.4428 16.9733 44.4428 15.92L 44.4428 10.64L 42.9428 10.64L 42.9228 8.74L 44.4428 8.74L 44.4428 5.8L 47.0228 5.8L 47.0228 8.74L 50.0828 8.74L 50.0828 10.64L 47.0228 10.64L 47.0228 15.46C 47.0228 15.9533 47.1161 16.3067 47.3028 16.52C 47.4895 16.72 47.7695 16.82 48.1428 16.82C 48.5428 16.82 49.0495 16.6733 49.6628 16.38L 50.2628 18.34ZM 54.9036 10.36C 55.2636 9.66667 55.7503 9.14 56.3636 8.78C 56.9903 8.40667 57.7169 8.21333 58.5436 8.2L 58.5436 10.72C 57.4369 10.6533 56.5503 10.9133 55.8836 11.5C 55.2303 12.0733 54.9036 12.8533 54.9036 13.84L 54.9036 19L 52.3036 19L 52.3036 8.3L 54.9036 8.3L 54.9036 10.36ZM 60.37 8.3L 62.97 8.3L 62.97 19L 60.37 19L 60.37 8.3ZM 61.65 3.7C 62.0767 3.7 62.43 3.84667 62.71 4.14C 62.99 4.43333 63.13 4.80667 63.13 5.26C 63.13 5.7 62.99 6.06667 62.71 6.36C 62.43 6.65333 62.0767 6.8 61.65 6.8C 61.2233 6.8 60.87 6.65333 60.59 6.36C 60.31 6.06667 60.17 5.7 60.17 5.26C 60.17 4.80667 60.31 4.43333 60.59 4.14C 60.87 3.84667 61.2233 3.7 61.65 3.7ZM 73.5503 11.68C 72.8303 10.8933 71.897 10.5 70.7503 10.5C 69.8836 10.5 69.177 10.7933 68.6303 11.38C 68.097 11.9667 67.8303 12.7267 67.8303 13.66C 67.8303 14.62 68.097 15.3933 68.6303 15.98C 69.177 16.5667 69.8836 16.86 70.7503 16.86C 72.0303 16.86 72.9903 16.44 73.6303 15.6L 75.2503 16.94C 74.7703 17.6333 74.137 18.1667 73.3503 18.54C 72.5636 18.9133 71.6503 19.1 70.6103 19.1C 69.557 19.1 68.617 18.8733 67.7903 18.42C 66.977 17.9667 66.3436 17.3333 65.8903 16.52C 65.437 15.6933 65.2103 14.7467 65.2103 13.68C 65.2103 12.6 65.437 11.6467 65.8903 10.82C 66.357 9.99333 66.997 9.35333 67.8103 8.9C 68.637 8.44667 69.5836 8.22 70.6503 8.22C 71.6236 8.22 72.4903 8.39333 73.2503 8.74C 74.0236 9.07333 74.6503 9.55333 75.1303 10.18L 73.5503 11.68ZM 77.4794 8.3L 80.0794 8.3L 80.0794 19L 77.4794 19L 77.4794 8.3ZM 78.7594 3.7C 79.186 3.7 79.5394 3.84667 79.8194 4.14C 80.0994 4.43333 80.2394 4.80667 80.2394 5.26C 80.2394 5.7 80.0994 6.06667 79.8194 6.36C 79.5394 6.65333 79.186 6.8 78.7594 6.8C 78.3327 6.8 77.9794 6.65333 77.6994 6.36C 77.4194 6.06667 77.2794 5.7 77.2794 5.26C 77.2794 4.80667 77.4194 4.43333 77.6994 4.14C 77.9794 3.84667 78.3327 3.7 78.7594 3.7ZM 89.5597 18.34C 88.7064 18.86 87.813 19.12 86.8797 19.12C 85.9597 19.12 85.2064 18.8533 84.6197 18.32C 84.033 17.7733 83.7397 16.9733 83.7397 15.92L 83.7397 10.64L 82.2397 10.64L 82.2197 8.74L 83.7397 8.74L 83.7397 5.8L 86.3197 5.8L 86.3197 8.74L 89.3797 8.74L 89.3797 10.64L 86.3197 10.64L 86.3197 15.46C 86.3197 15.9533 86.413 16.3067 86.5997 16.52C 86.7864 16.72 87.0664 16.82 87.4397 16.82C 87.8397 16.82 88.3464 16.6733 88.9597 16.38L 89.5597 18.34ZM 96.1805 20.34C 95.8471 21.22 95.3671 21.88 94.7405 22.32C 94.1271 22.7733 93.3938 23 92.5405 23C 92.0205 23 91.5471 22.92 91.1205 22.76C 90.7071 22.6133 90.2938 22.3733 89.8805 22.04L 91.0005 20.06C 91.2538 20.2467 91.4871 20.38 91.7005 20.46C 91.9138 20.5533 92.1405 20.6 92.3805 20.6C 93.0871 20.6 93.6071 20.24 93.9405 19.52L 94.2605 18.82L 89.8405 8.3L 92.5405 8.3L 95.5805 16.08L 98.3605 8.3L 100.98 8.3L 96.1805 20.34ZM 117.622 9.04C 117.128 8.46667 116.542 8.02 115.862 7.7C 115.195 7.38 114.515 7.22 113.822 7.22C 112.955 7.22 112.162 7.42667 111.442 7.84C 110.722 8.25333 110.155 8.82667 109.742 9.56C 109.328 10.28 109.122 11.0733 109.122 11.94C 109.122 12.8067 109.328 13.6067 109.742 14.34C 110.155 15.06 110.722 15.6333 111.442 16.06C 112.162 16.4733 112.955 16.68 113.822 16.68C 114.488 16.68 115.155 16.5333 115.822 16.24C 116.502 15.9467 117.102 15.54 117.622 15.02L 119.202 16.78C 118.468 17.5267 117.615 18.12 116.642 18.56C 115.668 18.9867 114.682 19.2 113.682 19.2C 112.335 19.2 111.102 18.88 109.982 18.24C 108.862 17.6 107.982 16.7333 107.342 15.64C 106.702 14.5333 106.382 13.3133 106.382 11.98C 106.382 10.6467 106.708 9.43333 107.362 8.34C 108.015 7.24667 108.902 6.38667 110.022 5.76C 111.155 5.13333 112.408 4.82 113.782 4.82C 114.782 4.82 115.762 5.02 116.722 5.42C 117.682 5.82 118.502 6.37333 119.182 7.08L 117.622 9.04ZM 127.868 8.2C 129.094 8.2 130.061 8.57333 130.768 9.32C 131.474 10.0533 131.827 11.0533 131.827 12.32L 131.827 19L 129.208 19L 129.208 13.08C 129.208 12.3333 128.994 11.7467 128.568 11.32C 128.141 10.88 127.561 10.66 126.827 10.66C 125.961 10.6733 125.274 10.9667 124.768 11.54C 124.261 12.1133 124.008 12.8467 124.008 13.74L 124.008 19L 121.408 19L 121.408 4.16L 124.008 4.16L 124.008 10.34C 124.741 8.94 126.028 8.22667 127.868 8.2ZM 141.065 19L 141.065 17.7C 140.692 18.1667 140.212 18.52 139.625 18.76C 139.038 19 138.365 19.12 137.605 19.12C 136.858 19.12 136.198 18.98 135.625 18.7C 135.065 18.4067 134.632 18.0067 134.325 17.5C 134.018 16.9933 133.865 16.4267 133.865 15.8C 133.865 14.8 134.218 14.02 134.925 13.46C 135.632 12.8867 136.632 12.5933 137.925 12.58L 141.045 12.58L 141.045 12.3C 141.045 11.6733 140.838 11.1867 140.425 10.84C 140.012 10.4933 139.412 10.32 138.625 10.32C 137.612 10.32 136.552 10.6533 135.445 11.32L 134.505 9.52C 135.345 9.05333 136.105 8.72 136.785 8.52C 137.478 8.30667 138.285 8.2 139.205 8.2C 140.592 8.2 141.665 8.53333 142.425 9.2C 143.198 9.86667 143.592 10.8 143.605 12L 143.625 19L 141.065 19ZM 138.225 17.12C 138.972 17.12 139.612 16.9467 140.145 16.6C 140.678 16.24 140.978 15.8 141.045 15.28L 141.045 14.32L 138.345 14.32C 137.652 14.32 137.138 14.4267 136.805 14.64C 136.485 14.84 136.325 15.1733 136.325 15.64C 136.325 16.0933 136.492 16.4533 136.825 16.72C 137.172 16.9867 137.638 17.12 138.225 17.12ZM 149.142 10.36C 149.502 9.66667 149.989 9.14 150.602 8.78C 151.229 8.40667 151.955 8.21333 152.782 8.2L 152.782 10.72C 151.675 10.6533 150.789 10.9133 150.122 11.5C 149.469 12.0733 149.142 12.8533 149.142 13.84L 149.142 19L 146.542 19L 146.542 8.3L 149.142 8.3L 149.142 10.36ZM 164.388 8.3L 164.388 17.98C 164.388 18.9933 164.155 19.8733 163.688 20.62C 163.235 21.38 162.582 21.96 161.728 22.36C 160.888 22.7733 159.908 22.98 158.788 22.98C 157.162 22.98 155.655 22.5067 154.268 21.56L 155.308 19.68C 156.322 20.4267 157.435 20.8 158.648 20.8C 159.608 20.8 160.368 20.5533 160.928 20.06C 161.502 19.5667 161.788 18.8933 161.788 18.04L 161.788 16.78C 161.428 17.3267 160.962 17.7467 160.388 18.04C 159.815 18.32 159.148 18.46 158.388 18.46C 157.455 18.46 156.628 18.2467 155.908 17.82C 155.188 17.38 154.628 16.7733 154.228 16C 153.828 15.2133 153.628 14.3133 153.628 13.3C 153.628 12.3 153.828 11.42 154.228 10.66C 154.628 9.88667 155.188 9.28667 155.908 8.86C 156.628 8.43333 157.455 8.22 158.388 8.22C 159.135 8.22 159.795 8.36667 160.368 8.66C 160.955 8.95333 161.428 9.36667 161.788 9.9L 161.788 8.3L 164.388 8.3ZM 158.948 16.42C 159.788 16.42 160.468 16.14 160.988 15.58C 161.522 15.0067 161.788 14.2667 161.788 13.36C 161.788 12.4533 161.522 11.72 160.988 11.16C 160.468 10.5867 159.788 10.3 158.948 10.3C 158.108 10.3 157.422 10.5867 156.888 11.16C 156.368 11.7333 156.102 12.4667 156.088 13.36C 156.102 14.2667 156.368 15.0067 156.888 15.58C 157.422 16.14 158.108 16.42 158.948 16.42ZM 171.9 8.22C 173.607 8.22 174.887 8.70667 175.74 9.68C 176.607 10.6533 177.04 12.02 177.04 13.78C 177.04 14.1267 177.034 14.3867 177.02 14.56L 169.12 14.56C 169.294 15.32 169.647 15.92 170.18 16.36C 170.727 16.7867 171.394 17 172.18 17C 172.727 17 173.247 16.9 173.74 16.7C 174.247 16.4867 174.687 16.1867 175.06 15.8L 176.46 17.26C 175.927 17.8467 175.274 18.3 174.5 18.62C 173.74 18.94 172.894 19.1 171.96 19.1C 170.867 19.1 169.9 18.8733 169.06 18.42C 168.234 17.9667 167.594 17.3333 167.14 16.52C 166.687 15.6933 166.46 14.7467 166.46 13.68C 166.46 12.6133 166.687 11.6667 167.14 10.84C 167.607 10.0133 168.254 9.37333 169.08 8.92C 169.907 8.45333 170.847 8.22 171.9 8.22ZM 174.66 12.82C 174.634 12.0333 174.374 11.4067 173.88 10.94C 173.387 10.4733 172.734 10.24 171.92 10.24C 171.16 10.24 170.52 10.4733 170 10.94C 169.494 11.3933 169.18 12.02 169.06 12.82L 174.66 12.82ZM 181.876 10.36C 182.236 9.66667 182.723 9.14 183.336 8.78C 183.963 8.40667 184.69 8.21333 185.516 8.2L 185.516 10.72C 184.41 10.6533 183.523 10.9133 182.856 11.5C 182.203 12.0733 181.876 12.8533 181.876 13.84L 181.876 19L 179.276 19L 179.276 8.3L 181.876 8.3L 181.876 10.36Z"/>
<path id="path11_fill" d="M 6.34 10.22C 7.36667 10.22 8.26667 10.4 9.04 10.76C 9.82667 11.12 10.4267 11.62 10.84 12.26C 11.2667 12.9 11.48 13.62 11.48 14.42C 11.48 15.3533 11.26 16.1733 10.82 16.88C 10.3933 17.5867 9.78 18.1333 8.98 18.52C 8.18 18.9067 7.25333 19.1 6.2 19.1C 5.37333 19.1 4.5 18.96 3.58 18.68C 2.67333 18.3867 1.86 18 1.14 17.52L 1.92 15.98C 2.52 16.4333 3.18 16.78 3.9 17.02C 4.62 17.26 5.32667 17.38 6.02 17.38C 7.07333 17.38 7.90667 17.1267 8.52 16.62C 9.13333 16.1133 9.44 15.4267 9.44 14.56C 9.44 13.7467 9.13333 13.1133 8.52 12.66C 7.90667 12.1933 7.03333 11.96 5.9 11.96C 5.48667 11.96 4.88667 11.9867 4.1 12.04C 3.31333 12.0933 2.68 12.16 2.2 12.24L 2.2 5L 10.9 5L 10.9 6.74L 4 6.74L 4 10.3C 4.62667 10.2467 5.40667 10.22 6.34 10.22ZM 19.5447 4.92C 21.4247 4.92 22.8714 5.53333 23.8847 6.76C 24.898 7.97333 25.4047 9.72 25.4047 12C 25.4047 14.28 24.898 16.0333 23.8847 17.26C 22.8714 18.4867 21.4247 19.1 19.5447 19.1C 17.6514 19.1 16.198 18.4867 15.1847 17.26C 14.1847 16.0333 13.6847 14.28 13.6847 12C 13.6847 9.72 14.1847 7.97333 15.1847 6.76C 16.198 5.53333 17.6514 4.92 19.5447 4.92ZM 19.5447 6.44C 16.958 6.44 15.6647 8.29333 15.6647 12C 15.6647 13.84 15.9914 15.2267 16.6447 16.16C 17.298 17.0933 18.2647 17.56 19.5447 17.56C 20.8247 17.56 21.7914 17.0933 22.4447 16.16C 23.098 15.2267 23.4247 13.84 23.4247 12C 23.4247 8.29333 22.1314 6.44 19.5447 6.44ZM 33.7634 4.92C 35.6434 4.92 37.0901 5.53333 38.1034 6.76C 39.1168 7.97333 39.6234 9.72 39.6234 12C 39.6234 14.28 39.1168 16.0333 38.1034 17.26C 37.0901 18.4867 35.6434 19.1 33.7634 19.1C 31.8701 19.1 30.4168 18.4867 29.4034 17.26C 28.4034 16.0333 27.9034 14.28 27.9034 12C 27.9034 9.72 28.4034 7.97333 29.4034 6.76C 30.4168 5.53333 31.8701 4.92 33.7634 4.92ZM 33.7634 6.44C 31.1768 6.44 29.8834 8.29333 29.8834 12C 29.8834 13.84 30.2101 15.2267 30.8634 16.16C 31.5168 17.0933 32.4834 17.56 33.7634 17.56C 35.0434 17.56 36.0101 17.0933 36.6634 16.16C 37.3168 15.2267 37.6434 13.84 37.6434 12C 37.6434 8.29333 36.3501 6.44 33.7634 6.44ZM 46.4622 5.7C 45.9822 5.7 45.5822 5.84667 45.2622 6.14C 44.9422 6.43333 44.7822 6.85333 44.7822 7.4L 44.7822 8.78L 47.7022 8.78L 47.7022 10.2L 44.7822 10.2L 44.7822 19L 42.9222 19L 42.9222 10.2L 41.5422 10.2L 41.5422 8.78L 42.9222 8.78L 42.9222 7.64C 42.9222 6.86667 43.0822 6.21333 43.4022 5.68C 43.7355 5.13333 44.1689 4.72667 44.7022 4.46C 45.2355 4.18 45.8089 4.04 46.4222 4.04C 47.0089 4.04 47.6222 4.2 48.2622 4.52L 47.8222 6.04C 47.3422 5.81333 46.8889 5.7 46.4622 5.7ZM 55.2148 18.3C 54.4015 18.82 53.5748 19.08 52.7348 19.08C 51.8948 19.08 51.2148 18.8333 50.6948 18.34C 50.1748 17.8333 49.9148 17.0733 49.9148 16.06L 49.9148 10.2L 48.4148 10.2L 48.4148 8.78L 49.9148 8.78L 49.9148 5.94L 51.7948 5.94L 51.7948 8.78L 55.0348 8.78L 55.0348 10.2L 51.7948 10.2L 51.7948 15.72C 51.7948 16.3067 51.9015 16.7267 52.1148 16.98C 52.3282 17.2333 52.6482 17.36 53.0748 17.36C 53.5815 17.36 54.1282 17.1933 54.7148 16.86L 55.2148 18.3Z"/>
<path id="path12_fill" d="M 0.18 5L 10.98 5L 10.98 7L 5.22 19L 2.38 19L 7.96 7.34L 2.58 7.34L 2.56 9.32L 0.18 9.32L 0.18 5ZM 17.7839 4.88C 19.2506 4.88 20.4039 5.21333 21.2439 5.88C 22.0972 6.53333 22.5239 7.42667 22.5239 8.56C 22.5239 9.2 22.3506 9.78 22.0039 10.3C 21.6572 10.82 21.1772 11.2267 20.5639 11.52C 21.3906 11.8267 22.0372 12.2933 22.5039 12.92C 22.9839 13.5467 23.2239 14.2667 23.2239 15.08C 23.2239 15.8933 23.0039 16.6067 22.5639 17.22C 22.1239 17.8333 21.4906 18.3067 20.6639 18.64C 19.8506 18.96 18.8972 19.12 17.8039 19.12C 16.7106 19.12 15.7506 18.96 14.9239 18.64C 14.1106 18.3067 13.4839 17.84 13.0439 17.24C 12.6039 16.64 12.3839 15.9333 12.3839 15.12C 12.3839 14.2933 12.6306 13.5667 13.1239 12.94C 13.6172 12.3 14.2972 11.8267 15.1639 11.52C 14.5106 11.2 13.9972 10.7733 13.6239 10.24C 13.2639 9.70667 13.0839 9.11333 13.0839 8.46C 13.0839 7.36667 13.5039 6.5 14.3439 5.86C 15.1972 5.20667 16.3439 4.88 17.7839 4.88ZM 17.8039 6.8C 17.0306 6.8 16.4239 6.96667 15.9839 7.3C 15.5572 7.63333 15.3439 8.1 15.3439 8.7C 15.3439 9.3 15.5572 9.76667 15.9839 10.1C 16.4239 10.4333 17.0306 10.6 17.8039 10.6C 18.5772 10.6 19.1772 10.4333 19.6039 10.1C 20.0306 9.76667 20.2439 9.3 20.2439 8.7C 20.2439 8.1 20.0306 7.63333 19.6039 7.3C 19.1772 6.96667 18.5772 6.8 17.8039 6.8ZM 17.7839 12.68C 16.8772 12.68 16.1706 12.8667 15.6639 13.24C 15.1572 13.6133 14.9039 14.14 14.9039 14.82C 14.9039 15.5133 15.1572 16.0533 15.6639 16.44C 16.1706 16.8267 16.8839 17.02 17.8039 17.02C 18.7106 17.02 19.4172 16.8333 19.9239 16.46C 20.4439 16.0733 20.7039 15.5333 20.7039 14.84C 20.7039 14.16 20.4439 13.6333 19.9239 13.26C 19.4172 12.8733 18.7039 12.68 17.7839 12.68ZM 28.5406 4.96C 29.714 4.96 30.634 5.33333 31.3006 6.08C 31.9673 6.81333 32.3006 7.83333 32.3006 9.14C 32.3006 10.4467 31.9673 11.48 31.3006 12.24C 30.634 12.9867 29.714 13.36 28.5406 13.36C 27.3806 13.36 26.4673 12.9867 25.8006 12.24C 25.134 11.48 24.8006 10.4467 24.8006 9.14C 24.8006 7.84667 25.134 6.82667 25.8006 6.08C 26.4673 5.33333 27.3806 4.96 28.5406 4.96ZM 28.5406 6.48C 27.9006 6.48 27.4006 6.71333 27.0406 7.18C 26.694 7.64667 26.5206 8.3 26.5206 9.14C 26.5206 9.99333 26.694 10.66 27.0406 11.14C 27.4006 11.6067 27.9006 11.84 28.5406 11.84C 29.194 11.84 29.7006 11.6067 30.0606 11.14C 30.4206 10.66 30.6006 9.99333 30.6006 9.14C 30.6006 8.3 30.4206 7.64667 30.0606 7.18C 29.7006 6.71333 29.194 6.48 28.5406 6.48ZM 37.9006 5L 39.8806 5L 29.6806 19L 27.6806 19L 37.9006 5ZM 39.1606 10.66C 40.334 10.66 41.254 11.0333 41.9206 11.78C 42.5873 12.5133 42.9206 13.5333 42.9206 14.84C 42.9206 16.1467 42.5873 17.18 41.9206 17.94C 41.254 18.6867 40.334 19.06 39.1606 19.06C 38.0006 19.06 37.0873 18.6867 36.4206 17.94C 35.754 17.18 35.4206 16.1467 35.4206 14.84C 35.4206 13.5467 35.754 12.5267 36.4206 11.78C 37.0873 11.0333 38.0006 10.66 39.1606 10.66ZM 39.1606 12.18C 38.5206 12.18 38.0206 12.4133 37.6606 12.88C 37.314 13.3467 37.1406 14 37.1406 14.84C 37.1406 15.6933 37.314 16.36 37.6606 16.84C 38.0206 17.3067 38.5206 17.54 39.1606 17.54C 39.814 17.54 40.3206 17.3067 40.6806 16.84C 41.0406 16.36 41.2206 15.6933 41.2206 14.84C 41.2206 14 41.0406 13.3467 40.6806 12.88C 40.3206 12.4133 39.814 12.18 39.1606 12.18Z"/>
<path id="path13_fill" fill-rule="evenodd" d="M 46.7744 2L 46.7744 5L 46.7744 7L 46.7744 15L 46.7744 17L 46.7744 18C 46.7744 19.1046 45.8789 20 44.7744 20L 2 20C 0.895508 20 0 19.1046 0 18L 0 2C 0 0.895416 0.895508 0 2 0L 44.7744 0C 45.8789 0 46.7744 0.895416 46.7744 2ZM 49.999 13C 49.999 13.4615 49.8428 13.8865 49.5801 14.225C 49.3711 14.4949 49.0938 14.7097 48.7744 14.8441C 48.5361 14.9445 48.2744 15 47.999 15L 47.5801 15L 47.5801 13L 47.5801 9L 47.5801 7L 47.999 7C 48.2744 7 48.5361 7.05548 48.7744 7.15588C 49.0938 7.29025 49.3711 7.5051 49.5801 7.77502C 49.8428 8.11346 49.999 8.53848 49.999 9L 49.999 13ZM 2 18L 2 2L 44.7744 2L 44.7744 18L 2 18ZM 34 4L 4 4L 4 16L 34 16L 34 4Z"/>
<path id="path14_fill" d="M 0 0L 340 0L 340 80L 0 80L 0 0Z"/>
<path id="path15_fill" d="M 115.239 10.04C 114.746 9.46667 114.159 9.02 113.479 8.7C 112.812 8.38 112.132 8.22 111.439 8.22C 110.572 8.22 109.779 8.42667 109.059 8.84C 108.339 9.25333 107.772 9.82667 107.359 10.56C 106.946 11.28 106.739 12.0733 106.739 12.94C 106.739 13.8067 106.946 14.6067 107.359 15.34C 107.772 16.06 108.339 16.6333 109.059 17.06C 109.779 17.4733 110.572 17.68 111.439 17.68C 112.106 17.68 112.772 17.5333 113.439 17.24C 114.119 16.9467 114.719 16.54 115.239 16.02L 116.819 17.78C 116.086 18.5267 115.232 19.12 114.259 19.56C 113.286 19.9867 112.299 20.2 111.299 20.2C 109.952 20.2 108.719 19.88 107.599 19.24C 106.479 18.6 105.599 17.7333 104.959 16.64C 104.319 15.5333 103.999 14.3133 103.999 12.98C 103.999 11.6467 104.326 10.4333 104.979 9.34C 105.632 8.24667 106.519 7.38667 107.639 6.76C 108.772 6.13333 110.026 5.82 111.399 5.82C 112.399 5.82 113.379 6.02 114.339 6.42C 115.299 6.82 116.119 7.37333 116.799 8.08L 115.239 10.04ZM 129.267 20L 128.027 17.04L 121.188 17.04L 119.947 20L 117.167 20L 123.307 6L 126.087 6L 132.148 20L 129.267 20ZM 122.147 14.74L 127.067 14.74L 124.628 8.86L 122.147 14.74ZM 143.609 6L 146.209 6L 146.209 20L 143.669 20L 136.469 10.36L 136.469 20L 133.849 20L 133.849 6L 136.389 6L 143.609 15.66L 143.609 6ZM 159.79 10.04C 159.296 9.46667 158.71 9.02 158.03 8.7C 157.363 8.38 156.683 8.22 155.99 8.22C 155.123 8.22 154.33 8.42667 153.61 8.84C 152.89 9.25333 152.323 9.82667 151.91 10.56C 151.496 11.28 151.29 12.0733 151.29 12.94C 151.29 13.8067 151.496 14.6067 151.91 15.34C 152.323 16.06 152.89 16.6333 153.61 17.06C 154.33 17.4733 155.123 17.68 155.99 17.68C 156.656 17.68 157.323 17.5333 157.99 17.24C 158.67 16.9467 159.27 16.54 159.79 16.02L 161.37 17.78C 160.636 18.5267 159.783 19.12 158.81 19.56C 157.836 19.9867 156.85 20.2 155.85 20.2C 154.503 20.2 153.27 19.88 152.15 19.24C 151.03 18.6 150.15 17.7333 149.51 16.64C 148.87 15.5333 148.55 14.3133 148.55 12.98C 148.55 11.6467 148.876 10.4333 149.53 9.34C 150.183 8.24667 151.07 7.38667 152.19 6.76C 153.323 6.13333 154.576 5.82 155.95 5.82C 156.95 5.82 157.93 6.02 158.89 6.42C 159.85 6.82 160.67 7.37333 161.35 8.08L 159.79 10.04ZM 163.575 6L 173.835 6L 173.835 8.34L 166.255 8.34L 166.255 11.8L 173.055 11.8L 173.055 14.14L 166.255 14.14L 166.255 17.66L 174.075 17.66L 174.075 20L 163.575 20L 163.575 6ZM 176.798 6L 179.478 6L 179.478 17.58L 185.518 17.58L 185.518 20L 176.798 20L 176.798 6ZM 190.961 6L 202.381 6L 202.381 8.38L 198.021 8.38L 198.021 20L 195.321 20L 195.321 8.38L 190.961 8.38L 190.961 6ZM 213.039 20L 210.619 15.86C 210.512 15.8733 210.345 15.88 210.119 15.88L 206.959 15.88L 206.959 20L 204.279 20L 204.279 6L 210.119 6C 211.932 6 213.332 6.42 214.319 7.26C 215.305 8.1 215.799 9.28667 215.799 10.82C 215.799 11.9133 215.559 12.8467 215.079 13.62C 214.612 14.3933 213.925 14.9733 213.019 15.36L 216.099 20L 213.039 20ZM 206.959 13.52L 210.119 13.52C 211.132 13.52 211.905 13.3 212.439 12.86C 212.972 12.42 213.239 11.7667 213.239 10.9C 213.239 10.0467 212.972 9.40667 212.439 8.98C 211.905 8.55333 211.132 8.34 210.119 8.34L 206.959 8.34L 206.959 13.52ZM 218.732 6L 221.412 6L 221.412 20L 218.732 20L 218.732 6ZM 230.585 6C 232.345 6 233.705 6.42 234.665 7.26C 235.638 8.1 236.125 9.28667 236.125 10.82C 236.125 12.42 235.638 13.6667 234.665 14.56C 233.705 15.44 232.345 15.88 230.585 15.88L 227.525 15.88L 227.525 20L 224.845 20L 224.845 6L 230.585 6ZM 230.445 13.52C 231.458 13.52 232.232 13.3 232.765 12.86C 233.312 12.42 233.585 11.7667 233.585 10.9C 233.585 10.0467 233.312 9.40667 232.765 8.98C 232.232 8.55333 231.458 8.34 230.445 8.34L 227.525 8.34L 227.525 13.52L 230.445 13.52Z"/>
<path id="path16_fill" d="M 30.4917 17.66L 30.4917 20L 20.1317 20L 20.1317 18.06L 25.4117 12.62C 25.9184 12.1133 26.3251 11.6133 26.6317 11.12C 26.9384 10.6267 27.0917 10.2 27.0917 9.84C 27.0917 9.33333 26.8917 8.94 26.4917 8.66C 26.0917 8.36667 25.5384 8.22 24.8317 8.22C 24.2184 8.22 23.5651 8.37333 22.8717 8.68C 22.1784 8.98667 21.5251 9.41333 20.9117 9.96L 19.8517 7.9C 20.6784 7.26 21.5451 6.76667 22.4517 6.42C 23.3717 6.06 24.2917 5.88 25.2117 5.88C 26.1317 5.88 26.9451 6.02667 27.6517 6.32C 28.3584 6.61333 28.9051 7.03333 29.2917 7.58C 29.6917 8.11333 29.8917 8.73333 29.8917 9.44C 29.8917 10.12 29.6584 10.84 29.1917 11.6C 28.7251 12.36 28.0717 13.18 27.2317 14.06L 23.6717 17.66L 30.4917 17.66ZM 38.2486 5.88C 40.182 5.88 41.6686 6.49333 42.7086 7.72C 43.7486 8.94667 44.2686 10.7067 44.2686 13C 44.2686 15.28 43.7486 17.0333 42.7086 18.26C 41.6686 19.4867 40.182 20.1 38.2486 20.1C 36.3153 20.1 34.8286 19.4867 33.7886 18.26C 32.7486 17.0333 32.2286 15.28 32.2286 13C 32.2286 10.7067 32.7486 8.94667 33.7886 7.72C 34.8286 6.49333 36.3153 5.88 38.2486 5.88ZM 38.2486 8C 37.142 8 36.322 8.40667 35.7886 9.22C 35.2553 10.02 34.9886 11.28 34.9886 13C 34.9886 14.7067 35.2553 15.9667 35.7886 16.78C 36.322 17.5933 37.142 18 38.2486 18C 39.3553 18 40.1753 17.5933 40.7086 16.78C 41.242 15.9667 41.5086 14.7067 41.5086 13C 41.5086 11.28 41.242 10.02 40.7086 9.22C 40.1753 8.40667 39.3553 8 38.2486 8ZM 47.5297 17.3C 47.9297 17.3 48.2564 17.4333 48.5097 17.7C 48.7764 17.9667 48.9097 18.3067 48.9097 18.72C 48.9097 19.1467 48.7764 19.5 48.5097 19.78C 48.2564 20.0467 47.9297 20.18 47.5297 20.18C 47.143 20.18 46.8164 20.04 46.5497 19.76C 46.2964 19.48 46.1697 19.1333 46.1697 18.72C 46.1697 18.3067 46.2964 17.9667 46.5497 17.7C 46.8164 17.4333 47.143 17.3 47.5297 17.3ZM 56.0619 5.88C 57.5286 5.88 58.6819 6.21333 59.5219 6.88C 60.3752 7.53333 60.8019 8.42667 60.8019 9.56C 60.8019 10.2 60.6286 10.78 60.2819 11.3C 59.9352 11.82 59.4552 12.2267 58.8419 12.52C 59.6686 12.8267 60.3152 13.2933 60.7819 13.92C 61.2619 14.5467 61.5019 15.2667 61.5019 16.08C 61.5019 16.8933 61.2819 17.6067 60.8419 18.22C 60.4019 18.8333 59.7686 19.3067 58.9419 19.64C 58.1286 19.96 57.1752 20.12 56.0819 20.12C 54.9886 20.12 54.0286 19.96 53.2019 19.64C 52.3886 19.3067 51.7619 18.84 51.3219 18.24C 50.8819 17.64 50.6619 16.9333 50.6619 16.12C 50.6619 15.2933 50.9086 14.5667 51.4019 13.94C 51.8952 13.3 52.5752 12.8267 53.4419 12.52C 52.7886 12.2 52.2752 11.7733 51.9019 11.24C 51.5419 10.7067 51.3619 10.1133 51.3619 9.46C 51.3619 8.36667 51.7819 7.5 52.6219 6.86C 53.4752 6.20667 54.6219 5.88 56.0619 5.88ZM 56.0819 7.8C 55.3086 7.8 54.7019 7.96667 54.2619 8.3C 53.8352 8.63333 53.6219 9.1 53.6219 9.7C 53.6219 10.3 53.8352 10.7667 54.2619 11.1C 54.7019 11.4333 55.3086 11.6 56.0819 11.6C 56.8552 11.6 57.4552 11.4333 57.8819 11.1C 58.3086 10.7667 58.5219 10.3 58.5219 9.7C 58.5219 9.1 58.3086 8.63333 57.8819 8.3C 57.4552 7.96667 56.8552 7.8 56.0819 7.8ZM 56.0619 13.68C 55.1552 13.68 54.4486 13.8667 53.9419 14.24C 53.4352 14.6133 53.1819 15.14 53.1819 15.82C 53.1819 16.5133 53.4352 17.0533 53.9419 17.44C 54.4486 17.8267 55.1619 18.02 56.0819 18.02C 56.9886 18.02 57.6952 17.8333 58.2019 17.46C 58.7219 17.0733 58.9819 16.5333 58.9819 15.84C 58.9819 15.16 58.7219 14.6333 58.2019 14.26C 57.6952 13.8733 56.9819 13.68 56.0619 13.68ZM 82.961 9.2C 84.1743 9.2 85.1276 9.57333 85.821 10.32C 86.5143 11.0533 86.861 12.0533 86.861 13.32L 86.861 20L 84.241 20L 84.241 14.08C 84.241 13.32 84.0276 12.7267 83.601 12.3C 83.1876 11.86 82.621 11.64 81.901 11.64C 81.0743 11.6667 80.4143 11.9667 79.921 12.54C 79.441 13.1133 79.201 13.84 79.201 14.72L 79.201 20L 76.581 20L 76.581 14.08C 76.581 13.32 76.3743 12.7267 75.961 12.3C 75.5476 11.86 74.981 11.64 74.261 11.64C 73.421 11.6667 72.7543 11.9667 72.261 12.54C 71.781 13.1133 71.541 13.84 71.541 14.72L 71.541 20L 68.941 20L 68.941 9.3L 71.541 9.3L 71.541 11.28C 72.2476 9.92 73.501 9.22667 75.301 9.2C 76.2343 9.2 77.0143 9.42667 77.641 9.88C 78.281 10.32 78.7276 10.9467 78.981 11.76C 79.661 10.08 80.9876 9.22667 82.961 9.2ZM 89.7613 9.3L 92.3613 9.3L 92.3613 20L 89.7613 20L 89.7613 9.3ZM 91.0413 4.7C 91.4679 4.7 91.8213 4.84667 92.1013 5.14C 92.3813 5.43333 92.5213 5.80667 92.5213 6.26C 92.5213 6.7 92.3813 7.06667 92.1013 7.36C 91.8213 7.65333 91.4679 7.8 91.0413 7.8C 90.6146 7.8 90.2613 7.65333 89.9813 7.36C 89.7013 7.06667 89.5613 6.7 89.5613 6.26C 89.5613 5.80667 89.7013 5.43333 89.9813 5.14C 90.2613 4.84667 90.6146 4.7 91.0413 4.7Z"/>
<path id="path17_fill" d="M 29.7753 11.84C 31.0687 11.96 32.0953 12.3533 32.8553 13.02C 33.6287 13.6867 34.0153 14.56 34.0153 15.64C 34.0153 16.52 33.7887 17.3 33.3353 17.98C 32.882 18.6467 32.2353 19.1733 31.3953 19.56C 30.5553 19.9333 29.5753 20.12 28.4553 20.12C 27.5087 20.12 26.5687 19.98 25.6353 19.7C 24.7153 19.4067 23.9287 19.02 23.2753 18.54L 24.3353 16.46C 24.8953 16.9267 25.5153 17.2867 26.1953 17.54C 26.8753 17.78 27.5687 17.9 28.2753 17.9C 29.2487 17.9 30.0087 17.7 30.5553 17.3C 31.1153 16.9 31.3953 16.36 31.3953 15.68C 31.3953 14.9867 31.122 14.46 30.5753 14.1C 30.0287 13.7267 29.2487 13.54 28.2353 13.54L 26.1153 13.54L 26.1153 11.92L 29.8753 8.28L 23.9753 8.28L 23.9553 6L 33.3153 6L 33.3153 7.66L 29.0353 11.76L 29.7753 11.84ZM 35.0908 6L 45.8908 6L 45.8908 8L 40.1308 20L 37.2908 20L 42.8708 8.34L 37.4908 8.34L 37.4708 10.32L 35.0908 10.32L 35.0908 6ZM 66.9571 9.2C 68.1704 9.2 69.1237 9.57333 69.8171 10.32C 70.5104 11.0533 70.8571 12.0533 70.8571 13.32L 70.8571 20L 68.2371 20L 68.2371 14.08C 68.2371 13.32 68.0237 12.7267 67.5971 12.3C 67.1837 11.86 66.6171 11.64 65.8971 11.64C 65.0704 11.6667 64.4104 11.9667 63.9171 12.54C 63.4371 13.1133 63.1971 13.84 63.1971 14.72L 63.1971 20L 60.5771 20L 60.5771 14.08C 60.5771 13.32 60.3704 12.7267 59.9571 12.3C 59.5437 11.86 58.9771 11.64 58.2571 11.64C 57.4171 11.6667 56.7504 11.9667 56.2571 12.54C 55.7771 13.1133 55.5371 13.84 55.5371 14.72L 55.5371 20L 52.9371 20L 52.9371 9.3L 55.5371 9.3L 55.5371 11.28C 56.2437 9.92 57.4971 9.22667 59.2971 9.2C 60.2304 9.2 61.0104 9.42667 61.6371 9.88C 62.2771 10.32 62.7237 10.9467 62.9771 11.76C 63.6571 10.08 64.9837 9.22667 66.9571 9.2ZM 73.7574 9.3L 76.3574 9.3L 76.3574 20L 73.7574 20L 73.7574 9.3ZM 75.0374 4.7C 75.464 4.7 75.8174 4.84667 76.0974 5.14C 76.3774 5.43333 76.5174 5.80667 76.5174 6.26C 76.5174 6.7 76.3774 7.06667 76.0974 7.36C 75.8174 7.65333 75.464 7.8 75.0374 7.8C 74.6107 7.8 74.2574 7.65333 73.9774 7.36C 73.6974 7.06667 73.5574 6.7 73.5574 6.26C 73.5574 5.80667 73.6974 5.43333 73.9774 5.14C 74.2574 4.84667 74.6107 4.7 75.0374 4.7ZM 86.0177 9.2C 87.2444 9.2 88.211 9.57333 88.9177 10.32C 89.6244 11.0533 89.9777 12.0533 89.9777 13.32L 89.9777 20L 87.3577 20L 87.3577 14.08C 87.3577 13.3333 87.1444 12.7467 86.7177 12.32C 86.291 11.88 85.711 11.66 84.9777 11.66C 84.111 11.6733 83.4244 11.9667 82.9177 12.54C 82.4244 13.1133 82.1777 13.8467 82.1777 14.74L 82.1777 20L 79.5777 20L 79.5777 9.3L 82.1777 9.3L 82.1777 11.3C 82.911 9.92667 84.191 9.22667 86.0177 9.2Z"/>
<path id="path18_fill" d="M 11.716 6L 17.336 6L 17.336 20L 14.656 20L 14.656 8.36L 11.716 8.36L 11.716 6ZM 26.4127 5.88C 28.346 5.88 29.8327 6.49333 30.8727 7.72C 31.9127 8.94667 32.4327 10.7067 32.4327 13C 32.4327 15.28 31.9127 17.0333 30.8727 18.26C 29.8327 19.4867 28.346 20.1 26.4127 20.1C 24.4794 20.1 22.9927 19.4867 21.9527 18.26C 20.9127 17.0333 20.3927 15.28 20.3927 13C 20.3927 10.7067 20.9127 8.94667 21.9527 7.72C 22.9927 6.49333 24.4794 5.88 26.4127 5.88ZM 26.4127 8C 25.306 8 24.486 8.40667 23.9527 9.22C 23.4194 10.02 23.1527 11.28 23.1527 13C 23.1527 14.7067 23.4194 15.9667 23.9527 16.78C 24.486 17.5933 25.306 18 26.4127 18C 27.5193 18 28.3394 17.5933 28.8727 16.78C 29.406 15.9667 29.6727 14.7067 29.6727 13C 29.6727 11.28 29.406 10.02 28.8727 9.22C 28.3394 8.40667 27.5193 8 26.4127 8ZM 35.6938 11.36C 36.0938 11.36 36.4204 11.4933 36.6738 11.76C 36.9404 12.0267 37.0738 12.3667 37.0738 12.78C 37.0738 13.2067 36.9404 13.56 36.6738 13.84C 36.4204 14.1067 36.0938 14.24 35.6938 14.24C 35.3071 14.24 34.9804 14.1 34.7138 13.82C 34.4604 13.54 34.3338 13.1933 34.3338 12.78C 34.3338 12.3667 34.4604 12.0267 34.7138 11.76C 34.9804 11.4933 35.3071 11.36 35.6938 11.36ZM 35.6938 17.3C 36.0938 17.3 36.4204 17.4333 36.6738 17.7C 36.9404 17.9667 37.0738 18.3067 37.0738 18.72C 37.0738 19.1467 36.9404 19.5 36.6738 19.78C 36.4204 20.0467 36.0938 20.18 35.6938 20.18C 35.3071 20.18 34.9804 20.04 34.7138 19.76C 34.4604 19.48 34.3338 19.1333 34.3338 18.72C 34.3338 18.3067 34.4604 17.9667 34.7138 17.7C 34.9804 17.4333 35.3071 17.3 35.6938 17.3ZM 44.266 11.12C 45.3193 11.12 46.246 11.3 47.046 11.66C 47.846 12.02 48.4593 12.5267 48.886 13.18C 49.326 13.82 49.546 14.5467 49.546 15.36C 49.546 16.3067 49.3193 17.14 48.866 17.86C 48.4126 18.58 47.7726 19.14 46.946 19.54C 46.1193 19.9267 45.1593 20.12 44.066 20.12C 43.186 20.12 42.266 19.9733 41.306 19.68C 40.3593 19.3733 39.5193 18.9667 38.786 18.46L 39.846 16.36C 40.446 16.8267 41.086 17.1933 41.766 17.46C 42.446 17.7133 43.126 17.84 43.806 17.84C 44.686 17.84 45.3793 17.64 45.886 17.24C 46.406 16.8267 46.666 16.2667 46.666 15.56C 46.666 14.88 46.4126 14.3533 45.906 13.98C 45.3993 13.6067 44.646 13.42 43.646 13.42C 43.166 13.42 42.5326 13.44 41.746 13.48C 40.9593 13.5067 40.3526 13.54 39.926 13.58L 39.926 6L 48.926 6L 48.926 8.34L 42.406 8.34L 42.406 11.12L 44.266 11.12ZM 56.6283 5.88C 58.095 5.88 59.2483 6.21333 60.0883 6.88C 60.9416 7.53333 61.3683 8.42667 61.3683 9.56C 61.3683 10.2 61.195 10.78 60.8483 11.3C 60.5016 11.82 60.0216 12.2267 59.4083 12.52C 60.235 12.8267 60.8816 13.2933 61.3483 13.92C 61.8283 14.5467 62.0683 15.2667 62.0683 16.08C 62.0683 16.8933 61.8483 17.6067 61.4083 18.22C 60.9683 18.8333 60.335 19.3067 59.5083 19.64C 58.695 19.96 57.7416 20.12 56.6483 20.12C 55.555 20.12 54.595 19.96 53.7683 19.64C 52.955 19.3067 52.3283 18.84 51.8883 18.24C 51.4483 17.64 51.2283 16.9333 51.2283 16.12C 51.2283 15.2933 51.475 14.5667 51.9683 13.94C 52.4616 13.3 53.1416 12.8267 54.0083 12.52C 53.355 12.2 52.8416 11.7733 52.4683 11.24C 52.1083 10.7067 51.9283 10.1133 51.9283 9.46C 51.9283 8.36667 52.3483 7.5 53.1883 6.86C 54.0416 6.20667 55.1883 5.88 56.6283 5.88ZM 56.6483 7.8C 55.875 7.8 55.2683 7.96667 54.8283 8.3C 54.4016 8.63333 54.1883 9.1 54.1883 9.7C 54.1883 10.3 54.4016 10.7667 54.8283 11.1C 55.2683 11.4333 55.875 11.6 56.6483 11.6C 57.4216 11.6 58.0216 11.4333 58.4483 11.1C 58.875 10.7667 59.0883 10.3 59.0883 9.7C 59.0883 9.1 58.875 8.63333 58.4483 8.3C 58.0216 7.96667 57.4216 7.8 56.6483 7.8ZM 56.6283 13.68C 55.7216 13.68 55.015 13.8667 54.5083 14.24C 54.0016 14.6133 53.7483 15.14 53.7483 15.82C 53.7483 16.5133 54.0016 17.0533 54.5083 17.44C 55.015 17.8267 55.7283 18.02 56.6483 18.02C 57.555 18.02 58.2616 17.8333 58.7683 17.46C 59.2883 17.0733 59.5483 16.5333 59.5483 15.84C 59.5483 15.16 59.2883 14.6333 58.7683 14.26C 58.2616 13.8733 57.5483 13.68 56.6283 13.68ZM 79.9674 20L 78.7274 17.04L 71.8874 17.04L 70.6474 20L 67.8674 20L 74.0074 6L 76.7874 6L 82.8474 20L 79.9674 20ZM 72.8474 14.74L 77.7674 14.74L 75.3274 8.86L 72.8474 14.74ZM 84.5488 6L 87.6088 6L 92.2488 15.02L 96.8488 6L 99.9088 6L 99.9088 20L 97.4488 20L 97.4488 9.96L 93.0888 18.56L 91.3688 18.56L 86.9888 9.96L 86.9888 20L 84.5488 20L 84.5488 6Z"/>
<path id="path19_stroke" d="M -3 39C -3 40.6569 -1.65685 42 0 42C 1.65685 42 3 40.6569 3 39L -3 39ZM 3 0C 3 -1.65685 1.65685 -3 0 -3C -1.65685 -3 -3 -1.65685 -3 0L 3 0ZM 3 39L 3 0L -3 0L -3 39L 3 39Z"/>
<path id="path20_fill" fill-rule="evenodd" d="M 13.3486 12.5399C 13.9521 15.0893 15.3057 17.3484 17.1641 19.0712L 0 9.53558L 17.1641 0C 15.3037 1.72437 13.9492 3.98615 13.3467 6.53857C 24.2324 6.72382 33 15.6058 33 26.5356L 33 43.5356C 33 45.1925 31.6572 46.5356 30 46.5356C 28.3428 46.5356 27 45.1925 27 43.5356L 27 26.5356C 27 18.9202 20.9199 12.725 13.3486 12.5399Z"/>
<path id="path21_fill" d="M 1.72 5L 11.98 5L 11.98 7.34L 4.4 7.34L 4.4 10.8L 11.2 10.8L 11.2 13.14L 4.4 13.14L 4.4 16.66L 12.22 16.66L 12.22 19L 1.72 19L 1.72 5ZM 13.7027 8.3L 16.7027 8.3L 18.9227 11.78L 21.2027 8.3L 24.0627 8.3L 20.6627 13.52L 24.3027 19L 21.3027 19L 18.9227 15.26L 16.3427 19L 13.4427 19L 17.1827 13.52L 13.7027 8.3ZM 26.2098 8.3L 28.8098 8.3L 28.8098 19L 26.2098 19L 26.2098 8.3ZM 27.4898 3.7C 27.9165 3.7 28.2698 3.84667 28.5498 4.14C 28.8298 4.43333 28.9698 4.80667 28.9698 5.26C 28.9698 5.7 28.8298 6.06667 28.5498 6.36C 28.2698 6.65333 27.9165 6.8 27.4898 6.8C 27.0632 6.8 26.7098 6.65333 26.4298 6.36C 26.1498 6.06667 26.0098 5.7 26.0098 5.26C 26.0098 4.80667 26.1498 4.43333 26.4298 4.14C 26.7098 3.84667 27.0632 3.7 27.4898 3.7ZM 38.2902 18.34C 37.4368 18.86 36.5435 19.12 35.6102 19.12C 34.6902 19.12 33.9368 18.8533 33.3502 18.32C 32.7635 17.7733 32.4702 16.9733 32.4702 15.92L 32.4702 10.64L 30.9702 10.64L 30.9502 8.74L 32.4702 8.74L 32.4702 5.8L 35.0502 5.8L 35.0502 8.74L 38.1102 8.74L 38.1102 10.64L 35.0502 10.64L 35.0502 15.46C 35.0502 15.9533 35.1435 16.3067 35.3302 16.52C 35.5168 16.72 35.7968 16.82 36.1702 16.82C 36.5702 16.82 37.0768 16.6733 37.6902 16.38L 38.2902 18.34ZM 49.8933 4.88C 51.3599 4.88 52.5133 5.21333 53.3533 5.88C 54.2066 6.53333 54.6333 7.42667 54.6333 8.56C 54.6333 9.2 54.4599 9.78 54.1133 10.3C 53.7666 10.82 53.2866 11.2267 52.6733 11.52C 53.4999 11.8267 54.1466 12.2933 54.6133 12.92C 55.0933 13.5467 55.3333 14.2667 55.3333 15.08C 55.3333 15.8933 55.1133 16.6067 54.6733 17.22C 54.2333 17.8333 53.5999 18.3067 52.7733 18.64C 51.9599 18.96 51.0066 19.12 49.9133 19.12C 48.8199 19.12 47.8599 18.96 47.0333 18.64C 46.2199 18.3067 45.5933 17.84 45.1533 17.24C 44.7133 16.64 44.4933 15.9333 44.4933 15.12C 44.4933 14.2933 44.7399 13.5667 45.2333 12.94C 45.7266 12.3 46.4066 11.8267 47.2733 11.52C 46.6199 11.2 46.1066 10.7733 45.7333 10.24C 45.3733 9.70667 45.1933 9.11333 45.1933 8.46C 45.1933 7.36667 45.6133 6.5 46.4533 5.86C 47.3066 5.20667 48.4533 4.88 49.8933 4.88ZM 49.9133 6.8C 49.1399 6.8 48.5333 6.96667 48.0933 7.3C 47.6666 7.63333 47.4533 8.1 47.4533 8.7C 47.4533 9.3 47.6666 9.76667 48.0933 10.1C 48.5333 10.4333 49.1399 10.6 49.9133 10.6C 50.6866 10.6 51.2866 10.4333 51.7133 10.1C 52.1399 9.76667 52.3533 9.3 52.3533 8.7C 52.3533 8.1 52.1399 7.63333 51.7133 7.3C 51.2866 6.96667 50.6866 6.8 49.9133 6.8ZM 49.8933 12.68C 48.9866 12.68 48.2799 12.8667 47.7733 13.24C 47.2666 13.6133 47.0133 14.14 47.0133 14.82C 47.0133 15.5133 47.2666 16.0533 47.7733 16.44C 48.2799 16.8267 48.9933 17.02 49.9133 17.02C 50.8199 17.02 51.5266 16.8333 52.0333 16.46C 52.5533 16.0733 52.8133 15.5333 52.8133 14.84C 52.8133 14.16 52.5533 13.6333 52.0333 13.26C 51.5266 12.8733 50.8133 12.68 49.8933 12.68ZM 56.43 5L 67.23 5L 67.23 7L 61.47 19L 58.63 19L 64.21 7.34L 58.83 7.34L 58.81 9.32L 56.43 9.32L 56.43 5Z"/>
<path id="path22_fill" d="M 0.12 5L 5.22 5L 5.22 19L 3.3 19L 3.3 6.74L 0.12 6.74L 0.12 5ZM 9.46281 16.88C 9.76948 16.88 10.0228 16.9867 10.2228 17.2C 10.4361 17.4133 10.5428 17.6867 10.5428 18.02C 10.5428 18.3533 10.4361 18.6333 10.2228 18.86C 10.0228 19.0733 9.76948 19.18 9.46281 19.18C 9.15615 19.18 8.89615 19.0733 8.68281 18.86C 8.46948 18.6333 8.36281 18.3533 8.36281 18.02C 8.36281 17.6867 8.46948 17.4133 8.68281 17.2C 8.89615 16.9867 9.15615 16.88 9.46281 16.88ZM 17.8634 10.22C 18.8901 10.22 19.7901 10.4 20.5634 10.76C 21.3501 11.12 21.9501 11.62 22.3634 12.26C 22.7901 12.9 23.0034 13.62 23.0034 14.42C 23.0034 15.3533 22.7834 16.1733 22.3434 16.88C 21.9168 17.5867 21.3034 18.1333 20.5034 18.52C 19.7034 18.9067 18.7768 19.1 17.7234 19.1C 16.8968 19.1 16.0234 18.96 15.1034 18.68C 14.1968 18.3867 13.3834 18 12.6634 17.52L 13.4434 15.98C 14.0434 16.4333 14.7034 16.78 15.4234 17.02C 16.1434 17.26 16.8501 17.38 17.5434 17.38C 18.5968 17.38 19.4301 17.1267 20.0434 16.62C 20.6568 16.1133 20.9634 15.4267 20.9634 14.56C 20.9634 13.7467 20.6568 13.1133 20.0434 12.66C 19.4301 12.1933 18.5568 11.96 17.4234 11.96C 17.0101 11.96 16.4101 11.9867 15.6234 12.04C 14.8368 12.0933 14.2034 12.16 13.7234 12.24L 13.7234 5L 22.4234 5L 22.4234 6.74L 15.5234 6.74L 15.5234 10.3C 16.1501 10.2467 16.9301 10.22 17.8634 10.22ZM 44.5425 8.36C 45.7558 8.36 46.7092 8.72667 47.4025 9.46C 48.0958 10.1933 48.4425 11.1933 48.4425 12.46L 48.4425 19L 46.5625 19L 46.5625 12.96C 46.5625 12.0667 46.3158 11.3667 45.8225 10.86C 45.3425 10.3533 44.6758 10.1 43.8225 10.1C 42.8225 10.1267 42.0358 10.48 41.4625 11.16C 40.8892 11.84 40.6025 12.7133 40.6025 13.78L 40.6025 19L 38.7225 19L 38.7225 12.96C 38.7225 12.0667 38.4825 11.3667 38.0025 10.86C 37.5225 10.3533 36.8492 10.1 35.9825 10.1C 34.9825 10.1267 34.1892 10.48 33.6025 11.16C 33.0292 11.84 32.7425 12.7133 32.7425 13.78L 32.7425 19L 30.8825 19L 30.8825 8.42L 32.7425 8.42L 32.7425 10.64C 33.4358 9.14667 34.7492 8.38667 36.6825 8.36C 37.6558 8.36 38.4625 8.59333 39.1025 9.06C 39.7558 9.52667 40.1958 10.18 40.4225 11.02C 41.0758 9.27333 42.4492 8.38667 44.5425 8.36ZM 51.7614 8.42L 53.6214 8.42L 53.6214 19L 51.7614 19L 51.7614 8.42ZM 52.6814 4.2C 53.0147 4.2 53.2881 4.31333 53.5014 4.54C 53.7281 4.76667 53.8414 5.05333 53.8414 5.4C 53.8414 5.74667 53.7281 6.03333 53.5014 6.26C 53.2881 6.48667 53.0147 6.6 52.6814 6.6C 52.3481 6.6 52.0681 6.48667 51.8414 6.26C 51.6281 6.03333 51.5214 5.74667 51.5214 5.4C 51.5214 5.05333 51.6281 4.76667 51.8414 4.54C 52.0681 4.31333 52.3481 4.2 52.6814 4.2Z"/>
<path id="path23_fill" fill-rule="evenodd" d="M 14.6826 0.498961L 7 7.22369L 2 7.22363C 0.895508 7.22363 0 8.11908 0 9.22363L 0 16.7776C 0 17.8822 0.895508 18.7776 2 18.7776L 7 18.7777L 14.6826 25.5024C 15.9756 26.6343 18 25.716 18 23.9975L 18 2.0039C 18 0.285399 15.9756 -0.632875 14.6826 0.498961Z"/>
<path id="path24_stroke_2x" d="M 7 7.22369L 6.99998 9.22369L 7.75167 9.2237L 8.31728 8.72861L 7 7.22369ZM 14.6826 0.498959L 15.9999 2.00388L 15.9999 2.00383L 14.6826 0.498959ZM 2 7.22363L 2.00002 5.22363L 2 5.22363L 2 7.22363ZM 2 18.7776L 2.00002 16.7776L 2 16.7776L 2 18.7776ZM 7 18.7777L 8.31728 17.2728L 7.75169 16.7777L 7.00002 16.7777L 7 18.7777ZM 14.6826 25.5024L 15.9999 23.9976L 15.9999 23.9975L 14.6826 25.5024ZM 8.31728 8.72861L 15.9999 2.00388L 13.3653 -1.00596L 5.68272 5.71877L 8.31728 8.72861ZM 1.99998 9.22363L 6.99998 9.22369L 7.00002 5.22369L 2.00002 5.22363L 1.99998 9.22363ZM 2 9.22363L 2 5.22363C -0.209022 5.22363 -2 7.01447 -2 9.22363L 2 9.22363ZM 2 16.7776L 2 9.22363L -2 9.22363L -2 16.7776L 2 16.7776ZM 2 16.7776L -2 16.7776C -2 18.9868 -0.209022 20.7776 2 20.7776L 2 16.7776ZM 7.00002 16.7777L 2.00002 16.7776L 1.99998 20.7776L 6.99998 20.7777L 7.00002 16.7777ZM 15.9999 23.9975L 8.31728 17.2728L 5.68272 20.2826L 13.3653 27.0074L 15.9999 23.9975ZM 16 23.9975L 15.9999 23.9976L 13.3653 27.0073C 15.9513 29.2711 20 27.4345 20 23.9975L 16 23.9975ZM 16 2.0039L 16 23.9975L 20 23.9975L 20 2.0039L 16 2.0039ZM 15.9999 2.00383L 16 2.0039L 20 2.0039C 20 -1.43315 15.9513 -3.26966 13.3653 -1.00591L 15.9999 2.00383Z"/>
</defs>
</svg>
